G04*
G04 #@! TF.GenerationSoftware,Altium Limited,Altium Designer,23.9.2 (47)*
G04*
G04 Layer_Color=32896*
%FSLAX44Y44*%
%MOMM*%
G71*
G04*
G04 #@! TF.SameCoordinates,DC7A7723-1311-43B5-9009-1713E082842B*
G04*
G04*
G04 #@! TF.FilePolarity,Positive*
G04*
G01*
G75*
%ADD10C,0.2500*%
%ADD11C,0.2000*%
%ADD13C,0.1000*%
D10*
X142250Y242500D02*
G03*
X142250Y242500I-1250J0D01*
G01*
X173750Y715000D02*
G03*
X173750Y715000I-1250J0D01*
G01*
X183750Y465000D02*
G03*
X183750Y465000I-1250J0D01*
G01*
X148750Y475000D02*
G03*
X148750Y475000I-1250J0D01*
G01*
X608750Y96000D02*
G03*
X608750Y96000I-1250J0D01*
G01*
D11*
X110000Y248500D02*
Y311500D01*
Y248500D02*
X160000D01*
Y311500D01*
X110000D02*
X160000D01*
X178500Y746000D02*
X241500D01*
X178500Y696000D02*
Y746000D01*
Y696000D02*
X241500D01*
Y746000D01*
X188500Y496000D02*
X251500D01*
X188500Y446000D02*
Y496000D01*
Y446000D02*
X251500D01*
Y496000D01*
X78500Y444000D02*
X141500D01*
Y494000D01*
X78500D02*
X141500D01*
X78500Y444000D02*
Y494000D01*
X538500Y65000D02*
Y115000D01*
X601500D01*
Y65000D02*
Y115000D01*
X538500Y65000D02*
X601500D01*
D13*
X78010Y430335D02*
X75345D01*
X76677D01*
Y436999D01*
X75345Y438332D01*
X74012D01*
X72679Y436999D01*
X84675Y438332D02*
Y430335D01*
X80676Y434333D01*
X86008D01*
X88674Y439665D02*
X94005D01*
X96671Y438332D02*
Y430335D01*
X100670D01*
X102003Y431668D01*
Y434333D01*
X100670Y435666D01*
X96671D01*
X99337D02*
X102003Y438332D01*
X104668Y439665D02*
X110000D01*
X112666Y438332D02*
Y430335D01*
X115332Y433001D01*
X117997Y430335D01*
Y438332D01*
X121996D02*
X124662D01*
X125995Y436999D01*
Y434333D01*
X124662Y433001D01*
X121996D01*
X120663Y434333D01*
Y436999D01*
X121996Y438332D01*
X129994Y431668D02*
Y433001D01*
X128661D01*
X131327D01*
X129994D01*
Y436999D01*
X131327Y438332D01*
X136658D02*
X139324D01*
X140657Y436999D01*
Y434333D01*
X139324Y433001D01*
X136658D01*
X135325Y434333D01*
Y436999D01*
X136658Y438332D01*
X143323Y433001D02*
Y438332D01*
Y435666D01*
X144656Y434333D01*
X145988Y433001D01*
X147321D01*
X193010Y430335D02*
X190345D01*
X191677D01*
Y436999D01*
X190345Y438332D01*
X189012D01*
X187679Y436999D01*
X199675Y438332D02*
Y430335D01*
X195676Y434333D01*
X201008D01*
X203674Y439665D02*
X209005D01*
X211671Y430335D02*
Y438332D01*
X217003D01*
X219668Y439665D02*
X225000D01*
X227666Y438332D02*
Y430335D01*
X230332Y433001D01*
X232997Y430335D01*
Y438332D01*
X236996D02*
X239662D01*
X240995Y436999D01*
Y434333D01*
X239662Y433001D01*
X236996D01*
X235663Y434333D01*
Y436999D01*
X236996Y438332D01*
X244994Y431668D02*
Y433001D01*
X243661D01*
X246327D01*
X244994D01*
Y436999D01*
X246327Y438332D01*
X251658D02*
X254324D01*
X255657Y436999D01*
Y434333D01*
X254324Y433001D01*
X251658D01*
X250325Y434333D01*
Y436999D01*
X251658Y438332D01*
X258323Y433001D02*
Y438332D01*
Y435667D01*
X259655Y434333D01*
X260988Y433001D01*
X262321D01*
X187483Y320833D02*
X184151D01*
X182484Y322499D02*
X181651Y323332D01*
X179985D01*
X179152Y322499D01*
Y321666D01*
X179985Y320833D01*
X180818D01*
X179985D01*
X179152Y320000D01*
Y319167D01*
X179985Y318334D01*
X181651D01*
X182484Y319167D01*
X177486Y318334D02*
Y319167D01*
X176653D01*
Y318334D01*
X177486D01*
X173321Y323332D02*
X169988D01*
Y322499D01*
X173321Y319167D01*
Y318334D01*
X168322Y317501D02*
X164990D01*
X159992Y322499D02*
X160825Y323332D01*
X162491D01*
X163324Y322499D01*
Y319167D01*
X162491Y318334D01*
X160825D01*
X159992Y319167D01*
X157493Y318334D02*
X155827D01*
X154993Y319167D01*
Y320833D01*
X155827Y321666D01*
X157493D01*
X158326Y320833D01*
Y319167D01*
X157493Y318334D01*
X153327D02*
Y321666D01*
X150828D01*
X149995Y320833D01*
Y318334D01*
X148329D02*
Y321666D01*
X145830D01*
X144997Y320833D01*
Y318334D01*
X140831D02*
X142498D01*
X143331Y319167D01*
Y320833D01*
X142498Y321666D01*
X140831D01*
X139998Y320833D01*
Y320000D01*
X143331D01*
X135000Y321666D02*
X137499D01*
X138332Y320833D01*
Y319167D01*
X137499Y318334D01*
X135000D01*
X132501Y322499D02*
Y321666D01*
X133334D01*
X131668D01*
X132501D01*
Y319167D01*
X131668Y318334D01*
X128336D02*
X126669D01*
X125836Y319167D01*
Y320833D01*
X126669Y321666D01*
X128336D01*
X129169Y320833D01*
Y319167D01*
X128336Y318334D01*
X124170Y321666D02*
Y318334D01*
Y320000D01*
X123337Y320833D01*
X122504Y321666D01*
X121671D01*
X119172Y317501D02*
X115840D01*
X114173Y323332D02*
Y318334D01*
X111674D01*
X110841Y319167D01*
Y320000D01*
X111674Y320833D01*
X114173D01*
X111674D01*
X110841Y321666D01*
Y322499D01*
X111674Y323332D01*
X114173D01*
X108342Y321666D02*
X106676D01*
X105843Y320833D01*
Y318334D01*
X108342D01*
X109175Y319167D01*
X108342Y320000D01*
X105843D01*
X103344Y322499D02*
Y321666D01*
X104177D01*
X102511D01*
X103344D01*
Y319167D01*
X102511Y318334D01*
X99178Y322499D02*
Y321666D01*
X100011D01*
X98345D01*
X99178D01*
Y319167D01*
X98345Y318334D01*
X93347D02*
X95013D01*
X95846Y319167D01*
Y320833D01*
X95013Y321666D01*
X93347D01*
X92514Y320833D01*
Y320000D01*
X95846D01*
X90848Y321666D02*
Y318334D01*
Y320000D01*
X90015Y320833D01*
X89182Y321666D01*
X88349D01*
X85849D02*
Y319167D01*
X85016Y318334D01*
X82517D01*
Y317501D01*
X83350Y316668D01*
X84183D01*
X82517Y318334D02*
Y321666D01*
X652980Y56000D02*
X648981D01*
X650980Y57999D02*
Y54000D01*
X646982Y58999D02*
X642983D01*
Y57999D01*
X646982Y54000D01*
Y53001D01*
X640983D02*
Y54000D01*
X639984D01*
Y53001D01*
X640983D01*
X632986D02*
Y58999D01*
X635985Y56000D01*
X631986D01*
X629987Y52001D02*
X625988D01*
X619990Y57999D02*
X620990Y58999D01*
X622989D01*
X623989Y57999D01*
Y54000D01*
X622989Y53001D01*
X620990D01*
X619990Y54000D01*
X616991Y53001D02*
X614992D01*
X613992Y54000D01*
Y56000D01*
X614992Y56999D01*
X616991D01*
X617991Y56000D01*
Y54000D01*
X616991Y53001D01*
X611993D02*
Y56999D01*
X608994D01*
X607994Y56000D01*
Y53001D01*
X605995D02*
Y56999D01*
X602996D01*
X601996Y56000D01*
Y53001D01*
X596998D02*
X598997D01*
X599997Y54000D01*
Y56000D01*
X598997Y56999D01*
X596998D01*
X595998Y56000D01*
Y55000D01*
X599997D01*
X590000Y56999D02*
X592999D01*
X593999Y56000D01*
Y54000D01*
X592999Y53001D01*
X590000D01*
X587001Y57999D02*
Y56999D01*
X588001D01*
X586001D01*
X587001D01*
Y54000D01*
X586001Y53001D01*
X582003D02*
X580003D01*
X579003Y54000D01*
Y56000D01*
X580003Y56999D01*
X582003D01*
X583002Y56000D01*
Y54000D01*
X582003Y53001D01*
X577004Y56999D02*
Y53001D01*
Y55000D01*
X576004Y56000D01*
X575005Y56999D01*
X574005D01*
X571006Y52001D02*
X567007D01*
X565008Y58999D02*
Y53001D01*
X562009D01*
X561009Y54000D01*
Y55000D01*
X562009Y56000D01*
X565008D01*
X562009D01*
X561009Y56999D01*
Y57999D01*
X562009Y58999D01*
X565008D01*
X558010Y56999D02*
X556011D01*
X555011Y56000D01*
Y53001D01*
X558010D01*
X559010Y54000D01*
X558010Y55000D01*
X555011D01*
X552012Y57999D02*
Y56999D01*
X553012D01*
X551013D01*
X552012D01*
Y54000D01*
X551013Y53001D01*
X547014Y57999D02*
Y56999D01*
X548014D01*
X546014D01*
X547014D01*
Y54000D01*
X546014Y53001D01*
X540016D02*
X542016D01*
X543015Y54000D01*
Y56000D01*
X542016Y56999D01*
X540016D01*
X539016Y56000D01*
Y55000D01*
X543015D01*
X537017Y56999D02*
Y53001D01*
Y55000D01*
X536017Y56000D01*
X535018Y56999D01*
X534018D01*
X531019D02*
Y54000D01*
X530019Y53001D01*
X527020D01*
Y52001D01*
X528020Y51001D01*
X529020D01*
X527020Y53001D02*
Y56999D01*
X155833Y687517D02*
Y690849D01*
X157499Y689183D02*
X154167D01*
X157499Y692515D02*
X158332Y693348D01*
Y695015D01*
X157499Y695848D01*
X156666D01*
X155833Y695015D01*
Y694182D01*
Y695015D01*
X155000Y695848D01*
X154167D01*
X153334Y695015D01*
Y693348D01*
X154167Y692515D01*
X153334Y697514D02*
X154167D01*
Y698347D01*
X153334D01*
Y697514D01*
X158332Y701679D02*
Y705011D01*
X157499D01*
X154167Y701679D01*
X153334D01*
X152501Y706677D02*
Y710010D01*
X157499Y715008D02*
X158332Y714175D01*
Y712509D01*
X157499Y711676D01*
X154167D01*
X153334Y712509D01*
Y714175D01*
X154167Y715008D01*
X153334Y717507D02*
Y719173D01*
X154167Y720006D01*
X155833D01*
X156666Y719173D01*
Y717507D01*
X155833Y716674D01*
X154167D01*
X153334Y717507D01*
Y721673D02*
X156666D01*
Y724172D01*
X155833Y725005D01*
X153334D01*
Y726671D02*
X156666D01*
Y729170D01*
X155833Y730003D01*
X153334D01*
Y734168D02*
Y732502D01*
X154167Y731669D01*
X155833D01*
X156666Y732502D01*
Y734168D01*
X155833Y735002D01*
X155000D01*
Y731669D01*
X156666Y740000D02*
Y737501D01*
X155833Y736668D01*
X154167D01*
X153334Y737501D01*
Y740000D01*
X157499Y742499D02*
X156666D01*
Y741666D01*
Y743332D01*
Y742499D01*
X154167D01*
X153334Y743332D01*
Y746665D02*
Y748331D01*
X154167Y749164D01*
X155833D01*
X156666Y748331D01*
Y746665D01*
X155833Y745831D01*
X154167D01*
X153334Y746665D01*
X156666Y750830D02*
X153334D01*
X155000D01*
X155833Y751663D01*
X156666Y752496D01*
Y753329D01*
X152501Y755828D02*
Y759160D01*
X158332Y760826D02*
X153334D01*
Y763326D01*
X154167Y764159D01*
X155000D01*
X155833Y763326D01*
Y760826D01*
Y763326D01*
X156666Y764159D01*
X157499D01*
X158332Y763326D01*
Y760826D01*
X156666Y766658D02*
Y768324D01*
X155833Y769157D01*
X153334D01*
Y766658D01*
X154167Y765825D01*
X155000Y766658D01*
Y769157D01*
X157499Y771656D02*
X156666D01*
Y770823D01*
Y772489D01*
Y771656D01*
X154167D01*
X153334Y772489D01*
X157499Y775822D02*
X156666D01*
Y774988D01*
Y776655D01*
Y775822D01*
X154167D01*
X153334Y776655D01*
Y781653D02*
Y779987D01*
X154167Y779154D01*
X155833D01*
X156666Y779987D01*
Y781653D01*
X155833Y782486D01*
X155000D01*
Y779154D01*
X156666Y784152D02*
X153334D01*
X155000D01*
X155833Y784985D01*
X156666Y785818D01*
Y786651D01*
Y789151D02*
X154167D01*
X153334Y789984D01*
Y792483D01*
X152501D01*
X151668Y791650D01*
Y790817D01*
X153334Y792483D02*
X156666D01*
M02*
