G04*
G04 #@! TF.GenerationSoftware,Altium Limited,Altium Designer,23.9.2 (47)*
G04*
G04 Layer_Color=32896*
%FSLAX44Y44*%
%MOMM*%
G71*
G04*
G04 #@! TF.SameCoordinates,DC7A7723-1311-43B5-9009-1713E082842B*
G04*
G04*
G04 #@! TF.FilePolarity,Positive*
G04*
G01*
G75*
%ADD11C,0.2000*%
G36*
X180192Y233284D02*
X180442Y233238D01*
X180655Y233164D01*
X180840Y233090D01*
X180923Y233044D01*
X180987Y233007D01*
X181052Y232970D01*
X181098Y232933D01*
X181135Y232905D01*
X181163Y232887D01*
X181182Y232877D01*
X181191Y232868D01*
X181367Y232692D01*
X181505Y232498D01*
X181616Y232295D01*
X181709Y232091D01*
X181764Y231916D01*
X181792Y231842D01*
X181810Y231777D01*
X181819Y231721D01*
X181829Y231685D01*
X181838Y231657D01*
Y231648D01*
X181052Y231509D01*
X181015Y231712D01*
X180960Y231888D01*
X180895Y232036D01*
X180830Y232156D01*
X180765Y232248D01*
X180710Y232313D01*
X180673Y232360D01*
X180664Y232369D01*
X180544Y232461D01*
X180414Y232535D01*
X180294Y232581D01*
X180174Y232618D01*
X180063Y232637D01*
X179980Y232655D01*
X179906D01*
X179739Y232646D01*
X179591Y232609D01*
X179462Y232563D01*
X179351Y232517D01*
X179268Y232461D01*
X179203Y232415D01*
X179157Y232378D01*
X179147Y232369D01*
X179046Y232258D01*
X178972Y232138D01*
X178926Y232017D01*
X178889Y231906D01*
X178870Y231805D01*
X178852Y231731D01*
Y231675D01*
Y231666D01*
Y231657D01*
Y231555D01*
X178870Y231463D01*
X178916Y231306D01*
X178981Y231167D01*
X179055Y231047D01*
X179129Y230963D01*
X179194Y230899D01*
X179240Y230862D01*
X179249Y230852D01*
X179258D01*
X179416Y230769D01*
X179564Y230704D01*
X179721Y230658D01*
X179859Y230631D01*
X179980Y230612D01*
X180081Y230594D01*
X180201D01*
X180238Y230603D01*
X180285D01*
X180377Y229909D01*
X180257Y229937D01*
X180146Y229956D01*
X180054Y229974D01*
X179970Y229983D01*
X179906Y229993D01*
X179822D01*
X179628Y229974D01*
X179453Y229937D01*
X179296Y229882D01*
X179166Y229817D01*
X179064Y229752D01*
X178990Y229697D01*
X178944Y229660D01*
X178926Y229641D01*
X178805Y229503D01*
X178713Y229355D01*
X178648Y229207D01*
X178611Y229059D01*
X178584Y228939D01*
X178574Y228837D01*
X178565Y228800D01*
Y228772D01*
Y228754D01*
Y228744D01*
X178584Y228541D01*
X178630Y228356D01*
X178685Y228199D01*
X178759Y228060D01*
X178833Y227949D01*
X178889Y227866D01*
X178935Y227811D01*
X178953Y227792D01*
X179101Y227663D01*
X179258Y227570D01*
X179416Y227505D01*
X179564Y227459D01*
X179693Y227432D01*
X179795Y227422D01*
X179832Y227413D01*
X179887D01*
X180054Y227422D01*
X180211Y227459D01*
X180349Y227505D01*
X180460Y227561D01*
X180553Y227607D01*
X180627Y227654D01*
X180664Y227691D01*
X180682Y227700D01*
X180793Y227829D01*
X180886Y227977D01*
X180969Y228134D01*
X181034Y228301D01*
X181080Y228439D01*
X181098Y228504D01*
X181108Y228559D01*
X181117Y228606D01*
X181126Y228643D01*
X181135Y228661D01*
Y228671D01*
X181921Y228569D01*
X181903Y228421D01*
X181875Y228282D01*
X181792Y228023D01*
X181690Y227801D01*
X181635Y227709D01*
X181579Y227617D01*
X181524Y227533D01*
X181468Y227469D01*
X181422Y227404D01*
X181376Y227358D01*
X181348Y227321D01*
X181320Y227293D01*
X181302Y227274D01*
X181292Y227265D01*
X181182Y227182D01*
X181071Y227099D01*
X180960Y227034D01*
X180840Y226978D01*
X180608Y226886D01*
X180386Y226831D01*
X180285Y226812D01*
X180192Y226794D01*
X180109Y226784D01*
X180035Y226775D01*
X179980Y226766D01*
X179896D01*
X179721Y226775D01*
X179564Y226794D01*
X179406Y226821D01*
X179258Y226858D01*
X179120Y226905D01*
X179000Y226951D01*
X178879Y227006D01*
X178778Y227062D01*
X178676Y227108D01*
X178593Y227164D01*
X178519Y227210D01*
X178463Y227256D01*
X178417Y227293D01*
X178380Y227321D01*
X178362Y227339D01*
X178352Y227348D01*
X178242Y227459D01*
X178149Y227579D01*
X178066Y227700D01*
X177992Y227820D01*
X177936Y227931D01*
X177881Y228051D01*
X177807Y228273D01*
X177788Y228375D01*
X177770Y228467D01*
X177751Y228550D01*
X177742Y228624D01*
X177733Y228680D01*
Y228726D01*
Y228754D01*
Y228763D01*
X177742Y228985D01*
X177779Y229188D01*
X177835Y229364D01*
X177890Y229512D01*
X177946Y229632D01*
X178001Y229725D01*
X178038Y229780D01*
X178047Y229798D01*
X178177Y229937D01*
X178315Y230057D01*
X178463Y230150D01*
X178611Y230224D01*
X178741Y230279D01*
X178842Y230316D01*
X178879Y230325D01*
X178907Y230335D01*
X178926Y230344D01*
X178935D01*
X178778Y230427D01*
X178648Y230510D01*
X178537Y230603D01*
X178445Y230686D01*
X178371Y230760D01*
X178315Y230825D01*
X178288Y230862D01*
X178278Y230880D01*
X178204Y231010D01*
X178149Y231139D01*
X178103Y231269D01*
X178075Y231389D01*
X178057Y231490D01*
X178047Y231564D01*
Y231620D01*
Y231638D01*
X178057Y231796D01*
X178084Y231953D01*
X178121Y232091D01*
X178167Y232211D01*
X178214Y232313D01*
X178251Y232397D01*
X178278Y232443D01*
X178288Y232461D01*
X178380Y232600D01*
X178491Y232720D01*
X178602Y232822D01*
X178713Y232914D01*
X178805Y232979D01*
X178889Y233034D01*
X178944Y233062D01*
X178953Y233071D01*
X178963D01*
X179129Y233145D01*
X179296Y233201D01*
X179462Y233247D01*
X179610Y233275D01*
X179730Y233293D01*
X179832Y233302D01*
X180063D01*
X180192Y233284D01*
D02*
G37*
G36*
X110360Y231611D02*
X110554Y231592D01*
X110739Y231564D01*
X110887Y231537D01*
X111017Y231509D01*
X111109Y231481D01*
X111146Y231472D01*
X111174Y231463D01*
X111183Y231453D01*
X111192D01*
X111349Y231389D01*
X111488Y231306D01*
X111608Y231231D01*
X111710Y231157D01*
X111784Y231084D01*
X111840Y231028D01*
X111876Y230991D01*
X111886Y230982D01*
X111969Y230862D01*
X112043Y230732D01*
X112098Y230603D01*
X112145Y230483D01*
X112182Y230362D01*
X112209Y230279D01*
X112219Y230242D01*
Y230215D01*
X112228Y230205D01*
Y230196D01*
X111461Y230094D01*
X111405Y230261D01*
X111349Y230409D01*
X111285Y230529D01*
X111229Y230621D01*
X111174Y230695D01*
X111128Y230742D01*
X111091Y230769D01*
X111081Y230779D01*
X110970Y230843D01*
X110841Y230889D01*
X110702Y230926D01*
X110573Y230945D01*
X110443Y230963D01*
X110351Y230973D01*
X110259D01*
X110046Y230963D01*
X109861Y230936D01*
X109713Y230889D01*
X109584Y230843D01*
X109491Y230788D01*
X109417Y230751D01*
X109371Y230714D01*
X109362Y230704D01*
X109288Y230621D01*
X109232Y230520D01*
X109186Y230409D01*
X109158Y230298D01*
X109140Y230196D01*
X109131Y230103D01*
Y230048D01*
Y230039D01*
Y230030D01*
Y230011D01*
Y229974D01*
Y229909D01*
X109140Y229854D01*
Y229835D01*
Y229826D01*
X109232Y229798D01*
X109334Y229771D01*
X109547Y229715D01*
X109787Y229669D01*
X110009Y229623D01*
X110120Y229604D01*
X110222Y229595D01*
X110314Y229576D01*
X110388Y229567D01*
X110453Y229558D01*
X110499D01*
X110536Y229549D01*
X110545D01*
X110712Y229530D01*
X110850Y229503D01*
X110970Y229484D01*
X111063Y229466D01*
X111137Y229456D01*
X111192Y229438D01*
X111229Y229429D01*
X111239D01*
X111359Y229392D01*
X111461Y229355D01*
X111562Y229308D01*
X111645Y229271D01*
X111719Y229234D01*
X111766Y229198D01*
X111803Y229179D01*
X111812Y229170D01*
X111904Y229105D01*
X111978Y229031D01*
X112052Y228957D01*
X112108Y228883D01*
X112154Y228818D01*
X112191Y228763D01*
X112209Y228726D01*
X112219Y228717D01*
X112265Y228615D01*
X112302Y228504D01*
X112330Y228402D01*
X112348Y228301D01*
X112357Y228217D01*
X112367Y228153D01*
Y228116D01*
Y228097D01*
X112357Y227986D01*
X112348Y227894D01*
X112302Y227700D01*
X112237Y227542D01*
X112163Y227404D01*
X112089Y227293D01*
X112024Y227210D01*
X111978Y227163D01*
X111960Y227145D01*
X111793Y227025D01*
X111608Y226932D01*
X111405Y226868D01*
X111220Y226821D01*
X111054Y226794D01*
X110980Y226784D01*
X110915D01*
X110859Y226775D01*
X110786D01*
X110619Y226784D01*
X110453Y226803D01*
X110305Y226821D01*
X110175Y226849D01*
X110074Y226877D01*
X109990Y226905D01*
X109935Y226914D01*
X109916Y226923D01*
X109759Y226988D01*
X109611Y227071D01*
X109473Y227163D01*
X109334Y227247D01*
X109223Y227330D01*
X109140Y227395D01*
X109084Y227441D01*
X109075Y227459D01*
X109066D01*
X109047Y227339D01*
X109029Y227228D01*
X109010Y227126D01*
X108983Y227043D01*
X108955Y226969D01*
X108936Y226923D01*
X108927Y226886D01*
X108918Y226877D01*
X108095D01*
X108141Y226978D01*
X108188Y227080D01*
X108224Y227173D01*
X108243Y227256D01*
X108271Y227330D01*
X108280Y227385D01*
X108289Y227422D01*
Y227432D01*
X108299Y227496D01*
X108308Y227579D01*
Y227672D01*
X108317Y227774D01*
X108326Y228005D01*
Y228236D01*
X108336Y228458D01*
Y228559D01*
Y228643D01*
Y228717D01*
Y228772D01*
Y228809D01*
Y228818D01*
Y229872D01*
Y230048D01*
X108345Y230205D01*
X108354Y230325D01*
Y230427D01*
X108363Y230501D01*
X108372Y230557D01*
X108382Y230584D01*
Y230593D01*
X108409Y230714D01*
X108446Y230815D01*
X108483Y230899D01*
X108530Y230982D01*
X108567Y231037D01*
X108594Y231084D01*
X108613Y231111D01*
X108622Y231120D01*
X108696Y231194D01*
X108779Y231269D01*
X108872Y231324D01*
X108964Y231379D01*
X109047Y231416D01*
X109112Y231444D01*
X109158Y231463D01*
X109177Y231472D01*
X109325Y231518D01*
X109482Y231555D01*
X109639Y231583D01*
X109796Y231601D01*
X109935Y231611D01*
X110037Y231620D01*
X110138D01*
X110360Y231611D01*
D02*
G37*
G36*
X185000Y228800D02*
X182568D01*
Y229586D01*
X185000D01*
Y228800D01*
D02*
G37*
G36*
X92895Y226877D02*
X92932Y226794D01*
X92951Y226729D01*
X92969Y226692D01*
Y226683D01*
X93025Y226525D01*
X93080Y226396D01*
X93117Y226285D01*
X93154Y226211D01*
X93173Y226156D01*
X93191Y226119D01*
X93210Y226100D01*
Y226091D01*
X93284Y225989D01*
X93367Y225915D01*
X93404Y225888D01*
X93432Y225869D01*
X93450Y225851D01*
X93459D01*
X93524Y225823D01*
X93589Y225795D01*
X93727Y225767D01*
X93783D01*
X93829Y225758D01*
X93875D01*
X94023Y225767D01*
X94171Y225795D01*
X94227Y225814D01*
X94273Y225823D01*
X94310Y225832D01*
X94319D01*
X94236Y225102D01*
X94134Y225065D01*
X94042Y225046D01*
X93959Y225028D01*
X93885Y225009D01*
X93820D01*
X93774Y225000D01*
X93737D01*
X93598Y225009D01*
X93478Y225028D01*
X93367Y225055D01*
X93274Y225092D01*
X93191Y225129D01*
X93136Y225157D01*
X93099Y225176D01*
X93090Y225185D01*
X92988Y225259D01*
X92905Y225351D01*
X92821Y225444D01*
X92747Y225536D01*
X92692Y225619D01*
X92646Y225684D01*
X92618Y225730D01*
X92609Y225749D01*
X92581Y225814D01*
X92544Y225878D01*
X92470Y226035D01*
X92396Y226211D01*
X92331Y226387D01*
X92267Y226544D01*
X92239Y226618D01*
X92211Y226683D01*
X92193Y226729D01*
X92174Y226766D01*
X92165Y226794D01*
Y226803D01*
X90399Y231518D01*
X91185D01*
X92183Y228809D01*
X92257Y228615D01*
X92313Y228430D01*
X92378Y228245D01*
X92424Y228088D01*
X92461Y227949D01*
X92479Y227894D01*
X92488Y227848D01*
X92498Y227811D01*
X92507Y227783D01*
X92516Y227764D01*
Y227755D01*
X92572Y227968D01*
X92627Y228162D01*
X92683Y228347D01*
X92738Y228504D01*
X92784Y228633D01*
X92803Y228689D01*
X92821Y228735D01*
X92831Y228781D01*
X92840Y228809D01*
X92849Y228818D01*
Y228828D01*
X93820Y231518D01*
X94652D01*
X92895Y226877D01*
D02*
G37*
G36*
X133345Y232665D02*
Y231518D01*
X133927D01*
Y230908D01*
X133345D01*
Y228227D01*
Y228097D01*
Y227986D01*
X133336Y227885D01*
X133326Y227783D01*
Y227700D01*
X133317Y227626D01*
X133299Y227505D01*
X133280Y227413D01*
X133271Y227348D01*
X133252Y227311D01*
Y227302D01*
X133215Y227219D01*
X133160Y227154D01*
X133104Y227090D01*
X133058Y227043D01*
X133003Y226997D01*
X132966Y226969D01*
X132938Y226951D01*
X132929Y226942D01*
X132827Y226895D01*
X132725Y226868D01*
X132614Y226840D01*
X132503Y226831D01*
X132411Y226821D01*
X132337Y226812D01*
X132263D01*
X132060Y226821D01*
X131958Y226831D01*
X131866Y226849D01*
X131782Y226858D01*
X131718Y226868D01*
X131681Y226877D01*
X131662D01*
X131764Y227570D01*
X131838Y227561D01*
X131912Y227552D01*
X131976D01*
X132023Y227542D01*
X132115D01*
X132235Y227552D01*
X132319Y227570D01*
X132365Y227589D01*
X132383Y227598D01*
X132448Y227644D01*
X132485Y227691D01*
X132513Y227727D01*
X132522Y227746D01*
X132531Y227792D01*
X132541Y227857D01*
X132550Y228005D01*
X132559Y228069D01*
Y228125D01*
Y228162D01*
Y228181D01*
Y230908D01*
X131764D01*
Y231518D01*
X132559D01*
Y233136D01*
X133345Y232665D01*
D02*
G37*
G36*
X106995Y232665D02*
Y231518D01*
X107577D01*
Y230908D01*
X106995D01*
Y228227D01*
Y228097D01*
Y227986D01*
X106986Y227885D01*
X106976Y227783D01*
Y227700D01*
X106967Y227626D01*
X106949Y227505D01*
X106930Y227413D01*
X106921Y227348D01*
X106902Y227311D01*
Y227302D01*
X106865Y227219D01*
X106810Y227154D01*
X106755Y227090D01*
X106708Y227043D01*
X106653Y226997D01*
X106616Y226969D01*
X106588Y226951D01*
X106579Y226942D01*
X106477Y226895D01*
X106375Y226868D01*
X106264Y226840D01*
X106153Y226831D01*
X106061Y226821D01*
X105987Y226812D01*
X105913D01*
X105710Y226821D01*
X105608Y226831D01*
X105516Y226849D01*
X105432Y226858D01*
X105368Y226868D01*
X105331Y226877D01*
X105312D01*
X105414Y227570D01*
X105488Y227561D01*
X105562Y227552D01*
X105626D01*
X105673Y227542D01*
X105765D01*
X105885Y227552D01*
X105969Y227570D01*
X106015Y227589D01*
X106033Y227598D01*
X106098Y227644D01*
X106135Y227690D01*
X106163Y227727D01*
X106172Y227746D01*
X106181Y227792D01*
X106191Y227857D01*
X106200Y228005D01*
X106209Y228069D01*
Y228125D01*
Y228162D01*
Y228180D01*
Y230908D01*
X105414D01*
Y231518D01*
X106209D01*
Y233136D01*
X106995Y232665D01*
D02*
G37*
G36*
X104508D02*
Y231518D01*
X105090D01*
Y230908D01*
X104508D01*
Y228227D01*
Y228097D01*
Y227986D01*
X104499Y227885D01*
X104489Y227783D01*
Y227700D01*
X104480Y227626D01*
X104462Y227505D01*
X104443Y227413D01*
X104434Y227348D01*
X104415Y227311D01*
Y227302D01*
X104378Y227219D01*
X104323Y227154D01*
X104267Y227090D01*
X104221Y227043D01*
X104166Y226997D01*
X104129Y226969D01*
X104101Y226951D01*
X104092Y226942D01*
X103990Y226895D01*
X103888Y226868D01*
X103777Y226840D01*
X103666Y226831D01*
X103574Y226821D01*
X103500Y226812D01*
X103426D01*
X103223Y226821D01*
X103121Y226831D01*
X103028Y226849D01*
X102945Y226858D01*
X102881Y226868D01*
X102844Y226877D01*
X102825D01*
X102927Y227570D01*
X103001Y227561D01*
X103075Y227552D01*
X103139D01*
X103186Y227542D01*
X103278D01*
X103398Y227552D01*
X103482Y227570D01*
X103528Y227589D01*
X103546Y227598D01*
X103611Y227644D01*
X103648Y227690D01*
X103676Y227727D01*
X103685Y227746D01*
X103694Y227792D01*
X103703Y227857D01*
X103713Y228005D01*
X103722Y228069D01*
Y228125D01*
Y228162D01*
Y228180D01*
Y230908D01*
X102927D01*
Y231518D01*
X103722D01*
Y233136D01*
X104508Y232665D01*
D02*
G37*
G36*
X161738Y233367D02*
X162034Y233321D01*
X162293Y233265D01*
X162413Y233229D01*
X162524Y233192D01*
X162626Y233155D01*
X162718Y233118D01*
X162792Y233090D01*
X162866Y233062D01*
X162912Y233034D01*
X162949Y233016D01*
X162977Y233007D01*
X162986Y232997D01*
X163236Y232840D01*
X163449Y232655D01*
X163633Y232470D01*
X163791Y232285D01*
X163911Y232119D01*
X163957Y232045D01*
X163994Y231980D01*
X164031Y231934D01*
X164049Y231897D01*
X164059Y231870D01*
X164068Y231860D01*
X164197Y231574D01*
X164290Y231278D01*
X164355Y230982D01*
X164401Y230714D01*
X164419Y230594D01*
X164429Y230473D01*
X164438Y230381D01*
Y230289D01*
X164447Y230224D01*
Y230168D01*
Y230131D01*
Y230122D01*
X164429Y229789D01*
X164391Y229466D01*
X164345Y229179D01*
X164308Y229040D01*
X164281Y228920D01*
X164253Y228809D01*
X164216Y228708D01*
X164188Y228615D01*
X164170Y228541D01*
X164142Y228486D01*
X164133Y228439D01*
X164114Y228412D01*
Y228402D01*
X163976Y228125D01*
X163818Y227875D01*
X163652Y227663D01*
X163569Y227579D01*
X163495Y227496D01*
X163421Y227422D01*
X163347Y227358D01*
X163282Y227302D01*
X163227Y227265D01*
X163190Y227228D01*
X163153Y227200D01*
X163134Y227191D01*
X163125Y227182D01*
X162995Y227108D01*
X162866Y227043D01*
X162589Y226942D01*
X162311Y226868D01*
X162043Y226821D01*
X161914Y226803D01*
X161803Y226784D01*
X161701Y226775D01*
X161618D01*
X161544Y226766D01*
X161442D01*
X161257Y226775D01*
X161082Y226794D01*
X160915Y226812D01*
X160758Y226849D01*
X160610Y226895D01*
X160471Y226942D01*
X160342Y226988D01*
X160222Y227043D01*
X160120Y227090D01*
X160018Y227136D01*
X159944Y227182D01*
X159870Y227228D01*
X159824Y227265D01*
X159778Y227284D01*
X159760Y227302D01*
X159750Y227311D01*
X159621Y227422D01*
X159510Y227533D01*
X159408Y227663D01*
X159306Y227792D01*
X159140Y228051D01*
X159011Y228310D01*
X158955Y228430D01*
X158909Y228541D01*
X158872Y228643D01*
X158844Y228726D01*
X158816Y228800D01*
X158798Y228855D01*
X158789Y228892D01*
Y228902D01*
X159639Y229114D01*
X159676Y228966D01*
X159722Y228828D01*
X159769Y228698D01*
X159815Y228578D01*
X159870Y228467D01*
X159926Y228375D01*
X159991Y228282D01*
X160046Y228199D01*
X160092Y228125D01*
X160148Y228069D01*
X160194Y228014D01*
X160231Y227968D01*
X160268Y227940D01*
X160296Y227912D01*
X160305Y227903D01*
X160314Y227894D01*
X160407Y227820D01*
X160508Y227764D01*
X160712Y227663D01*
X160906Y227589D01*
X161100Y227542D01*
X161266Y227505D01*
X161331Y227496D01*
X161396D01*
X161451Y227487D01*
X161516D01*
X161729Y227496D01*
X161932Y227533D01*
X162117Y227579D01*
X162283Y227635D01*
X162413Y227691D01*
X162468Y227718D01*
X162515Y227737D01*
X162552Y227755D01*
X162579Y227774D01*
X162598Y227783D01*
X162607D01*
X162783Y227912D01*
X162931Y228051D01*
X163060Y228208D01*
X163162Y228356D01*
X163245Y228486D01*
X163301Y228596D01*
X163319Y228643D01*
X163337Y228671D01*
X163347Y228689D01*
Y228698D01*
X163421Y228939D01*
X163476Y229179D01*
X163522Y229419D01*
X163550Y229641D01*
X163559Y229743D01*
X163569Y229835D01*
Y229919D01*
X163578Y229983D01*
Y230039D01*
Y230085D01*
Y230113D01*
Y230122D01*
X163569Y230362D01*
X163550Y230584D01*
X163513Y230788D01*
X163476Y230973D01*
X163449Y231130D01*
X163430Y231194D01*
X163412Y231250D01*
X163402Y231296D01*
X163393Y231324D01*
X163384Y231343D01*
Y231352D01*
X163291Y231564D01*
X163190Y231758D01*
X163079Y231916D01*
X162959Y232054D01*
X162857Y232165D01*
X162774Y232239D01*
X162709Y232285D01*
X162700Y232304D01*
X162690D01*
X162496Y232424D01*
X162283Y232517D01*
X162080Y232581D01*
X161886Y232618D01*
X161710Y232646D01*
X161636Y232655D01*
X161572D01*
X161525Y232665D01*
X161451D01*
X161220Y232655D01*
X161008Y232618D01*
X160832Y232563D01*
X160675Y232507D01*
X160555Y232443D01*
X160462Y232397D01*
X160407Y232360D01*
X160388Y232341D01*
X160240Y232202D01*
X160102Y232045D01*
X159991Y231879D01*
X159898Y231712D01*
X159824Y231564D01*
X159796Y231490D01*
X159778Y231435D01*
X159760Y231389D01*
X159741Y231352D01*
X159732Y231333D01*
Y231324D01*
X158900Y231518D01*
X158955Y231685D01*
X159011Y231833D01*
X159085Y231971D01*
X159149Y232110D01*
X159223Y232230D01*
X159306Y232341D01*
X159380Y232452D01*
X159454Y232544D01*
X159528Y232618D01*
X159593Y232692D01*
X159658Y232757D01*
X159704Y232803D01*
X159750Y232850D01*
X159787Y232877D01*
X159806Y232887D01*
X159815Y232896D01*
X159944Y232979D01*
X160074Y233062D01*
X160203Y233127D01*
X160342Y233182D01*
X160619Y233265D01*
X160869Y233321D01*
X160989Y233349D01*
X161091Y233358D01*
X161193Y233367D01*
X161276Y233377D01*
X161341Y233386D01*
X161433D01*
X161738Y233367D01*
D02*
G37*
G36*
X141204Y231611D02*
X141370Y231592D01*
X141527Y231564D01*
X141675Y231518D01*
X141814Y231472D01*
X141943Y231416D01*
X142063Y231361D01*
X142165Y231296D01*
X142267Y231241D01*
X142350Y231176D01*
X142424Y231121D01*
X142479Y231074D01*
X142526Y231028D01*
X142563Y231000D01*
X142581Y230982D01*
X142590Y230973D01*
X142692Y230843D01*
X142785Y230704D01*
X142868Y230566D01*
X142942Y230418D01*
X142997Y230261D01*
X143043Y230113D01*
X143117Y229817D01*
X143145Y229688D01*
X143164Y229558D01*
X143173Y229447D01*
X143182Y229345D01*
X143191Y229262D01*
Y229207D01*
Y229160D01*
Y229151D01*
X143182Y228948D01*
X143164Y228754D01*
X143136Y228569D01*
X143099Y228402D01*
X143053Y228245D01*
X143006Y228097D01*
X142951Y227968D01*
X142895Y227848D01*
X142840Y227746D01*
X142785Y227654D01*
X142738Y227579D01*
X142692Y227515D01*
X142655Y227459D01*
X142627Y227422D01*
X142609Y227404D01*
X142600Y227395D01*
X142479Y227284D01*
X142359Y227191D01*
X142230Y227108D01*
X142091Y227034D01*
X141962Y226978D01*
X141823Y226923D01*
X141564Y226849D01*
X141444Y226831D01*
X141333Y226812D01*
X141231Y226794D01*
X141148Y226784D01*
X141083Y226775D01*
X140982D01*
X140695Y226794D01*
X140436Y226840D01*
X140205Y226895D01*
X140113Y226932D01*
X140020Y226969D01*
X139937Y227006D01*
X139863Y227043D01*
X139808Y227071D01*
X139752Y227099D01*
X139715Y227127D01*
X139687Y227145D01*
X139669Y227164D01*
X139660D01*
X139475Y227330D01*
X139327Y227505D01*
X139197Y227691D01*
X139105Y227866D01*
X139031Y228023D01*
X139003Y228097D01*
X138975Y228153D01*
X138957Y228208D01*
X138948Y228245D01*
X138938Y228264D01*
Y228273D01*
X139752Y228375D01*
X139826Y228199D01*
X139909Y228051D01*
X139992Y227922D01*
X140066Y227820D01*
X140131Y227746D01*
X140187Y227691D01*
X140233Y227654D01*
X140242Y227644D01*
X140362Y227570D01*
X140482Y227515D01*
X140612Y227478D01*
X140723Y227450D01*
X140824Y227432D01*
X140908Y227422D01*
X140982D01*
X141093Y227432D01*
X141194Y227441D01*
X141379Y227487D01*
X141546Y227552D01*
X141694Y227626D01*
X141805Y227691D01*
X141888Y227755D01*
X141943Y227801D01*
X141952Y227820D01*
X141962D01*
X142091Y227986D01*
X142193Y228171D01*
X142267Y228375D01*
X142322Y228559D01*
X142350Y228726D01*
X142368Y228800D01*
X142378Y228865D01*
Y228920D01*
X142387Y228957D01*
Y228985D01*
Y228994D01*
X138920D01*
X138911Y229086D01*
Y229151D01*
Y229188D01*
Y229198D01*
X138920Y229410D01*
X138938Y229604D01*
X138966Y229789D01*
X139003Y229965D01*
X139049Y230122D01*
X139096Y230270D01*
X139151Y230399D01*
X139206Y230520D01*
X139262Y230631D01*
X139318Y230723D01*
X139364Y230797D01*
X139410Y230862D01*
X139447Y230917D01*
X139475Y230954D01*
X139493Y230973D01*
X139502Y230982D01*
X139613Y231093D01*
X139733Y231194D01*
X139863Y231278D01*
X139992Y231352D01*
X140122Y231416D01*
X140242Y231463D01*
X140372Y231509D01*
X140482Y231537D01*
X140603Y231564D01*
X140704Y231583D01*
X140797Y231601D01*
X140871Y231611D01*
X140935Y231620D01*
X141028D01*
X141204Y231611D01*
D02*
G37*
G36*
X136294D02*
X136498Y231574D01*
X136692Y231527D01*
X136849Y231481D01*
X136988Y231426D01*
X137043Y231398D01*
X137089Y231379D01*
X137126Y231361D01*
X137154Y231343D01*
X137172Y231333D01*
X137182D01*
X137357Y231222D01*
X137515Y231084D01*
X137644Y230945D01*
X137755Y230806D01*
X137838Y230686D01*
X137894Y230584D01*
X137912Y230547D01*
X137931Y230520D01*
X137940Y230501D01*
Y230492D01*
X138023Y230270D01*
X138079Y230048D01*
X138125Y229826D01*
X138153Y229623D01*
X138162Y229530D01*
X138171Y229447D01*
Y229373D01*
X138180Y229308D01*
Y229253D01*
Y229216D01*
Y229188D01*
Y229179D01*
X138171Y228966D01*
X138153Y228772D01*
X138125Y228578D01*
X138088Y228412D01*
X138051Y228245D01*
X137995Y228106D01*
X137949Y227968D01*
X137894Y227848D01*
X137838Y227746D01*
X137792Y227654D01*
X137737Y227570D01*
X137699Y227505D01*
X137662Y227459D01*
X137635Y227422D01*
X137616Y227404D01*
X137607Y227395D01*
X137496Y227284D01*
X137376Y227191D01*
X137256Y227108D01*
X137126Y227034D01*
X136997Y226978D01*
X136877Y226923D01*
X136627Y226849D01*
X136516Y226831D01*
X136414Y226812D01*
X136322Y226794D01*
X136239Y226784D01*
X136174Y226775D01*
X136081D01*
X135943Y226784D01*
X135804Y226794D01*
X135564Y226849D01*
X135342Y226914D01*
X135157Y226997D01*
X135083Y227043D01*
X135009Y227080D01*
X134944Y227117D01*
X134898Y227154D01*
X134861Y227182D01*
X134833Y227200D01*
X134815Y227210D01*
X134806Y227219D01*
X134713Y227311D01*
X134630Y227404D01*
X134482Y227607D01*
X134362Y227820D01*
X134279Y228014D01*
X134214Y228199D01*
X134195Y228273D01*
X134177Y228347D01*
X134168Y228402D01*
X134158Y228439D01*
X134149Y228467D01*
Y228476D01*
X134926Y228578D01*
X134963Y228375D01*
X135018Y228190D01*
X135092Y228042D01*
X135157Y227922D01*
X135222Y227820D01*
X135277Y227755D01*
X135305Y227709D01*
X135323Y227700D01*
X135444Y227607D01*
X135573Y227542D01*
X135702Y227487D01*
X135823Y227459D01*
X135924Y227441D01*
X136017Y227432D01*
X136072Y227422D01*
X136091D01*
X136193Y227432D01*
X136294Y227441D01*
X136479Y227487D01*
X136636Y227552D01*
X136775Y227635D01*
X136877Y227709D01*
X136960Y227774D01*
X137006Y227820D01*
X137025Y227838D01*
X137089Y227922D01*
X137145Y228023D01*
X137228Y228227D01*
X137293Y228458D01*
X137330Y228680D01*
X137357Y228883D01*
X137367Y228966D01*
Y229050D01*
X137376Y229105D01*
Y229160D01*
Y229188D01*
Y229198D01*
Y229364D01*
X137357Y229521D01*
X137339Y229669D01*
X137320Y229798D01*
X137293Y229919D01*
X137256Y230030D01*
X137228Y230131D01*
X137191Y230224D01*
X137154Y230298D01*
X137126Y230362D01*
X137089Y230418D01*
X137062Y230464D01*
X137043Y230501D01*
X137025Y230529D01*
X137006Y230538D01*
Y230547D01*
X136932Y230621D01*
X136858Y230686D01*
X136701Y230797D01*
X136535Y230871D01*
X136387Y230917D01*
X136248Y230954D01*
X136146Y230963D01*
X136100Y230973D01*
X136045D01*
X135906Y230963D01*
X135776Y230936D01*
X135666Y230899D01*
X135564Y230852D01*
X135490Y230806D01*
X135425Y230769D01*
X135388Y230742D01*
X135379Y230732D01*
X135286Y230640D01*
X135203Y230529D01*
X135129Y230409D01*
X135083Y230298D01*
X135037Y230196D01*
X135009Y230113D01*
X135000Y230057D01*
X134991Y230048D01*
Y230039D01*
X134223Y230159D01*
X134288Y230409D01*
X134380Y230621D01*
X134482Y230806D01*
X134584Y230954D01*
X134685Y231074D01*
X134769Y231158D01*
X134824Y231213D01*
X134833Y231231D01*
X134843D01*
X135037Y231361D01*
X135240Y231453D01*
X135444Y231527D01*
X135638Y231574D01*
X135813Y231601D01*
X135887Y231611D01*
X135943D01*
X135998Y231620D01*
X136072D01*
X136294Y231611D01*
D02*
G37*
G36*
X100430Y231611D02*
X100597Y231592D01*
X100754Y231564D01*
X100902Y231518D01*
X101041Y231472D01*
X101170Y231416D01*
X101290Y231361D01*
X101392Y231296D01*
X101494Y231241D01*
X101577Y231176D01*
X101651Y231120D01*
X101706Y231074D01*
X101753Y231028D01*
X101790Y231000D01*
X101808Y230982D01*
X101817Y230973D01*
X101919Y230843D01*
X102011Y230704D01*
X102095Y230566D01*
X102169Y230418D01*
X102224Y230261D01*
X102270Y230113D01*
X102344Y229817D01*
X102372Y229688D01*
X102390Y229558D01*
X102400Y229447D01*
X102409Y229345D01*
X102418Y229262D01*
Y229207D01*
Y229160D01*
Y229151D01*
X102409Y228948D01*
X102390Y228754D01*
X102363Y228569D01*
X102326Y228402D01*
X102280Y228245D01*
X102233Y228097D01*
X102178Y227968D01*
X102122Y227848D01*
X102067Y227746D01*
X102011Y227653D01*
X101965Y227579D01*
X101919Y227515D01*
X101882Y227459D01*
X101854Y227422D01*
X101836Y227404D01*
X101827Y227395D01*
X101706Y227284D01*
X101586Y227191D01*
X101457Y227108D01*
X101318Y227034D01*
X101189Y226978D01*
X101050Y226923D01*
X100791Y226849D01*
X100671Y226831D01*
X100560Y226812D01*
X100458Y226794D01*
X100375Y226784D01*
X100310Y226775D01*
X100209D01*
X99922Y226794D01*
X99663Y226840D01*
X99432Y226895D01*
X99340Y226932D01*
X99247Y226969D01*
X99164Y227006D01*
X99090Y227043D01*
X99034Y227071D01*
X98979Y227099D01*
X98942Y227126D01*
X98914Y227145D01*
X98896Y227163D01*
X98886D01*
X98702Y227330D01*
X98554Y227505D01*
X98424Y227690D01*
X98332Y227866D01*
X98258Y228023D01*
X98230Y228097D01*
X98202Y228153D01*
X98184Y228208D01*
X98175Y228245D01*
X98165Y228264D01*
Y228273D01*
X98979Y228375D01*
X99053Y228199D01*
X99136Y228051D01*
X99219Y227922D01*
X99293Y227820D01*
X99358Y227746D01*
X99413Y227690D01*
X99460Y227653D01*
X99469Y227644D01*
X99589Y227570D01*
X99709Y227515D01*
X99839Y227478D01*
X99950Y227450D01*
X100051Y227432D01*
X100135Y227422D01*
X100209D01*
X100319Y227432D01*
X100421Y227441D01*
X100606Y227487D01*
X100773Y227552D01*
X100920Y227626D01*
X101031Y227690D01*
X101115Y227755D01*
X101170Y227801D01*
X101179Y227820D01*
X101189D01*
X101318Y227986D01*
X101420Y228171D01*
X101494Y228375D01*
X101549Y228559D01*
X101577Y228726D01*
X101595Y228800D01*
X101605Y228865D01*
Y228920D01*
X101614Y228957D01*
Y228985D01*
Y228994D01*
X98147D01*
X98138Y229086D01*
Y229151D01*
Y229188D01*
Y229198D01*
X98147Y229410D01*
X98165Y229604D01*
X98193Y229789D01*
X98230Y229965D01*
X98276Y230122D01*
X98322Y230270D01*
X98378Y230399D01*
X98433Y230520D01*
X98489Y230630D01*
X98544Y230723D01*
X98591Y230797D01*
X98637Y230862D01*
X98674Y230917D01*
X98702Y230954D01*
X98720Y230973D01*
X98729Y230982D01*
X98840Y231093D01*
X98960Y231194D01*
X99090Y231278D01*
X99219Y231352D01*
X99349Y231416D01*
X99469Y231463D01*
X99598Y231509D01*
X99709Y231537D01*
X99830Y231564D01*
X99931Y231583D01*
X100024Y231601D01*
X100098Y231611D01*
X100162Y231620D01*
X100255D01*
X100430Y231611D01*
D02*
G37*
G36*
X176513Y226877D02*
X175616D01*
Y227774D01*
X176513D01*
Y226877D01*
D02*
G37*
G36*
X174414Y232433D02*
X171280D01*
X171501Y232165D01*
X171714Y231879D01*
X171899Y231601D01*
X172075Y231333D01*
X172149Y231213D01*
X172213Y231102D01*
X172278Y231000D01*
X172324Y230917D01*
X172361Y230843D01*
X172389Y230797D01*
X172407Y230760D01*
X172417Y230751D01*
X172602Y230381D01*
X172768Y230011D01*
X172907Y229660D01*
X172962Y229503D01*
X173018Y229345D01*
X173073Y229207D01*
X173110Y229077D01*
X173147Y228966D01*
X173175Y228874D01*
X173203Y228791D01*
X173221Y228735D01*
X173230Y228698D01*
Y228689D01*
X173323Y228310D01*
X173360Y228125D01*
X173388Y227959D01*
X173415Y227801D01*
X173443Y227644D01*
X173461Y227515D01*
X173480Y227385D01*
X173489Y227274D01*
X173498Y227173D01*
X173508Y227080D01*
Y227006D01*
X173517Y226951D01*
Y226914D01*
Y226886D01*
Y226877D01*
X172713D01*
X172685Y227228D01*
X172639Y227552D01*
X172592Y227848D01*
X172565Y227986D01*
X172537Y228116D01*
X172518Y228227D01*
X172491Y228328D01*
X172472Y228421D01*
X172454Y228495D01*
X172435Y228550D01*
X172426Y228596D01*
X172417Y228624D01*
Y228633D01*
X172278Y229059D01*
X172130Y229456D01*
X172056Y229650D01*
X171982Y229835D01*
X171899Y230002D01*
X171825Y230168D01*
X171760Y230316D01*
X171696Y230446D01*
X171640Y230557D01*
X171594Y230658D01*
X171548Y230742D01*
X171520Y230797D01*
X171501Y230834D01*
X171492Y230843D01*
X171381Y231037D01*
X171270Y231231D01*
X171159Y231407D01*
X171048Y231574D01*
X170947Y231721D01*
X170845Y231870D01*
X170743Y231999D01*
X170660Y232110D01*
X170577Y232221D01*
X170503Y232313D01*
X170429Y232387D01*
X170373Y232452D01*
X170336Y232507D01*
X170299Y232544D01*
X170281Y232563D01*
X170272Y232572D01*
Y233192D01*
X174414D01*
Y232433D01*
D02*
G37*
G36*
X150875Y231611D02*
X151041Y231583D01*
X151189Y231546D01*
X151337Y231500D01*
X151466Y231444D01*
X151586Y231379D01*
X151697Y231306D01*
X151790Y231241D01*
X151882Y231167D01*
X151956Y231093D01*
X152021Y231028D01*
X152076Y230973D01*
X152113Y230926D01*
X152141Y230889D01*
X152160Y230862D01*
X152169Y230852D01*
Y231518D01*
X152872D01*
Y226877D01*
X152086D01*
Y229401D01*
Y229558D01*
X152067Y229715D01*
X152049Y229845D01*
X152030Y229965D01*
X152002Y230076D01*
X151975Y230177D01*
X151938Y230270D01*
X151901Y230344D01*
X151873Y230409D01*
X151836Y230464D01*
X151808Y230510D01*
X151781Y230547D01*
X151744Y230594D01*
X151725Y230612D01*
X151586Y230723D01*
X151439Y230797D01*
X151291Y230852D01*
X151161Y230899D01*
X151041Y230917D01*
X150948Y230926D01*
X150912Y230936D01*
X150865D01*
X150754Y230926D01*
X150643Y230917D01*
X150551Y230889D01*
X150477Y230862D01*
X150412Y230834D01*
X150357Y230816D01*
X150329Y230797D01*
X150320Y230788D01*
X150237Y230732D01*
X150163Y230667D01*
X150107Y230603D01*
X150061Y230547D01*
X150033Y230492D01*
X150005Y230446D01*
X149987Y230418D01*
Y230409D01*
X149959Y230307D01*
X149931Y230196D01*
X149913Y230076D01*
X149904Y229956D01*
X149894Y229854D01*
Y229771D01*
Y229706D01*
Y229697D01*
Y229688D01*
Y226877D01*
X149109D01*
Y229725D01*
Y229919D01*
X149118Y230076D01*
X149127Y230205D01*
Y230316D01*
X149136Y230390D01*
X149145Y230446D01*
X149155Y230483D01*
Y230492D01*
X149183Y230612D01*
X149229Y230723D01*
X149266Y230816D01*
X149303Y230908D01*
X149349Y230973D01*
X149377Y231019D01*
X149395Y231056D01*
X149404Y231065D01*
X149478Y231158D01*
X149562Y231231D01*
X149645Y231306D01*
X149737Y231361D01*
X149811Y231407D01*
X149876Y231435D01*
X149913Y231453D01*
X149931Y231463D01*
X150061Y231518D01*
X150199Y231555D01*
X150329Y231583D01*
X150449Y231601D01*
X150551Y231611D01*
X150625Y231620D01*
X150699D01*
X150875Y231611D01*
D02*
G37*
G36*
X145900D02*
X146067Y231583D01*
X146215Y231546D01*
X146363Y231500D01*
X146492Y231444D01*
X146612Y231379D01*
X146723Y231306D01*
X146816Y231241D01*
X146908Y231167D01*
X146982Y231093D01*
X147047Y231028D01*
X147102Y230973D01*
X147139Y230926D01*
X147167Y230889D01*
X147185Y230862D01*
X147195Y230852D01*
Y231518D01*
X147897D01*
Y226877D01*
X147112D01*
Y229401D01*
Y229558D01*
X147093Y229715D01*
X147074Y229845D01*
X147056Y229965D01*
X147028Y230076D01*
X147001Y230177D01*
X146964Y230270D01*
X146927Y230344D01*
X146899Y230409D01*
X146862Y230464D01*
X146834Y230510D01*
X146806Y230547D01*
X146769Y230594D01*
X146751Y230612D01*
X146612Y230723D01*
X146464Y230797D01*
X146316Y230852D01*
X146187Y230899D01*
X146067Y230917D01*
X145974Y230926D01*
X145937Y230936D01*
X145891D01*
X145780Y230926D01*
X145669Y230917D01*
X145577Y230889D01*
X145503Y230862D01*
X145438Y230834D01*
X145383Y230816D01*
X145355Y230797D01*
X145346Y230788D01*
X145262Y230732D01*
X145188Y230667D01*
X145133Y230603D01*
X145087Y230547D01*
X145059Y230492D01*
X145031Y230446D01*
X145013Y230418D01*
Y230409D01*
X144985Y230307D01*
X144957Y230196D01*
X144939Y230076D01*
X144930Y229956D01*
X144920Y229854D01*
Y229771D01*
Y229706D01*
Y229697D01*
Y229688D01*
Y226877D01*
X144134D01*
Y229725D01*
Y229919D01*
X144144Y230076D01*
X144153Y230205D01*
Y230316D01*
X144162Y230390D01*
X144171Y230446D01*
X144181Y230483D01*
Y230492D01*
X144208Y230612D01*
X144255Y230723D01*
X144292Y230816D01*
X144329Y230908D01*
X144375Y230973D01*
X144403Y231019D01*
X144421Y231056D01*
X144430Y231065D01*
X144504Y231158D01*
X144587Y231231D01*
X144671Y231306D01*
X144763Y231361D01*
X144837Y231407D01*
X144902Y231435D01*
X144939Y231453D01*
X144957Y231463D01*
X145087Y231518D01*
X145225Y231555D01*
X145355Y231583D01*
X145475Y231601D01*
X145577Y231611D01*
X145651Y231620D01*
X145725D01*
X145900Y231611D01*
D02*
G37*
G36*
X124414D02*
X124506Y231592D01*
X124599Y231564D01*
X124672Y231537D01*
X124728Y231509D01*
X124783Y231481D01*
X124811Y231463D01*
X124820Y231453D01*
X124904Y231379D01*
X124987Y231287D01*
X125070Y231176D01*
X125144Y231074D01*
X125218Y230973D01*
X125264Y230889D01*
X125301Y230825D01*
X125310Y230816D01*
Y231518D01*
X126022D01*
Y226877D01*
X125236D01*
Y229299D01*
X125227Y229484D01*
X125218Y229650D01*
X125199Y229808D01*
X125172Y229946D01*
X125144Y230057D01*
X125126Y230140D01*
X125116Y230196D01*
X125107Y230215D01*
X125070Y230316D01*
X125024Y230399D01*
X124978Y230473D01*
X124931Y230538D01*
X124885Y230584D01*
X124857Y230621D01*
X124830Y230640D01*
X124820Y230649D01*
X124746Y230704D01*
X124663Y230742D01*
X124580Y230769D01*
X124515Y230788D01*
X124451Y230797D01*
X124404Y230806D01*
X124358D01*
X124256Y230797D01*
X124155Y230779D01*
X124053Y230751D01*
X123970Y230723D01*
X123896Y230695D01*
X123840Y230667D01*
X123803Y230649D01*
X123794Y230640D01*
X123507Y231361D01*
X123665Y231444D01*
X123813Y231509D01*
X123942Y231555D01*
X124062Y231592D01*
X124164Y231611D01*
X124247Y231620D01*
X124312D01*
X124414Y231611D01*
D02*
G37*
G36*
X117997Y226877D02*
X115556D01*
X115334Y226886D01*
X115140Y226895D01*
X114965Y226914D01*
X114817Y226932D01*
X114696Y226951D01*
X114604Y226960D01*
X114549Y226978D01*
X114530D01*
X114373Y227025D01*
X114243Y227071D01*
X114123Y227127D01*
X114022Y227182D01*
X113938Y227219D01*
X113874Y227256D01*
X113837Y227284D01*
X113827Y227293D01*
X113726Y227376D01*
X113633Y227478D01*
X113559Y227579D01*
X113485Y227672D01*
X113430Y227764D01*
X113393Y227829D01*
X113365Y227875D01*
X113356Y227894D01*
X113291Y228042D01*
X113245Y228190D01*
X113208Y228328D01*
X113189Y228458D01*
X113171Y228569D01*
X113162Y228661D01*
Y228717D01*
Y228726D01*
Y228735D01*
X113171Y228939D01*
X113208Y229123D01*
X113263Y229281D01*
X113319Y229429D01*
X113374Y229540D01*
X113430Y229623D01*
X113467Y229678D01*
X113476Y229697D01*
X113605Y229845D01*
X113744Y229965D01*
X113901Y230067D01*
X114040Y230150D01*
X114169Y230215D01*
X114280Y230252D01*
X114317Y230270D01*
X114345Y230279D01*
X114364Y230289D01*
X114373D01*
X114216Y230381D01*
X114077Y230473D01*
X113966Y230575D01*
X113874Y230667D01*
X113800Y230742D01*
X113744Y230816D01*
X113716Y230852D01*
X113707Y230871D01*
X113633Y231010D01*
X113578Y231139D01*
X113532Y231269D01*
X113504Y231389D01*
X113485Y231490D01*
X113476Y231574D01*
Y231620D01*
Y231638D01*
X113485Y231796D01*
X113513Y231953D01*
X113559Y232091D01*
X113605Y232221D01*
X113652Y232332D01*
X113698Y232406D01*
X113726Y232461D01*
X113735Y232480D01*
X113837Y232618D01*
X113947Y232748D01*
X114068Y232850D01*
X114179Y232933D01*
X114271Y232997D01*
X114354Y233044D01*
X114410Y233071D01*
X114419Y233081D01*
X114428D01*
X114604Y233145D01*
X114798Y233192D01*
X114992Y233229D01*
X115177Y233247D01*
X115344Y233265D01*
X115418D01*
X115482Y233275D01*
X117997D01*
Y226877D01*
D02*
G37*
G36*
X95576Y231611D02*
X95669Y231592D01*
X95761Y231564D01*
X95835Y231537D01*
X95891Y231509D01*
X95946Y231481D01*
X95974Y231463D01*
X95983Y231453D01*
X96067Y231379D01*
X96150Y231287D01*
X96233Y231176D01*
X96307Y231074D01*
X96381Y230973D01*
X96427Y230889D01*
X96464Y230825D01*
X96473Y230815D01*
Y231518D01*
X97185D01*
Y226877D01*
X96399D01*
Y229299D01*
X96390Y229484D01*
X96381Y229650D01*
X96362Y229808D01*
X96335Y229946D01*
X96307Y230057D01*
X96288Y230140D01*
X96279Y230196D01*
X96270Y230215D01*
X96233Y230316D01*
X96187Y230399D01*
X96140Y230473D01*
X96094Y230538D01*
X96048Y230584D01*
X96020Y230621D01*
X95993Y230640D01*
X95983Y230649D01*
X95909Y230704D01*
X95826Y230742D01*
X95743Y230769D01*
X95678Y230788D01*
X95613Y230797D01*
X95567Y230806D01*
X95521D01*
X95419Y230797D01*
X95318Y230779D01*
X95216Y230751D01*
X95133Y230723D01*
X95059Y230695D01*
X95003Y230667D01*
X94966Y230649D01*
X94957Y230640D01*
X94670Y231361D01*
X94828Y231444D01*
X94976Y231509D01*
X95105Y231555D01*
X95225Y231592D01*
X95327Y231611D01*
X95410Y231620D01*
X95475D01*
X95576Y231611D01*
D02*
G37*
G36*
X156126Y231611D02*
X156274Y231601D01*
X156560Y231537D01*
X156810Y231453D01*
X156921Y231407D01*
X157023Y231361D01*
X157115Y231315D01*
X157189Y231269D01*
X157263Y231222D01*
X157319Y231185D01*
X157365Y231148D01*
X157402Y231121D01*
X157420Y231111D01*
X157430Y231102D01*
X157559Y230982D01*
X157661Y230843D01*
X157762Y230695D01*
X157836Y230547D01*
X157910Y230390D01*
X157966Y230224D01*
X158012Y230067D01*
X158049Y229919D01*
X158086Y229771D01*
X158104Y229641D01*
X158123Y229512D01*
X158132Y229410D01*
Y229318D01*
X158141Y229253D01*
Y229216D01*
Y229198D01*
X158132Y228985D01*
X158114Y228781D01*
X158086Y228596D01*
X158049Y228421D01*
X158003Y228264D01*
X157957Y228116D01*
X157901Y227977D01*
X157846Y227857D01*
X157790Y227746D01*
X157735Y227654D01*
X157689Y227579D01*
X157642Y227515D01*
X157605Y227459D01*
X157577Y227422D01*
X157559Y227404D01*
X157550Y227395D01*
X157430Y227284D01*
X157309Y227191D01*
X157180Y227108D01*
X157051Y227034D01*
X156921Y226978D01*
X156782Y226923D01*
X156533Y226849D01*
X156422Y226831D01*
X156311Y226812D01*
X156218Y226794D01*
X156135Y226784D01*
X156061Y226775D01*
X155969D01*
X155747Y226784D01*
X155543Y226821D01*
X155349Y226868D01*
X155192Y226914D01*
X155054Y226969D01*
X154998Y226988D01*
X154952Y227006D01*
X154906Y227025D01*
X154878Y227043D01*
X154869Y227052D01*
X154859D01*
X154674Y227173D01*
X154517Y227302D01*
X154379Y227432D01*
X154268Y227561D01*
X154184Y227672D01*
X154120Y227764D01*
X154101Y227801D01*
X154083Y227829D01*
X154073Y227838D01*
Y227848D01*
X153981Y228060D01*
X153916Y228291D01*
X153861Y228523D01*
X153833Y228754D01*
X153815Y228855D01*
Y228948D01*
X153805Y229040D01*
X153796Y229114D01*
Y229179D01*
Y229225D01*
Y229253D01*
Y229262D01*
X153805Y229466D01*
X153824Y229650D01*
X153852Y229826D01*
X153889Y229993D01*
X153935Y230150D01*
X153990Y230289D01*
X154046Y230427D01*
X154101Y230538D01*
X154157Y230640D01*
X154212Y230732D01*
X154268Y230816D01*
X154314Y230880D01*
X154351Y230926D01*
X154379Y230963D01*
X154397Y230982D01*
X154406Y230991D01*
X154527Y231102D01*
X154647Y231194D01*
X154776Y231287D01*
X154906Y231352D01*
X155035Y231416D01*
X155164Y231463D01*
X155414Y231546D01*
X155534Y231564D01*
X155636Y231583D01*
X155728Y231601D01*
X155812Y231611D01*
X155876Y231620D01*
X155969D01*
X156126Y231611D01*
D02*
G37*
G36*
X129268D02*
X129415Y231601D01*
X129702Y231537D01*
X129952Y231453D01*
X130063Y231407D01*
X130164Y231361D01*
X130257Y231315D01*
X130331Y231269D01*
X130405Y231222D01*
X130460Y231185D01*
X130506Y231148D01*
X130543Y231121D01*
X130562Y231111D01*
X130571Y231102D01*
X130701Y230982D01*
X130802Y230843D01*
X130904Y230695D01*
X130978Y230547D01*
X131052Y230390D01*
X131107Y230224D01*
X131154Y230067D01*
X131191Y229919D01*
X131228Y229771D01*
X131246Y229641D01*
X131265Y229512D01*
X131274Y229410D01*
Y229318D01*
X131283Y229253D01*
Y229216D01*
Y229198D01*
X131274Y228985D01*
X131255Y228781D01*
X131228Y228596D01*
X131191Y228421D01*
X131144Y228264D01*
X131098Y228116D01*
X131043Y227977D01*
X130987Y227857D01*
X130932Y227746D01*
X130876Y227654D01*
X130830Y227579D01*
X130784Y227515D01*
X130747Y227459D01*
X130719Y227422D01*
X130701Y227404D01*
X130691Y227395D01*
X130571Y227284D01*
X130451Y227191D01*
X130322Y227108D01*
X130192Y227034D01*
X130063Y226978D01*
X129924Y226923D01*
X129674Y226849D01*
X129563Y226831D01*
X129452Y226812D01*
X129360Y226794D01*
X129277Y226784D01*
X129203Y226775D01*
X129110D01*
X128888Y226784D01*
X128685Y226821D01*
X128491Y226868D01*
X128334Y226914D01*
X128195Y226969D01*
X128139Y226988D01*
X128093Y227006D01*
X128047Y227025D01*
X128019Y227043D01*
X128010Y227052D01*
X128001D01*
X127816Y227173D01*
X127659Y227302D01*
X127520Y227432D01*
X127409Y227561D01*
X127326Y227672D01*
X127261Y227764D01*
X127243Y227801D01*
X127224Y227829D01*
X127215Y227838D01*
Y227848D01*
X127122Y228060D01*
X127058Y228291D01*
X127002Y228523D01*
X126975Y228754D01*
X126956Y228855D01*
Y228948D01*
X126947Y229040D01*
X126938Y229114D01*
Y229179D01*
Y229225D01*
Y229253D01*
Y229262D01*
X126947Y229466D01*
X126965Y229650D01*
X126993Y229826D01*
X127030Y229993D01*
X127076Y230150D01*
X127132Y230289D01*
X127187Y230427D01*
X127243Y230538D01*
X127298Y230640D01*
X127354Y230732D01*
X127409Y230816D01*
X127455Y230880D01*
X127492Y230926D01*
X127520Y230963D01*
X127539Y230982D01*
X127548Y230991D01*
X127668Y231102D01*
X127788Y231194D01*
X127918Y231287D01*
X128047Y231352D01*
X128176Y231416D01*
X128306Y231463D01*
X128556Y231546D01*
X128676Y231564D01*
X128778Y231583D01*
X128870Y231601D01*
X128953Y231611D01*
X129018Y231620D01*
X129110D01*
X129268Y231611D01*
D02*
G37*
G36*
X170004Y225102D02*
X164798D01*
Y225666D01*
X170004D01*
Y225102D01*
D02*
G37*
G36*
X123766D02*
X118561D01*
Y225666D01*
X123766D01*
Y225102D01*
D02*
G37*
G36*
X226579Y689142D02*
X226704Y689119D01*
X226810Y689082D01*
X226903Y689045D01*
X226944Y689022D01*
X226977Y689003D01*
X227009Y688985D01*
X227032Y688966D01*
X227051Y688952D01*
X227064Y688943D01*
X227074Y688939D01*
X227078Y688934D01*
X227166Y688846D01*
X227236Y688749D01*
X227291Y688647D01*
X227337Y688546D01*
X227365Y688458D01*
X227379Y688421D01*
X227388Y688389D01*
X227393Y688361D01*
X227397Y688342D01*
X227402Y688328D01*
Y688324D01*
X227009Y688254D01*
X226991Y688356D01*
X226963Y688444D01*
X226931Y688518D01*
X226898Y688578D01*
X226866Y688624D01*
X226838Y688657D01*
X226819Y688680D01*
X226815Y688684D01*
X226755Y688731D01*
X226690Y688768D01*
X226630Y688791D01*
X226570Y688809D01*
X226514Y688818D01*
X226473Y688828D01*
X226436D01*
X226353Y688823D01*
X226279Y688804D01*
X226214Y688781D01*
X226159Y688758D01*
X226117Y688731D01*
X226084Y688708D01*
X226061Y688689D01*
X226057Y688684D01*
X226006Y688629D01*
X225969Y688569D01*
X225946Y688509D01*
X225927Y688453D01*
X225918Y688402D01*
X225909Y688365D01*
Y688338D01*
Y688333D01*
Y688328D01*
Y688278D01*
X225918Y688231D01*
X225941Y688153D01*
X225974Y688083D01*
X226010Y688023D01*
X226047Y687982D01*
X226080Y687949D01*
X226103Y687931D01*
X226108Y687926D01*
X226112D01*
X226191Y687885D01*
X226265Y687852D01*
X226343Y687829D01*
X226413Y687815D01*
X226473Y687806D01*
X226524Y687797D01*
X226584D01*
X226602Y687801D01*
X226625D01*
X226672Y687455D01*
X226611Y687469D01*
X226556Y687478D01*
X226510Y687487D01*
X226468Y687492D01*
X226436Y687496D01*
X226394D01*
X226297Y687487D01*
X226209Y687469D01*
X226131Y687441D01*
X226066Y687409D01*
X226015Y687376D01*
X225978Y687348D01*
X225955Y687330D01*
X225946Y687321D01*
X225886Y687251D01*
X225840Y687177D01*
X225807Y687103D01*
X225789Y687029D01*
X225775Y686969D01*
X225770Y686918D01*
X225765Y686900D01*
Y686886D01*
Y686877D01*
Y686872D01*
X225775Y686770D01*
X225798Y686678D01*
X225826Y686600D01*
X225863Y686530D01*
X225900Y686475D01*
X225927Y686433D01*
X225950Y686405D01*
X225960Y686396D01*
X226034Y686331D01*
X226112Y686285D01*
X226191Y686253D01*
X226265Y686230D01*
X226329Y686216D01*
X226380Y686211D01*
X226399Y686207D01*
X226427D01*
X226510Y686211D01*
X226588Y686230D01*
X226658Y686253D01*
X226713Y686281D01*
X226759Y686304D01*
X226796Y686327D01*
X226815Y686345D01*
X226824Y686350D01*
X226880Y686415D01*
X226926Y686488D01*
X226968Y686567D01*
X227000Y686650D01*
X227023Y686720D01*
X227032Y686752D01*
X227037Y686780D01*
X227041Y686803D01*
X227046Y686821D01*
X227051Y686831D01*
Y686835D01*
X227444Y686784D01*
X227434Y686710D01*
X227421Y686641D01*
X227379Y686512D01*
X227328Y686401D01*
X227300Y686355D01*
X227273Y686308D01*
X227245Y686267D01*
X227217Y686234D01*
X227194Y686202D01*
X227171Y686179D01*
X227157Y686160D01*
X227143Y686146D01*
X227134Y686137D01*
X227129Y686133D01*
X227074Y686091D01*
X227018Y686049D01*
X226963Y686017D01*
X226903Y685989D01*
X226787Y685943D01*
X226676Y685915D01*
X226625Y685906D01*
X226579Y685897D01*
X226537Y685892D01*
X226501Y685888D01*
X226473Y685883D01*
X226431D01*
X226343Y685888D01*
X226265Y685897D01*
X226186Y685911D01*
X226112Y685929D01*
X226043Y685952D01*
X225983Y685975D01*
X225923Y686003D01*
X225872Y686031D01*
X225821Y686054D01*
X225779Y686082D01*
X225742Y686105D01*
X225715Y686128D01*
X225692Y686146D01*
X225673Y686160D01*
X225664Y686170D01*
X225659Y686174D01*
X225604Y686230D01*
X225557Y686290D01*
X225516Y686350D01*
X225479Y686410D01*
X225451Y686465D01*
X225424Y686525D01*
X225387Y686636D01*
X225377Y686687D01*
X225368Y686733D01*
X225359Y686775D01*
X225354Y686812D01*
X225350Y686840D01*
Y686863D01*
Y686877D01*
Y686881D01*
X225354Y686992D01*
X225373Y687094D01*
X225400Y687182D01*
X225428Y687256D01*
X225456Y687316D01*
X225483Y687362D01*
X225502Y687390D01*
X225507Y687399D01*
X225571Y687469D01*
X225641Y687529D01*
X225715Y687575D01*
X225789Y687612D01*
X225853Y687640D01*
X225904Y687658D01*
X225923Y687663D01*
X225937Y687667D01*
X225946Y687672D01*
X225950D01*
X225872Y687714D01*
X225807Y687755D01*
X225752Y687801D01*
X225705Y687843D01*
X225669Y687880D01*
X225641Y687912D01*
X225627Y687931D01*
X225622Y687940D01*
X225585Y688005D01*
X225557Y688070D01*
X225534Y688134D01*
X225520Y688194D01*
X225511Y688245D01*
X225507Y688282D01*
Y688310D01*
Y688319D01*
X225511Y688398D01*
X225525Y688476D01*
X225544Y688546D01*
X225567Y688606D01*
X225590Y688657D01*
X225608Y688698D01*
X225622Y688721D01*
X225627Y688731D01*
X225673Y688800D01*
X225729Y688860D01*
X225784Y688911D01*
X225840Y688957D01*
X225886Y688989D01*
X225927Y689017D01*
X225955Y689031D01*
X225960Y689036D01*
X225964D01*
X226047Y689073D01*
X226131Y689100D01*
X226214Y689124D01*
X226288Y689137D01*
X226348Y689147D01*
X226399Y689151D01*
X226514D01*
X226579Y689142D01*
D02*
G37*
G36*
X191663Y688305D02*
X191760Y688296D01*
X191853Y688282D01*
X191927Y688268D01*
X191991Y688254D01*
X192038Y688241D01*
X192056Y688236D01*
X192070Y688231D01*
X192075Y688227D01*
X192079D01*
X192158Y688194D01*
X192227Y688153D01*
X192287Y688116D01*
X192338Y688079D01*
X192375Y688042D01*
X192403Y688014D01*
X192421Y687996D01*
X192426Y687991D01*
X192467Y687931D01*
X192505Y687866D01*
X192532Y687801D01*
X192555Y687741D01*
X192574Y687681D01*
X192588Y687640D01*
X192592Y687621D01*
Y687607D01*
X192597Y687603D01*
Y687598D01*
X192213Y687547D01*
X192185Y687630D01*
X192158Y687704D01*
X192125Y687764D01*
X192098Y687811D01*
X192070Y687848D01*
X192047Y687871D01*
X192028Y687885D01*
X192024Y687889D01*
X191968Y687922D01*
X191903Y687945D01*
X191834Y687963D01*
X191770Y687972D01*
X191705Y687982D01*
X191658Y687986D01*
X191612D01*
X191506Y687982D01*
X191413Y687968D01*
X191339Y687945D01*
X191275Y687922D01*
X191229Y687894D01*
X191192Y687875D01*
X191168Y687857D01*
X191164Y687852D01*
X191127Y687811D01*
X191099Y687760D01*
X191076Y687704D01*
X191062Y687649D01*
X191053Y687598D01*
X191048Y687552D01*
Y687524D01*
Y687519D01*
Y687515D01*
Y687505D01*
Y687487D01*
Y687455D01*
X191053Y687427D01*
Y687418D01*
Y687413D01*
X191099Y687399D01*
X191150Y687385D01*
X191256Y687358D01*
X191376Y687335D01*
X191488Y687311D01*
X191543Y687302D01*
X191594Y687298D01*
X191640Y687288D01*
X191677Y687284D01*
X191709Y687279D01*
X191733D01*
X191751Y687274D01*
X191756D01*
X191839Y687265D01*
X191908Y687251D01*
X191968Y687242D01*
X192015Y687233D01*
X192052Y687228D01*
X192079Y687219D01*
X192098Y687214D01*
X192102D01*
X192162Y687196D01*
X192213Y687177D01*
X192264Y687154D01*
X192306Y687136D01*
X192343Y687117D01*
X192366Y687099D01*
X192384Y687089D01*
X192389Y687085D01*
X192435Y687053D01*
X192472Y687016D01*
X192509Y686979D01*
X192537Y686942D01*
X192560Y686909D01*
X192579Y686881D01*
X192588Y686863D01*
X192592Y686858D01*
X192615Y686807D01*
X192634Y686752D01*
X192648Y686701D01*
X192657Y686650D01*
X192662Y686609D01*
X192666Y686576D01*
Y686558D01*
Y686549D01*
X192662Y686493D01*
X192657Y686447D01*
X192634Y686350D01*
X192602Y686271D01*
X192565Y686202D01*
X192528Y686146D01*
X192495Y686105D01*
X192472Y686082D01*
X192463Y686072D01*
X192380Y686012D01*
X192287Y685966D01*
X192185Y685934D01*
X192093Y685911D01*
X192010Y685897D01*
X191973Y685892D01*
X191940D01*
X191913Y685888D01*
X191876D01*
X191793Y685892D01*
X191709Y685901D01*
X191635Y685911D01*
X191571Y685925D01*
X191520Y685938D01*
X191478Y685952D01*
X191451Y685957D01*
X191441Y685962D01*
X191363Y685994D01*
X191289Y686036D01*
X191219Y686082D01*
X191150Y686123D01*
X191094Y686165D01*
X191053Y686197D01*
X191025Y686220D01*
X191021Y686230D01*
X191016D01*
X191007Y686170D01*
X190998Y686114D01*
X190988Y686063D01*
X190974Y686022D01*
X190961Y685985D01*
X190951Y685962D01*
X190947Y685943D01*
X190942Y685938D01*
X190531D01*
X190554Y685989D01*
X190577Y686040D01*
X190595Y686086D01*
X190604Y686128D01*
X190618Y686165D01*
X190623Y686193D01*
X190628Y686211D01*
Y686216D01*
X190632Y686248D01*
X190637Y686290D01*
Y686336D01*
X190641Y686387D01*
X190646Y686502D01*
Y686618D01*
X190651Y686729D01*
Y686780D01*
Y686821D01*
Y686858D01*
Y686886D01*
Y686905D01*
Y686909D01*
Y687436D01*
Y687524D01*
X190655Y687603D01*
X190660Y687663D01*
Y687714D01*
X190665Y687750D01*
X190669Y687778D01*
X190674Y687792D01*
Y687797D01*
X190688Y687857D01*
X190706Y687908D01*
X190725Y687949D01*
X190748Y687991D01*
X190766Y688019D01*
X190780Y688042D01*
X190789Y688056D01*
X190794Y688060D01*
X190831Y688097D01*
X190873Y688134D01*
X190919Y688162D01*
X190965Y688190D01*
X191007Y688208D01*
X191039Y688222D01*
X191062Y688231D01*
X191071Y688236D01*
X191145Y688259D01*
X191224Y688278D01*
X191303Y688291D01*
X191381Y688301D01*
X191451Y688305D01*
X191501Y688310D01*
X191552D01*
X191663Y688305D01*
D02*
G37*
G36*
X229131Y687700D02*
X230000D01*
Y687335D01*
X229131D01*
Y686456D01*
X228761D01*
Y687335D01*
X227892D01*
Y687700D01*
X228761D01*
Y688569D01*
X229131D01*
Y687700D01*
D02*
G37*
G36*
X182931Y685938D02*
X182949Y685897D01*
X182958Y685864D01*
X182968Y685846D01*
Y685841D01*
X182995Y685763D01*
X183023Y685698D01*
X183042Y685642D01*
X183060Y685606D01*
X183069Y685578D01*
X183079Y685559D01*
X183088Y685550D01*
Y685546D01*
X183125Y685495D01*
X183166Y685458D01*
X183185Y685444D01*
X183199Y685434D01*
X183208Y685425D01*
X183213D01*
X183245Y685411D01*
X183277Y685397D01*
X183347Y685384D01*
X183375D01*
X183398Y685379D01*
X183421D01*
X183495Y685384D01*
X183569Y685397D01*
X183596Y685407D01*
X183619Y685411D01*
X183638Y685416D01*
X183643D01*
X183601Y685051D01*
X183550Y685032D01*
X183504Y685023D01*
X183462Y685014D01*
X183425Y685005D01*
X183393D01*
X183370Y685000D01*
X183351D01*
X183282Y685005D01*
X183222Y685014D01*
X183166Y685028D01*
X183120Y685046D01*
X183079Y685065D01*
X183051Y685079D01*
X183032Y685088D01*
X183028Y685092D01*
X182977Y685129D01*
X182935Y685176D01*
X182894Y685222D01*
X182857Y685268D01*
X182829Y685310D01*
X182806Y685342D01*
X182792Y685365D01*
X182787Y685374D01*
X182773Y685407D01*
X182755Y685439D01*
X182718Y685518D01*
X182681Y685606D01*
X182649Y685693D01*
X182616Y685772D01*
X182603Y685809D01*
X182589Y685841D01*
X182579Y685864D01*
X182570Y685883D01*
X182565Y685897D01*
Y685901D01*
X181682Y688259D01*
X182076D01*
X182575Y686905D01*
X182612Y686807D01*
X182639Y686715D01*
X182672Y686623D01*
X182695Y686544D01*
X182713Y686475D01*
X182723Y686447D01*
X182727Y686424D01*
X182732Y686405D01*
X182736Y686391D01*
X182741Y686382D01*
Y686378D01*
X182769Y686484D01*
X182797Y686581D01*
X182824Y686673D01*
X182852Y686752D01*
X182875Y686817D01*
X182884Y686844D01*
X182894Y686868D01*
X182898Y686891D01*
X182903Y686905D01*
X182908Y686909D01*
Y686914D01*
X183393Y688259D01*
X183809D01*
X182931Y685938D01*
D02*
G37*
G36*
X203155Y688832D02*
Y688259D01*
X203447D01*
Y687954D01*
X203155D01*
Y686613D01*
Y686549D01*
Y686493D01*
X203151Y686442D01*
X203146Y686391D01*
Y686350D01*
X203142Y686313D01*
X203132Y686253D01*
X203123Y686207D01*
X203118Y686174D01*
X203109Y686156D01*
Y686151D01*
X203091Y686109D01*
X203063Y686077D01*
X203035Y686045D01*
X203012Y686022D01*
X202984Y685999D01*
X202966Y685985D01*
X202952Y685975D01*
X202947Y685971D01*
X202896Y685948D01*
X202846Y685934D01*
X202790Y685920D01*
X202735Y685915D01*
X202689Y685911D01*
X202652Y685906D01*
X202615D01*
X202513Y685911D01*
X202462Y685915D01*
X202416Y685925D01*
X202374Y685929D01*
X202342Y685934D01*
X202323Y685938D01*
X202314D01*
X202365Y686285D01*
X202402Y686281D01*
X202439Y686276D01*
X202471D01*
X202494Y686271D01*
X202541D01*
X202601Y686276D01*
X202642Y686285D01*
X202665Y686294D01*
X202675Y686299D01*
X202707Y686322D01*
X202726Y686345D01*
X202739Y686364D01*
X202744Y686373D01*
X202749Y686396D01*
X202753Y686428D01*
X202758Y686502D01*
X202763Y686535D01*
Y686562D01*
Y686581D01*
Y686590D01*
Y687954D01*
X202365D01*
Y688259D01*
X202763D01*
Y689068D01*
X203155Y688832D01*
D02*
G37*
G36*
X189980D02*
Y688259D01*
X190272D01*
Y687954D01*
X189980D01*
Y686613D01*
Y686549D01*
Y686493D01*
X189976Y686442D01*
X189971Y686391D01*
Y686350D01*
X189967Y686313D01*
X189957Y686253D01*
X189948Y686207D01*
X189944Y686174D01*
X189934Y686156D01*
Y686151D01*
X189916Y686109D01*
X189888Y686077D01*
X189860Y686045D01*
X189837Y686022D01*
X189809Y685999D01*
X189791Y685985D01*
X189777Y685975D01*
X189772Y685971D01*
X189722Y685948D01*
X189671Y685934D01*
X189615Y685920D01*
X189560Y685915D01*
X189513Y685911D01*
X189477Y685906D01*
X189440D01*
X189338Y685911D01*
X189287Y685915D01*
X189241Y685925D01*
X189199Y685929D01*
X189167Y685934D01*
X189148Y685938D01*
X189139D01*
X189190Y686285D01*
X189227Y686281D01*
X189264Y686276D01*
X189296D01*
X189319Y686271D01*
X189366D01*
X189426Y686276D01*
X189467Y686285D01*
X189490Y686294D01*
X189500Y686299D01*
X189532Y686322D01*
X189550Y686345D01*
X189564Y686364D01*
X189569Y686373D01*
X189574Y686396D01*
X189578Y686428D01*
X189583Y686502D01*
X189587Y686535D01*
Y686562D01*
Y686581D01*
Y686590D01*
Y687954D01*
X189190D01*
Y688259D01*
X189587D01*
Y689068D01*
X189980Y688832D01*
D02*
G37*
G36*
X188737D02*
Y688259D01*
X189028D01*
Y687954D01*
X188737D01*
Y686613D01*
Y686549D01*
Y686493D01*
X188732Y686442D01*
X188728Y686391D01*
Y686350D01*
X188723Y686313D01*
X188714Y686253D01*
X188705Y686207D01*
X188700Y686174D01*
X188691Y686156D01*
Y686151D01*
X188672Y686109D01*
X188645Y686077D01*
X188617Y686045D01*
X188594Y686022D01*
X188566Y685999D01*
X188547Y685985D01*
X188533Y685975D01*
X188529Y685971D01*
X188478Y685948D01*
X188427Y685934D01*
X188372Y685920D01*
X188316Y685915D01*
X188270Y685911D01*
X188233Y685906D01*
X188196D01*
X188094Y685911D01*
X188043Y685915D01*
X187997Y685925D01*
X187956Y685929D01*
X187923Y685934D01*
X187905Y685938D01*
X187896D01*
X187946Y686285D01*
X187983Y686281D01*
X188020Y686276D01*
X188053D01*
X188076Y686271D01*
X188122D01*
X188182Y686276D01*
X188224Y686285D01*
X188247Y686294D01*
X188256Y686299D01*
X188288Y686322D01*
X188307Y686345D01*
X188321Y686364D01*
X188326Y686373D01*
X188330Y686396D01*
X188335Y686428D01*
X188339Y686502D01*
X188344Y686535D01*
Y686562D01*
Y686581D01*
Y686590D01*
Y687954D01*
X187946D01*
Y688259D01*
X188344D01*
Y689068D01*
X188737Y688832D01*
D02*
G37*
G36*
X217352Y689184D02*
X217500Y689161D01*
X217629Y689133D01*
X217689Y689114D01*
X217745Y689096D01*
X217796Y689077D01*
X217842Y689059D01*
X217879Y689045D01*
X217916Y689031D01*
X217939Y689017D01*
X217958Y689008D01*
X217971Y689003D01*
X217976Y688999D01*
X218101Y688920D01*
X218207Y688828D01*
X218300Y688735D01*
X218378Y688643D01*
X218438Y688559D01*
X218461Y688522D01*
X218480Y688490D01*
X218498Y688467D01*
X218508Y688449D01*
X218512Y688435D01*
X218517Y688430D01*
X218582Y688287D01*
X218628Y688139D01*
X218660Y687991D01*
X218683Y687857D01*
X218693Y687797D01*
X218697Y687737D01*
X218702Y687690D01*
Y687644D01*
X218706Y687612D01*
Y687584D01*
Y687566D01*
Y687561D01*
X218697Y687395D01*
X218679Y687233D01*
X218656Y687089D01*
X218637Y687020D01*
X218623Y686960D01*
X218609Y686905D01*
X218591Y686854D01*
X218577Y686807D01*
X218568Y686770D01*
X218554Y686743D01*
X218549Y686720D01*
X218540Y686706D01*
Y686701D01*
X218471Y686562D01*
X218392Y686438D01*
X218309Y686331D01*
X218267Y686290D01*
X218230Y686248D01*
X218193Y686211D01*
X218156Y686179D01*
X218124Y686151D01*
X218096Y686133D01*
X218078Y686114D01*
X218059Y686100D01*
X218050Y686096D01*
X218046Y686091D01*
X217981Y686054D01*
X217916Y686022D01*
X217777Y685971D01*
X217639Y685934D01*
X217505Y685911D01*
X217440Y685901D01*
X217384Y685892D01*
X217334Y685888D01*
X217292D01*
X217255Y685883D01*
X217204D01*
X217112Y685888D01*
X217024Y685897D01*
X216941Y685906D01*
X216862Y685925D01*
X216788Y685948D01*
X216719Y685971D01*
X216654Y685994D01*
X216594Y686022D01*
X216543Y686045D01*
X216492Y686068D01*
X216455Y686091D01*
X216418Y686114D01*
X216395Y686133D01*
X216372Y686142D01*
X216363Y686151D01*
X216358Y686156D01*
X216293Y686211D01*
X216238Y686267D01*
X216187Y686331D01*
X216136Y686396D01*
X216053Y686525D01*
X215988Y686655D01*
X215961Y686715D01*
X215938Y686770D01*
X215919Y686821D01*
X215905Y686863D01*
X215891Y686900D01*
X215882Y686928D01*
X215877Y686946D01*
Y686951D01*
X216303Y687057D01*
X216321Y686983D01*
X216344Y686914D01*
X216367Y686849D01*
X216390Y686789D01*
X216418Y686733D01*
X216446Y686687D01*
X216478Y686641D01*
X216506Y686600D01*
X216529Y686562D01*
X216557Y686535D01*
X216580Y686507D01*
X216598Y686484D01*
X216617Y686470D01*
X216631Y686456D01*
X216635Y686451D01*
X216640Y686447D01*
X216686Y686410D01*
X216737Y686382D01*
X216839Y686331D01*
X216936Y686294D01*
X217033Y686271D01*
X217116Y686253D01*
X217149Y686248D01*
X217181D01*
X217209Y686244D01*
X217241D01*
X217347Y686248D01*
X217449Y686267D01*
X217542Y686290D01*
X217625Y686318D01*
X217689Y686345D01*
X217717Y686359D01*
X217740Y686368D01*
X217759Y686378D01*
X217773Y686387D01*
X217782Y686391D01*
X217787D01*
X217874Y686456D01*
X217948Y686525D01*
X218013Y686604D01*
X218064Y686678D01*
X218106Y686743D01*
X218133Y686798D01*
X218143Y686821D01*
X218152Y686835D01*
X218156Y686844D01*
Y686849D01*
X218193Y686969D01*
X218221Y687089D01*
X218244Y687210D01*
X218258Y687321D01*
X218263Y687372D01*
X218267Y687418D01*
Y687459D01*
X218272Y687492D01*
Y687519D01*
Y687542D01*
Y687556D01*
Y687561D01*
X218267Y687681D01*
X218258Y687792D01*
X218240Y687894D01*
X218221Y687986D01*
X218207Y688065D01*
X218198Y688097D01*
X218189Y688125D01*
X218184Y688148D01*
X218179Y688162D01*
X218175Y688171D01*
Y688176D01*
X218129Y688282D01*
X218078Y688379D01*
X218022Y688458D01*
X217962Y688527D01*
X217911Y688583D01*
X217870Y688620D01*
X217837Y688643D01*
X217833Y688652D01*
X217828D01*
X217731Y688712D01*
X217625Y688758D01*
X217523Y688791D01*
X217426Y688809D01*
X217338Y688823D01*
X217301Y688828D01*
X217269D01*
X217246Y688832D01*
X217209D01*
X217093Y688828D01*
X216987Y688809D01*
X216899Y688781D01*
X216820Y688754D01*
X216760Y688721D01*
X216714Y688698D01*
X216686Y688680D01*
X216677Y688671D01*
X216603Y688601D01*
X216534Y688522D01*
X216478Y688439D01*
X216432Y688356D01*
X216395Y688282D01*
X216381Y688245D01*
X216372Y688217D01*
X216363Y688194D01*
X216353Y688176D01*
X216349Y688167D01*
Y688162D01*
X215933Y688259D01*
X215961Y688342D01*
X215988Y688416D01*
X216025Y688486D01*
X216058Y688555D01*
X216095Y688615D01*
X216136Y688671D01*
X216173Y688726D01*
X216210Y688772D01*
X216247Y688809D01*
X216280Y688846D01*
X216312Y688878D01*
X216335Y688902D01*
X216358Y688925D01*
X216377Y688939D01*
X216386Y688943D01*
X216390Y688948D01*
X216455Y688989D01*
X216520Y689031D01*
X216585Y689063D01*
X216654Y689091D01*
X216793Y689133D01*
X216917Y689161D01*
X216978Y689174D01*
X217028Y689179D01*
X217079Y689184D01*
X217121Y689188D01*
X217153Y689193D01*
X217199D01*
X217352Y689184D01*
D02*
G37*
G36*
X207085Y688305D02*
X207168Y688296D01*
X207247Y688282D01*
X207321Y688259D01*
X207390Y688236D01*
X207455Y688208D01*
X207515Y688180D01*
X207566Y688148D01*
X207616Y688120D01*
X207658Y688088D01*
X207695Y688060D01*
X207723Y688037D01*
X207746Y688014D01*
X207764Y688000D01*
X207774Y687991D01*
X207778Y687986D01*
X207829Y687922D01*
X207875Y687852D01*
X207917Y687783D01*
X207954Y687709D01*
X207982Y687630D01*
X208005Y687556D01*
X208042Y687409D01*
X208056Y687344D01*
X208065Y687279D01*
X208069Y687224D01*
X208074Y687173D01*
X208079Y687131D01*
Y687103D01*
Y687080D01*
Y687076D01*
X208074Y686974D01*
X208065Y686877D01*
X208051Y686784D01*
X208032Y686701D01*
X208009Y686623D01*
X207986Y686549D01*
X207959Y686484D01*
X207931Y686424D01*
X207903Y686373D01*
X207875Y686327D01*
X207852Y686290D01*
X207829Y686257D01*
X207811Y686230D01*
X207797Y686211D01*
X207787Y686202D01*
X207783Y686197D01*
X207723Y686142D01*
X207663Y686096D01*
X207598Y686054D01*
X207529Y686017D01*
X207464Y685989D01*
X207395Y685962D01*
X207265Y685925D01*
X207205Y685915D01*
X207150Y685906D01*
X207099Y685897D01*
X207057Y685892D01*
X207025Y685888D01*
X206974D01*
X206831Y685897D01*
X206701Y685920D01*
X206586Y685948D01*
X206539Y685966D01*
X206493Y685985D01*
X206451Y686003D01*
X206415Y686022D01*
X206387Y686036D01*
X206359Y686049D01*
X206341Y686063D01*
X206327Y686072D01*
X206317Y686082D01*
X206313D01*
X206220Y686165D01*
X206146Y686253D01*
X206082Y686345D01*
X206035Y686433D01*
X205998Y686512D01*
X205985Y686549D01*
X205971Y686576D01*
X205961Y686604D01*
X205957Y686623D01*
X205952Y686632D01*
Y686636D01*
X206359Y686687D01*
X206396Y686600D01*
X206438Y686525D01*
X206479Y686461D01*
X206516Y686410D01*
X206549Y686373D01*
X206576Y686345D01*
X206599Y686327D01*
X206604Y686322D01*
X206664Y686285D01*
X206724Y686257D01*
X206789Y686239D01*
X206844Y686225D01*
X206895Y686216D01*
X206937Y686211D01*
X206974D01*
X207029Y686216D01*
X207080Y686220D01*
X207173Y686244D01*
X207256Y686276D01*
X207330Y686313D01*
X207385Y686345D01*
X207427Y686378D01*
X207455Y686401D01*
X207459Y686410D01*
X207464D01*
X207529Y686493D01*
X207579Y686586D01*
X207616Y686687D01*
X207644Y686780D01*
X207658Y686863D01*
X207667Y686900D01*
X207672Y686932D01*
Y686960D01*
X207677Y686979D01*
Y686992D01*
Y686997D01*
X205943D01*
X205938Y687043D01*
Y687076D01*
Y687094D01*
Y687099D01*
X205943Y687205D01*
X205952Y687302D01*
X205966Y687395D01*
X205985Y687482D01*
X206008Y687561D01*
X206031Y687635D01*
X206059Y687700D01*
X206086Y687760D01*
X206114Y687815D01*
X206142Y687861D01*
X206165Y687898D01*
X206188Y687931D01*
X206206Y687959D01*
X206220Y687977D01*
X206230Y687986D01*
X206234Y687991D01*
X206290Y688046D01*
X206350Y688097D01*
X206415Y688139D01*
X206479Y688176D01*
X206544Y688208D01*
X206604Y688231D01*
X206669Y688254D01*
X206724Y688268D01*
X206784Y688282D01*
X206835Y688291D01*
X206881Y688301D01*
X206918Y688305D01*
X206951Y688310D01*
X206997D01*
X207085Y688305D01*
D02*
G37*
G36*
X204630D02*
X204732Y688287D01*
X204829Y688264D01*
X204907Y688241D01*
X204977Y688213D01*
X205005Y688199D01*
X205028Y688190D01*
X205046Y688180D01*
X205060Y688171D01*
X205069Y688167D01*
X205074D01*
X205162Y688111D01*
X205240Y688042D01*
X205305Y687972D01*
X205361Y687903D01*
X205402Y687843D01*
X205430Y687792D01*
X205439Y687774D01*
X205448Y687760D01*
X205453Y687750D01*
Y687746D01*
X205495Y687635D01*
X205522Y687524D01*
X205545Y687413D01*
X205559Y687311D01*
X205564Y687265D01*
X205569Y687224D01*
Y687187D01*
X205573Y687154D01*
Y687126D01*
Y687108D01*
Y687094D01*
Y687089D01*
X205569Y686983D01*
X205559Y686886D01*
X205545Y686789D01*
X205527Y686706D01*
X205508Y686623D01*
X205481Y686553D01*
X205458Y686484D01*
X205430Y686424D01*
X205402Y686373D01*
X205379Y686327D01*
X205351Y686285D01*
X205333Y686253D01*
X205314Y686230D01*
X205300Y686211D01*
X205291Y686202D01*
X205287Y686197D01*
X205231Y686142D01*
X205171Y686096D01*
X205111Y686054D01*
X205046Y686017D01*
X204981Y685989D01*
X204921Y685962D01*
X204797Y685925D01*
X204741Y685915D01*
X204690Y685906D01*
X204644Y685897D01*
X204602Y685892D01*
X204570Y685888D01*
X204524D01*
X204454Y685892D01*
X204385Y685897D01*
X204265Y685925D01*
X204154Y685957D01*
X204062Y685999D01*
X204025Y686022D01*
X203988Y686040D01*
X203955Y686059D01*
X203932Y686077D01*
X203914Y686091D01*
X203900Y686100D01*
X203890Y686105D01*
X203886Y686109D01*
X203840Y686156D01*
X203798Y686202D01*
X203724Y686304D01*
X203664Y686410D01*
X203622Y686507D01*
X203590Y686600D01*
X203581Y686636D01*
X203571Y686673D01*
X203567Y686701D01*
X203562Y686720D01*
X203558Y686733D01*
Y686738D01*
X203946Y686789D01*
X203964Y686687D01*
X203992Y686595D01*
X204029Y686521D01*
X204062Y686461D01*
X204094Y686410D01*
X204122Y686378D01*
X204135Y686355D01*
X204145Y686350D01*
X204205Y686304D01*
X204270Y686271D01*
X204334Y686244D01*
X204394Y686230D01*
X204445Y686220D01*
X204491Y686216D01*
X204519Y686211D01*
X204528D01*
X204579Y686216D01*
X204630Y686220D01*
X204723Y686244D01*
X204801Y686276D01*
X204870Y686318D01*
X204921Y686355D01*
X204963Y686387D01*
X204986Y686410D01*
X204995Y686419D01*
X205028Y686461D01*
X205055Y686512D01*
X205097Y686613D01*
X205129Y686729D01*
X205148Y686840D01*
X205162Y686942D01*
X205166Y686983D01*
Y687025D01*
X205171Y687053D01*
Y687080D01*
Y687094D01*
Y687099D01*
Y687182D01*
X205162Y687261D01*
X205152Y687335D01*
X205143Y687399D01*
X205129Y687459D01*
X205111Y687515D01*
X205097Y687566D01*
X205079Y687612D01*
X205060Y687649D01*
X205046Y687681D01*
X205028Y687709D01*
X205014Y687732D01*
X205005Y687750D01*
X204995Y687764D01*
X204986Y687769D01*
Y687774D01*
X204949Y687811D01*
X204912Y687843D01*
X204834Y687898D01*
X204750Y687935D01*
X204676Y687959D01*
X204607Y687977D01*
X204556Y687982D01*
X204533Y687986D01*
X204505D01*
X204436Y687982D01*
X204371Y687968D01*
X204316Y687949D01*
X204265Y687926D01*
X204228Y687903D01*
X204196Y687885D01*
X204177Y687871D01*
X204172Y687866D01*
X204126Y687820D01*
X204085Y687764D01*
X204048Y687704D01*
X204025Y687649D01*
X204001Y687598D01*
X203988Y687556D01*
X203983Y687529D01*
X203978Y687524D01*
Y687519D01*
X203595Y687579D01*
X203627Y687704D01*
X203673Y687811D01*
X203724Y687903D01*
X203775Y687977D01*
X203826Y688037D01*
X203867Y688079D01*
X203895Y688107D01*
X203900Y688116D01*
X203904D01*
X204001Y688180D01*
X204103Y688227D01*
X204205Y688264D01*
X204302Y688287D01*
X204390Y688301D01*
X204427Y688305D01*
X204454D01*
X204482Y688310D01*
X204519D01*
X204630Y688305D01*
D02*
G37*
G36*
X186698D02*
X186782Y688296D01*
X186860Y688282D01*
X186934Y688259D01*
X187003Y688236D01*
X187068Y688208D01*
X187128Y688180D01*
X187179Y688148D01*
X187230Y688120D01*
X187271Y688088D01*
X187309Y688060D01*
X187336Y688037D01*
X187359Y688014D01*
X187378Y688000D01*
X187387Y687991D01*
X187392Y687986D01*
X187442Y687922D01*
X187489Y687852D01*
X187530Y687783D01*
X187567Y687709D01*
X187595Y687630D01*
X187618Y687556D01*
X187655Y687409D01*
X187669Y687344D01*
X187678Y687279D01*
X187683Y687224D01*
X187687Y687173D01*
X187692Y687131D01*
Y687103D01*
Y687080D01*
Y687076D01*
X187687Y686974D01*
X187678Y686877D01*
X187664Y686784D01*
X187646Y686701D01*
X187623Y686623D01*
X187600Y686549D01*
X187572Y686484D01*
X187544Y686424D01*
X187516Y686373D01*
X187489Y686327D01*
X187466Y686290D01*
X187442Y686257D01*
X187424Y686230D01*
X187410Y686211D01*
X187401Y686202D01*
X187396Y686197D01*
X187336Y686142D01*
X187276Y686096D01*
X187211Y686054D01*
X187142Y686017D01*
X187077Y685989D01*
X187008Y685962D01*
X186879Y685925D01*
X186818Y685915D01*
X186763Y685906D01*
X186712Y685897D01*
X186670Y685892D01*
X186638Y685888D01*
X186587D01*
X186444Y685897D01*
X186315Y685920D01*
X186199Y685948D01*
X186153Y685966D01*
X186106Y685985D01*
X186065Y686003D01*
X186028Y686022D01*
X186000Y686036D01*
X185972Y686049D01*
X185954Y686063D01*
X185940Y686072D01*
X185931Y686082D01*
X185926D01*
X185834Y686165D01*
X185760Y686253D01*
X185695Y686345D01*
X185649Y686433D01*
X185612Y686512D01*
X185598Y686549D01*
X185584Y686576D01*
X185575Y686604D01*
X185570Y686623D01*
X185566Y686632D01*
Y686636D01*
X185972Y686687D01*
X186010Y686600D01*
X186051Y686525D01*
X186093Y686461D01*
X186130Y686410D01*
X186162Y686373D01*
X186190Y686345D01*
X186213Y686327D01*
X186217Y686322D01*
X186278Y686285D01*
X186338Y686257D01*
X186402Y686239D01*
X186458Y686225D01*
X186509Y686216D01*
X186550Y686211D01*
X186587D01*
X186643Y686216D01*
X186694Y686220D01*
X186786Y686244D01*
X186869Y686276D01*
X186943Y686313D01*
X186999Y686345D01*
X187040Y686378D01*
X187068Y686401D01*
X187073Y686410D01*
X187077D01*
X187142Y686493D01*
X187193Y686586D01*
X187230Y686687D01*
X187258Y686780D01*
X187271Y686863D01*
X187281Y686900D01*
X187285Y686932D01*
Y686960D01*
X187290Y686979D01*
Y686992D01*
Y686997D01*
X185556D01*
X185552Y687043D01*
Y687076D01*
Y687094D01*
Y687099D01*
X185556Y687205D01*
X185566Y687302D01*
X185579Y687395D01*
X185598Y687482D01*
X185621Y687561D01*
X185644Y687635D01*
X185672Y687700D01*
X185700Y687760D01*
X185728Y687815D01*
X185755Y687861D01*
X185778Y687898D01*
X185801Y687931D01*
X185820Y687959D01*
X185834Y687977D01*
X185843Y687986D01*
X185848Y687991D01*
X185903Y688046D01*
X185963Y688097D01*
X186028Y688139D01*
X186093Y688176D01*
X186157Y688208D01*
X186217Y688231D01*
X186282Y688254D01*
X186338Y688268D01*
X186398Y688282D01*
X186449Y688291D01*
X186495Y688301D01*
X186532Y688305D01*
X186564Y688310D01*
X186610D01*
X186698Y688305D01*
D02*
G37*
G36*
X224739Y685938D02*
X224291D01*
Y686387D01*
X224739D01*
Y685938D01*
D02*
G37*
G36*
X223690Y688717D02*
X222123D01*
X222234Y688583D01*
X222340Y688439D01*
X222432Y688301D01*
X222520Y688167D01*
X222557Y688107D01*
X222590Y688051D01*
X222622Y688000D01*
X222645Y687959D01*
X222664Y687922D01*
X222677Y687898D01*
X222687Y687880D01*
X222691Y687875D01*
X222784Y687690D01*
X222867Y687505D01*
X222936Y687330D01*
X222964Y687251D01*
X222992Y687173D01*
X223020Y687103D01*
X223038Y687039D01*
X223057Y686983D01*
X223070Y686937D01*
X223084Y686895D01*
X223094Y686868D01*
X223098Y686849D01*
Y686844D01*
X223144Y686655D01*
X223163Y686562D01*
X223177Y686479D01*
X223191Y686401D01*
X223204Y686322D01*
X223214Y686257D01*
X223223Y686193D01*
X223228Y686137D01*
X223232Y686086D01*
X223237Y686040D01*
Y686003D01*
X223242Y685975D01*
Y685957D01*
Y685943D01*
Y685938D01*
X222839D01*
X222825Y686114D01*
X222802Y686276D01*
X222779Y686424D01*
X222765Y686493D01*
X222752Y686558D01*
X222742Y686613D01*
X222728Y686664D01*
X222719Y686710D01*
X222710Y686747D01*
X222701Y686775D01*
X222696Y686798D01*
X222691Y686812D01*
Y686817D01*
X222622Y687029D01*
X222548Y687228D01*
X222511Y687325D01*
X222474Y687418D01*
X222432Y687501D01*
X222395Y687584D01*
X222363Y687658D01*
X222331Y687723D01*
X222303Y687778D01*
X222280Y687829D01*
X222257Y687871D01*
X222243Y687898D01*
X222234Y687917D01*
X222229Y687922D01*
X222174Y688019D01*
X222118Y688116D01*
X222063Y688204D01*
X222007Y688287D01*
X221956Y688361D01*
X221905Y688435D01*
X221855Y688499D01*
X221813Y688555D01*
X221771Y688610D01*
X221735Y688657D01*
X221698Y688694D01*
X221670Y688726D01*
X221651Y688754D01*
X221633Y688772D01*
X221623Y688781D01*
X221619Y688786D01*
Y689096D01*
X223690D01*
Y688717D01*
D02*
G37*
G36*
X211920Y688305D02*
X212003Y688291D01*
X212077Y688273D01*
X212151Y688250D01*
X212216Y688222D01*
X212276Y688190D01*
X212332Y688153D01*
X212378Y688120D01*
X212424Y688083D01*
X212461Y688046D01*
X212493Y688014D01*
X212521Y687986D01*
X212540Y687963D01*
X212554Y687945D01*
X212563Y687931D01*
X212567Y687926D01*
Y688259D01*
X212919D01*
Y685938D01*
X212526D01*
Y687200D01*
Y687279D01*
X212517Y687358D01*
X212507Y687422D01*
X212498Y687482D01*
X212484Y687538D01*
X212470Y687589D01*
X212452Y687635D01*
X212433Y687672D01*
X212419Y687704D01*
X212401Y687732D01*
X212387Y687755D01*
X212373Y687774D01*
X212355Y687797D01*
X212346Y687806D01*
X212276Y687861D01*
X212202Y687898D01*
X212128Y687926D01*
X212064Y687949D01*
X212003Y687959D01*
X211957Y687963D01*
X211939Y687968D01*
X211916D01*
X211860Y687963D01*
X211805Y687959D01*
X211758Y687945D01*
X211721Y687931D01*
X211689Y687917D01*
X211661Y687908D01*
X211647Y687898D01*
X211643Y687894D01*
X211601Y687866D01*
X211564Y687834D01*
X211537Y687801D01*
X211513Y687774D01*
X211500Y687746D01*
X211486Y687723D01*
X211476Y687709D01*
Y687704D01*
X211463Y687654D01*
X211449Y687598D01*
X211439Y687538D01*
X211435Y687478D01*
X211430Y687427D01*
Y687385D01*
Y687353D01*
Y687348D01*
Y687344D01*
Y685938D01*
X211037D01*
Y687362D01*
Y687459D01*
X211042Y687538D01*
X211047Y687603D01*
Y687658D01*
X211051Y687695D01*
X211056Y687723D01*
X211060Y687741D01*
Y687746D01*
X211074Y687806D01*
X211097Y687861D01*
X211116Y687908D01*
X211134Y687954D01*
X211157Y687986D01*
X211171Y688009D01*
X211181Y688028D01*
X211185Y688033D01*
X211222Y688079D01*
X211264Y688116D01*
X211305Y688153D01*
X211352Y688180D01*
X211389Y688204D01*
X211421Y688217D01*
X211439Y688227D01*
X211449Y688231D01*
X211513Y688259D01*
X211583Y688278D01*
X211647Y688291D01*
X211708Y688301D01*
X211758Y688305D01*
X211795Y688310D01*
X211832D01*
X211920Y688305D01*
D02*
G37*
G36*
X209433D02*
X209516Y688291D01*
X209590Y688273D01*
X209664Y688250D01*
X209729Y688222D01*
X209789Y688190D01*
X209845Y688153D01*
X209891Y688120D01*
X209937Y688083D01*
X209974Y688046D01*
X210006Y688014D01*
X210034Y687986D01*
X210053Y687963D01*
X210067Y687945D01*
X210076Y687931D01*
X210080Y687926D01*
Y688259D01*
X210432D01*
Y685938D01*
X210039D01*
Y687200D01*
Y687279D01*
X210030Y687358D01*
X210020Y687422D01*
X210011Y687482D01*
X209997Y687538D01*
X209983Y687589D01*
X209965Y687635D01*
X209946Y687672D01*
X209932Y687704D01*
X209914Y687732D01*
X209900Y687755D01*
X209886Y687774D01*
X209868Y687797D01*
X209858Y687806D01*
X209789Y687861D01*
X209715Y687898D01*
X209641Y687926D01*
X209576Y687949D01*
X209516Y687959D01*
X209470Y687963D01*
X209452Y687968D01*
X209429D01*
X209373Y687963D01*
X209318Y687959D01*
X209271Y687945D01*
X209234Y687931D01*
X209202Y687917D01*
X209174Y687908D01*
X209160Y687898D01*
X209156Y687894D01*
X209114Y687866D01*
X209077Y687834D01*
X209049Y687801D01*
X209026Y687774D01*
X209013Y687746D01*
X208999Y687723D01*
X208989Y687709D01*
Y687704D01*
X208976Y687654D01*
X208962Y687598D01*
X208952Y687538D01*
X208948Y687478D01*
X208943Y687427D01*
Y687385D01*
Y687353D01*
Y687348D01*
Y687344D01*
Y685938D01*
X208550D01*
Y687362D01*
Y687459D01*
X208555Y687538D01*
X208559Y687603D01*
Y687658D01*
X208564Y687695D01*
X208569Y687723D01*
X208573Y687741D01*
Y687746D01*
X208587Y687806D01*
X208610Y687861D01*
X208629Y687908D01*
X208647Y687954D01*
X208670Y687986D01*
X208684Y688009D01*
X208694Y688028D01*
X208698Y688033D01*
X208735Y688079D01*
X208777Y688116D01*
X208818Y688153D01*
X208865Y688180D01*
X208902Y688204D01*
X208934Y688217D01*
X208952Y688227D01*
X208962Y688231D01*
X209026Y688259D01*
X209096Y688278D01*
X209160Y688291D01*
X209221Y688301D01*
X209271Y688305D01*
X209308Y688310D01*
X209345D01*
X209433Y688305D01*
D02*
G37*
G36*
X198690D02*
X198736Y688296D01*
X198782Y688282D01*
X198819Y688268D01*
X198847Y688254D01*
X198875Y688241D01*
X198889Y688231D01*
X198893Y688227D01*
X198935Y688190D01*
X198976Y688143D01*
X199018Y688088D01*
X199055Y688037D01*
X199092Y687986D01*
X199115Y687945D01*
X199134Y687912D01*
X199138Y687908D01*
Y688259D01*
X199494D01*
Y685938D01*
X199101D01*
Y687150D01*
X199097Y687242D01*
X199092Y687325D01*
X199083Y687404D01*
X199069Y687473D01*
X199055Y687529D01*
X199046Y687570D01*
X199041Y687598D01*
X199037Y687607D01*
X199018Y687658D01*
X198995Y687700D01*
X198972Y687737D01*
X198949Y687769D01*
X198926Y687792D01*
X198912Y687811D01*
X198898Y687820D01*
X198893Y687824D01*
X198856Y687852D01*
X198815Y687871D01*
X198773Y687885D01*
X198741Y687894D01*
X198708Y687898D01*
X198685Y687903D01*
X198662D01*
X198611Y687898D01*
X198560Y687889D01*
X198510Y687875D01*
X198468Y687861D01*
X198431Y687848D01*
X198403Y687834D01*
X198385Y687824D01*
X198380Y687820D01*
X198237Y688180D01*
X198315Y688222D01*
X198389Y688254D01*
X198454Y688278D01*
X198514Y688296D01*
X198565Y688305D01*
X198607Y688310D01*
X198639D01*
X198690Y688305D01*
D02*
G37*
G36*
X195482Y685938D02*
X194261D01*
X194150Y685943D01*
X194053Y685948D01*
X193965Y685957D01*
X193891Y685966D01*
X193831Y685975D01*
X193785Y685980D01*
X193757Y685989D01*
X193748D01*
X193669Y686012D01*
X193605Y686036D01*
X193545Y686063D01*
X193494Y686091D01*
X193452Y686109D01*
X193420Y686128D01*
X193401Y686142D01*
X193397Y686146D01*
X193346Y686188D01*
X193300Y686239D01*
X193263Y686290D01*
X193226Y686336D01*
X193198Y686382D01*
X193179Y686415D01*
X193166Y686438D01*
X193161Y686447D01*
X193129Y686521D01*
X193106Y686595D01*
X193087Y686664D01*
X193078Y686729D01*
X193069Y686784D01*
X193064Y686831D01*
Y686858D01*
Y686863D01*
Y686868D01*
X193069Y686969D01*
X193087Y687062D01*
X193115Y687140D01*
X193142Y687214D01*
X193170Y687270D01*
X193198Y687311D01*
X193216Y687339D01*
X193221Y687348D01*
X193286Y687422D01*
X193355Y687482D01*
X193434Y687533D01*
X193503Y687575D01*
X193568Y687607D01*
X193623Y687626D01*
X193642Y687635D01*
X193656Y687640D01*
X193665Y687644D01*
X193669D01*
X193591Y687690D01*
X193521Y687737D01*
X193466Y687787D01*
X193420Y687834D01*
X193383Y687871D01*
X193355Y687908D01*
X193341Y687926D01*
X193337Y687935D01*
X193300Y688005D01*
X193272Y688070D01*
X193249Y688134D01*
X193235Y688194D01*
X193226Y688245D01*
X193221Y688287D01*
Y688310D01*
Y688319D01*
X193226Y688398D01*
X193239Y688476D01*
X193263Y688546D01*
X193286Y688610D01*
X193309Y688666D01*
X193332Y688703D01*
X193346Y688731D01*
X193351Y688740D01*
X193401Y688809D01*
X193457Y688874D01*
X193517Y688925D01*
X193572Y688966D01*
X193619Y688999D01*
X193660Y689022D01*
X193688Y689036D01*
X193693Y689040D01*
X193697D01*
X193785Y689073D01*
X193882Y689096D01*
X193979Y689114D01*
X194072Y689124D01*
X194155Y689133D01*
X194192D01*
X194224Y689137D01*
X195482D01*
Y685938D01*
D02*
G37*
G36*
X184271Y688305D02*
X184317Y688296D01*
X184364Y688282D01*
X184401Y688268D01*
X184429Y688254D01*
X184456Y688241D01*
X184470Y688231D01*
X184475Y688227D01*
X184516Y688190D01*
X184558Y688143D01*
X184599Y688088D01*
X184636Y688037D01*
X184674Y687986D01*
X184697Y687945D01*
X184715Y687912D01*
X184720Y687908D01*
Y688259D01*
X185076D01*
Y685938D01*
X184683D01*
Y687150D01*
X184678Y687242D01*
X184674Y687325D01*
X184664Y687404D01*
X184650Y687473D01*
X184636Y687529D01*
X184627Y687570D01*
X184623Y687598D01*
X184618Y687607D01*
X184599Y687658D01*
X184576Y687700D01*
X184553Y687737D01*
X184530Y687769D01*
X184507Y687792D01*
X184493Y687811D01*
X184479Y687820D01*
X184475Y687824D01*
X184438Y687852D01*
X184396Y687871D01*
X184354Y687885D01*
X184322Y687894D01*
X184290Y687898D01*
X184267Y687903D01*
X184244D01*
X184193Y687898D01*
X184142Y687889D01*
X184091Y687875D01*
X184049Y687861D01*
X184012Y687848D01*
X183985Y687834D01*
X183966Y687824D01*
X183962Y687820D01*
X183818Y688180D01*
X183897Y688222D01*
X183971Y688254D01*
X184035Y688278D01*
X184096Y688296D01*
X184146Y688305D01*
X184188Y688310D01*
X184220D01*
X184271Y688305D01*
D02*
G37*
G36*
X214546D02*
X214620Y688301D01*
X214763Y688268D01*
X214888Y688227D01*
X214944Y688204D01*
X214994Y688180D01*
X215041Y688157D01*
X215078Y688134D01*
X215115Y688111D01*
X215142Y688093D01*
X215166Y688074D01*
X215184Y688060D01*
X215193Y688056D01*
X215198Y688051D01*
X215263Y687991D01*
X215313Y687922D01*
X215364Y687848D01*
X215401Y687774D01*
X215438Y687695D01*
X215466Y687612D01*
X215489Y687533D01*
X215508Y687459D01*
X215526Y687385D01*
X215535Y687321D01*
X215544Y687256D01*
X215549Y687205D01*
Y687159D01*
X215554Y687126D01*
Y687108D01*
Y687099D01*
X215549Y686992D01*
X215540Y686891D01*
X215526Y686798D01*
X215508Y686710D01*
X215484Y686632D01*
X215461Y686558D01*
X215434Y686488D01*
X215406Y686428D01*
X215378Y686373D01*
X215350Y686327D01*
X215327Y686290D01*
X215304Y686257D01*
X215286Y686230D01*
X215272Y686211D01*
X215263Y686202D01*
X215258Y686197D01*
X215198Y686142D01*
X215138Y686096D01*
X215073Y686054D01*
X215008Y686017D01*
X214944Y685989D01*
X214874Y685962D01*
X214749Y685925D01*
X214694Y685915D01*
X214639Y685906D01*
X214592Y685897D01*
X214551Y685892D01*
X214514Y685888D01*
X214467D01*
X214356Y685892D01*
X214255Y685911D01*
X214158Y685934D01*
X214079Y685957D01*
X214010Y685985D01*
X213982Y685994D01*
X213959Y686003D01*
X213936Y686012D01*
X213922Y686022D01*
X213917Y686026D01*
X213913D01*
X213820Y686086D01*
X213742Y686151D01*
X213672Y686216D01*
X213617Y686281D01*
X213575Y686336D01*
X213543Y686382D01*
X213534Y686401D01*
X213524Y686415D01*
X213520Y686419D01*
Y686424D01*
X213473Y686530D01*
X213441Y686646D01*
X213413Y686761D01*
X213400Y686877D01*
X213390Y686928D01*
Y686974D01*
X213386Y687020D01*
X213381Y687057D01*
Y687089D01*
Y687113D01*
Y687126D01*
Y687131D01*
X213386Y687233D01*
X213395Y687325D01*
X213409Y687413D01*
X213427Y687496D01*
X213450Y687575D01*
X213478Y687644D01*
X213506Y687714D01*
X213534Y687769D01*
X213561Y687820D01*
X213589Y687866D01*
X213617Y687908D01*
X213640Y687940D01*
X213658Y687963D01*
X213672Y687982D01*
X213682Y687991D01*
X213686Y687996D01*
X213746Y688051D01*
X213806Y688097D01*
X213871Y688143D01*
X213936Y688176D01*
X214000Y688208D01*
X214065Y688231D01*
X214190Y688273D01*
X214250Y688282D01*
X214301Y688291D01*
X214347Y688301D01*
X214389Y688305D01*
X214421Y688310D01*
X214467D01*
X214546Y688305D01*
D02*
G37*
G36*
X201117D02*
X201191Y688301D01*
X201334Y688268D01*
X201459Y688227D01*
X201514Y688204D01*
X201565Y688180D01*
X201611Y688157D01*
X201648Y688134D01*
X201685Y688111D01*
X201713Y688093D01*
X201736Y688074D01*
X201755Y688060D01*
X201764Y688056D01*
X201769Y688051D01*
X201833Y687991D01*
X201884Y687922D01*
X201935Y687848D01*
X201972Y687774D01*
X202009Y687695D01*
X202037Y687612D01*
X202060Y687533D01*
X202078Y687459D01*
X202097Y687385D01*
X202106Y687321D01*
X202115Y687256D01*
X202120Y687205D01*
Y687159D01*
X202125Y687126D01*
Y687108D01*
Y687099D01*
X202120Y686992D01*
X202111Y686891D01*
X202097Y686798D01*
X202078Y686710D01*
X202055Y686632D01*
X202032Y686558D01*
X202004Y686488D01*
X201977Y686428D01*
X201949Y686373D01*
X201921Y686327D01*
X201898Y686290D01*
X201875Y686257D01*
X201856Y686230D01*
X201842Y686211D01*
X201833Y686202D01*
X201829Y686197D01*
X201769Y686142D01*
X201709Y686096D01*
X201644Y686054D01*
X201579Y686017D01*
X201514Y685989D01*
X201445Y685962D01*
X201320Y685925D01*
X201265Y685915D01*
X201209Y685906D01*
X201163Y685897D01*
X201121Y685892D01*
X201084Y685888D01*
X201038D01*
X200927Y685892D01*
X200826Y685911D01*
X200728Y685934D01*
X200650Y685957D01*
X200581Y685985D01*
X200553Y685994D01*
X200530Y686003D01*
X200507Y686012D01*
X200493Y686022D01*
X200488Y686026D01*
X200483D01*
X200391Y686086D01*
X200312Y686151D01*
X200243Y686216D01*
X200188Y686281D01*
X200146Y686336D01*
X200114Y686382D01*
X200104Y686401D01*
X200095Y686415D01*
X200091Y686419D01*
Y686424D01*
X200044Y686530D01*
X200012Y686646D01*
X199984Y686761D01*
X199970Y686877D01*
X199961Y686928D01*
Y686974D01*
X199956Y687020D01*
X199952Y687057D01*
Y687089D01*
Y687113D01*
Y687126D01*
Y687131D01*
X199956Y687233D01*
X199966Y687325D01*
X199980Y687413D01*
X199998Y687496D01*
X200021Y687575D01*
X200049Y687644D01*
X200077Y687714D01*
X200104Y687769D01*
X200132Y687820D01*
X200160Y687866D01*
X200188Y687908D01*
X200211Y687940D01*
X200229Y687963D01*
X200243Y687982D01*
X200252Y687991D01*
X200257Y687996D01*
X200317Y688051D01*
X200377Y688097D01*
X200442Y688143D01*
X200507Y688176D01*
X200571Y688208D01*
X200636Y688231D01*
X200761Y688273D01*
X200821Y688282D01*
X200872Y688291D01*
X200918Y688301D01*
X200960Y688305D01*
X200992Y688310D01*
X201038D01*
X201117Y688305D01*
D02*
G37*
G36*
X221485Y685051D02*
X218882D01*
Y685333D01*
X221485D01*
Y685051D01*
D02*
G37*
G36*
X198366D02*
X195764D01*
Y685333D01*
X198366D01*
Y685051D01*
D02*
G37*
G36*
X195222Y472775D02*
X194408D01*
Y478221D01*
X192559Y472775D01*
X191801D01*
X189933Y478128D01*
Y472775D01*
X189120D01*
Y479173D01*
X190257D01*
X191792Y474717D01*
X191875Y474476D01*
X191940Y474273D01*
X192004Y474097D01*
X192051Y473949D01*
X192088Y473838D01*
X192115Y473755D01*
X192125Y473709D01*
X192134Y473690D01*
X192171Y473820D01*
X192217Y473968D01*
X192273Y474125D01*
X192319Y474282D01*
X192365Y474421D01*
X192402Y474532D01*
X192421Y474578D01*
X192430Y474606D01*
X192439Y474624D01*
Y474633D01*
X193955Y479173D01*
X195222D01*
Y472775D01*
D02*
G37*
G36*
X182740Y478563D02*
Y477416D01*
X183323D01*
Y476806D01*
X182740D01*
Y474125D01*
Y473995D01*
Y473885D01*
X182731Y473783D01*
X182722Y473681D01*
Y473598D01*
X182713Y473524D01*
X182694Y473404D01*
X182676Y473311D01*
X182666Y473247D01*
X182648Y473210D01*
Y473200D01*
X182611Y473117D01*
X182555Y473052D01*
X182500Y472988D01*
X182454Y472941D01*
X182398Y472895D01*
X182361Y472868D01*
X182334Y472849D01*
X182324Y472840D01*
X182223Y472794D01*
X182121Y472766D01*
X182010Y472738D01*
X181899Y472729D01*
X181807Y472720D01*
X181733Y472710D01*
X181659D01*
X181455Y472720D01*
X181353Y472729D01*
X181261Y472747D01*
X181178Y472757D01*
X181113Y472766D01*
X181076Y472775D01*
X181058D01*
X181159Y473468D01*
X181233Y473459D01*
X181307Y473450D01*
X181372D01*
X181418Y473441D01*
X181511D01*
X181631Y473450D01*
X181714Y473468D01*
X181760Y473487D01*
X181779Y473496D01*
X181843Y473542D01*
X181880Y473589D01*
X181908Y473626D01*
X181917Y473644D01*
X181927Y473690D01*
X181936Y473755D01*
X181945Y473903D01*
X181954Y473968D01*
Y474023D01*
Y474060D01*
Y474079D01*
Y476806D01*
X181159D01*
Y477416D01*
X181954D01*
Y479034D01*
X182740Y478563D01*
D02*
G37*
G36*
X215682Y475031D02*
Y474310D01*
X212899D01*
Y472775D01*
X212114D01*
Y474310D01*
X211245D01*
Y475031D01*
X212114D01*
Y479173D01*
X212752D01*
X215682Y475031D01*
D02*
G37*
G36*
X205179Y472775D02*
X201176D01*
Y473533D01*
X204329D01*
Y479173D01*
X205179D01*
Y472775D01*
D02*
G37*
G36*
X173809Y477509D02*
X173902Y477490D01*
X173994Y477463D01*
X174068Y477435D01*
X174123Y477407D01*
X174179Y477379D01*
X174207Y477361D01*
X174216Y477352D01*
X174299Y477278D01*
X174382Y477185D01*
X174466Y477074D01*
X174540Y476973D01*
X174613Y476871D01*
X174660Y476788D01*
X174697Y476723D01*
X174706Y476714D01*
Y477416D01*
X175418D01*
Y472775D01*
X174632D01*
Y475197D01*
X174623Y475382D01*
X174613Y475549D01*
X174595Y475706D01*
X174567Y475845D01*
X174540Y475956D01*
X174521Y476039D01*
X174512Y476094D01*
X174503Y476113D01*
X174466Y476214D01*
X174419Y476298D01*
X174373Y476372D01*
X174327Y476436D01*
X174281Y476483D01*
X174253Y476520D01*
X174225Y476538D01*
X174216Y476547D01*
X174142Y476603D01*
X174059Y476640D01*
X173976Y476667D01*
X173911Y476686D01*
X173846Y476695D01*
X173800Y476704D01*
X173754D01*
X173652Y476695D01*
X173550Y476677D01*
X173449Y476649D01*
X173365Y476621D01*
X173291Y476594D01*
X173236Y476566D01*
X173199Y476547D01*
X173190Y476538D01*
X172903Y477259D01*
X173060Y477342D01*
X173208Y477407D01*
X173338Y477453D01*
X173458Y477490D01*
X173559Y477509D01*
X173643Y477518D01*
X173707D01*
X173809Y477509D01*
D02*
G37*
G36*
X186124D02*
X186272Y477500D01*
X186559Y477435D01*
X186808Y477352D01*
X186919Y477305D01*
X187021Y477259D01*
X187113Y477213D01*
X187188Y477167D01*
X187261Y477121D01*
X187317Y477084D01*
X187363Y477047D01*
X187400Y477019D01*
X187419Y477010D01*
X187428Y477000D01*
X187557Y476880D01*
X187659Y476741D01*
X187761Y476594D01*
X187835Y476446D01*
X187909Y476288D01*
X187964Y476122D01*
X188010Y475965D01*
X188047Y475817D01*
X188084Y475669D01*
X188103Y475540D01*
X188121Y475410D01*
X188130Y475308D01*
Y475216D01*
X188140Y475151D01*
Y475114D01*
Y475096D01*
X188130Y474883D01*
X188112Y474680D01*
X188084Y474495D01*
X188047Y474319D01*
X188001Y474162D01*
X187955Y474014D01*
X187899Y473875D01*
X187844Y473755D01*
X187788Y473644D01*
X187733Y473552D01*
X187687Y473478D01*
X187640Y473413D01*
X187603Y473358D01*
X187576Y473321D01*
X187557Y473302D01*
X187548Y473293D01*
X187428Y473182D01*
X187308Y473089D01*
X187178Y473006D01*
X187049Y472932D01*
X186919Y472877D01*
X186781Y472821D01*
X186531Y472747D01*
X186420Y472729D01*
X186309Y472710D01*
X186217Y472692D01*
X186133Y472683D01*
X186059Y472673D01*
X185967D01*
X185745Y472683D01*
X185542Y472720D01*
X185348Y472766D01*
X185190Y472812D01*
X185052Y472868D01*
X184996Y472886D01*
X184950Y472905D01*
X184904Y472923D01*
X184876Y472941D01*
X184867Y472951D01*
X184858D01*
X184673Y473071D01*
X184515Y473200D01*
X184377Y473330D01*
X184266Y473459D01*
X184183Y473570D01*
X184118Y473663D01*
X184100Y473700D01*
X184081Y473727D01*
X184072Y473737D01*
Y473746D01*
X183979Y473959D01*
X183915Y474190D01*
X183859Y474421D01*
X183831Y474652D01*
X183813Y474754D01*
Y474846D01*
X183804Y474939D01*
X183794Y475013D01*
Y475077D01*
Y475123D01*
Y475151D01*
Y475160D01*
X183804Y475364D01*
X183822Y475549D01*
X183850Y475724D01*
X183887Y475891D01*
X183933Y476048D01*
X183988Y476187D01*
X184044Y476325D01*
X184100Y476436D01*
X184155Y476538D01*
X184210Y476630D01*
X184266Y476714D01*
X184312Y476778D01*
X184349Y476825D01*
X184377Y476862D01*
X184395Y476880D01*
X184405Y476889D01*
X184525Y477000D01*
X184645Y477093D01*
X184774Y477185D01*
X184904Y477250D01*
X185033Y477315D01*
X185163Y477361D01*
X185412Y477444D01*
X185532Y477463D01*
X185634Y477481D01*
X185727Y477500D01*
X185810Y477509D01*
X185875Y477518D01*
X185967D01*
X186124Y477509D01*
D02*
G37*
G36*
X178663D02*
X178811Y477500D01*
X179098Y477435D01*
X179347Y477352D01*
X179458Y477305D01*
X179560Y477259D01*
X179652Y477213D01*
X179726Y477167D01*
X179800Y477121D01*
X179856Y477084D01*
X179902Y477047D01*
X179939Y477019D01*
X179957Y477010D01*
X179967Y477000D01*
X180096Y476880D01*
X180198Y476741D01*
X180299Y476594D01*
X180373Y476446D01*
X180447Y476288D01*
X180503Y476122D01*
X180549Y475965D01*
X180586Y475817D01*
X180623Y475669D01*
X180642Y475540D01*
X180660Y475410D01*
X180669Y475308D01*
Y475216D01*
X180679Y475151D01*
Y475114D01*
Y475096D01*
X180669Y474883D01*
X180651Y474680D01*
X180623Y474495D01*
X180586Y474319D01*
X180540Y474162D01*
X180494Y474014D01*
X180438Y473875D01*
X180383Y473755D01*
X180327Y473644D01*
X180272Y473552D01*
X180226Y473478D01*
X180179Y473413D01*
X180142Y473358D01*
X180115Y473321D01*
X180096Y473302D01*
X180087Y473293D01*
X179967Y473182D01*
X179846Y473089D01*
X179717Y473006D01*
X179588Y472932D01*
X179458Y472877D01*
X179319Y472821D01*
X179070Y472747D01*
X178959Y472729D01*
X178848Y472710D01*
X178755Y472692D01*
X178672Y472683D01*
X178598Y472673D01*
X178506D01*
X178284Y472683D01*
X178081Y472720D01*
X177886Y472766D01*
X177729Y472812D01*
X177591Y472868D01*
X177535Y472886D01*
X177489Y472905D01*
X177443Y472923D01*
X177415Y472941D01*
X177406Y472951D01*
X177396D01*
X177211Y473071D01*
X177054Y473200D01*
X176916Y473330D01*
X176805Y473459D01*
X176721Y473570D01*
X176657Y473663D01*
X176638Y473700D01*
X176620Y473727D01*
X176611Y473737D01*
Y473746D01*
X176518Y473959D01*
X176453Y474190D01*
X176398Y474421D01*
X176370Y474652D01*
X176352Y474754D01*
Y474846D01*
X176342Y474939D01*
X176333Y475013D01*
Y475077D01*
Y475123D01*
Y475151D01*
Y475160D01*
X176342Y475364D01*
X176361Y475549D01*
X176389Y475724D01*
X176426Y475891D01*
X176472Y476048D01*
X176527Y476187D01*
X176583Y476325D01*
X176638Y476436D01*
X176694Y476538D01*
X176749Y476630D01*
X176805Y476714D01*
X176851Y476778D01*
X176888Y476825D01*
X176916Y476862D01*
X176934Y476880D01*
X176943Y476889D01*
X177064Y477000D01*
X177184Y477093D01*
X177313Y477185D01*
X177443Y477250D01*
X177572Y477315D01*
X177701Y477361D01*
X177951Y477444D01*
X178071Y477463D01*
X178173Y477481D01*
X178265Y477500D01*
X178349Y477509D01*
X178413Y477518D01*
X178506D01*
X178663Y477509D01*
D02*
G37*
G36*
X217328Y474763D02*
Y474569D01*
X217347Y474402D01*
X217356Y474264D01*
X217374Y474153D01*
X217393Y474069D01*
X217402Y474005D01*
X217421Y473968D01*
Y473959D01*
X217458Y473866D01*
X217504Y473792D01*
X217559Y473727D01*
X217605Y473663D01*
X217661Y473626D01*
X217698Y473589D01*
X217726Y473570D01*
X217735Y473561D01*
X217827Y473515D01*
X217920Y473478D01*
X218012Y473459D01*
X218095Y473441D01*
X218179Y473432D01*
X218234Y473422D01*
X218290D01*
X218438Y473432D01*
X218576Y473468D01*
X218687Y473505D01*
X218789Y473561D01*
X218863Y473607D01*
X218918Y473653D01*
X218955Y473681D01*
X218965Y473690D01*
X219011Y473746D01*
X219048Y473811D01*
X219103Y473959D01*
X219159Y474125D01*
X219186Y474291D01*
X219214Y474449D01*
Y474513D01*
X219223Y474569D01*
X219233Y474624D01*
Y474661D01*
Y474680D01*
Y474689D01*
X220000Y474578D01*
Y474402D01*
X219991Y474245D01*
X219963Y474088D01*
X219945Y473949D01*
X219908Y473820D01*
X219871Y473709D01*
X219834Y473598D01*
X219797Y473505D01*
X219750Y473422D01*
X219713Y473348D01*
X219676Y473284D01*
X219639Y473237D01*
X219612Y473200D01*
X219593Y473163D01*
X219584Y473154D01*
X219575Y473145D01*
X219482Y473062D01*
X219390Y472988D01*
X219288Y472923D01*
X219177Y472868D01*
X218965Y472784D01*
X218761Y472729D01*
X218567Y472692D01*
X218493Y472683D01*
X218419Y472673D01*
X218364Y472664D01*
X218280D01*
X218077Y472673D01*
X217892Y472701D01*
X217726Y472738D01*
X217578Y472784D01*
X217458Y472821D01*
X217374Y472858D01*
X217319Y472886D01*
X217300Y472895D01*
X217153Y472988D01*
X217023Y473099D01*
X216921Y473210D01*
X216829Y473311D01*
X216764Y473413D01*
X216718Y473487D01*
X216690Y473542D01*
X216681Y473552D01*
Y473561D01*
X216616Y473746D01*
X216561Y473940D01*
X216524Y474153D01*
X216505Y474356D01*
X216487Y474532D01*
Y474606D01*
X216478Y474680D01*
Y474735D01*
Y474772D01*
Y474800D01*
Y474809D01*
Y479173D01*
X217328D01*
Y474763D01*
D02*
G37*
G36*
X210949Y471000D02*
X205743D01*
Y471564D01*
X210949D01*
Y471000D01*
D02*
G37*
G36*
X201000D02*
X195795D01*
Y471564D01*
X201000D01*
Y471000D01*
D02*
G37*
G36*
X135684Y468436D02*
X130479D01*
Y469000D01*
X135684D01*
Y468436D01*
D02*
G37*
G36*
X124257D02*
X119051D01*
Y469000D01*
X124257D01*
Y468436D01*
D02*
G37*
G36*
X150024Y467281D02*
X150126Y467271D01*
X150218Y467253D01*
X150302Y467243D01*
X150366Y467234D01*
X150403Y467225D01*
X150422D01*
X150320Y466532D01*
X150246Y466541D01*
X150172Y466550D01*
X150107D01*
X150061Y466559D01*
X149969D01*
X149848Y466550D01*
X149765Y466532D01*
X149719Y466513D01*
X149700Y466504D01*
X149636Y466458D01*
X149599Y466411D01*
X149571Y466374D01*
X149562Y466356D01*
X149553Y466310D01*
X149543Y466245D01*
X149534Y466097D01*
X149525Y466032D01*
Y465977D01*
Y465940D01*
Y465921D01*
Y463194D01*
X150320D01*
Y462584D01*
X149525D01*
Y460966D01*
X148739Y461437D01*
Y462584D01*
X148156D01*
Y463194D01*
X148739D01*
Y465875D01*
Y466005D01*
Y466115D01*
X148748Y466217D01*
X148757Y466319D01*
Y466402D01*
X148767Y466476D01*
X148785Y466596D01*
X148804Y466689D01*
X148813Y466754D01*
X148831Y466791D01*
Y466800D01*
X148868Y466883D01*
X148924Y466948D01*
X148979Y467012D01*
X149026Y467059D01*
X149081Y467105D01*
X149118Y467132D01*
X149146Y467151D01*
X149155Y467160D01*
X149257Y467206D01*
X149358Y467234D01*
X149469Y467262D01*
X149580Y467271D01*
X149673Y467281D01*
X149747Y467290D01*
X149821D01*
X150024Y467281D01*
D02*
G37*
G36*
X129388Y465487D02*
X129258Y465302D01*
X129138Y465135D01*
X129018Y464997D01*
X128916Y464867D01*
X128824Y464775D01*
X128750Y464701D01*
X128704Y464655D01*
X128685Y464636D01*
X128611Y464581D01*
X128528Y464516D01*
X128362Y464414D01*
X128288Y464377D01*
X128232Y464340D01*
X128195Y464322D01*
X128177Y464313D01*
X128343Y464285D01*
X128500Y464257D01*
X128639Y464211D01*
X128778Y464174D01*
X128898Y464128D01*
X129009Y464072D01*
X129110Y464026D01*
X129203Y463980D01*
X129277Y463924D01*
X129351Y463878D01*
X129406Y463841D01*
X129453Y463804D01*
X129490Y463776D01*
X129517Y463749D01*
X129527Y463739D01*
X129536Y463730D01*
X129610Y463638D01*
X129684Y463545D01*
X129795Y463351D01*
X129869Y463157D01*
X129924Y462972D01*
X129961Y462815D01*
X129970Y462750D01*
Y462685D01*
X129980Y462639D01*
Y462602D01*
Y462584D01*
Y462575D01*
X129970Y462380D01*
X129943Y462205D01*
X129896Y462038D01*
X129850Y461899D01*
X129795Y461779D01*
X129758Y461687D01*
X129721Y461631D01*
X129712Y461622D01*
Y461613D01*
X129601Y461465D01*
X129490Y461336D01*
X129369Y461225D01*
X129258Y461141D01*
X129157Y461077D01*
X129074Y461040D01*
X129018Y461012D01*
X129009Y461003D01*
X129000D01*
X128916Y460975D01*
X128815Y460947D01*
X128611Y460901D01*
X128389Y460873D01*
X128186Y460845D01*
X127992Y460836D01*
X127909D01*
X127835Y460827D01*
X124867D01*
Y467225D01*
X125717D01*
Y464387D01*
X126808D01*
X126910Y464396D01*
X126984D01*
X127049Y464405D01*
X127095Y464414D01*
X127132D01*
X127150Y464424D01*
X127160D01*
X127308Y464470D01*
X127372Y464497D01*
X127428Y464525D01*
X127483Y464553D01*
X127520Y464571D01*
X127539Y464581D01*
X127548Y464590D01*
X127622Y464646D01*
X127696Y464710D01*
X127835Y464849D01*
X127899Y464914D01*
X127946Y464969D01*
X127973Y465006D01*
X127983Y465015D01*
X128075Y465145D01*
X128177Y465283D01*
X128278Y465431D01*
X128380Y465570D01*
X128463Y465700D01*
X128528Y465801D01*
X128556Y465838D01*
X128574Y465866D01*
X128593Y465884D01*
Y465894D01*
X129434Y467225D01*
X130488D01*
X129388Y465487D01*
D02*
G37*
G36*
X156847Y464803D02*
X156857Y464618D01*
X156866Y464451D01*
X156884Y464294D01*
X156912Y464156D01*
X156940Y464044D01*
X156958Y463961D01*
X156967Y463906D01*
X156977Y463887D01*
X157014Y463786D01*
X157060Y463702D01*
X157106Y463629D01*
X157152Y463564D01*
X157199Y463517D01*
X157226Y463480D01*
X157254Y463462D01*
X157263Y463453D01*
X157337Y463397D01*
X157421Y463360D01*
X157504Y463333D01*
X157569Y463314D01*
X157633Y463305D01*
X157679Y463296D01*
X157726D01*
X157827Y463305D01*
X157929Y463323D01*
X158031Y463351D01*
X158114Y463379D01*
X158188Y463407D01*
X158243Y463434D01*
X158280Y463453D01*
X158290Y463462D01*
X158576Y462741D01*
X158419Y462658D01*
X158271Y462593D01*
X158142Y462547D01*
X158021Y462510D01*
X157920Y462491D01*
X157837Y462482D01*
X157772D01*
X157670Y462491D01*
X157578Y462510D01*
X157485Y462537D01*
X157411Y462565D01*
X157356Y462593D01*
X157300Y462621D01*
X157273Y462639D01*
X157263Y462648D01*
X157180Y462722D01*
X157097Y462815D01*
X157014Y462926D01*
X156940Y463027D01*
X156866Y463129D01*
X156820Y463212D01*
X156783Y463277D01*
X156773Y463286D01*
Y462584D01*
X156061D01*
Y467225D01*
X156847D01*
Y464803D01*
D02*
G37*
G36*
X153195Y467318D02*
X153399Y467281D01*
X153593Y467234D01*
X153750Y467188D01*
X153889Y467132D01*
X153944Y467114D01*
X153990Y467096D01*
X154037Y467077D01*
X154064Y467059D01*
X154074Y467049D01*
X154083D01*
X154268Y466929D01*
X154425Y466800D01*
X154564Y466670D01*
X154675Y466541D01*
X154758Y466430D01*
X154823Y466337D01*
X154841Y466300D01*
X154860Y466273D01*
X154869Y466264D01*
Y466254D01*
X154961Y466042D01*
X155026Y465810D01*
X155081Y465579D01*
X155109Y465348D01*
X155128Y465246D01*
Y465154D01*
X155137Y465061D01*
X155146Y464988D01*
Y464923D01*
Y464877D01*
Y464849D01*
Y464840D01*
X155137Y464636D01*
X155118Y464451D01*
X155091Y464276D01*
X155054Y464109D01*
X155007Y463952D01*
X154952Y463813D01*
X154896Y463675D01*
X154841Y463564D01*
X154786Y463462D01*
X154730Y463370D01*
X154675Y463286D01*
X154628Y463222D01*
X154591Y463175D01*
X154564Y463138D01*
X154545Y463120D01*
X154536Y463111D01*
X154416Y463000D01*
X154296Y462907D01*
X154166Y462815D01*
X154037Y462750D01*
X153907Y462685D01*
X153778Y462639D01*
X153528Y462556D01*
X153408Y462537D01*
X153306Y462519D01*
X153214Y462500D01*
X153131Y462491D01*
X153066Y462482D01*
X152973D01*
X152816Y462491D01*
X152668Y462500D01*
X152382Y462565D01*
X152132Y462648D01*
X152021Y462695D01*
X151919Y462741D01*
X151827Y462787D01*
X151753Y462833D01*
X151679Y462880D01*
X151624Y462916D01*
X151577Y462953D01*
X151540Y462981D01*
X151522Y462990D01*
X151513Y463000D01*
X151383Y463120D01*
X151281Y463259D01*
X151180Y463407D01*
X151106Y463554D01*
X151032Y463712D01*
X150976Y463878D01*
X150930Y464035D01*
X150893Y464183D01*
X150856Y464331D01*
X150838Y464461D01*
X150819Y464590D01*
X150810Y464692D01*
Y464784D01*
X150801Y464849D01*
Y464886D01*
Y464904D01*
X150810Y465117D01*
X150829Y465320D01*
X150856Y465505D01*
X150893Y465681D01*
X150939Y465838D01*
X150986Y465986D01*
X151041Y466125D01*
X151097Y466245D01*
X151152Y466356D01*
X151208Y466448D01*
X151254Y466522D01*
X151300Y466587D01*
X151337Y466642D01*
X151365Y466679D01*
X151383Y466698D01*
X151392Y466707D01*
X151513Y466818D01*
X151633Y466911D01*
X151762Y466994D01*
X151892Y467068D01*
X152021Y467123D01*
X152160Y467179D01*
X152409Y467253D01*
X152520Y467271D01*
X152631Y467290D01*
X152724Y467308D01*
X152807Y467318D01*
X152881Y467327D01*
X152973D01*
X153195Y467318D01*
D02*
G37*
G36*
X145734D02*
X145938Y467281D01*
X146132Y467234D01*
X146289Y467188D01*
X146427Y467132D01*
X146483Y467114D01*
X146529Y467096D01*
X146575Y467077D01*
X146603Y467059D01*
X146613Y467049D01*
X146622D01*
X146807Y466929D01*
X146964Y466800D01*
X147102Y466670D01*
X147213Y466541D01*
X147297Y466430D01*
X147361Y466337D01*
X147380Y466300D01*
X147398Y466273D01*
X147408Y466264D01*
Y466254D01*
X147500Y466042D01*
X147565Y465810D01*
X147620Y465579D01*
X147648Y465348D01*
X147667Y465246D01*
Y465154D01*
X147676Y465061D01*
X147685Y464988D01*
Y464923D01*
Y464877D01*
Y464849D01*
Y464840D01*
X147676Y464636D01*
X147657Y464451D01*
X147629Y464276D01*
X147592Y464109D01*
X147546Y463952D01*
X147491Y463813D01*
X147435Y463675D01*
X147380Y463564D01*
X147324Y463462D01*
X147269Y463370D01*
X147213Y463286D01*
X147167Y463222D01*
X147130Y463175D01*
X147102Y463138D01*
X147084Y463120D01*
X147075Y463111D01*
X146954Y463000D01*
X146834Y462907D01*
X146705Y462815D01*
X146575Y462750D01*
X146446Y462685D01*
X146317Y462639D01*
X146067Y462556D01*
X145947Y462537D01*
X145845Y462519D01*
X145753Y462500D01*
X145669Y462491D01*
X145605Y462482D01*
X145512D01*
X145355Y462491D01*
X145207Y462500D01*
X144921Y462565D01*
X144671Y462648D01*
X144560Y462695D01*
X144458Y462741D01*
X144366Y462787D01*
X144292Y462833D01*
X144218Y462880D01*
X144162Y462916D01*
X144116Y462953D01*
X144079Y462981D01*
X144061Y462990D01*
X144051Y463000D01*
X143922Y463120D01*
X143820Y463259D01*
X143719Y463407D01*
X143645Y463554D01*
X143571Y463712D01*
X143515Y463878D01*
X143469Y464035D01*
X143432Y464183D01*
X143395Y464331D01*
X143377Y464461D01*
X143358Y464590D01*
X143349Y464692D01*
Y464784D01*
X143340Y464849D01*
Y464886D01*
Y464904D01*
X143349Y465117D01*
X143367Y465320D01*
X143395Y465505D01*
X143432Y465681D01*
X143478Y465838D01*
X143524Y465986D01*
X143580Y466125D01*
X143635Y466245D01*
X143691Y466356D01*
X143746Y466448D01*
X143792Y466522D01*
X143839Y466587D01*
X143876Y466642D01*
X143904Y466679D01*
X143922Y466698D01*
X143931Y466707D01*
X144051Y466818D01*
X144172Y466911D01*
X144301Y466994D01*
X144431Y467068D01*
X144560Y467123D01*
X144699Y467179D01*
X144948Y467253D01*
X145059Y467271D01*
X145170Y467290D01*
X145263Y467308D01*
X145346Y467318D01*
X145420Y467327D01*
X145512D01*
X145734Y467318D01*
D02*
G37*
G36*
X142360Y460827D02*
X141222D01*
X139688Y465283D01*
X139604Y465524D01*
X139540Y465727D01*
X139475Y465903D01*
X139429Y466051D01*
X139392Y466162D01*
X139364Y466245D01*
X139355Y466291D01*
X139345Y466310D01*
X139308Y466180D01*
X139262Y466032D01*
X139207Y465875D01*
X139160Y465718D01*
X139114Y465579D01*
X139077Y465468D01*
X139059Y465422D01*
X139050Y465394D01*
X139040Y465376D01*
Y465367D01*
X137524Y460827D01*
X136257D01*
Y467225D01*
X137071D01*
Y461779D01*
X138920Y467225D01*
X139678D01*
X141546Y461872D01*
Y467225D01*
X142360D01*
Y460827D01*
D02*
G37*
G36*
X117886Y465690D02*
X118756D01*
Y464969D01*
X117886D01*
Y460827D01*
X117248D01*
X114318Y464969D01*
Y465690D01*
X117100D01*
Y467225D01*
X117886D01*
Y465690D01*
D02*
G37*
G36*
X111923Y467327D02*
X112108Y467299D01*
X112274Y467262D01*
X112422Y467216D01*
X112542Y467179D01*
X112626Y467142D01*
X112681Y467114D01*
X112700Y467105D01*
X112847Y467012D01*
X112977Y466901D01*
X113079Y466791D01*
X113171Y466689D01*
X113236Y466587D01*
X113282Y466513D01*
X113310Y466458D01*
X113319Y466448D01*
Y466439D01*
X113384Y466254D01*
X113439Y466060D01*
X113476Y465847D01*
X113495Y465644D01*
X113513Y465468D01*
Y465394D01*
X113523Y465320D01*
Y465265D01*
Y465228D01*
Y465200D01*
Y465191D01*
Y460827D01*
X112672D01*
Y465237D01*
Y465431D01*
X112653Y465598D01*
X112644Y465737D01*
X112626Y465847D01*
X112607Y465931D01*
X112598Y465995D01*
X112579Y466032D01*
Y466042D01*
X112542Y466134D01*
X112496Y466208D01*
X112441Y466273D01*
X112395Y466337D01*
X112339Y466374D01*
X112302Y466411D01*
X112274Y466430D01*
X112265Y466439D01*
X112173Y466485D01*
X112080Y466522D01*
X111988Y466541D01*
X111904Y466559D01*
X111821Y466569D01*
X111766Y466578D01*
X111710D01*
X111562Y466569D01*
X111424Y466532D01*
X111313Y466495D01*
X111211Y466439D01*
X111137Y466393D01*
X111082Y466347D01*
X111045Y466319D01*
X111035Y466310D01*
X110989Y466254D01*
X110952Y466189D01*
X110897Y466042D01*
X110841Y465875D01*
X110814Y465709D01*
X110786Y465551D01*
Y465487D01*
X110777Y465431D01*
X110767Y465376D01*
Y465339D01*
Y465320D01*
Y465311D01*
X110000Y465422D01*
Y465598D01*
X110009Y465755D01*
X110037Y465912D01*
X110055Y466051D01*
X110092Y466180D01*
X110129Y466291D01*
X110166Y466402D01*
X110203Y466495D01*
X110250Y466578D01*
X110287Y466652D01*
X110323Y466716D01*
X110360Y466763D01*
X110388Y466800D01*
X110407Y466837D01*
X110416Y466846D01*
X110425Y466855D01*
X110518Y466938D01*
X110610Y467012D01*
X110712Y467077D01*
X110823Y467132D01*
X111035Y467216D01*
X111239Y467271D01*
X111433Y467308D01*
X111507Y467318D01*
X111581Y467327D01*
X111636Y467336D01*
X111720D01*
X111923Y467327D01*
D02*
G37*
G36*
X547495Y124958D02*
X547640Y124944D01*
X547779Y124923D01*
X547890Y124902D01*
X547987Y124882D01*
X548056Y124861D01*
X548084Y124854D01*
X548105Y124847D01*
X548112Y124840D01*
X548119D01*
X548237Y124791D01*
X548341Y124729D01*
X548431Y124674D01*
X548507Y124618D01*
X548563Y124563D01*
X548604Y124521D01*
X548632Y124493D01*
X548639Y124486D01*
X548701Y124396D01*
X548757Y124299D01*
X548798Y124202D01*
X548833Y124112D01*
X548861Y124022D01*
X548881Y123959D01*
X548888Y123932D01*
Y123911D01*
X548895Y123904D01*
Y123897D01*
X548320Y123821D01*
X548278Y123946D01*
X548237Y124057D01*
X548188Y124147D01*
X548147Y124216D01*
X548105Y124271D01*
X548070Y124306D01*
X548042Y124327D01*
X548036Y124334D01*
X547952Y124382D01*
X547855Y124417D01*
X547751Y124445D01*
X547654Y124459D01*
X547557Y124473D01*
X547488Y124480D01*
X547418D01*
X547259Y124473D01*
X547120Y124452D01*
X547009Y124417D01*
X546912Y124382D01*
X546843Y124341D01*
X546787Y124313D01*
X546753Y124285D01*
X546746Y124278D01*
X546690Y124216D01*
X546649Y124140D01*
X546614Y124057D01*
X546593Y123973D01*
X546579Y123897D01*
X546572Y123828D01*
Y123786D01*
Y123779D01*
Y123772D01*
Y123758D01*
Y123731D01*
Y123682D01*
X546579Y123640D01*
Y123627D01*
Y123620D01*
X546649Y123599D01*
X546725Y123578D01*
X546884Y123536D01*
X547065Y123502D01*
X547231Y123467D01*
X547314Y123453D01*
X547391Y123446D01*
X547460Y123432D01*
X547515Y123426D01*
X547564Y123419D01*
X547599D01*
X547626Y123412D01*
X547633D01*
X547758Y123398D01*
X547862Y123377D01*
X547952Y123363D01*
X548022Y123349D01*
X548077Y123342D01*
X548119Y123328D01*
X548147Y123322D01*
X548153D01*
X548244Y123294D01*
X548320Y123266D01*
X548396Y123231D01*
X548459Y123204D01*
X548514Y123176D01*
X548549Y123148D01*
X548576Y123134D01*
X548583Y123127D01*
X548653Y123079D01*
X548708Y123023D01*
X548764Y122968D01*
X548805Y122912D01*
X548840Y122864D01*
X548868Y122822D01*
X548881Y122795D01*
X548888Y122788D01*
X548923Y122711D01*
X548951Y122628D01*
X548972Y122552D01*
X548985Y122476D01*
X548993Y122413D01*
X548999Y122365D01*
Y122337D01*
Y122323D01*
X548993Y122240D01*
X548985Y122170D01*
X548951Y122025D01*
X548902Y121907D01*
X548847Y121803D01*
X548791Y121720D01*
X548743Y121657D01*
X548708Y121623D01*
X548694Y121609D01*
X548569Y121519D01*
X548431Y121449D01*
X548278Y121401D01*
X548139Y121366D01*
X548015Y121345D01*
X547959Y121338D01*
X547911D01*
X547869Y121331D01*
X547814D01*
X547689Y121338D01*
X547564Y121352D01*
X547453Y121366D01*
X547356Y121387D01*
X547280Y121408D01*
X547217Y121428D01*
X547176Y121435D01*
X547162Y121442D01*
X547044Y121491D01*
X546933Y121553D01*
X546829Y121623D01*
X546725Y121685D01*
X546642Y121747D01*
X546579Y121796D01*
X546538Y121831D01*
X546531Y121845D01*
X546524D01*
X546510Y121754D01*
X546496Y121671D01*
X546482Y121595D01*
X546461Y121532D01*
X546441Y121477D01*
X546427Y121442D01*
X546420Y121415D01*
X546413Y121408D01*
X545796D01*
X545830Y121484D01*
X545865Y121560D01*
X545893Y121629D01*
X545907Y121692D01*
X545928Y121747D01*
X545934Y121789D01*
X545941Y121817D01*
Y121824D01*
X545948Y121872D01*
X545955Y121935D01*
Y122004D01*
X545962Y122080D01*
X545969Y122254D01*
Y122427D01*
X545976Y122593D01*
Y122670D01*
Y122732D01*
Y122788D01*
Y122829D01*
Y122857D01*
Y122864D01*
Y123654D01*
Y123786D01*
X545983Y123904D01*
X545990Y123994D01*
Y124070D01*
X545997Y124126D01*
X546004Y124167D01*
X546011Y124188D01*
Y124195D01*
X546031Y124285D01*
X546059Y124362D01*
X546087Y124424D01*
X546122Y124486D01*
X546149Y124528D01*
X546170Y124563D01*
X546184Y124584D01*
X546191Y124590D01*
X546246Y124646D01*
X546309Y124701D01*
X546378Y124743D01*
X546448Y124785D01*
X546510Y124812D01*
X546558Y124833D01*
X546593Y124847D01*
X546607Y124854D01*
X546718Y124889D01*
X546836Y124916D01*
X546954Y124937D01*
X547072Y124951D01*
X547176Y124958D01*
X547252Y124965D01*
X547328D01*
X547495Y124958D01*
D02*
G37*
G36*
X603696Y124050D02*
X605000D01*
Y123502D01*
X603696D01*
Y122184D01*
X603142D01*
Y123502D01*
X601838D01*
Y124050D01*
X603142D01*
Y125353D01*
X603696D01*
Y124050D01*
D02*
G37*
G36*
X534396Y121408D02*
X534424Y121345D01*
X534438Y121297D01*
X534451Y121269D01*
Y121262D01*
X534493Y121144D01*
X534535Y121047D01*
X534562Y120964D01*
X534590Y120908D01*
X534604Y120867D01*
X534618Y120839D01*
X534632Y120825D01*
Y120818D01*
X534687Y120742D01*
X534750Y120687D01*
X534777Y120666D01*
X534798Y120652D01*
X534812Y120638D01*
X534819D01*
X534868Y120617D01*
X534916Y120596D01*
X535020Y120576D01*
X535062D01*
X535096Y120569D01*
X535131D01*
X535242Y120576D01*
X535353Y120596D01*
X535395Y120610D01*
X535429Y120617D01*
X535457Y120624D01*
X535464D01*
X535401Y120076D01*
X535325Y120049D01*
X535256Y120035D01*
X535193Y120021D01*
X535138Y120007D01*
X535089D01*
X535055Y120000D01*
X535027D01*
X534923Y120007D01*
X534833Y120021D01*
X534750Y120042D01*
X534680Y120069D01*
X534618Y120097D01*
X534576Y120118D01*
X534548Y120132D01*
X534542Y120139D01*
X534465Y120194D01*
X534403Y120264D01*
X534341Y120333D01*
X534285Y120402D01*
X534243Y120465D01*
X534209Y120513D01*
X534188Y120548D01*
X534181Y120562D01*
X534160Y120610D01*
X534132Y120659D01*
X534077Y120777D01*
X534021Y120908D01*
X533973Y121040D01*
X533924Y121158D01*
X533904Y121214D01*
X533883Y121262D01*
X533869Y121297D01*
X533855Y121324D01*
X533848Y121345D01*
Y121352D01*
X532524Y124889D01*
X533113D01*
X533862Y122857D01*
X533918Y122711D01*
X533959Y122573D01*
X534008Y122434D01*
X534042Y122316D01*
X534070Y122212D01*
X534084Y122170D01*
X534091Y122136D01*
X534098Y122108D01*
X534105Y122087D01*
X534112Y122073D01*
Y122066D01*
X534153Y122226D01*
X534195Y122372D01*
X534236Y122510D01*
X534278Y122628D01*
X534313Y122725D01*
X534327Y122767D01*
X534341Y122801D01*
X534347Y122836D01*
X534354Y122857D01*
X534361Y122864D01*
Y122871D01*
X535089Y124889D01*
X535714D01*
X534396Y121408D01*
D02*
G37*
G36*
X564733Y125748D02*
Y124889D01*
X565170D01*
Y124431D01*
X564733D01*
Y122420D01*
Y122323D01*
Y122240D01*
X564726Y122163D01*
X564719Y122087D01*
Y122025D01*
X564712Y121969D01*
X564698Y121879D01*
X564684Y121810D01*
X564678Y121761D01*
X564664Y121734D01*
Y121727D01*
X564636Y121664D01*
X564594Y121616D01*
X564553Y121567D01*
X564518Y121532D01*
X564477Y121498D01*
X564449Y121477D01*
X564428Y121463D01*
X564421Y121456D01*
X564345Y121421D01*
X564268Y121401D01*
X564185Y121380D01*
X564102Y121373D01*
X564033Y121366D01*
X563977Y121359D01*
X563922D01*
X563769Y121366D01*
X563693Y121373D01*
X563624Y121387D01*
X563561Y121394D01*
X563513Y121401D01*
X563485Y121408D01*
X563471D01*
X563547Y121928D01*
X563603Y121921D01*
X563658Y121914D01*
X563707D01*
X563741Y121907D01*
X563811D01*
X563901Y121914D01*
X563963Y121928D01*
X563998Y121942D01*
X564012Y121948D01*
X564061Y121983D01*
X564088Y122018D01*
X564109Y122046D01*
X564116Y122059D01*
X564123Y122094D01*
X564130Y122143D01*
X564137Y122254D01*
X564144Y122302D01*
Y122344D01*
Y122372D01*
Y122385D01*
Y124431D01*
X563547D01*
Y124889D01*
X564144D01*
Y126102D01*
X564733Y125748D01*
D02*
G37*
G36*
X544971D02*
Y124889D01*
X545407D01*
Y124431D01*
X544971D01*
Y122420D01*
Y122323D01*
Y122240D01*
X544964Y122163D01*
X544957Y122087D01*
Y122025D01*
X544950Y121969D01*
X544936Y121879D01*
X544922Y121810D01*
X544915Y121761D01*
X544901Y121734D01*
Y121727D01*
X544874Y121664D01*
X544832Y121616D01*
X544790Y121567D01*
X544756Y121532D01*
X544714Y121498D01*
X544686Y121477D01*
X544665Y121463D01*
X544659Y121456D01*
X544582Y121421D01*
X544506Y121401D01*
X544423Y121380D01*
X544340Y121373D01*
X544270Y121366D01*
X544215Y121359D01*
X544159D01*
X544007Y121366D01*
X543931Y121373D01*
X543861Y121387D01*
X543799Y121394D01*
X543750Y121401D01*
X543722Y121408D01*
X543709D01*
X543785Y121928D01*
X543840Y121921D01*
X543896Y121914D01*
X543944D01*
X543979Y121907D01*
X544048D01*
X544138Y121914D01*
X544201Y121928D01*
X544236Y121942D01*
X544249Y121948D01*
X544298Y121983D01*
X544326Y122018D01*
X544347Y122046D01*
X544353Y122059D01*
X544360Y122094D01*
X544367Y122143D01*
X544374Y122254D01*
X544381Y122302D01*
Y122344D01*
Y122372D01*
Y122385D01*
Y124431D01*
X543785D01*
Y124889D01*
X544381D01*
Y126102D01*
X544971Y125748D01*
D02*
G37*
G36*
X543105D02*
Y124889D01*
X543542D01*
Y124431D01*
X543105D01*
Y122420D01*
Y122323D01*
Y122240D01*
X543098Y122163D01*
X543091Y122087D01*
Y122025D01*
X543084Y121969D01*
X543071Y121879D01*
X543057Y121810D01*
X543050Y121761D01*
X543036Y121734D01*
Y121727D01*
X543008Y121664D01*
X542967Y121616D01*
X542925Y121567D01*
X542890Y121532D01*
X542849Y121498D01*
X542821Y121477D01*
X542800Y121463D01*
X542793Y121456D01*
X542717Y121421D01*
X542641Y121401D01*
X542557Y121380D01*
X542474Y121373D01*
X542405Y121366D01*
X542350Y121359D01*
X542294D01*
X542141Y121366D01*
X542065Y121373D01*
X541996Y121387D01*
X541933Y121394D01*
X541885Y121401D01*
X541857Y121408D01*
X541843D01*
X541920Y121928D01*
X541975Y121921D01*
X542030Y121914D01*
X542079D01*
X542114Y121907D01*
X542183D01*
X542273Y121914D01*
X542336Y121928D01*
X542370Y121942D01*
X542384Y121948D01*
X542433Y121983D01*
X542460Y122018D01*
X542481Y122046D01*
X542488Y122059D01*
X542495Y122094D01*
X542502Y122143D01*
X542509Y122254D01*
X542516Y122302D01*
Y122344D01*
Y122372D01*
Y122385D01*
Y124431D01*
X541920D01*
Y124889D01*
X542516D01*
Y126102D01*
X543105Y125748D01*
D02*
G37*
G36*
X586028Y126275D02*
X586250Y126241D01*
X586444Y126199D01*
X586534Y126171D01*
X586617Y126144D01*
X586694Y126116D01*
X586763Y126088D01*
X586819Y126067D01*
X586874Y126047D01*
X586909Y126026D01*
X586936Y126012D01*
X586957Y126005D01*
X586964Y125998D01*
X587151Y125880D01*
X587311Y125742D01*
X587449Y125603D01*
X587567Y125464D01*
X587658Y125339D01*
X587692Y125284D01*
X587720Y125235D01*
X587748Y125201D01*
X587762Y125173D01*
X587769Y125152D01*
X587775Y125145D01*
X587873Y124930D01*
X587942Y124708D01*
X587990Y124486D01*
X588025Y124285D01*
X588039Y124195D01*
X588046Y124105D01*
X588053Y124036D01*
Y123966D01*
X588060Y123918D01*
Y123876D01*
Y123848D01*
Y123841D01*
X588046Y123592D01*
X588018Y123349D01*
X587984Y123134D01*
X587956Y123030D01*
X587935Y122940D01*
X587914Y122857D01*
X587886Y122781D01*
X587866Y122711D01*
X587852Y122656D01*
X587831Y122614D01*
X587824Y122579D01*
X587810Y122559D01*
Y122552D01*
X587706Y122344D01*
X587588Y122156D01*
X587463Y121997D01*
X587401Y121935D01*
X587346Y121872D01*
X587290Y121817D01*
X587235Y121768D01*
X587186Y121727D01*
X587144Y121699D01*
X587117Y121671D01*
X587089Y121650D01*
X587075Y121643D01*
X587068Y121636D01*
X586971Y121581D01*
X586874Y121532D01*
X586666Y121456D01*
X586458Y121401D01*
X586257Y121366D01*
X586160Y121352D01*
X586077Y121338D01*
X586000Y121331D01*
X585938D01*
X585882Y121324D01*
X585806D01*
X585667Y121331D01*
X585536Y121345D01*
X585411Y121359D01*
X585293Y121387D01*
X585182Y121421D01*
X585078Y121456D01*
X584981Y121491D01*
X584891Y121532D01*
X584814Y121567D01*
X584738Y121602D01*
X584683Y121636D01*
X584627Y121671D01*
X584593Y121699D01*
X584558Y121713D01*
X584544Y121727D01*
X584537Y121734D01*
X584440Y121817D01*
X584357Y121900D01*
X584281Y121997D01*
X584204Y122094D01*
X584080Y122288D01*
X583982Y122482D01*
X583941Y122573D01*
X583906Y122656D01*
X583878Y122732D01*
X583858Y122795D01*
X583837Y122850D01*
X583823Y122892D01*
X583816Y122919D01*
Y122926D01*
X584454Y123086D01*
X584482Y122975D01*
X584516Y122871D01*
X584551Y122774D01*
X584586Y122683D01*
X584627Y122600D01*
X584669Y122531D01*
X584717Y122462D01*
X584759Y122399D01*
X584794Y122344D01*
X584835Y122302D01*
X584870Y122261D01*
X584898Y122226D01*
X584925Y122205D01*
X584946Y122184D01*
X584953Y122177D01*
X584960Y122170D01*
X585029Y122115D01*
X585106Y122073D01*
X585258Y121997D01*
X585404Y121942D01*
X585550Y121907D01*
X585674Y121879D01*
X585723Y121872D01*
X585771D01*
X585813Y121865D01*
X585862D01*
X586021Y121872D01*
X586174Y121900D01*
X586312Y121935D01*
X586437Y121976D01*
X586534Y122018D01*
X586576Y122039D01*
X586610Y122052D01*
X586638Y122066D01*
X586659Y122080D01*
X586673Y122087D01*
X586680D01*
X586812Y122184D01*
X586922Y122288D01*
X587020Y122406D01*
X587096Y122517D01*
X587158Y122614D01*
X587200Y122697D01*
X587214Y122732D01*
X587228Y122753D01*
X587235Y122767D01*
Y122774D01*
X587290Y122954D01*
X587332Y123134D01*
X587366Y123315D01*
X587387Y123481D01*
X587394Y123557D01*
X587401Y123627D01*
Y123689D01*
X587408Y123737D01*
Y123779D01*
Y123814D01*
Y123835D01*
Y123841D01*
X587401Y124022D01*
X587387Y124188D01*
X587359Y124341D01*
X587332Y124480D01*
X587311Y124597D01*
X587297Y124646D01*
X587283Y124688D01*
X587276Y124722D01*
X587269Y124743D01*
X587262Y124757D01*
Y124764D01*
X587193Y124923D01*
X587117Y125069D01*
X587034Y125187D01*
X586943Y125291D01*
X586867Y125374D01*
X586805Y125429D01*
X586756Y125464D01*
X586749Y125478D01*
X586742D01*
X586597Y125568D01*
X586437Y125638D01*
X586285Y125686D01*
X586139Y125714D01*
X586007Y125735D01*
X585952Y125742D01*
X585903D01*
X585868Y125748D01*
X585813D01*
X585640Y125742D01*
X585480Y125714D01*
X585349Y125672D01*
X585231Y125631D01*
X585140Y125582D01*
X585071Y125547D01*
X585029Y125520D01*
X585016Y125506D01*
X584905Y125402D01*
X584801Y125284D01*
X584717Y125159D01*
X584648Y125034D01*
X584593Y124923D01*
X584572Y124868D01*
X584558Y124826D01*
X584544Y124791D01*
X584530Y124764D01*
X584523Y124750D01*
Y124743D01*
X583899Y124889D01*
X583941Y125013D01*
X583982Y125124D01*
X584038Y125228D01*
X584086Y125332D01*
X584142Y125422D01*
X584204Y125506D01*
X584260Y125589D01*
X584315Y125658D01*
X584371Y125714D01*
X584419Y125769D01*
X584468Y125818D01*
X584502Y125852D01*
X584537Y125887D01*
X584565Y125908D01*
X584579Y125915D01*
X584586Y125922D01*
X584683Y125984D01*
X584780Y126047D01*
X584877Y126095D01*
X584981Y126137D01*
X585189Y126199D01*
X585376Y126241D01*
X585466Y126262D01*
X585543Y126269D01*
X585619Y126275D01*
X585681Y126282D01*
X585730Y126289D01*
X585799D01*
X586028Y126275D01*
D02*
G37*
G36*
X570627Y124958D02*
X570752Y124944D01*
X570870Y124923D01*
X570981Y124889D01*
X571085Y124854D01*
X571182Y124812D01*
X571272Y124771D01*
X571348Y124722D01*
X571425Y124681D01*
X571487Y124632D01*
X571543Y124590D01*
X571584Y124556D01*
X571619Y124521D01*
X571646Y124500D01*
X571660Y124486D01*
X571667Y124480D01*
X571744Y124382D01*
X571813Y124278D01*
X571875Y124174D01*
X571931Y124063D01*
X571972Y123946D01*
X572007Y123835D01*
X572062Y123613D01*
X572083Y123516D01*
X572097Y123419D01*
X572104Y123335D01*
X572111Y123259D01*
X572118Y123197D01*
Y123155D01*
Y123120D01*
Y123113D01*
X572111Y122961D01*
X572097Y122815D01*
X572076Y122677D01*
X572049Y122552D01*
X572014Y122434D01*
X571979Y122323D01*
X571938Y122226D01*
X571896Y122136D01*
X571855Y122059D01*
X571813Y121990D01*
X571778Y121935D01*
X571744Y121886D01*
X571716Y121845D01*
X571695Y121817D01*
X571681Y121803D01*
X571674Y121796D01*
X571584Y121713D01*
X571494Y121643D01*
X571397Y121581D01*
X571293Y121525D01*
X571196Y121484D01*
X571092Y121442D01*
X570898Y121387D01*
X570807Y121373D01*
X570724Y121359D01*
X570648Y121345D01*
X570586Y121338D01*
X570537Y121331D01*
X570461D01*
X570246Y121345D01*
X570052Y121380D01*
X569878Y121421D01*
X569809Y121449D01*
X569740Y121477D01*
X569677Y121505D01*
X569622Y121532D01*
X569580Y121553D01*
X569538Y121574D01*
X569511Y121595D01*
X569490Y121609D01*
X569476Y121623D01*
X569469D01*
X569330Y121747D01*
X569220Y121879D01*
X569122Y122018D01*
X569053Y122150D01*
X568998Y122268D01*
X568977Y122323D01*
X568956Y122365D01*
X568942Y122406D01*
X568935Y122434D01*
X568928Y122448D01*
Y122455D01*
X569538Y122531D01*
X569594Y122399D01*
X569656Y122288D01*
X569719Y122191D01*
X569774Y122115D01*
X569823Y122059D01*
X569864Y122018D01*
X569899Y121990D01*
X569906Y121983D01*
X569996Y121928D01*
X570086Y121886D01*
X570183Y121858D01*
X570267Y121838D01*
X570343Y121824D01*
X570405Y121817D01*
X570461D01*
X570544Y121824D01*
X570620Y121831D01*
X570759Y121865D01*
X570884Y121914D01*
X570995Y121969D01*
X571078Y122018D01*
X571140Y122066D01*
X571182Y122101D01*
X571189Y122115D01*
X571196D01*
X571293Y122240D01*
X571369Y122378D01*
X571425Y122531D01*
X571466Y122670D01*
X571487Y122795D01*
X571501Y122850D01*
X571508Y122899D01*
Y122940D01*
X571515Y122968D01*
Y122989D01*
Y122996D01*
X568914D01*
X568908Y123065D01*
Y123113D01*
Y123141D01*
Y123148D01*
X568914Y123308D01*
X568928Y123453D01*
X568949Y123592D01*
X568977Y123724D01*
X569011Y123841D01*
X569046Y123953D01*
X569088Y124050D01*
X569129Y124140D01*
X569171Y124223D01*
X569213Y124292D01*
X569247Y124348D01*
X569282Y124396D01*
X569310Y124438D01*
X569330Y124466D01*
X569344Y124480D01*
X569351Y124486D01*
X569435Y124570D01*
X569525Y124646D01*
X569622Y124708D01*
X569719Y124764D01*
X569816Y124812D01*
X569906Y124847D01*
X570003Y124882D01*
X570086Y124902D01*
X570176Y124923D01*
X570253Y124937D01*
X570322Y124951D01*
X570378Y124958D01*
X570426Y124965D01*
X570495D01*
X570627Y124958D01*
D02*
G37*
G36*
X566945D02*
X567098Y124930D01*
X567243Y124895D01*
X567361Y124861D01*
X567465Y124819D01*
X567507Y124798D01*
X567541Y124785D01*
X567569Y124771D01*
X567590Y124757D01*
X567604Y124750D01*
X567611D01*
X567743Y124667D01*
X567860Y124563D01*
X567957Y124459D01*
X568041Y124355D01*
X568103Y124264D01*
X568145Y124188D01*
X568159Y124160D01*
X568172Y124140D01*
X568179Y124126D01*
Y124119D01*
X568242Y123953D01*
X568283Y123786D01*
X568318Y123620D01*
X568339Y123467D01*
X568346Y123398D01*
X568353Y123335D01*
Y123280D01*
X568360Y123231D01*
Y123190D01*
Y123162D01*
Y123141D01*
Y123134D01*
X568353Y122975D01*
X568339Y122829D01*
X568318Y122683D01*
X568290Y122559D01*
X568263Y122434D01*
X568221Y122330D01*
X568186Y122226D01*
X568145Y122136D01*
X568103Y122059D01*
X568068Y121990D01*
X568027Y121928D01*
X567999Y121879D01*
X567971Y121845D01*
X567951Y121817D01*
X567937Y121803D01*
X567930Y121796D01*
X567846Y121713D01*
X567756Y121643D01*
X567666Y121581D01*
X567569Y121525D01*
X567472Y121484D01*
X567382Y121442D01*
X567195Y121387D01*
X567112Y121373D01*
X567035Y121359D01*
X566966Y121345D01*
X566903Y121338D01*
X566855Y121331D01*
X566786D01*
X566682Y121338D01*
X566578Y121345D01*
X566397Y121387D01*
X566231Y121435D01*
X566092Y121498D01*
X566037Y121532D01*
X565981Y121560D01*
X565933Y121588D01*
X565898Y121616D01*
X565870Y121636D01*
X565849Y121650D01*
X565836Y121657D01*
X565829Y121664D01*
X565759Y121734D01*
X565697Y121803D01*
X565586Y121955D01*
X565496Y122115D01*
X565433Y122261D01*
X565385Y122399D01*
X565371Y122455D01*
X565357Y122510D01*
X565350Y122552D01*
X565343Y122579D01*
X565336Y122600D01*
Y122607D01*
X565919Y122683D01*
X565947Y122531D01*
X565988Y122392D01*
X566044Y122281D01*
X566092Y122191D01*
X566141Y122115D01*
X566182Y122066D01*
X566203Y122032D01*
X566217Y122025D01*
X566307Y121955D01*
X566404Y121907D01*
X566501Y121865D01*
X566591Y121845D01*
X566668Y121831D01*
X566737Y121824D01*
X566779Y121817D01*
X566792D01*
X566869Y121824D01*
X566945Y121831D01*
X567084Y121865D01*
X567202Y121914D01*
X567306Y121976D01*
X567382Y122032D01*
X567444Y122080D01*
X567479Y122115D01*
X567493Y122129D01*
X567541Y122191D01*
X567583Y122268D01*
X567645Y122420D01*
X567694Y122593D01*
X567722Y122760D01*
X567743Y122912D01*
X567749Y122975D01*
Y123037D01*
X567756Y123079D01*
Y123120D01*
Y123141D01*
Y123148D01*
Y123273D01*
X567743Y123391D01*
X567729Y123502D01*
X567715Y123599D01*
X567694Y123689D01*
X567666Y123772D01*
X567645Y123848D01*
X567618Y123918D01*
X567590Y123973D01*
X567569Y124022D01*
X567541Y124063D01*
X567521Y124098D01*
X567507Y124126D01*
X567493Y124147D01*
X567479Y124154D01*
Y124160D01*
X567424Y124216D01*
X567368Y124264D01*
X567250Y124348D01*
X567125Y124403D01*
X567014Y124438D01*
X566910Y124466D01*
X566834Y124473D01*
X566800Y124480D01*
X566758D01*
X566654Y124473D01*
X566557Y124452D01*
X566474Y124424D01*
X566397Y124389D01*
X566342Y124355D01*
X566293Y124327D01*
X566265Y124306D01*
X566259Y124299D01*
X566189Y124230D01*
X566127Y124147D01*
X566071Y124057D01*
X566037Y123973D01*
X566002Y123897D01*
X565981Y123835D01*
X565974Y123793D01*
X565967Y123786D01*
Y123779D01*
X565392Y123869D01*
X565440Y124057D01*
X565510Y124216D01*
X565586Y124355D01*
X565662Y124466D01*
X565738Y124556D01*
X565801Y124618D01*
X565843Y124660D01*
X565849Y124674D01*
X565856D01*
X566002Y124771D01*
X566155Y124840D01*
X566307Y124895D01*
X566453Y124930D01*
X566585Y124951D01*
X566640Y124958D01*
X566682D01*
X566723Y124965D01*
X566779D01*
X566945Y124958D01*
D02*
G37*
G36*
X540047D02*
X540172Y124944D01*
X540290Y124923D01*
X540401Y124889D01*
X540505Y124854D01*
X540602Y124812D01*
X540692Y124771D01*
X540769Y124722D01*
X540845Y124681D01*
X540907Y124632D01*
X540963Y124590D01*
X541004Y124556D01*
X541039Y124521D01*
X541067Y124500D01*
X541081Y124486D01*
X541087Y124480D01*
X541164Y124382D01*
X541233Y124278D01*
X541296Y124174D01*
X541351Y124063D01*
X541393Y123946D01*
X541427Y123835D01*
X541483Y123613D01*
X541503Y123516D01*
X541517Y123419D01*
X541524Y123335D01*
X541531Y123259D01*
X541538Y123197D01*
Y123155D01*
Y123120D01*
Y123113D01*
X541531Y122961D01*
X541517Y122815D01*
X541497Y122677D01*
X541469Y122552D01*
X541434Y122434D01*
X541399Y122323D01*
X541358Y122226D01*
X541316Y122136D01*
X541275Y122059D01*
X541233Y121990D01*
X541198Y121935D01*
X541164Y121886D01*
X541136Y121845D01*
X541115Y121817D01*
X541101Y121803D01*
X541094Y121796D01*
X541004Y121713D01*
X540914Y121643D01*
X540817Y121581D01*
X540713Y121525D01*
X540616Y121484D01*
X540512Y121442D01*
X540318Y121387D01*
X540228Y121373D01*
X540144Y121359D01*
X540068Y121345D01*
X540006Y121338D01*
X539957Y121331D01*
X539881D01*
X539666Y121345D01*
X539472Y121380D01*
X539298Y121421D01*
X539229Y121449D01*
X539160Y121477D01*
X539097Y121505D01*
X539042Y121532D01*
X539000Y121553D01*
X538959Y121574D01*
X538931Y121595D01*
X538910Y121609D01*
X538896Y121623D01*
X538889D01*
X538751Y121747D01*
X538640Y121879D01*
X538543Y122018D01*
X538473Y122150D01*
X538418Y122268D01*
X538397Y122323D01*
X538376Y122365D01*
X538362Y122406D01*
X538355Y122434D01*
X538349Y122448D01*
Y122455D01*
X538959Y122531D01*
X539014Y122399D01*
X539076Y122288D01*
X539139Y122191D01*
X539194Y122115D01*
X539243Y122059D01*
X539285Y122018D01*
X539319Y121990D01*
X539326Y121983D01*
X539416Y121928D01*
X539506Y121886D01*
X539604Y121858D01*
X539687Y121838D01*
X539763Y121824D01*
X539825Y121817D01*
X539881D01*
X539964Y121824D01*
X540040Y121831D01*
X540179Y121865D01*
X540304Y121914D01*
X540415Y121969D01*
X540498Y122018D01*
X540560Y122066D01*
X540602Y122101D01*
X540609Y122115D01*
X540616D01*
X540713Y122240D01*
X540789Y122378D01*
X540845Y122531D01*
X540886Y122670D01*
X540907Y122795D01*
X540921Y122850D01*
X540928Y122899D01*
Y122940D01*
X540935Y122968D01*
Y122989D01*
Y122996D01*
X538335D01*
X538328Y123065D01*
Y123113D01*
Y123141D01*
Y123148D01*
X538335Y123308D01*
X538349Y123453D01*
X538369Y123592D01*
X538397Y123724D01*
X538432Y123841D01*
X538466Y123953D01*
X538508Y124050D01*
X538549Y124140D01*
X538591Y124223D01*
X538633Y124292D01*
X538667Y124348D01*
X538702Y124396D01*
X538730Y124438D01*
X538751Y124466D01*
X538764Y124480D01*
X538771Y124486D01*
X538855Y124570D01*
X538945Y124646D01*
X539042Y124708D01*
X539139Y124764D01*
X539236Y124812D01*
X539326Y124847D01*
X539423Y124882D01*
X539506Y124902D01*
X539597Y124923D01*
X539673Y124937D01*
X539742Y124951D01*
X539798Y124958D01*
X539846Y124965D01*
X539916D01*
X540047Y124958D01*
D02*
G37*
G36*
X601131Y125575D02*
X598780D01*
X598946Y125374D01*
X599106Y125159D01*
X599245Y124951D01*
X599376Y124750D01*
X599432Y124660D01*
X599480Y124577D01*
X599529Y124500D01*
X599564Y124438D01*
X599591Y124382D01*
X599612Y124348D01*
X599626Y124320D01*
X599633Y124313D01*
X599772Y124036D01*
X599896Y123758D01*
X600000Y123495D01*
X600042Y123377D01*
X600084Y123259D01*
X600125Y123155D01*
X600153Y123058D01*
X600181Y122975D01*
X600201Y122905D01*
X600222Y122843D01*
X600236Y122801D01*
X600243Y122774D01*
Y122767D01*
X600312Y122482D01*
X600340Y122344D01*
X600361Y122219D01*
X600382Y122101D01*
X600403Y121983D01*
X600416Y121886D01*
X600430Y121789D01*
X600437Y121706D01*
X600444Y121629D01*
X600451Y121560D01*
Y121505D01*
X600458Y121463D01*
Y121435D01*
Y121415D01*
Y121408D01*
X599855D01*
X599834Y121671D01*
X599799Y121914D01*
X599765Y122136D01*
X599744Y122240D01*
X599723Y122337D01*
X599709Y122420D01*
X599688Y122496D01*
X599674Y122566D01*
X599661Y122621D01*
X599647Y122663D01*
X599640Y122697D01*
X599633Y122718D01*
Y122725D01*
X599529Y123044D01*
X599418Y123342D01*
X599362Y123488D01*
X599307Y123627D01*
X599245Y123751D01*
X599189Y123876D01*
X599141Y123987D01*
X599092Y124084D01*
X599050Y124167D01*
X599016Y124244D01*
X598981Y124306D01*
X598960Y124348D01*
X598946Y124375D01*
X598940Y124382D01*
X598856Y124528D01*
X598773Y124674D01*
X598690Y124805D01*
X598607Y124930D01*
X598530Y125041D01*
X598454Y125152D01*
X598378Y125249D01*
X598315Y125332D01*
X598253Y125416D01*
X598198Y125485D01*
X598142Y125540D01*
X598101Y125589D01*
X598073Y125631D01*
X598045Y125658D01*
X598031Y125672D01*
X598024Y125679D01*
Y126144D01*
X601131D01*
Y125575D01*
D02*
G37*
G36*
X597109Y121408D02*
X596436D01*
Y122080D01*
X597109D01*
Y121408D01*
D02*
G37*
G36*
X595778Y123100D02*
Y122559D01*
X593690D01*
Y121408D01*
X593101D01*
Y122559D01*
X592449D01*
Y123100D01*
X593101D01*
Y126206D01*
X593579D01*
X595778Y123100D01*
D02*
G37*
G36*
X577880Y124958D02*
X578005Y124937D01*
X578116Y124909D01*
X578227Y124875D01*
X578324Y124833D01*
X578414Y124785D01*
X578498Y124729D01*
X578567Y124681D01*
X578636Y124625D01*
X578692Y124570D01*
X578740Y124521D01*
X578782Y124480D01*
X578810Y124445D01*
X578830Y124417D01*
X578844Y124396D01*
X578851Y124389D01*
Y124889D01*
X579378D01*
Y121408D01*
X578789D01*
Y123301D01*
Y123419D01*
X578775Y123536D01*
X578761Y123633D01*
X578747Y123724D01*
X578726Y123807D01*
X578705Y123883D01*
X578678Y123953D01*
X578650Y124008D01*
X578629Y124057D01*
X578601Y124098D01*
X578581Y124133D01*
X578560Y124160D01*
X578532Y124195D01*
X578518Y124209D01*
X578414Y124292D01*
X578303Y124348D01*
X578192Y124389D01*
X578095Y124424D01*
X578005Y124438D01*
X577936Y124445D01*
X577908Y124452D01*
X577873D01*
X577790Y124445D01*
X577707Y124438D01*
X577638Y124417D01*
X577582Y124396D01*
X577534Y124375D01*
X577492Y124362D01*
X577471Y124348D01*
X577464Y124341D01*
X577402Y124299D01*
X577346Y124251D01*
X577305Y124202D01*
X577270Y124160D01*
X577249Y124119D01*
X577229Y124084D01*
X577215Y124063D01*
Y124057D01*
X577194Y123980D01*
X577173Y123897D01*
X577159Y123807D01*
X577152Y123717D01*
X577145Y123640D01*
Y123578D01*
Y123530D01*
Y123523D01*
Y123516D01*
Y121408D01*
X576556D01*
Y123543D01*
Y123689D01*
X576563Y123807D01*
X576570Y123904D01*
Y123987D01*
X576577Y124043D01*
X576584Y124084D01*
X576591Y124112D01*
Y124119D01*
X576611Y124209D01*
X576646Y124292D01*
X576674Y124362D01*
X576702Y124431D01*
X576736Y124480D01*
X576757Y124514D01*
X576771Y124542D01*
X576778Y124549D01*
X576833Y124618D01*
X576896Y124674D01*
X576958Y124729D01*
X577027Y124771D01*
X577083Y124805D01*
X577131Y124826D01*
X577159Y124840D01*
X577173Y124847D01*
X577270Y124889D01*
X577374Y124916D01*
X577471Y124937D01*
X577561Y124951D01*
X577638Y124958D01*
X577693Y124965D01*
X577749D01*
X577880Y124958D01*
D02*
G37*
G36*
X574150D02*
X574274Y124937D01*
X574385Y124909D01*
X574496Y124875D01*
X574594Y124833D01*
X574684Y124785D01*
X574767Y124729D01*
X574836Y124681D01*
X574906Y124625D01*
X574961Y124570D01*
X575010Y124521D01*
X575051Y124480D01*
X575079Y124445D01*
X575100Y124417D01*
X575114Y124396D01*
X575121Y124389D01*
Y124889D01*
X575648D01*
Y121408D01*
X575058D01*
Y123301D01*
Y123419D01*
X575044Y123536D01*
X575030Y123633D01*
X575017Y123724D01*
X574996Y123807D01*
X574975Y123883D01*
X574947Y123953D01*
X574919Y124008D01*
X574899Y124057D01*
X574871Y124098D01*
X574850Y124133D01*
X574829Y124160D01*
X574801Y124195D01*
X574788Y124209D01*
X574684Y124292D01*
X574573Y124348D01*
X574462Y124389D01*
X574365Y124424D01*
X574274Y124438D01*
X574205Y124445D01*
X574178Y124452D01*
X574143D01*
X574060Y124445D01*
X573976Y124438D01*
X573907Y124417D01*
X573852Y124396D01*
X573803Y124375D01*
X573761Y124362D01*
X573741Y124348D01*
X573734Y124341D01*
X573671Y124299D01*
X573616Y124251D01*
X573574Y124202D01*
X573540Y124160D01*
X573519Y124119D01*
X573498Y124084D01*
X573484Y124063D01*
Y124057D01*
X573463Y123980D01*
X573442Y123897D01*
X573429Y123807D01*
X573422Y123717D01*
X573415Y123640D01*
Y123578D01*
Y123530D01*
Y123523D01*
Y123516D01*
Y121408D01*
X572825D01*
Y123543D01*
Y123689D01*
X572832Y123807D01*
X572839Y123904D01*
Y123987D01*
X572846Y124043D01*
X572853Y124084D01*
X572860Y124112D01*
Y124119D01*
X572881Y124209D01*
X572915Y124292D01*
X572943Y124362D01*
X572971Y124431D01*
X573006Y124480D01*
X573026Y124514D01*
X573040Y124542D01*
X573047Y124549D01*
X573103Y124618D01*
X573165Y124674D01*
X573228Y124729D01*
X573297Y124771D01*
X573352Y124805D01*
X573401Y124826D01*
X573429Y124840D01*
X573442Y124847D01*
X573540Y124889D01*
X573643Y124916D01*
X573741Y124937D01*
X573831Y124951D01*
X573907Y124958D01*
X573963Y124965D01*
X574018D01*
X574150Y124958D01*
D02*
G37*
G36*
X558035D02*
X558104Y124944D01*
X558173Y124923D01*
X558229Y124902D01*
X558270Y124882D01*
X558312Y124861D01*
X558333Y124847D01*
X558340Y124840D01*
X558402Y124785D01*
X558465Y124715D01*
X558527Y124632D01*
X558582Y124556D01*
X558638Y124480D01*
X558673Y124417D01*
X558700Y124368D01*
X558707Y124362D01*
Y124889D01*
X559241D01*
Y121408D01*
X558652D01*
Y123224D01*
X558645Y123363D01*
X558638Y123488D01*
X558624Y123606D01*
X558603Y123710D01*
X558582Y123793D01*
X558569Y123855D01*
X558562Y123897D01*
X558555Y123911D01*
X558527Y123987D01*
X558492Y124050D01*
X558458Y124105D01*
X558423Y124154D01*
X558388Y124188D01*
X558368Y124216D01*
X558347Y124230D01*
X558340Y124237D01*
X558284Y124278D01*
X558222Y124306D01*
X558159Y124327D01*
X558111Y124341D01*
X558062Y124348D01*
X558028Y124355D01*
X557993D01*
X557917Y124348D01*
X557840Y124334D01*
X557764Y124313D01*
X557702Y124292D01*
X557646Y124271D01*
X557605Y124251D01*
X557577Y124237D01*
X557570Y124230D01*
X557355Y124771D01*
X557473Y124833D01*
X557584Y124882D01*
X557681Y124916D01*
X557771Y124944D01*
X557847Y124958D01*
X557910Y124965D01*
X557958D01*
X558035Y124958D01*
D02*
G37*
G36*
X553222Y121408D02*
X551392D01*
X551225Y121415D01*
X551080Y121421D01*
X550948Y121435D01*
X550837Y121449D01*
X550747Y121463D01*
X550677Y121470D01*
X550636Y121484D01*
X550622D01*
X550504Y121519D01*
X550407Y121553D01*
X550317Y121595D01*
X550241Y121636D01*
X550178Y121664D01*
X550130Y121692D01*
X550102Y121713D01*
X550095Y121720D01*
X550019Y121782D01*
X549949Y121858D01*
X549894Y121935D01*
X549838Y122004D01*
X549797Y122073D01*
X549769Y122122D01*
X549748Y122156D01*
X549741Y122170D01*
X549693Y122281D01*
X549658Y122392D01*
X549630Y122496D01*
X549617Y122593D01*
X549603Y122677D01*
X549596Y122746D01*
Y122788D01*
Y122795D01*
Y122801D01*
X549603Y122954D01*
X549630Y123093D01*
X549672Y123210D01*
X549714Y123322D01*
X549755Y123405D01*
X549797Y123467D01*
X549825Y123509D01*
X549832Y123523D01*
X549929Y123633D01*
X550033Y123724D01*
X550150Y123800D01*
X550255Y123862D01*
X550352Y123911D01*
X550435Y123939D01*
X550462Y123953D01*
X550483Y123959D01*
X550497Y123966D01*
X550504D01*
X550386Y124036D01*
X550282Y124105D01*
X550199Y124181D01*
X550130Y124251D01*
X550074Y124306D01*
X550033Y124362D01*
X550012Y124389D01*
X550005Y124403D01*
X549949Y124507D01*
X549908Y124604D01*
X549873Y124701D01*
X549852Y124791D01*
X549838Y124868D01*
X549832Y124930D01*
Y124965D01*
Y124979D01*
X549838Y125097D01*
X549859Y125215D01*
X549894Y125318D01*
X549929Y125416D01*
X549963Y125499D01*
X549998Y125554D01*
X550019Y125596D01*
X550026Y125610D01*
X550102Y125714D01*
X550185Y125811D01*
X550275Y125887D01*
X550359Y125949D01*
X550428Y125998D01*
X550490Y126033D01*
X550532Y126053D01*
X550539Y126060D01*
X550546D01*
X550677Y126109D01*
X550823Y126144D01*
X550969Y126171D01*
X551107Y126185D01*
X551232Y126199D01*
X551288D01*
X551336Y126206D01*
X553222D01*
Y121408D01*
D02*
G37*
G36*
X536407Y124958D02*
X536476Y124944D01*
X536546Y124923D01*
X536601Y124902D01*
X536643Y124882D01*
X536684Y124861D01*
X536705Y124847D01*
X536712Y124840D01*
X536774Y124785D01*
X536837Y124715D01*
X536899Y124632D01*
X536955Y124556D01*
X537010Y124480D01*
X537045Y124417D01*
X537073Y124368D01*
X537080Y124362D01*
Y124889D01*
X537613D01*
Y121408D01*
X537024D01*
Y123224D01*
X537017Y123363D01*
X537010Y123488D01*
X536996Y123606D01*
X536976Y123710D01*
X536955Y123793D01*
X536941Y123855D01*
X536934Y123897D01*
X536927Y123911D01*
X536899Y123987D01*
X536865Y124050D01*
X536830Y124105D01*
X536795Y124154D01*
X536760Y124188D01*
X536740Y124216D01*
X536719Y124230D01*
X536712Y124237D01*
X536656Y124278D01*
X536594Y124306D01*
X536532Y124327D01*
X536483Y124341D01*
X536435Y124348D01*
X536400Y124355D01*
X536365D01*
X536289Y124348D01*
X536213Y124334D01*
X536136Y124313D01*
X536074Y124292D01*
X536019Y124271D01*
X535977Y124251D01*
X535949Y124237D01*
X535942Y124230D01*
X535727Y124771D01*
X535845Y124833D01*
X535956Y124882D01*
X536053Y124916D01*
X536143Y124944D01*
X536220Y124958D01*
X536282Y124965D01*
X536331D01*
X536407Y124958D01*
D02*
G37*
G36*
X581819D02*
X581930Y124951D01*
X582145Y124902D01*
X582332Y124840D01*
X582415Y124805D01*
X582492Y124771D01*
X582561Y124736D01*
X582616Y124701D01*
X582672Y124667D01*
X582714Y124639D01*
X582748Y124611D01*
X582776Y124590D01*
X582790Y124584D01*
X582797Y124577D01*
X582894Y124486D01*
X582970Y124382D01*
X583046Y124271D01*
X583102Y124160D01*
X583157Y124043D01*
X583199Y123918D01*
X583233Y123800D01*
X583261Y123689D01*
X583289Y123578D01*
X583303Y123481D01*
X583317Y123384D01*
X583324Y123308D01*
Y123238D01*
X583331Y123190D01*
Y123162D01*
Y123148D01*
X583324Y122989D01*
X583310Y122836D01*
X583289Y122697D01*
X583261Y122566D01*
X583227Y122448D01*
X583192Y122337D01*
X583150Y122233D01*
X583109Y122143D01*
X583067Y122059D01*
X583026Y121990D01*
X582991Y121935D01*
X582956Y121886D01*
X582928Y121845D01*
X582908Y121817D01*
X582894Y121803D01*
X582887Y121796D01*
X582797Y121713D01*
X582706Y121643D01*
X582609Y121581D01*
X582512Y121525D01*
X582415Y121484D01*
X582311Y121442D01*
X582124Y121387D01*
X582041Y121373D01*
X581958Y121359D01*
X581888Y121345D01*
X581826Y121338D01*
X581770Y121331D01*
X581701D01*
X581535Y121338D01*
X581382Y121366D01*
X581236Y121401D01*
X581119Y121435D01*
X581015Y121477D01*
X580973Y121491D01*
X580938Y121505D01*
X580904Y121519D01*
X580883Y121532D01*
X580876Y121539D01*
X580869D01*
X580730Y121629D01*
X580612Y121727D01*
X580508Y121824D01*
X580425Y121921D01*
X580363Y122004D01*
X580314Y122073D01*
X580300Y122101D01*
X580286Y122122D01*
X580280Y122129D01*
Y122136D01*
X580210Y122295D01*
X580162Y122469D01*
X580120Y122642D01*
X580099Y122815D01*
X580085Y122892D01*
Y122961D01*
X580079Y123030D01*
X580071Y123086D01*
Y123134D01*
Y123169D01*
Y123190D01*
Y123197D01*
X580079Y123349D01*
X580092Y123488D01*
X580113Y123620D01*
X580141Y123744D01*
X580176Y123862D01*
X580217Y123966D01*
X580259Y124070D01*
X580300Y124154D01*
X580342Y124230D01*
X580384Y124299D01*
X580425Y124362D01*
X580460Y124410D01*
X580488Y124445D01*
X580508Y124473D01*
X580522Y124486D01*
X580529Y124493D01*
X580619Y124577D01*
X580709Y124646D01*
X580807Y124715D01*
X580904Y124764D01*
X581001Y124812D01*
X581098Y124847D01*
X581285Y124909D01*
X581375Y124923D01*
X581451Y124937D01*
X581521Y124951D01*
X581583Y124958D01*
X581632Y124965D01*
X581701D01*
X581819Y124958D01*
D02*
G37*
G36*
X561675D02*
X561786Y124951D01*
X562001Y124902D01*
X562188Y124840D01*
X562271Y124805D01*
X562348Y124771D01*
X562417Y124736D01*
X562472Y124701D01*
X562528Y124667D01*
X562570Y124639D01*
X562604Y124611D01*
X562632Y124590D01*
X562646Y124584D01*
X562653Y124577D01*
X562750Y124486D01*
X562826Y124382D01*
X562902Y124271D01*
X562958Y124160D01*
X563013Y124043D01*
X563055Y123918D01*
X563090Y123800D01*
X563117Y123689D01*
X563145Y123578D01*
X563159Y123481D01*
X563173Y123384D01*
X563180Y123308D01*
Y123238D01*
X563187Y123190D01*
Y123162D01*
Y123148D01*
X563180Y122989D01*
X563166Y122836D01*
X563145Y122697D01*
X563117Y122566D01*
X563083Y122448D01*
X563048Y122337D01*
X563007Y122233D01*
X562965Y122143D01*
X562923Y122059D01*
X562882Y121990D01*
X562847Y121935D01*
X562812Y121886D01*
X562785Y121845D01*
X562764Y121817D01*
X562750Y121803D01*
X562743Y121796D01*
X562653Y121713D01*
X562563Y121643D01*
X562466Y121581D01*
X562369Y121525D01*
X562271Y121484D01*
X562167Y121442D01*
X561980Y121387D01*
X561897Y121373D01*
X561814Y121359D01*
X561744Y121345D01*
X561682Y121338D01*
X561627Y121331D01*
X561557D01*
X561391Y121338D01*
X561238Y121366D01*
X561093Y121401D01*
X560975Y121435D01*
X560871Y121477D01*
X560829Y121491D01*
X560794Y121505D01*
X560760Y121519D01*
X560739Y121532D01*
X560732Y121539D01*
X560725D01*
X560586Y121629D01*
X560469Y121727D01*
X560364Y121824D01*
X560281Y121921D01*
X560219Y122004D01*
X560170Y122073D01*
X560157Y122101D01*
X560143Y122122D01*
X560136Y122129D01*
Y122136D01*
X560066Y122295D01*
X560018Y122469D01*
X559976Y122642D01*
X559955Y122815D01*
X559942Y122892D01*
Y122961D01*
X559935Y123030D01*
X559928Y123086D01*
Y123134D01*
Y123169D01*
Y123190D01*
Y123197D01*
X559935Y123349D01*
X559949Y123488D01*
X559969Y123620D01*
X559997Y123744D01*
X560032Y123862D01*
X560073Y123966D01*
X560115Y124070D01*
X560157Y124154D01*
X560198Y124230D01*
X560240Y124299D01*
X560281Y124362D01*
X560316Y124410D01*
X560344Y124445D01*
X560364Y124473D01*
X560378Y124486D01*
X560385Y124493D01*
X560476Y124577D01*
X560566Y124646D01*
X560663Y124715D01*
X560760Y124764D01*
X560857Y124812D01*
X560954Y124847D01*
X561141Y124909D01*
X561231Y124923D01*
X561308Y124937D01*
X561377Y124951D01*
X561439Y124958D01*
X561488Y124965D01*
X561557D01*
X561675Y124958D01*
D02*
G37*
G36*
X592227Y120076D02*
X588323D01*
Y120499D01*
X592227D01*
Y120076D01*
D02*
G37*
G36*
X557549D02*
X553645D01*
Y120499D01*
X557549D01*
Y120076D01*
D02*
G37*
%LPC*%
G36*
X109140Y229207D02*
X109131D01*
X109140Y228911D01*
X109149Y228726D01*
X109158Y228569D01*
X109177Y228439D01*
X109205Y228328D01*
X109232Y228245D01*
X109251Y228180D01*
X109260Y228144D01*
X109269Y228134D01*
X109343Y228014D01*
X109417Y227903D01*
X109510Y227811D01*
X109593Y227737D01*
X109667Y227672D01*
X109732Y227626D01*
X109768Y227598D01*
X109787Y227589D01*
X109926Y227524D01*
X110064Y227478D01*
X110194Y227441D01*
X110323Y227422D01*
X110425Y227404D01*
X110517Y227395D01*
X110591D01*
X110758Y227404D01*
X110897Y227422D01*
X111017Y227459D01*
X111118Y227496D01*
X111192Y227533D01*
X111248Y227570D01*
X111285Y227589D01*
X111294Y227598D01*
X111368Y227681D01*
X111424Y227774D01*
X111470Y227857D01*
X111497Y227940D01*
X111516Y228014D01*
X111525Y228069D01*
Y228116D01*
Y228125D01*
X111516Y228199D01*
X111507Y228273D01*
X111488Y228328D01*
X111470Y228384D01*
X111451Y228430D01*
X111442Y228467D01*
X111424Y228486D01*
Y228495D01*
X111331Y228606D01*
X111220Y228680D01*
X111183Y228707D01*
X111146Y228726D01*
X111118Y228744D01*
X111109D01*
X111017Y228781D01*
X110915Y228809D01*
X110804Y228837D01*
X110693Y228855D01*
X110591Y228874D01*
X110499Y228892D01*
X110443Y228902D01*
X110425D01*
X110268Y228929D01*
X110120Y228948D01*
X109990Y228976D01*
X109861Y229003D01*
X109741Y229031D01*
X109639Y229059D01*
X109537Y229077D01*
X109454Y229105D01*
X109380Y229123D01*
X109316Y229142D01*
X109260Y229160D01*
X109214Y229179D01*
X109177Y229188D01*
X109149Y229198D01*
X109140Y229207D01*
D02*
G37*
G36*
X141074Y230973D02*
X141019D01*
X140908Y230963D01*
X140806Y230954D01*
X140612Y230899D01*
X140445Y230825D01*
X140307Y230742D01*
X140196Y230658D01*
X140113Y230584D01*
X140066Y230529D01*
X140048Y230520D01*
Y230510D01*
X139965Y230390D01*
X139891Y230252D01*
X139845Y230113D01*
X139798Y229965D01*
X139770Y229845D01*
X139752Y229734D01*
Y229697D01*
X139743Y229669D01*
Y229650D01*
Y229641D01*
X142341D01*
X142313Y229854D01*
X142258Y230048D01*
X142193Y230215D01*
X142119Y230344D01*
X142054Y230455D01*
X141989Y230538D01*
X141952Y230584D01*
X141934Y230603D01*
X141786Y230723D01*
X141638Y230816D01*
X141481Y230880D01*
X141333Y230926D01*
X141213Y230954D01*
X141111Y230963D01*
X141074Y230973D01*
D02*
G37*
G36*
X100301Y230973D02*
X100246D01*
X100135Y230963D01*
X100033Y230954D01*
X99839Y230899D01*
X99672Y230825D01*
X99534Y230742D01*
X99423Y230658D01*
X99340Y230584D01*
X99293Y230529D01*
X99275Y230520D01*
Y230510D01*
X99192Y230390D01*
X99118Y230252D01*
X99071Y230113D01*
X99025Y229965D01*
X98997Y229845D01*
X98979Y229734D01*
Y229697D01*
X98970Y229669D01*
Y229650D01*
Y229641D01*
X101568D01*
X101540Y229854D01*
X101484Y230048D01*
X101420Y230215D01*
X101346Y230344D01*
X101281Y230455D01*
X101216Y230538D01*
X101179Y230584D01*
X101161Y230603D01*
X101013Y230723D01*
X100865Y230815D01*
X100708Y230880D01*
X100560Y230926D01*
X100440Y230954D01*
X100338Y230963D01*
X100301Y230973D01*
D02*
G37*
G36*
X117147Y232517D02*
X115630D01*
X115427Y232498D01*
X115270Y232489D01*
X115131Y232470D01*
X115029Y232452D01*
X114965Y232443D01*
X114918Y232424D01*
X114909D01*
X114807Y232387D01*
X114715Y232332D01*
X114641Y232276D01*
X114576Y232221D01*
X114530Y232175D01*
X114493Y232128D01*
X114474Y232101D01*
X114465Y232091D01*
X114410Y231999D01*
X114373Y231906D01*
X114345Y231814D01*
X114327Y231721D01*
X114317Y231648D01*
X114308Y231592D01*
Y231555D01*
Y231537D01*
X114317Y231416D01*
X114336Y231306D01*
X114364Y231213D01*
X114391Y231139D01*
X114419Y231074D01*
X114447Y231019D01*
X114465Y230991D01*
X114474Y230982D01*
X114539Y230908D01*
X114622Y230834D01*
X114706Y230779D01*
X114780Y230742D01*
X114854Y230704D01*
X114909Y230677D01*
X114946Y230667D01*
X114965Y230658D01*
X115066Y230640D01*
X115196Y230621D01*
X115325Y230612D01*
X115455Y230603D01*
X115575Y230594D01*
X117147D01*
Y232517D01*
D02*
G37*
G36*
Y229835D02*
X115464D01*
X115270Y229817D01*
X115112Y229798D01*
X114983Y229780D01*
X114881Y229762D01*
X114798Y229743D01*
X114761Y229734D01*
X114743Y229725D01*
X114622Y229678D01*
X114521Y229623D01*
X114428Y229558D01*
X114354Y229493D01*
X114299Y229438D01*
X114262Y229392D01*
X114234Y229355D01*
X114225Y229345D01*
X114160Y229244D01*
X114114Y229142D01*
X114077Y229040D01*
X114059Y228948D01*
X114040Y228865D01*
X114031Y228791D01*
Y228754D01*
Y228735D01*
X114040Y228624D01*
X114049Y228513D01*
X114068Y228421D01*
X114095Y228347D01*
X114123Y228282D01*
X114142Y228227D01*
X114151Y228199D01*
X114160Y228190D01*
X114216Y228106D01*
X114262Y228032D01*
X114327Y227977D01*
X114373Y227922D01*
X114419Y227885D01*
X114456Y227857D01*
X114484Y227838D01*
X114493Y227829D01*
X114650Y227755D01*
X114807Y227700D01*
X114872Y227681D01*
X114928Y227672D01*
X114965Y227663D01*
X114974D01*
X115048Y227654D01*
X115131Y227644D01*
X115325Y227635D01*
X117147D01*
Y229835D01*
D02*
G37*
G36*
X156024Y230973D02*
X155969D01*
X155858Y230963D01*
X155756Y230954D01*
X155571Y230908D01*
X155405Y230834D01*
X155266Y230751D01*
X155155Y230667D01*
X155072Y230603D01*
X155016Y230547D01*
X154998Y230538D01*
Y230529D01*
X154924Y230446D01*
X154869Y230344D01*
X154767Y230140D01*
X154693Y229919D01*
X154647Y229715D01*
X154619Y229521D01*
X154610Y229438D01*
Y229364D01*
X154600Y229308D01*
Y229262D01*
Y229235D01*
Y229225D01*
Y229059D01*
X154619Y228902D01*
X154637Y228763D01*
X154665Y228624D01*
X154693Y228504D01*
X154730Y228393D01*
X154758Y228291D01*
X154795Y228199D01*
X154832Y228125D01*
X154869Y228051D01*
X154906Y227996D01*
X154933Y227949D01*
X154961Y227912D01*
X154979Y227885D01*
X154989Y227875D01*
X154998Y227866D01*
X155072Y227792D01*
X155155Y227718D01*
X155312Y227607D01*
X155479Y227533D01*
X155627Y227478D01*
X155765Y227450D01*
X155867Y227432D01*
X155913Y227422D01*
X155969D01*
X156080Y227432D01*
X156181Y227441D01*
X156376Y227487D01*
X156542Y227561D01*
X156681Y227644D01*
X156792Y227718D01*
X156875Y227792D01*
X156930Y227838D01*
X156940Y227857D01*
X156949D01*
X157014Y227949D01*
X157078Y228042D01*
X157171Y228254D01*
X157245Y228476D01*
X157291Y228698D01*
X157319Y228892D01*
X157328Y228976D01*
Y229050D01*
X157337Y229114D01*
Y229160D01*
Y229188D01*
Y229198D01*
X157328Y229355D01*
X157319Y229512D01*
X157300Y229650D01*
X157272Y229780D01*
X157245Y229900D01*
X157217Y230011D01*
X157180Y230104D01*
X157143Y230196D01*
X157106Y230270D01*
X157069Y230344D01*
X157041Y230399D01*
X157014Y230446D01*
X156986Y230483D01*
X156967Y230510D01*
X156949Y230520D01*
Y230529D01*
X156875Y230603D01*
X156792Y230677D01*
X156635Y230788D01*
X156468Y230862D01*
X156311Y230917D01*
X156172Y230954D01*
X156070Y230963D01*
X156024Y230973D01*
D02*
G37*
G36*
X129166D02*
X129110D01*
X128999Y230963D01*
X128898Y230954D01*
X128713Y230908D01*
X128546Y230834D01*
X128408Y230751D01*
X128297Y230667D01*
X128214Y230603D01*
X128158Y230547D01*
X128139Y230538D01*
Y230529D01*
X128066Y230446D01*
X128010Y230344D01*
X127908Y230140D01*
X127834Y229919D01*
X127788Y229715D01*
X127760Y229521D01*
X127751Y229438D01*
Y229364D01*
X127742Y229308D01*
Y229262D01*
Y229235D01*
Y229225D01*
Y229059D01*
X127760Y228902D01*
X127779Y228763D01*
X127807Y228624D01*
X127834Y228504D01*
X127871Y228393D01*
X127899Y228291D01*
X127936Y228199D01*
X127973Y228125D01*
X128010Y228051D01*
X128047Y227996D01*
X128075Y227949D01*
X128103Y227912D01*
X128121Y227885D01*
X128130Y227875D01*
X128139Y227866D01*
X128214Y227792D01*
X128297Y227718D01*
X128454Y227607D01*
X128620Y227533D01*
X128768Y227478D01*
X128907Y227450D01*
X129009Y227432D01*
X129055Y227422D01*
X129110D01*
X129221Y227432D01*
X129323Y227441D01*
X129517Y227487D01*
X129684Y227561D01*
X129822Y227644D01*
X129933Y227718D01*
X130016Y227792D01*
X130072Y227838D01*
X130081Y227857D01*
X130090D01*
X130155Y227949D01*
X130220Y228042D01*
X130312Y228254D01*
X130386Y228476D01*
X130433Y228698D01*
X130460Y228892D01*
X130469Y228976D01*
Y229050D01*
X130479Y229114D01*
Y229160D01*
Y229188D01*
Y229198D01*
X130469Y229355D01*
X130460Y229512D01*
X130442Y229650D01*
X130414Y229780D01*
X130386Y229900D01*
X130358Y230011D01*
X130322Y230104D01*
X130285Y230196D01*
X130247Y230270D01*
X130211Y230344D01*
X130183Y230399D01*
X130155Y230446D01*
X130127Y230483D01*
X130109Y230510D01*
X130090Y230520D01*
Y230529D01*
X130016Y230603D01*
X129933Y230677D01*
X129776Y230788D01*
X129610Y230862D01*
X129452Y230917D01*
X129314Y230954D01*
X129212Y230963D01*
X129166Y230973D01*
D02*
G37*
G36*
X191053Y687103D02*
X191048D01*
X191053Y686955D01*
X191058Y686863D01*
X191062Y686784D01*
X191071Y686720D01*
X191085Y686664D01*
X191099Y686623D01*
X191108Y686590D01*
X191113Y686572D01*
X191118Y686567D01*
X191155Y686507D01*
X191192Y686451D01*
X191238Y686405D01*
X191279Y686368D01*
X191316Y686336D01*
X191349Y686313D01*
X191367Y686299D01*
X191376Y686294D01*
X191446Y686262D01*
X191515Y686239D01*
X191580Y686220D01*
X191645Y686211D01*
X191695Y686202D01*
X191742Y686197D01*
X191779D01*
X191862Y686202D01*
X191931Y686211D01*
X191991Y686230D01*
X192042Y686248D01*
X192079Y686267D01*
X192107Y686285D01*
X192125Y686294D01*
X192130Y686299D01*
X192167Y686341D01*
X192195Y686387D01*
X192218Y686428D01*
X192232Y686470D01*
X192241Y686507D01*
X192246Y686535D01*
Y686558D01*
Y686562D01*
X192241Y686600D01*
X192236Y686636D01*
X192227Y686664D01*
X192218Y686692D01*
X192209Y686715D01*
X192204Y686733D01*
X192195Y686743D01*
Y686747D01*
X192148Y686803D01*
X192093Y686840D01*
X192075Y686854D01*
X192056Y686863D01*
X192042Y686872D01*
X192038D01*
X191991Y686891D01*
X191940Y686905D01*
X191885Y686918D01*
X191830Y686928D01*
X191779Y686937D01*
X191733Y686946D01*
X191705Y686951D01*
X191695D01*
X191617Y686965D01*
X191543Y686974D01*
X191478Y686988D01*
X191413Y687002D01*
X191353Y687016D01*
X191303Y687029D01*
X191252Y687039D01*
X191210Y687053D01*
X191173Y687062D01*
X191141Y687071D01*
X191113Y687080D01*
X191090Y687089D01*
X191071Y687094D01*
X191058Y687099D01*
X191053Y687103D01*
D02*
G37*
G36*
X207020Y687986D02*
X206992D01*
X206937Y687982D01*
X206886Y687977D01*
X206789Y687949D01*
X206706Y687912D01*
X206636Y687871D01*
X206581Y687829D01*
X206539Y687792D01*
X206516Y687764D01*
X206507Y687760D01*
Y687755D01*
X206465Y687695D01*
X206428Y687626D01*
X206405Y687556D01*
X206382Y687482D01*
X206368Y687422D01*
X206359Y687367D01*
Y687348D01*
X206354Y687335D01*
Y687325D01*
Y687321D01*
X207653D01*
X207640Y687427D01*
X207612Y687524D01*
X207579Y687607D01*
X207542Y687672D01*
X207510Y687727D01*
X207478Y687769D01*
X207459Y687792D01*
X207450Y687801D01*
X207376Y687861D01*
X207302Y687908D01*
X207223Y687940D01*
X207150Y687963D01*
X207089Y687977D01*
X207039Y687982D01*
X207020Y687986D01*
D02*
G37*
G36*
X186633D02*
X186606D01*
X186550Y687982D01*
X186500Y687977D01*
X186402Y687949D01*
X186319Y687912D01*
X186250Y687871D01*
X186194Y687829D01*
X186153Y687792D01*
X186130Y687764D01*
X186120Y687760D01*
Y687755D01*
X186079Y687695D01*
X186042Y687626D01*
X186019Y687556D01*
X185996Y687482D01*
X185982Y687422D01*
X185972Y687367D01*
Y687348D01*
X185968Y687335D01*
Y687325D01*
Y687321D01*
X187267D01*
X187253Y687427D01*
X187225Y687524D01*
X187193Y687607D01*
X187156Y687672D01*
X187124Y687727D01*
X187091Y687769D01*
X187073Y687792D01*
X187064Y687801D01*
X186989Y687861D01*
X186915Y687908D01*
X186837Y687940D01*
X186763Y687963D01*
X186703Y687977D01*
X186652Y687982D01*
X186633Y687986D01*
D02*
G37*
G36*
X195056Y688758D02*
X194298D01*
X194196Y688749D01*
X194118Y688744D01*
X194049Y688735D01*
X193998Y688726D01*
X193965Y688721D01*
X193942Y688712D01*
X193938D01*
X193887Y688694D01*
X193841Y688666D01*
X193804Y688638D01*
X193771Y688610D01*
X193748Y688587D01*
X193729Y688564D01*
X193720Y688550D01*
X193716Y688546D01*
X193688Y688499D01*
X193669Y688453D01*
X193656Y688407D01*
X193646Y688361D01*
X193642Y688324D01*
X193637Y688296D01*
Y688278D01*
Y688268D01*
X193642Y688208D01*
X193651Y688153D01*
X193665Y688107D01*
X193679Y688070D01*
X193693Y688037D01*
X193706Y688009D01*
X193716Y687996D01*
X193720Y687991D01*
X193753Y687954D01*
X193794Y687917D01*
X193836Y687889D01*
X193873Y687871D01*
X193910Y687852D01*
X193938Y687838D01*
X193956Y687834D01*
X193965Y687829D01*
X194016Y687820D01*
X194081Y687811D01*
X194146Y687806D01*
X194210Y687801D01*
X194270Y687797D01*
X195056D01*
Y688758D01*
D02*
G37*
G36*
Y687418D02*
X194215D01*
X194118Y687409D01*
X194039Y687399D01*
X193974Y687390D01*
X193924Y687381D01*
X193882Y687372D01*
X193864Y687367D01*
X193854Y687362D01*
X193794Y687339D01*
X193743Y687311D01*
X193697Y687279D01*
X193660Y687247D01*
X193633Y687219D01*
X193614Y687196D01*
X193600Y687177D01*
X193596Y687173D01*
X193563Y687122D01*
X193540Y687071D01*
X193521Y687020D01*
X193512Y686974D01*
X193503Y686932D01*
X193498Y686895D01*
Y686877D01*
Y686868D01*
X193503Y686812D01*
X193508Y686757D01*
X193517Y686710D01*
X193531Y686673D01*
X193545Y686641D01*
X193554Y686613D01*
X193559Y686600D01*
X193563Y686595D01*
X193591Y686553D01*
X193614Y686516D01*
X193646Y686488D01*
X193669Y686461D01*
X193693Y686442D01*
X193711Y686428D01*
X193725Y686419D01*
X193729Y686415D01*
X193808Y686378D01*
X193887Y686350D01*
X193919Y686341D01*
X193947Y686336D01*
X193965Y686331D01*
X193970D01*
X194007Y686327D01*
X194049Y686322D01*
X194146Y686318D01*
X195056D01*
Y687418D01*
D02*
G37*
G36*
X214495Y687986D02*
X214467D01*
X214412Y687982D01*
X214361Y687977D01*
X214269Y687954D01*
X214185Y687917D01*
X214116Y687875D01*
X214061Y687834D01*
X214019Y687801D01*
X213991Y687774D01*
X213982Y687769D01*
Y687764D01*
X213945Y687723D01*
X213917Y687672D01*
X213867Y687570D01*
X213829Y687459D01*
X213806Y687358D01*
X213792Y687261D01*
X213788Y687219D01*
Y687182D01*
X213783Y687154D01*
Y687131D01*
Y687117D01*
Y687113D01*
Y687029D01*
X213792Y686951D01*
X213802Y686881D01*
X213816Y686812D01*
X213829Y686752D01*
X213848Y686696D01*
X213862Y686646D01*
X213880Y686600D01*
X213899Y686562D01*
X213917Y686525D01*
X213936Y686498D01*
X213950Y686475D01*
X213964Y686456D01*
X213973Y686442D01*
X213977Y686438D01*
X213982Y686433D01*
X214019Y686396D01*
X214061Y686359D01*
X214139Y686304D01*
X214222Y686267D01*
X214296Y686239D01*
X214366Y686225D01*
X214417Y686216D01*
X214440Y686211D01*
X214467D01*
X214523Y686216D01*
X214574Y686220D01*
X214671Y686244D01*
X214754Y686281D01*
X214823Y686322D01*
X214879Y686359D01*
X214920Y686396D01*
X214948Y686419D01*
X214953Y686428D01*
X214957D01*
X214990Y686475D01*
X215022Y686521D01*
X215068Y686627D01*
X215105Y686738D01*
X215128Y686849D01*
X215142Y686946D01*
X215147Y686988D01*
Y687025D01*
X215152Y687057D01*
Y687080D01*
Y687094D01*
Y687099D01*
X215147Y687177D01*
X215142Y687256D01*
X215133Y687325D01*
X215119Y687390D01*
X215105Y687450D01*
X215091Y687505D01*
X215073Y687552D01*
X215054Y687598D01*
X215036Y687635D01*
X215018Y687672D01*
X215004Y687700D01*
X214990Y687723D01*
X214976Y687741D01*
X214967Y687755D01*
X214957Y687760D01*
Y687764D01*
X214920Y687801D01*
X214879Y687838D01*
X214800Y687894D01*
X214717Y687931D01*
X214639Y687959D01*
X214569Y687977D01*
X214518Y687982D01*
X214495Y687986D01*
D02*
G37*
G36*
X201066D02*
X201038D01*
X200983Y687982D01*
X200932Y687977D01*
X200839Y687954D01*
X200756Y687917D01*
X200687Y687875D01*
X200631Y687834D01*
X200590Y687801D01*
X200562Y687774D01*
X200553Y687769D01*
Y687764D01*
X200516Y687723D01*
X200488Y687672D01*
X200437Y687570D01*
X200400Y687459D01*
X200377Y687358D01*
X200363Y687261D01*
X200359Y687219D01*
Y687182D01*
X200354Y687154D01*
Y687131D01*
Y687117D01*
Y687113D01*
Y687029D01*
X200363Y686951D01*
X200373Y686881D01*
X200386Y686812D01*
X200400Y686752D01*
X200419Y686696D01*
X200433Y686646D01*
X200451Y686600D01*
X200470Y686562D01*
X200488Y686525D01*
X200507Y686498D01*
X200520Y686475D01*
X200534Y686456D01*
X200543Y686442D01*
X200548Y686438D01*
X200553Y686433D01*
X200590Y686396D01*
X200631Y686359D01*
X200710Y686304D01*
X200793Y686267D01*
X200867Y686239D01*
X200937Y686225D01*
X200987Y686216D01*
X201010Y686211D01*
X201038D01*
X201094Y686216D01*
X201145Y686220D01*
X201242Y686244D01*
X201325Y686281D01*
X201394Y686322D01*
X201450Y686359D01*
X201491Y686396D01*
X201519Y686419D01*
X201524Y686428D01*
X201528D01*
X201561Y686475D01*
X201593Y686521D01*
X201639Y686627D01*
X201676Y686738D01*
X201699Y686849D01*
X201713Y686946D01*
X201718Y686988D01*
Y687025D01*
X201722Y687057D01*
Y687080D01*
Y687094D01*
Y687099D01*
X201718Y687177D01*
X201713Y687256D01*
X201704Y687325D01*
X201690Y687390D01*
X201676Y687450D01*
X201662Y687505D01*
X201644Y687552D01*
X201625Y687598D01*
X201607Y687635D01*
X201588Y687672D01*
X201574Y687700D01*
X201561Y687723D01*
X201547Y687741D01*
X201537Y687755D01*
X201528Y687760D01*
Y687764D01*
X201491Y687801D01*
X201450Y687838D01*
X201371Y687894D01*
X201288Y687931D01*
X201209Y687959D01*
X201140Y687977D01*
X201089Y687982D01*
X201066Y687986D01*
D02*
G37*
G36*
X212899Y477897D02*
Y475031D01*
X214915D01*
X212899Y477897D01*
D02*
G37*
G36*
X186022Y476871D02*
X185967D01*
X185856Y476862D01*
X185754Y476852D01*
X185569Y476806D01*
X185403Y476732D01*
X185264Y476649D01*
X185154Y476566D01*
X185070Y476501D01*
X185015Y476446D01*
X184996Y476436D01*
Y476427D01*
X184922Y476344D01*
X184867Y476242D01*
X184765Y476039D01*
X184691Y475817D01*
X184645Y475613D01*
X184617Y475419D01*
X184608Y475336D01*
Y475262D01*
X184599Y475207D01*
Y475160D01*
Y475133D01*
Y475123D01*
Y474957D01*
X184617Y474800D01*
X184636Y474661D01*
X184663Y474522D01*
X184691Y474402D01*
X184728Y474291D01*
X184756Y474190D01*
X184793Y474097D01*
X184830Y474023D01*
X184867Y473949D01*
X184904Y473894D01*
X184932Y473848D01*
X184959Y473811D01*
X184978Y473783D01*
X184987Y473774D01*
X184996Y473764D01*
X185070Y473690D01*
X185154Y473616D01*
X185311Y473505D01*
X185477Y473432D01*
X185625Y473376D01*
X185764Y473348D01*
X185865Y473330D01*
X185912Y473321D01*
X185967D01*
X186078Y473330D01*
X186180Y473339D01*
X186374Y473385D01*
X186540Y473459D01*
X186679Y473542D01*
X186790Y473616D01*
X186873Y473690D01*
X186929Y473737D01*
X186938Y473755D01*
X186947D01*
X187012Y473848D01*
X187076Y473940D01*
X187169Y474153D01*
X187243Y474375D01*
X187289Y474596D01*
X187317Y474791D01*
X187326Y474874D01*
Y474948D01*
X187335Y475013D01*
Y475059D01*
Y475086D01*
Y475096D01*
X187326Y475253D01*
X187317Y475410D01*
X187298Y475549D01*
X187271Y475678D01*
X187243Y475798D01*
X187215Y475909D01*
X187178Y476002D01*
X187141Y476094D01*
X187104Y476168D01*
X187067Y476242D01*
X187040Y476298D01*
X187012Y476344D01*
X186984Y476381D01*
X186966Y476409D01*
X186947Y476418D01*
Y476427D01*
X186873Y476501D01*
X186790Y476575D01*
X186633Y476686D01*
X186466Y476760D01*
X186309Y476815D01*
X186171Y476852D01*
X186069Y476862D01*
X186022Y476871D01*
D02*
G37*
G36*
X178561D02*
X178506D01*
X178395Y476862D01*
X178293Y476852D01*
X178108Y476806D01*
X177942Y476732D01*
X177803Y476649D01*
X177692Y476566D01*
X177609Y476501D01*
X177554Y476446D01*
X177535Y476436D01*
Y476427D01*
X177461Y476344D01*
X177406Y476242D01*
X177304Y476039D01*
X177230Y475817D01*
X177184Y475613D01*
X177156Y475419D01*
X177147Y475336D01*
Y475262D01*
X177138Y475207D01*
Y475160D01*
Y475133D01*
Y475123D01*
Y474957D01*
X177156Y474800D01*
X177174Y474661D01*
X177202Y474522D01*
X177230Y474402D01*
X177267Y474291D01*
X177295Y474190D01*
X177332Y474097D01*
X177369Y474023D01*
X177406Y473949D01*
X177443Y473894D01*
X177470Y473848D01*
X177498Y473811D01*
X177517Y473783D01*
X177526Y473774D01*
X177535Y473764D01*
X177609Y473690D01*
X177692Y473616D01*
X177849Y473505D01*
X178016Y473432D01*
X178164Y473376D01*
X178302Y473348D01*
X178404Y473330D01*
X178450Y473321D01*
X178506D01*
X178617Y473330D01*
X178718Y473339D01*
X178913Y473385D01*
X179079Y473459D01*
X179218Y473542D01*
X179329Y473616D01*
X179412Y473690D01*
X179467Y473737D01*
X179477Y473755D01*
X179486D01*
X179551Y473848D01*
X179615Y473940D01*
X179708Y474153D01*
X179782Y474375D01*
X179828Y474596D01*
X179856Y474791D01*
X179865Y474874D01*
Y474948D01*
X179874Y475013D01*
Y475059D01*
Y475086D01*
Y475096D01*
X179865Y475253D01*
X179856Y475410D01*
X179837Y475549D01*
X179809Y475678D01*
X179782Y475798D01*
X179754Y475909D01*
X179717Y476002D01*
X179680Y476094D01*
X179643Y476168D01*
X179606Y476242D01*
X179578Y476298D01*
X179551Y476344D01*
X179523Y476381D01*
X179504Y476409D01*
X179486Y476418D01*
Y476427D01*
X179412Y476501D01*
X179329Y476575D01*
X179172Y476686D01*
X179005Y476760D01*
X178848Y476815D01*
X178709Y476852D01*
X178608Y476862D01*
X178561Y476871D01*
D02*
G37*
G36*
X127622Y463656D02*
X125717D01*
Y461539D01*
X127733D01*
X127983Y461548D01*
X128195Y461585D01*
X128380Y461631D01*
X128519Y461687D01*
X128639Y461742D01*
X128713Y461789D01*
X128759Y461826D01*
X128778Y461835D01*
X128889Y461955D01*
X128972Y462075D01*
X129027Y462205D01*
X129074Y462316D01*
X129092Y462426D01*
X129101Y462510D01*
X129110Y462565D01*
Y462575D01*
Y462584D01*
X129101Y462695D01*
X129083Y462806D01*
X129055Y462898D01*
X129027Y462981D01*
X128990Y463055D01*
X128963Y463111D01*
X128944Y463148D01*
X128935Y463157D01*
X128870Y463249D01*
X128787Y463333D01*
X128704Y463397D01*
X128621Y463453D01*
X128547Y463490D01*
X128491Y463517D01*
X128454Y463536D01*
X128436Y463545D01*
X128306Y463582D01*
X128158Y463610D01*
X128010Y463629D01*
X127862Y463638D01*
X127733Y463647D01*
X127622Y463656D01*
D02*
G37*
G36*
X153029Y466679D02*
X152973D01*
X152863Y466670D01*
X152761Y466661D01*
X152567Y466615D01*
X152400Y466541D01*
X152261Y466458D01*
X152151Y466384D01*
X152067Y466310D01*
X152012Y466264D01*
X152003Y466245D01*
X151993D01*
X151929Y466152D01*
X151864Y466060D01*
X151771Y465847D01*
X151698Y465625D01*
X151651Y465404D01*
X151624Y465210D01*
X151614Y465126D01*
Y465052D01*
X151605Y464988D01*
Y464941D01*
Y464914D01*
Y464904D01*
X151614Y464747D01*
X151624Y464590D01*
X151642Y464451D01*
X151670Y464322D01*
X151698Y464202D01*
X151725Y464091D01*
X151762Y463998D01*
X151799Y463906D01*
X151836Y463832D01*
X151873Y463758D01*
X151901Y463702D01*
X151929Y463656D01*
X151956Y463619D01*
X151975Y463591D01*
X151993Y463582D01*
Y463573D01*
X152067Y463499D01*
X152151Y463425D01*
X152308Y463314D01*
X152474Y463240D01*
X152631Y463185D01*
X152770Y463148D01*
X152872Y463138D01*
X152918Y463129D01*
X152973D01*
X153084Y463138D01*
X153186Y463148D01*
X153371Y463194D01*
X153537Y463268D01*
X153676Y463351D01*
X153787Y463434D01*
X153870Y463499D01*
X153926Y463554D01*
X153944Y463564D01*
Y463573D01*
X154018Y463656D01*
X154074Y463758D01*
X154175Y463961D01*
X154249Y464183D01*
X154296Y464387D01*
X154323Y464581D01*
X154333Y464664D01*
Y464738D01*
X154342Y464793D01*
Y464840D01*
Y464867D01*
Y464877D01*
Y465043D01*
X154323Y465200D01*
X154305Y465339D01*
X154277Y465478D01*
X154249Y465598D01*
X154212Y465709D01*
X154185Y465810D01*
X154148Y465903D01*
X154111Y465977D01*
X154074Y466051D01*
X154037Y466106D01*
X154009Y466152D01*
X153981Y466189D01*
X153963Y466217D01*
X153954Y466227D01*
X153944Y466236D01*
X153870Y466310D01*
X153787Y466384D01*
X153630Y466495D01*
X153463Y466569D01*
X153315Y466624D01*
X153177Y466652D01*
X153075Y466670D01*
X153029Y466679D01*
D02*
G37*
G36*
X145568D02*
X145512D01*
X145401Y466670D01*
X145300Y466661D01*
X145105Y466615D01*
X144939Y466541D01*
X144800Y466458D01*
X144689Y466384D01*
X144606Y466310D01*
X144551Y466264D01*
X144541Y466245D01*
X144532D01*
X144467Y466152D01*
X144403Y466060D01*
X144310Y465847D01*
X144236Y465625D01*
X144190Y465404D01*
X144162Y465210D01*
X144153Y465126D01*
Y465052D01*
X144144Y464988D01*
Y464941D01*
Y464914D01*
Y464904D01*
X144153Y464747D01*
X144162Y464590D01*
X144181Y464451D01*
X144209Y464322D01*
X144236Y464202D01*
X144264Y464091D01*
X144301Y463998D01*
X144338Y463906D01*
X144375Y463832D01*
X144412Y463758D01*
X144440Y463702D01*
X144467Y463656D01*
X144495Y463619D01*
X144514Y463591D01*
X144532Y463582D01*
Y463573D01*
X144606Y463499D01*
X144689Y463425D01*
X144846Y463314D01*
X145013Y463240D01*
X145170Y463185D01*
X145309Y463148D01*
X145410Y463138D01*
X145457Y463129D01*
X145512D01*
X145623Y463138D01*
X145725Y463148D01*
X145910Y463194D01*
X146076Y463268D01*
X146215Y463351D01*
X146326Y463434D01*
X146409Y463499D01*
X146465Y463554D01*
X146483Y463564D01*
Y463573D01*
X146557Y463656D01*
X146613Y463758D01*
X146714Y463961D01*
X146788Y464183D01*
X146834Y464387D01*
X146862Y464581D01*
X146871Y464664D01*
Y464738D01*
X146881Y464793D01*
Y464840D01*
Y464867D01*
Y464877D01*
Y465043D01*
X146862Y465200D01*
X146844Y465339D01*
X146816Y465478D01*
X146788Y465598D01*
X146751Y465709D01*
X146723Y465810D01*
X146686Y465903D01*
X146649Y465977D01*
X146613Y466051D01*
X146575Y466106D01*
X146548Y466152D01*
X146520Y466189D01*
X146502Y466217D01*
X146492Y466227D01*
X146483Y466236D01*
X146409Y466310D01*
X146326Y466384D01*
X146169Y466495D01*
X146002Y466569D01*
X145854Y466624D01*
X145716Y466652D01*
X145614Y466670D01*
X145568Y466679D01*
D02*
G37*
G36*
X117100Y464969D02*
X115085D01*
X117100Y462103D01*
Y464969D01*
D02*
G37*
G36*
X546579Y123155D02*
X546572D01*
X546579Y122933D01*
X546586Y122795D01*
X546593Y122677D01*
X546607Y122579D01*
X546628Y122496D01*
X546649Y122434D01*
X546663Y122385D01*
X546670Y122358D01*
X546676Y122351D01*
X546732Y122261D01*
X546787Y122177D01*
X546857Y122108D01*
X546919Y122052D01*
X546975Y122004D01*
X547023Y121969D01*
X547051Y121948D01*
X547065Y121942D01*
X547169Y121893D01*
X547273Y121858D01*
X547370Y121831D01*
X547467Y121817D01*
X547543Y121803D01*
X547612Y121796D01*
X547668D01*
X547793Y121803D01*
X547897Y121817D01*
X547987Y121845D01*
X548063Y121872D01*
X548119Y121900D01*
X548160Y121928D01*
X548188Y121942D01*
X548195Y121948D01*
X548251Y122011D01*
X548292Y122080D01*
X548327Y122143D01*
X548348Y122205D01*
X548361Y122261D01*
X548368Y122302D01*
Y122337D01*
Y122344D01*
X548361Y122399D01*
X548354Y122455D01*
X548341Y122496D01*
X548327Y122538D01*
X548313Y122573D01*
X548306Y122600D01*
X548292Y122614D01*
Y122621D01*
X548223Y122704D01*
X548139Y122760D01*
X548112Y122781D01*
X548084Y122795D01*
X548063Y122808D01*
X548056D01*
X547987Y122836D01*
X547911Y122857D01*
X547827Y122878D01*
X547744Y122892D01*
X547668Y122905D01*
X547599Y122919D01*
X547557Y122926D01*
X547543D01*
X547425Y122947D01*
X547314Y122961D01*
X547217Y122982D01*
X547120Y123003D01*
X547030Y123023D01*
X546954Y123044D01*
X546878Y123058D01*
X546815Y123079D01*
X546760Y123093D01*
X546711Y123106D01*
X546670Y123120D01*
X546635Y123134D01*
X546607Y123141D01*
X546586Y123148D01*
X546579Y123155D01*
D02*
G37*
G36*
X570530Y124480D02*
X570489D01*
X570405Y124473D01*
X570329Y124466D01*
X570183Y124424D01*
X570059Y124368D01*
X569954Y124306D01*
X569871Y124244D01*
X569809Y124188D01*
X569774Y124147D01*
X569760Y124140D01*
Y124133D01*
X569698Y124043D01*
X569642Y123939D01*
X569608Y123835D01*
X569573Y123724D01*
X569552Y123633D01*
X569538Y123550D01*
Y123523D01*
X569532Y123502D01*
Y123488D01*
Y123481D01*
X571480D01*
X571459Y123640D01*
X571418Y123786D01*
X571369Y123911D01*
X571314Y124008D01*
X571265Y124091D01*
X571217Y124154D01*
X571189Y124188D01*
X571175Y124202D01*
X571064Y124292D01*
X570953Y124362D01*
X570835Y124410D01*
X570724Y124445D01*
X570634Y124466D01*
X570558Y124473D01*
X570530Y124480D01*
D02*
G37*
G36*
X539950D02*
X539909D01*
X539825Y124473D01*
X539749Y124466D01*
X539604Y124424D01*
X539479Y124368D01*
X539375Y124306D01*
X539291Y124244D01*
X539229Y124188D01*
X539194Y124147D01*
X539181Y124140D01*
Y124133D01*
X539118Y124043D01*
X539063Y123939D01*
X539028Y123835D01*
X538993Y123724D01*
X538973Y123633D01*
X538959Y123550D01*
Y123523D01*
X538952Y123502D01*
Y123488D01*
Y123481D01*
X540900D01*
X540879Y123640D01*
X540838Y123786D01*
X540789Y123911D01*
X540734Y124008D01*
X540685Y124091D01*
X540637Y124154D01*
X540609Y124188D01*
X540595Y124202D01*
X540484Y124292D01*
X540373Y124362D01*
X540255Y124410D01*
X540144Y124445D01*
X540054Y124466D01*
X539978Y124473D01*
X539950Y124480D01*
D02*
G37*
G36*
X593690Y125249D02*
Y123100D01*
X595202D01*
X593690Y125249D01*
D02*
G37*
G36*
X552584Y125638D02*
X551447D01*
X551295Y125624D01*
X551177Y125617D01*
X551073Y125603D01*
X550996Y125589D01*
X550948Y125582D01*
X550913Y125568D01*
X550906D01*
X550830Y125540D01*
X550761Y125499D01*
X550705Y125457D01*
X550657Y125416D01*
X550622Y125381D01*
X550594Y125346D01*
X550580Y125325D01*
X550573Y125318D01*
X550532Y125249D01*
X550504Y125180D01*
X550483Y125111D01*
X550469Y125041D01*
X550462Y124986D01*
X550456Y124944D01*
Y124916D01*
Y124902D01*
X550462Y124812D01*
X550476Y124729D01*
X550497Y124660D01*
X550518Y124604D01*
X550539Y124556D01*
X550560Y124514D01*
X550573Y124493D01*
X550580Y124486D01*
X550629Y124431D01*
X550691Y124375D01*
X550754Y124334D01*
X550809Y124306D01*
X550865Y124278D01*
X550906Y124258D01*
X550934Y124251D01*
X550948Y124244D01*
X551024Y124230D01*
X551121Y124216D01*
X551218Y124209D01*
X551315Y124202D01*
X551406Y124195D01*
X552584D01*
Y125638D01*
D02*
G37*
G36*
Y123627D02*
X551322D01*
X551177Y123613D01*
X551059Y123599D01*
X550962Y123585D01*
X550886Y123571D01*
X550823Y123557D01*
X550795Y123550D01*
X550782Y123543D01*
X550691Y123509D01*
X550615Y123467D01*
X550546Y123419D01*
X550490Y123370D01*
X550449Y123328D01*
X550421Y123294D01*
X550400Y123266D01*
X550393Y123259D01*
X550345Y123183D01*
X550310Y123106D01*
X550282Y123030D01*
X550268Y122961D01*
X550255Y122899D01*
X550247Y122843D01*
Y122815D01*
Y122801D01*
X550255Y122718D01*
X550261Y122635D01*
X550275Y122566D01*
X550296Y122510D01*
X550317Y122462D01*
X550331Y122420D01*
X550338Y122399D01*
X550345Y122392D01*
X550386Y122330D01*
X550421Y122274D01*
X550469Y122233D01*
X550504Y122191D01*
X550539Y122163D01*
X550566Y122143D01*
X550587Y122129D01*
X550594Y122122D01*
X550712Y122066D01*
X550830Y122025D01*
X550879Y122011D01*
X550920Y122004D01*
X550948Y121997D01*
X550955D01*
X551010Y121990D01*
X551073Y121983D01*
X551218Y121976D01*
X552584D01*
Y123627D01*
D02*
G37*
G36*
X581743Y124480D02*
X581701D01*
X581618Y124473D01*
X581542Y124466D01*
X581403Y124431D01*
X581278Y124375D01*
X581174Y124313D01*
X581091Y124251D01*
X581029Y124202D01*
X580987Y124160D01*
X580973Y124154D01*
Y124147D01*
X580918Y124084D01*
X580876Y124008D01*
X580800Y123855D01*
X580744Y123689D01*
X580709Y123536D01*
X580689Y123391D01*
X580682Y123328D01*
Y123273D01*
X580675Y123231D01*
Y123197D01*
Y123176D01*
Y123169D01*
Y123044D01*
X580689Y122926D01*
X580703Y122822D01*
X580723Y122718D01*
X580744Y122628D01*
X580772Y122545D01*
X580793Y122469D01*
X580820Y122399D01*
X580848Y122344D01*
X580876Y122288D01*
X580904Y122247D01*
X580924Y122212D01*
X580945Y122184D01*
X580959Y122163D01*
X580966Y122156D01*
X580973Y122150D01*
X581029Y122094D01*
X581091Y122039D01*
X581209Y121955D01*
X581334Y121900D01*
X581445Y121858D01*
X581549Y121838D01*
X581625Y121824D01*
X581660Y121817D01*
X581701D01*
X581784Y121824D01*
X581861Y121831D01*
X582006Y121865D01*
X582131Y121921D01*
X582235Y121983D01*
X582318Y122039D01*
X582381Y122094D01*
X582422Y122129D01*
X582429Y122143D01*
X582436D01*
X582485Y122212D01*
X582533Y122281D01*
X582603Y122441D01*
X582658Y122607D01*
X582693Y122774D01*
X582714Y122919D01*
X582720Y122982D01*
Y123037D01*
X582727Y123086D01*
Y123120D01*
Y123141D01*
Y123148D01*
X582720Y123266D01*
X582714Y123384D01*
X582700Y123488D01*
X582679Y123585D01*
X582658Y123675D01*
X582637Y123758D01*
X582609Y123828D01*
X582582Y123897D01*
X582554Y123953D01*
X582526Y124008D01*
X582505Y124050D01*
X582485Y124084D01*
X582464Y124112D01*
X582450Y124133D01*
X582436Y124140D01*
Y124147D01*
X582381Y124202D01*
X582318Y124258D01*
X582200Y124341D01*
X582076Y124396D01*
X581958Y124438D01*
X581854Y124466D01*
X581777Y124473D01*
X581743Y124480D01*
D02*
G37*
G36*
X561599D02*
X561557D01*
X561474Y124473D01*
X561398Y124466D01*
X561259Y124431D01*
X561134Y124375D01*
X561030Y124313D01*
X560947Y124251D01*
X560885Y124202D01*
X560843Y124160D01*
X560829Y124154D01*
Y124147D01*
X560774Y124084D01*
X560732Y124008D01*
X560656Y123855D01*
X560600Y123689D01*
X560566Y123536D01*
X560545Y123391D01*
X560538Y123328D01*
Y123273D01*
X560531Y123231D01*
Y123197D01*
Y123176D01*
Y123169D01*
Y123044D01*
X560545Y122926D01*
X560559Y122822D01*
X560579Y122718D01*
X560600Y122628D01*
X560628Y122545D01*
X560649Y122469D01*
X560677Y122399D01*
X560704Y122344D01*
X560732Y122288D01*
X560760Y122247D01*
X560781Y122212D01*
X560801Y122184D01*
X560815Y122163D01*
X560822Y122156D01*
X560829Y122150D01*
X560885Y122094D01*
X560947Y122039D01*
X561065Y121955D01*
X561190Y121900D01*
X561301Y121858D01*
X561405Y121838D01*
X561481Y121824D01*
X561516Y121817D01*
X561557D01*
X561640Y121824D01*
X561717Y121831D01*
X561862Y121865D01*
X561987Y121921D01*
X562091Y121983D01*
X562174Y122039D01*
X562237Y122094D01*
X562278Y122129D01*
X562285Y122143D01*
X562292D01*
X562341Y122212D01*
X562389Y122281D01*
X562459Y122441D01*
X562514Y122607D01*
X562549Y122774D01*
X562570Y122919D01*
X562576Y122982D01*
Y123037D01*
X562584Y123086D01*
Y123120D01*
Y123141D01*
Y123148D01*
X562576Y123266D01*
X562570Y123384D01*
X562556Y123488D01*
X562535Y123585D01*
X562514Y123675D01*
X562493Y123758D01*
X562466Y123828D01*
X562438Y123897D01*
X562410Y123953D01*
X562382Y124008D01*
X562362Y124050D01*
X562341Y124084D01*
X562320Y124112D01*
X562306Y124133D01*
X562292Y124140D01*
Y124147D01*
X562237Y124202D01*
X562174Y124258D01*
X562057Y124341D01*
X561932Y124396D01*
X561814Y124438D01*
X561710Y124466D01*
X561633Y124473D01*
X561599Y124480D01*
D02*
G37*
%LPD*%
D11*
X109000Y247500D02*
Y312500D01*
Y247500D02*
X161000D01*
Y312500D01*
X109000D02*
X161000D01*
X177500Y747000D02*
X242500D01*
X177500Y695000D02*
Y747000D01*
Y695000D02*
X242500D01*
Y747000D01*
X187500Y497000D02*
X252500D01*
X187500Y445000D02*
Y497000D01*
Y445000D02*
X252500D01*
Y497000D01*
X77500Y443000D02*
X142500D01*
Y495000D01*
X77500D02*
X142500D01*
X77500Y443000D02*
Y495000D01*
X537500Y64000D02*
Y116000D01*
X602500D01*
Y64000D02*
Y116000D01*
X537500Y64000D02*
X602500D01*
M02*
