M48
;Layer_Color=9474304
;FILE_FORMAT=4:4
METRIC,LZ
;TYPE=PLATED
T01F00S00C0.3000
T02F00S00C0.7400
T03F00S00C0.7500
T04F00S00C0.8000
T05F00S00C1.1300
T06F00S00C3.2000
%
T01
X-005355Y00263534
X-00495184Y0026
X-00479197Y00314197
X-0046Y00315
X-00465Y0034
X-00546302Y00478418
X-00621302Y00439302
X-00636302Y0041
X-00455Y0039
X-0043Y00345
X-00385
X-003757Y00439302
X-0037062Y00485784
X-00378494Y00167506
X-00265803Y00229197
X-0025Y0022
X-00140793Y00230836
X00220184Y00485784
X0037Y0046
X0036Y00395
X0038Y00375
X0039Y0028
X00445136Y00261258
X0047Y0026
X00486884Y00320684
X00516293Y002954
X00521764Y0038
X00508474Y00445
X0046758Y00456066
X00575Y00413372
X00595606Y00369138
X00615Y00355
X006455Y00399932
X0063Y00425
X00730724Y0046521
X00613833Y00272678
X00566259Y00246643
X00511268Y0020105
X00642078Y00156346
X00805Y0013
X00815Y00175
X0088033Y00198207
X00825974Y0030646
X007455Y00373262
X00752822Y00407044
X00916906
X0091335Y00373262
X00955Y00385
X00965Y0042
X01005Y00385
X01055Y00415
X01102199Y00413775
X01112994Y0040298
X01035Y0019
X011483Y00613292
X01106644Y00654948
X010467Y0066079
X0107Y00685
X01015
X01034254Y00746793
X01058892Y00810142
X0091Y00758698
Y00745
X00900661Y00729459
X00912334Y00713698
X0087779Y00682126
X00833848Y00688984
X00814798Y006392
X00795176Y00729824
X00779277Y00745723
X0079Y0077
X0082572Y00882428
X00892014Y00855862
X00938736Y00621928
X0098193Y00493404
X010055Y00504274
X01009362Y00518804
X01037556Y00518698
X01065Y00505
X01110543Y00564457
X00840706Y00514994
X0074466Y0053506
X00657064Y00508136
X0056283Y00587892
X0057Y0062
X005105Y00605926
X0042Y00595
X00395Y00615
X0037Y0061
X003705Y00752992
X00538207Y00761868
X00545304Y00803284
X0055775Y00714561
X0055648Y00687968
X00605Y0067
X00635Y0068
X0064Y00705
X00662696Y00688984
X00675Y0072
X00674844Y00735212
X00689661Y00770774
X00695Y00795
X00725Y00775
X0063Y0077
X00480026Y0052998
X00120108Y0059602
X00070324Y00600084
X000305Y00577224
X-00002221Y00567064
X00009364Y00541793
X00048226Y0052998
X00055Y0067
X00081041Y00698959
X0012Y0069
X00115Y00735
X00145Y0074
X0009Y0075
X0003832Y0076874
X0003Y00735
X-00016544Y00713876
X-0004296Y00718956
X-00015Y00659187
X-00001812Y0062777
X00137649Y00798499
X0017Y00795
X-00156244Y00794902
X-00146Y00822334
X-00111032Y00865006
X-0017Y00755
X-001905Y00724036
X-0022Y00785
X-00243874Y00781186
X-00258606Y0077382
X-00325Y0077
Y0073
X-00368741Y00693717
X-00405Y0069
X-00446058Y00712352
X-0041634Y00784742
X-00448598Y0082335
X-00456218Y00857386
X-00408974Y0059475
X-00408523Y00558936
X-00410178Y00541794
X-003719Y00506358
X-002Y00555
X-00155
X-00137793Y00563207
X-0017Y00600316
X-00184946Y00628532
X-00085Y00622207
X-00511082Y0060745
X-00494826Y00524392
X-00621302Y00498532
X-00635Y0074588
X-0059Y00760536
X-00578138Y00759342
X-0057509Y00728862
X-00525Y00715094
X-00527338Y00771534
X-00500922Y00766454
X-0048365Y00824112
X-00485555Y00847861
X-00585Y00855
X-0063Y0088
X-0065256Y00810142
X-00669451Y00791981
X-00590653Y00889713
X-00453538Y00887358
X00558433Y0093
X00605Y00918346
X00576304Y00972057
X0058Y0101
X00557242Y01066682
X0063014
X0065Y0098
X00681793Y00967697
X00698829Y00968829
X00705324Y0095797
X00725Y0098
X0069491Y00925966
X00804301Y00929571
X0082Y0094
X00855Y00945
X00878698Y00951302
X00895Y00945
X0092351Y0095797
X009603Y00921307
X00981464Y00889898
X00891506
X00769357Y00973207
T02
X-004654Y0028
X-0044
X-004146
X-004254Y0021
X-004508
X-004
X00315Y004192
Y004446
Y0047
X0068Y004704
Y00445
Y004196
X007646Y0024
X0079
X008154
X0089Y002442
Y002696
Y00295
X0086Y005196
Y00545
Y005704
X008554Y0085
X0083
X008046
X0048Y00845
X004546
X004292
X007Y006104
Y00585
Y005596
X00315Y00565
Y005396
Y005904
X0031Y006696
Y00695
Y007204
X00215Y00635
Y006096
Y005842
X-0027Y005746
Y006
Y005492
Y006596
Y00685
Y007104
X-003896Y00655
X-00415
X-004404
X-004392Y00745
X-004646
X-0049
X-004904Y0094
X-00465
X-004396
T03
X-0019Y0041
X0
T04
X-0043Y00136
X-0041
X-0039
X00141Y0027
Y0029
X0012Y00475
X001
X0021Y00465
X0023
X0056Y00096
X0058
X0022Y00715
X002
X-00355Y00725
Y00745
Y00765
X-00364Y0097
Y0099
Y0101
T05
X-001839Y002897
X-001585
X-001331
X-001077
X-000823
X-000696Y00345
X-00095
X-001204
X-001458
X-001712
X-000442
X-000188
X-000061Y002897
X-000315
X-000569
T06
X00835Y00075
X-0007
X-0027
X-0037Y0007
X-0065Y0045
Y0065
X-0044Y01
X-0027Y01025
X-0007
X0083Y0104
M30
