G04*
G04 #@! TF.GenerationSoftware,Altium Limited,Altium Designer,23.9.2 (47)*
G04*
G04 Layer_Color=16711935*
%FSLAX44Y44*%
%MOMM*%
G71*
G04*
G04 #@! TF.SameCoordinates,DC7A7723-1311-43B5-9009-1713E082842B*
G04*
G04*
G04 #@! TF.FilePolarity,Positive*
G04*
G01*
G75*
%ADD11C,0.2000*%
G36*
X-419051Y131318D02*
X-424257D01*
Y131882D01*
X-419051D01*
Y131318D01*
D02*
G37*
G36*
X-447888D02*
X-453094D01*
Y131882D01*
X-447888D01*
Y131318D01*
D02*
G37*
G36*
X-443645Y125466D02*
X-444357D01*
Y126076D01*
X-444366Y126058D01*
X-444403Y126021D01*
X-444449Y125956D01*
X-444523Y125882D01*
X-444606Y125789D01*
X-444699Y125706D01*
X-444810Y125623D01*
X-444921Y125549D01*
X-444939Y125540D01*
X-444976Y125521D01*
X-445050Y125494D01*
X-445143Y125457D01*
X-445253Y125420D01*
X-445383Y125392D01*
X-445531Y125373D01*
X-445697Y125364D01*
X-445799D01*
X-445845Y125373D01*
X-445910Y125383D01*
X-446049Y125401D01*
X-446215Y125438D01*
X-446391Y125494D01*
X-446566Y125577D01*
X-446742Y125679D01*
X-446751D01*
X-446760Y125697D01*
X-446816Y125734D01*
X-446899Y125808D01*
X-447001Y125900D01*
X-447112Y126021D01*
X-447223Y126169D01*
X-447334Y126344D01*
X-447426Y126538D01*
Y126548D01*
X-447435Y126566D01*
X-447445Y126594D01*
X-447463Y126631D01*
X-447482Y126686D01*
X-447500Y126751D01*
X-447546Y126899D01*
X-447593Y127084D01*
X-447630Y127287D01*
X-447657Y127519D01*
X-447667Y127759D01*
Y127768D01*
Y127787D01*
Y127824D01*
Y127879D01*
X-447657Y127944D01*
Y128018D01*
X-447639Y128184D01*
X-447602Y128388D01*
X-447556Y128600D01*
X-447491Y128822D01*
X-447408Y129044D01*
Y129053D01*
X-447398Y129072D01*
X-447380Y129100D01*
X-447361Y129136D01*
X-447297Y129238D01*
X-447214Y129368D01*
X-447112Y129506D01*
X-446982Y129645D01*
X-446834Y129784D01*
X-446659Y129913D01*
X-446650D01*
X-446640Y129922D01*
X-446613Y129941D01*
X-446576Y129959D01*
X-446483Y130006D01*
X-446354Y130061D01*
X-446197Y130117D01*
X-446030Y130163D01*
X-445836Y130200D01*
X-445642Y130209D01*
X-445577D01*
X-445503Y130200D01*
X-445411Y130190D01*
X-445300Y130172D01*
X-445179Y130144D01*
X-445059Y130107D01*
X-444939Y130052D01*
X-444930Y130042D01*
X-444884Y130024D01*
X-444828Y129987D01*
X-444754Y129932D01*
X-444680Y129876D01*
X-444588Y129802D01*
X-444505Y129719D01*
X-444431Y129627D01*
Y131882D01*
X-443645D01*
Y125466D01*
D02*
G37*
G36*
X-436877Y130200D02*
X-436812D01*
X-436738Y130190D01*
X-436572Y130163D01*
X-436387Y130117D01*
X-436184Y130052D01*
X-435999Y129959D01*
X-435832Y129839D01*
X-435814Y129821D01*
X-435768Y129774D01*
X-435703Y129691D01*
X-435629Y129580D01*
X-435555Y129441D01*
X-435490Y129284D01*
X-435444Y129090D01*
X-435435Y128998D01*
X-435425Y128887D01*
Y128868D01*
Y128831D01*
X-435435Y128767D01*
X-435444Y128683D01*
X-435462Y128582D01*
X-435490Y128480D01*
X-435527Y128369D01*
X-435573Y128267D01*
X-435583Y128258D01*
X-435601Y128221D01*
X-435638Y128166D01*
X-435684Y128101D01*
X-435740Y128027D01*
X-435814Y127953D01*
X-435888Y127879D01*
X-435980Y127814D01*
X-435989Y127805D01*
X-436026Y127787D01*
X-436073Y127750D01*
X-436147Y127713D01*
X-436230Y127676D01*
X-436331Y127629D01*
X-436433Y127592D01*
X-436553Y127555D01*
X-436563D01*
X-436600Y127546D01*
X-436655Y127528D01*
X-436729Y127519D01*
X-436822Y127500D01*
X-436942Y127481D01*
X-437080Y127454D01*
X-437247Y127435D01*
X-437256D01*
X-437293Y127426D01*
X-437339D01*
X-437404Y127417D01*
X-437478Y127408D01*
X-437570Y127389D01*
X-437672Y127380D01*
X-437783Y127361D01*
X-438005Y127315D01*
X-438245Y127269D01*
X-438458Y127213D01*
X-438560Y127186D01*
X-438652Y127158D01*
Y127149D01*
Y127130D01*
X-438661Y127075D01*
Y127010D01*
Y126973D01*
Y126954D01*
Y126945D01*
Y126936D01*
Y126881D01*
X-438652Y126788D01*
X-438634Y126686D01*
X-438606Y126575D01*
X-438560Y126465D01*
X-438504Y126363D01*
X-438430Y126280D01*
X-438421Y126270D01*
X-438375Y126233D01*
X-438301Y126196D01*
X-438208Y126141D01*
X-438079Y126095D01*
X-437931Y126048D01*
X-437746Y126021D01*
X-437533Y126011D01*
X-437441D01*
X-437349Y126021D01*
X-437219Y126039D01*
X-437090Y126058D01*
X-436951Y126095D01*
X-436822Y126141D01*
X-436711Y126206D01*
X-436701Y126215D01*
X-436664Y126243D01*
X-436618Y126289D01*
X-436563Y126363D01*
X-436507Y126455D01*
X-436442Y126575D01*
X-436387Y126723D01*
X-436331Y126890D01*
X-435564Y126788D01*
Y126779D01*
X-435573Y126770D01*
Y126742D01*
X-435583Y126705D01*
X-435610Y126622D01*
X-435647Y126501D01*
X-435694Y126381D01*
X-435749Y126252D01*
X-435823Y126122D01*
X-435906Y126002D01*
X-435915Y125993D01*
X-435952Y125956D01*
X-436008Y125900D01*
X-436082Y125827D01*
X-436184Y125753D01*
X-436304Y125679D01*
X-436442Y125595D01*
X-436600Y125531D01*
X-436609D01*
X-436618Y125521D01*
X-436646Y125512D01*
X-436683Y125503D01*
X-436775Y125475D01*
X-436905Y125448D01*
X-437053Y125420D01*
X-437238Y125392D01*
X-437432Y125373D01*
X-437654Y125364D01*
X-437755D01*
X-437857Y125373D01*
X-437996Y125383D01*
X-438153Y125401D01*
X-438310Y125429D01*
X-438467Y125466D01*
X-438615Y125512D01*
X-438634Y125521D01*
X-438680Y125540D01*
X-438745Y125568D01*
X-438828Y125605D01*
X-438920Y125660D01*
X-439013Y125716D01*
X-439096Y125789D01*
X-439170Y125864D01*
X-439179Y125873D01*
X-439198Y125900D01*
X-439225Y125947D01*
X-439262Y126002D01*
X-439309Y126085D01*
X-439346Y126169D01*
X-439383Y126270D01*
X-439410Y126390D01*
Y126400D01*
X-439420Y126427D01*
X-439429Y126483D01*
X-439438Y126557D01*
Y126659D01*
X-439447Y126779D01*
X-439456Y126936D01*
Y127112D01*
Y128166D01*
Y128175D01*
Y128212D01*
Y128267D01*
Y128341D01*
Y128425D01*
Y128526D01*
X-439466Y128748D01*
Y128979D01*
X-439475Y129210D01*
X-439484Y129312D01*
Y129405D01*
X-439493Y129488D01*
X-439503Y129552D01*
Y129562D01*
X-439512Y129599D01*
X-439521Y129654D01*
X-439549Y129728D01*
X-439567Y129811D01*
X-439604Y129904D01*
X-439651Y130006D01*
X-439697Y130107D01*
X-438874D01*
X-438865Y130098D01*
X-438856Y130061D01*
X-438837Y130015D01*
X-438809Y129941D01*
X-438782Y129858D01*
X-438763Y129756D01*
X-438745Y129645D01*
X-438726Y129525D01*
X-438717D01*
X-438708Y129543D01*
X-438652Y129590D01*
X-438569Y129654D01*
X-438458Y129737D01*
X-438319Y129821D01*
X-438181Y129913D01*
X-438033Y129996D01*
X-437876Y130061D01*
X-437857Y130070D01*
X-437802Y130079D01*
X-437718Y130107D01*
X-437617Y130135D01*
X-437487Y130163D01*
X-437339Y130181D01*
X-437173Y130200D01*
X-437006Y130209D01*
X-436932D01*
X-436877Y130200D01*
D02*
G37*
G36*
X-411581Y130209D02*
X-411507Y130200D01*
X-411433Y130190D01*
X-411239Y130154D01*
X-411035Y130098D01*
X-410823Y130015D01*
X-410712Y129959D01*
X-410610Y129895D01*
X-410518Y129821D01*
X-410425Y129737D01*
X-410416Y129728D01*
X-410407Y129719D01*
X-410388Y129682D01*
X-410361Y129645D01*
X-410324Y129599D01*
X-410287Y129534D01*
X-410250Y129460D01*
X-410203Y129377D01*
X-410166Y129284D01*
X-410129Y129173D01*
X-410092Y129062D01*
X-410056Y128933D01*
X-410037Y128794D01*
X-410009Y128637D01*
X-410000Y128480D01*
Y128304D01*
X-410767Y128193D01*
Y128203D01*
Y128221D01*
Y128258D01*
X-410777Y128314D01*
X-410786Y128369D01*
Y128434D01*
X-410814Y128591D01*
X-410841Y128757D01*
X-410897Y128924D01*
X-410952Y129072D01*
X-410989Y129136D01*
X-411035Y129192D01*
X-411045Y129201D01*
X-411082Y129229D01*
X-411137Y129275D01*
X-411211Y129321D01*
X-411313Y129377D01*
X-411424Y129414D01*
X-411562Y129451D01*
X-411710Y129460D01*
X-411766D01*
X-411821Y129451D01*
X-411905Y129441D01*
X-411988Y129423D01*
X-412080Y129405D01*
X-412173Y129368D01*
X-412265Y129321D01*
X-412274Y129312D01*
X-412302Y129294D01*
X-412339Y129257D01*
X-412395Y129220D01*
X-412441Y129155D01*
X-412496Y129090D01*
X-412542Y129016D01*
X-412579Y128924D01*
Y128915D01*
X-412598Y128878D01*
X-412607Y128813D01*
X-412626Y128730D01*
X-412644Y128619D01*
X-412654Y128480D01*
X-412672Y128314D01*
Y128119D01*
Y123709D01*
X-413523D01*
Y128073D01*
Y128082D01*
Y128110D01*
Y128147D01*
Y128203D01*
X-413513Y128277D01*
Y128351D01*
X-413495Y128526D01*
X-413476Y128730D01*
X-413439Y128942D01*
X-413384Y129136D01*
X-413319Y129321D01*
Y129331D01*
X-413310Y129340D01*
X-413282Y129395D01*
X-413236Y129469D01*
X-413171Y129571D01*
X-413079Y129673D01*
X-412977Y129784D01*
X-412848Y129895D01*
X-412700Y129987D01*
X-412681Y129996D01*
X-412626Y130024D01*
X-412542Y130061D01*
X-412422Y130098D01*
X-412274Y130144D01*
X-412108Y130181D01*
X-411923Y130209D01*
X-411720Y130218D01*
X-411637D01*
X-411581Y130209D01*
D02*
G37*
G36*
X-427067D02*
X-426984D01*
X-426892Y130200D01*
X-426781Y130190D01*
X-426550Y130154D01*
X-426309Y130117D01*
X-426069Y130052D01*
X-425838Y129969D01*
X-425829D01*
X-425810Y129959D01*
X-425782Y129941D01*
X-425745Y129922D01*
X-425634Y129867D01*
X-425505Y129784D01*
X-425357Y129673D01*
X-425200Y129543D01*
X-425052Y129386D01*
X-424913Y129210D01*
Y129201D01*
X-424895Y129183D01*
X-424885Y129155D01*
X-424858Y129118D01*
X-424839Y129072D01*
X-424811Y129016D01*
X-424747Y128878D01*
X-424682Y128702D01*
X-424627Y128508D01*
X-424590Y128286D01*
X-424571Y128055D01*
X-425366Y127981D01*
Y127990D01*
Y127999D01*
X-425375Y128027D01*
Y128064D01*
X-425394Y128147D01*
X-425422Y128267D01*
X-425459Y128388D01*
X-425496Y128526D01*
X-425560Y128656D01*
X-425625Y128776D01*
X-425634Y128785D01*
X-425662Y128822D01*
X-425708Y128887D01*
X-425782Y128952D01*
X-425875Y129035D01*
X-425976Y129118D01*
X-426115Y129201D01*
X-426263Y129275D01*
X-426272D01*
X-426282Y129284D01*
X-426309Y129294D01*
X-426337Y129303D01*
X-426429Y129331D01*
X-426550Y129368D01*
X-426698Y129405D01*
X-426864Y129432D01*
X-427049Y129451D01*
X-427252Y129460D01*
X-427336D01*
X-427428Y129451D01*
X-427539Y129441D01*
X-427668Y129423D01*
X-427816Y129405D01*
X-427964Y129368D01*
X-428103Y129321D01*
X-428121Y129312D01*
X-428168Y129294D01*
X-428232Y129257D01*
X-428316Y129220D01*
X-428399Y129155D01*
X-428491Y129090D01*
X-428584Y129016D01*
X-428658Y128924D01*
X-428667Y128915D01*
X-428685Y128878D01*
X-428713Y128831D01*
X-428750Y128757D01*
X-428787Y128683D01*
X-428815Y128591D01*
X-428833Y128489D01*
X-428843Y128378D01*
Y128369D01*
Y128323D01*
X-428833Y128267D01*
X-428824Y128193D01*
X-428796Y128119D01*
X-428769Y128027D01*
X-428722Y127935D01*
X-428658Y127851D01*
X-428648Y127842D01*
X-428621Y127814D01*
X-428584Y127777D01*
X-428519Y127722D01*
X-428445Y127666D01*
X-428343Y127602D01*
X-428223Y127537D01*
X-428084Y127481D01*
X-428075Y127472D01*
X-428029Y127463D01*
X-427955Y127435D01*
X-427909Y127426D01*
X-427844Y127408D01*
X-427779Y127380D01*
X-427696Y127361D01*
X-427604Y127334D01*
X-427493Y127306D01*
X-427382Y127278D01*
X-427252Y127241D01*
X-427104Y127204D01*
X-426947Y127167D01*
X-426938D01*
X-426910Y127158D01*
X-426864Y127149D01*
X-426809Y127130D01*
X-426735Y127112D01*
X-426651Y127093D01*
X-426466Y127038D01*
X-426263Y126973D01*
X-426050Y126908D01*
X-425865Y126844D01*
X-425782Y126807D01*
X-425708Y126770D01*
X-425699D01*
X-425690Y126760D01*
X-425634Y126723D01*
X-425551Y126677D01*
X-425459Y126603D01*
X-425348Y126520D01*
X-425237Y126418D01*
X-425126Y126298D01*
X-425033Y126169D01*
X-425024Y126150D01*
X-424996Y126104D01*
X-424959Y126030D01*
X-424922Y125938D01*
X-424885Y125817D01*
X-424848Y125679D01*
X-424821Y125531D01*
X-424811Y125373D01*
Y125364D01*
Y125355D01*
Y125327D01*
Y125290D01*
X-424830Y125198D01*
X-424848Y125078D01*
X-424876Y124939D01*
X-424922Y124782D01*
X-424987Y124625D01*
X-425080Y124467D01*
Y124458D01*
X-425089Y124449D01*
X-425135Y124394D01*
X-425200Y124319D01*
X-425283Y124227D01*
X-425394Y124125D01*
X-425533Y124014D01*
X-425699Y123913D01*
X-425884Y123820D01*
X-425893D01*
X-425912Y123811D01*
X-425939Y123802D01*
X-425976Y123783D01*
X-426023Y123765D01*
X-426087Y123746D01*
X-426226Y123709D01*
X-426402Y123672D01*
X-426605Y123635D01*
X-426818Y123608D01*
X-427058Y123598D01*
X-427178D01*
X-427243Y123608D01*
X-427308D01*
X-427483Y123626D01*
X-427678Y123654D01*
X-427881Y123700D01*
X-428103Y123756D01*
X-428306Y123829D01*
X-428316D01*
X-428334Y123839D01*
X-428362Y123857D01*
X-428399Y123876D01*
X-428491Y123922D01*
X-428611Y124005D01*
X-428750Y124098D01*
X-428889Y124218D01*
X-429018Y124356D01*
X-429138Y124514D01*
Y124523D01*
X-429148Y124532D01*
X-429166Y124560D01*
X-429185Y124588D01*
X-429231Y124680D01*
X-429286Y124800D01*
X-429351Y124948D01*
X-429397Y125124D01*
X-429444Y125309D01*
X-429462Y125512D01*
X-428648Y125577D01*
Y125568D01*
Y125549D01*
X-428639Y125521D01*
X-428630Y125475D01*
X-428602Y125373D01*
X-428565Y125235D01*
X-428510Y125087D01*
X-428427Y124939D01*
X-428325Y124800D01*
X-428195Y124671D01*
X-428177Y124662D01*
X-428131Y124625D01*
X-428038Y124569D01*
X-427918Y124514D01*
X-427761Y124458D01*
X-427576Y124403D01*
X-427345Y124366D01*
X-427086Y124356D01*
X-426956D01*
X-426901Y124366D01*
X-426827Y124375D01*
X-426661Y124394D01*
X-426476Y124430D01*
X-426291Y124477D01*
X-426115Y124551D01*
X-426041Y124597D01*
X-425967Y124643D01*
X-425949Y124652D01*
X-425912Y124689D01*
X-425856Y124754D01*
X-425801Y124828D01*
X-425736Y124930D01*
X-425681Y125041D01*
X-425644Y125170D01*
X-425625Y125318D01*
Y125337D01*
Y125373D01*
X-425634Y125438D01*
X-425653Y125512D01*
X-425681Y125605D01*
X-425727Y125697D01*
X-425782Y125789D01*
X-425865Y125882D01*
X-425875Y125891D01*
X-425921Y125919D01*
X-425958Y125947D01*
X-425995Y125965D01*
X-426050Y125993D01*
X-426115Y126030D01*
X-426198Y126058D01*
X-426291Y126095D01*
X-426392Y126132D01*
X-426513Y126178D01*
X-426642Y126215D01*
X-426790Y126261D01*
X-426956Y126298D01*
X-427141Y126344D01*
X-427151D01*
X-427188Y126354D01*
X-427243Y126363D01*
X-427308Y126381D01*
X-427391Y126400D01*
X-427493Y126427D01*
X-427594Y126455D01*
X-427705Y126483D01*
X-427946Y126548D01*
X-428177Y126612D01*
X-428288Y126649D01*
X-428390Y126686D01*
X-428482Y126714D01*
X-428556Y126751D01*
X-428565D01*
X-428584Y126760D01*
X-428611Y126779D01*
X-428648Y126797D01*
X-428750Y126853D01*
X-428870Y126927D01*
X-429009Y127028D01*
X-429148Y127139D01*
X-429277Y127269D01*
X-429388Y127408D01*
X-429397Y127426D01*
X-429434Y127472D01*
X-429471Y127555D01*
X-429527Y127666D01*
X-429573Y127796D01*
X-429619Y127953D01*
X-429647Y128129D01*
X-429656Y128314D01*
Y128323D01*
Y128332D01*
Y128360D01*
Y128397D01*
X-429638Y128498D01*
X-429619Y128628D01*
X-429582Y128776D01*
X-429536Y128933D01*
X-429462Y129100D01*
X-429360Y129275D01*
Y129284D01*
X-429351Y129294D01*
X-429305Y129349D01*
X-429240Y129432D01*
X-429148Y129525D01*
X-429027Y129636D01*
X-428880Y129756D01*
X-428713Y129867D01*
X-428519Y129969D01*
X-428510D01*
X-428491Y129978D01*
X-428464Y129987D01*
X-428427Y130006D01*
X-428371Y130024D01*
X-428306Y130052D01*
X-428158Y130089D01*
X-427983Y130135D01*
X-427770Y130181D01*
X-427539Y130209D01*
X-427289Y130218D01*
X-427141D01*
X-427067Y130209D01*
D02*
G37*
G36*
X-440658Y125466D02*
X-441370D01*
Y126169D01*
X-441380Y126159D01*
X-441417Y126095D01*
X-441463Y126011D01*
X-441537Y125910D01*
X-441611Y125808D01*
X-441694Y125697D01*
X-441777Y125605D01*
X-441860Y125531D01*
X-441870Y125521D01*
X-441897Y125503D01*
X-441953Y125475D01*
X-442008Y125448D01*
X-442082Y125420D01*
X-442175Y125392D01*
X-442267Y125373D01*
X-442369Y125364D01*
X-442434D01*
X-442517Y125373D01*
X-442618Y125392D01*
X-442739Y125429D01*
X-442868Y125475D01*
X-443016Y125540D01*
X-443173Y125623D01*
X-442887Y126344D01*
X-442877Y126335D01*
X-442840Y126316D01*
X-442785Y126289D01*
X-442711Y126261D01*
X-442628Y126233D01*
X-442526Y126206D01*
X-442424Y126187D01*
X-442323Y126178D01*
X-442276D01*
X-442230Y126187D01*
X-442165Y126196D01*
X-442101Y126215D01*
X-442018Y126243D01*
X-441934Y126280D01*
X-441860Y126335D01*
X-441851Y126344D01*
X-441823Y126363D01*
X-441796Y126400D01*
X-441749Y126446D01*
X-441703Y126511D01*
X-441657Y126585D01*
X-441611Y126668D01*
X-441574Y126770D01*
X-441564Y126788D01*
X-441555Y126844D01*
X-441537Y126927D01*
X-441509Y127038D01*
X-441481Y127176D01*
X-441463Y127334D01*
X-441454Y127500D01*
X-441444Y127685D01*
Y130107D01*
X-440658D01*
Y125466D01*
D02*
G37*
G36*
X-430719Y123709D02*
X-431505D01*
Y126002D01*
X-431515Y125993D01*
X-431533Y125974D01*
X-431561Y125947D01*
X-431607Y125900D01*
X-431653Y125854D01*
X-431718Y125799D01*
X-431801Y125743D01*
X-431884Y125679D01*
X-431977Y125623D01*
X-432079Y125568D01*
X-432319Y125466D01*
X-432448Y125420D01*
X-432587Y125392D01*
X-432735Y125373D01*
X-432883Y125364D01*
X-432966D01*
X-433068Y125373D01*
X-433188Y125392D01*
X-433327Y125410D01*
X-433475Y125448D01*
X-433623Y125503D01*
X-433770Y125568D01*
X-433789Y125577D01*
X-433835Y125605D01*
X-433900Y125651D01*
X-433983Y125716D01*
X-434066Y125799D01*
X-434159Y125891D01*
X-434242Y126002D01*
X-434316Y126132D01*
X-434325Y126150D01*
X-434344Y126196D01*
X-434371Y126280D01*
X-434399Y126400D01*
X-434427Y126548D01*
X-434455Y126723D01*
X-434473Y126936D01*
X-434482Y127176D01*
Y130107D01*
X-433697D01*
Y127167D01*
Y127158D01*
Y127139D01*
Y127112D01*
Y127075D01*
X-433687Y126973D01*
X-433669Y126844D01*
X-433632Y126705D01*
X-433586Y126566D01*
X-433521Y126427D01*
X-433438Y126316D01*
X-433428Y126307D01*
X-433391Y126270D01*
X-433336Y126224D01*
X-433253Y126178D01*
X-433151Y126122D01*
X-433031Y126085D01*
X-432883Y126048D01*
X-432716Y126039D01*
X-432661D01*
X-432596Y126048D01*
X-432504Y126058D01*
X-432411Y126085D01*
X-432300Y126113D01*
X-432189Y126159D01*
X-432069Y126224D01*
X-432060Y126233D01*
X-432023Y126261D01*
X-431968Y126298D01*
X-431903Y126354D01*
X-431829Y126427D01*
X-431755Y126511D01*
X-431690Y126612D01*
X-431635Y126723D01*
X-431626Y126742D01*
X-431616Y126779D01*
X-431598Y126853D01*
X-431570Y126945D01*
X-431542Y127065D01*
X-431524Y127213D01*
X-431515Y127380D01*
X-431505Y127574D01*
Y130107D01*
X-430719D01*
Y123709D01*
D02*
G37*
G36*
X-453658D02*
X-454508D01*
Y129349D01*
X-457661D01*
Y130107D01*
X-453658D01*
Y123709D01*
D02*
G37*
G36*
X-416758Y125105D02*
X-416749Y125115D01*
X-416703Y125152D01*
X-416648Y125207D01*
X-416555Y125272D01*
X-416453Y125355D01*
X-416324Y125448D01*
X-416176Y125549D01*
X-416010Y125651D01*
X-416000D01*
X-415991Y125660D01*
X-415936Y125697D01*
X-415843Y125743D01*
X-415732Y125799D01*
X-415603Y125864D01*
X-415464Y125928D01*
X-415326Y125993D01*
X-415187Y126048D01*
Y125290D01*
X-415196D01*
X-415215Y125272D01*
X-415252Y125262D01*
X-415298Y125235D01*
X-415353Y125207D01*
X-415418Y125170D01*
X-415575Y125078D01*
X-415760Y124976D01*
X-415945Y124846D01*
X-416139Y124699D01*
X-416333Y124541D01*
X-416343Y124532D01*
X-416352Y124523D01*
X-416380Y124495D01*
X-416416Y124467D01*
X-416500Y124375D01*
X-416611Y124264D01*
X-416721Y124135D01*
X-416842Y123987D01*
X-416943Y123839D01*
X-417036Y123681D01*
X-417544D01*
Y130107D01*
X-416758D01*
Y125105D01*
D02*
G37*
G36*
X-366533Y789582D02*
X-364554D01*
Y792587D01*
X-363796D01*
Y789582D01*
X-360893D01*
Y788732D01*
X-367291D01*
Y793059D01*
X-366533D01*
Y789582D01*
D02*
G37*
G36*
X-359118Y782888D02*
X-359682D01*
Y788094D01*
X-359118D01*
Y782888D01*
D02*
G37*
G36*
X-363056Y782657D02*
X-362982D01*
X-362816Y782639D01*
X-362612Y782602D01*
X-362400Y782556D01*
X-362178Y782491D01*
X-361956Y782408D01*
X-361947D01*
X-361928Y782399D01*
X-361900Y782380D01*
X-361864Y782362D01*
X-361762Y782297D01*
X-361632Y782214D01*
X-361494Y782112D01*
X-361355Y781982D01*
X-361216Y781834D01*
X-361087Y781659D01*
Y781650D01*
X-361078Y781640D01*
X-361059Y781613D01*
X-361041Y781576D01*
X-360994Y781483D01*
X-360939Y781354D01*
X-360883Y781197D01*
X-360837Y781030D01*
X-360800Y780836D01*
X-360791Y780642D01*
Y780577D01*
X-360800Y780503D01*
X-360810Y780411D01*
X-360828Y780300D01*
X-360856Y780180D01*
X-360893Y780059D01*
X-360948Y779939D01*
X-360957Y779930D01*
X-360976Y779884D01*
X-361013Y779828D01*
X-361068Y779754D01*
X-361124Y779680D01*
X-361198Y779588D01*
X-361281Y779505D01*
X-361373Y779431D01*
X-359118D01*
Y778645D01*
X-365534D01*
Y779357D01*
X-364924D01*
X-364942Y779366D01*
X-364979Y779403D01*
X-365044Y779449D01*
X-365118Y779523D01*
X-365210Y779606D01*
X-365294Y779699D01*
X-365377Y779810D01*
X-365451Y779921D01*
X-365460Y779939D01*
X-365479Y779976D01*
X-365506Y780050D01*
X-365543Y780143D01*
X-365580Y780254D01*
X-365608Y780383D01*
X-365626Y780531D01*
X-365636Y780697D01*
Y780799D01*
X-365626Y780845D01*
X-365617Y780910D01*
X-365599Y781049D01*
X-365562Y781215D01*
X-365506Y781391D01*
X-365423Y781566D01*
X-365321Y781742D01*
Y781751D01*
X-365303Y781760D01*
X-365266Y781816D01*
X-365192Y781899D01*
X-365099Y782001D01*
X-364979Y782112D01*
X-364831Y782223D01*
X-364656Y782334D01*
X-364462Y782426D01*
X-364452D01*
X-364434Y782435D01*
X-364406Y782445D01*
X-364369Y782463D01*
X-364314Y782482D01*
X-364249Y782500D01*
X-364101Y782546D01*
X-363916Y782593D01*
X-363713Y782630D01*
X-363481Y782657D01*
X-363241Y782667D01*
X-363232D01*
X-363213D01*
X-363176D01*
X-363121D01*
X-363056Y782657D01*
D02*
G37*
G36*
X-364656Y777887D02*
X-364665Y777877D01*
X-364683Y777840D01*
X-364711Y777785D01*
X-364739Y777711D01*
X-364767Y777628D01*
X-364794Y777526D01*
X-364813Y777424D01*
X-364822Y777323D01*
Y777276D01*
X-364813Y777230D01*
X-364804Y777166D01*
X-364785Y777101D01*
X-364757Y777018D01*
X-364720Y776934D01*
X-364665Y776860D01*
X-364656Y776851D01*
X-364637Y776823D01*
X-364600Y776796D01*
X-364554Y776749D01*
X-364489Y776703D01*
X-364415Y776657D01*
X-364332Y776611D01*
X-364230Y776574D01*
X-364212Y776564D01*
X-364156Y776555D01*
X-364073Y776537D01*
X-363962Y776509D01*
X-363824Y776481D01*
X-363666Y776463D01*
X-363500Y776453D01*
X-363315Y776444D01*
X-360893D01*
Y775658D01*
X-365534D01*
Y776370D01*
X-364831D01*
X-364841Y776380D01*
X-364905Y776417D01*
X-364989Y776463D01*
X-365090Y776537D01*
X-365192Y776611D01*
X-365303Y776694D01*
X-365395Y776777D01*
X-365469Y776860D01*
X-365479Y776870D01*
X-365497Y776897D01*
X-365525Y776953D01*
X-365552Y777008D01*
X-365580Y777082D01*
X-365608Y777175D01*
X-365626Y777267D01*
X-365636Y777369D01*
Y777434D01*
X-365626Y777517D01*
X-365608Y777618D01*
X-365571Y777739D01*
X-365525Y777868D01*
X-365460Y778016D01*
X-365377Y778173D01*
X-364656Y777887D01*
D02*
G37*
G36*
X-360893Y773874D02*
X-360902Y773865D01*
X-360939Y773856D01*
X-360985Y773837D01*
X-361059Y773809D01*
X-361142Y773782D01*
X-361244Y773763D01*
X-361355Y773745D01*
X-361475Y773726D01*
Y773717D01*
X-361457Y773708D01*
X-361410Y773652D01*
X-361346Y773569D01*
X-361263Y773458D01*
X-361179Y773319D01*
X-361087Y773181D01*
X-361004Y773033D01*
X-360939Y772876D01*
X-360930Y772857D01*
X-360920Y772802D01*
X-360893Y772718D01*
X-360865Y772617D01*
X-360837Y772487D01*
X-360819Y772339D01*
X-360800Y772173D01*
X-360791Y772006D01*
Y771932D01*
X-360800Y771877D01*
Y771812D01*
X-360810Y771738D01*
X-360837Y771572D01*
X-360883Y771387D01*
X-360948Y771183D01*
X-361041Y770999D01*
X-361161Y770832D01*
X-361179Y770814D01*
X-361226Y770768D01*
X-361309Y770703D01*
X-361420Y770629D01*
X-361558Y770555D01*
X-361716Y770490D01*
X-361910Y770444D01*
X-362002Y770435D01*
X-362113Y770425D01*
X-362132D01*
X-362169D01*
X-362233Y770435D01*
X-362317Y770444D01*
X-362418Y770462D01*
X-362520Y770490D01*
X-362631Y770527D01*
X-362733Y770573D01*
X-362742Y770583D01*
X-362779Y770601D01*
X-362834Y770638D01*
X-362899Y770684D01*
X-362973Y770740D01*
X-363047Y770814D01*
X-363121Y770888D01*
X-363186Y770980D01*
X-363195Y770989D01*
X-363213Y771026D01*
X-363250Y771073D01*
X-363287Y771147D01*
X-363324Y771230D01*
X-363371Y771331D01*
X-363408Y771433D01*
X-363445Y771553D01*
Y771563D01*
X-363454Y771600D01*
X-363472Y771655D01*
X-363481Y771729D01*
X-363500Y771822D01*
X-363518Y771942D01*
X-363546Y772080D01*
X-363565Y772247D01*
Y772256D01*
X-363574Y772293D01*
Y772339D01*
X-363583Y772404D01*
X-363592Y772478D01*
X-363611Y772570D01*
X-363620Y772672D01*
X-363639Y772783D01*
X-363685Y773005D01*
X-363731Y773245D01*
X-363787Y773458D01*
X-363814Y773560D01*
X-363842Y773652D01*
X-363851D01*
X-363870D01*
X-363925Y773661D01*
X-363990D01*
X-364027D01*
X-364045D01*
X-364055D01*
X-364064D01*
X-364119D01*
X-364212Y773652D01*
X-364314Y773634D01*
X-364425Y773606D01*
X-364535Y773560D01*
X-364637Y773504D01*
X-364720Y773430D01*
X-364730Y773421D01*
X-364767Y773375D01*
X-364804Y773301D01*
X-364859Y773208D01*
X-364905Y773079D01*
X-364952Y772931D01*
X-364979Y772746D01*
X-364989Y772533D01*
Y772441D01*
X-364979Y772348D01*
X-364961Y772219D01*
X-364942Y772090D01*
X-364905Y771951D01*
X-364859Y771822D01*
X-364794Y771711D01*
X-364785Y771701D01*
X-364757Y771664D01*
X-364711Y771618D01*
X-364637Y771563D01*
X-364545Y771507D01*
X-364425Y771442D01*
X-364277Y771387D01*
X-364110Y771331D01*
X-364212Y770564D01*
X-364221D01*
X-364230Y770573D01*
X-364258D01*
X-364295Y770583D01*
X-364378Y770610D01*
X-364498Y770647D01*
X-364619Y770694D01*
X-364748Y770749D01*
X-364878Y770823D01*
X-364998Y770906D01*
X-365007Y770915D01*
X-365044Y770952D01*
X-365099Y771008D01*
X-365173Y771082D01*
X-365247Y771183D01*
X-365321Y771304D01*
X-365405Y771442D01*
X-365469Y771600D01*
Y771609D01*
X-365479Y771618D01*
X-365488Y771646D01*
X-365497Y771683D01*
X-365525Y771775D01*
X-365552Y771905D01*
X-365580Y772053D01*
X-365608Y772237D01*
X-365626Y772432D01*
X-365636Y772654D01*
Y772755D01*
X-365626Y772857D01*
X-365617Y772996D01*
X-365599Y773153D01*
X-365571Y773310D01*
X-365534Y773467D01*
X-365488Y773615D01*
X-365479Y773634D01*
X-365460Y773680D01*
X-365432Y773745D01*
X-365395Y773828D01*
X-365340Y773920D01*
X-365284Y774013D01*
X-365210Y774096D01*
X-365136Y774170D01*
X-365127Y774179D01*
X-365099Y774198D01*
X-365053Y774225D01*
X-364998Y774262D01*
X-364915Y774309D01*
X-364831Y774345D01*
X-364730Y774382D01*
X-364609Y774410D01*
X-364600D01*
X-364572Y774419D01*
X-364517Y774429D01*
X-364443Y774438D01*
X-364341D01*
X-364221Y774447D01*
X-364064Y774456D01*
X-363888D01*
X-362834D01*
X-362825D01*
X-362788D01*
X-362733D01*
X-362659D01*
X-362575D01*
X-362474D01*
X-362252Y774466D01*
X-362021D01*
X-361790Y774475D01*
X-361688Y774484D01*
X-361595D01*
X-361512Y774493D01*
X-361447Y774503D01*
X-361438D01*
X-361401Y774512D01*
X-361346Y774521D01*
X-361272Y774549D01*
X-361189Y774567D01*
X-361096Y774604D01*
X-360994Y774651D01*
X-360893Y774697D01*
Y773874D01*
D02*
G37*
G36*
Y768697D02*
X-363833D01*
X-363842D01*
X-363861D01*
X-363888D01*
X-363925D01*
X-364027Y768687D01*
X-364156Y768669D01*
X-364295Y768632D01*
X-364434Y768586D01*
X-364572Y768521D01*
X-364683Y768438D01*
X-364693Y768428D01*
X-364730Y768391D01*
X-364776Y768336D01*
X-364822Y768253D01*
X-364878Y768151D01*
X-364915Y768031D01*
X-364952Y767883D01*
X-364961Y767716D01*
Y767661D01*
X-364952Y767596D01*
X-364942Y767504D01*
X-364915Y767411D01*
X-364887Y767300D01*
X-364841Y767189D01*
X-364776Y767069D01*
X-364767Y767060D01*
X-364739Y767023D01*
X-364702Y766968D01*
X-364646Y766903D01*
X-364572Y766829D01*
X-364489Y766755D01*
X-364388Y766690D01*
X-364277Y766635D01*
X-364258Y766626D01*
X-364221Y766616D01*
X-364147Y766598D01*
X-364055Y766570D01*
X-363935Y766542D01*
X-363787Y766524D01*
X-363620Y766515D01*
X-363426Y766505D01*
X-360893D01*
Y765719D01*
X-367291D01*
Y766505D01*
X-364998D01*
X-365007Y766515D01*
X-365025Y766533D01*
X-365053Y766561D01*
X-365099Y766607D01*
X-365146Y766653D01*
X-365201Y766718D01*
X-365257Y766801D01*
X-365321Y766884D01*
X-365377Y766977D01*
X-365432Y767078D01*
X-365534Y767319D01*
X-365580Y767448D01*
X-365608Y767587D01*
X-365626Y767735D01*
X-365636Y767883D01*
Y767966D01*
X-365626Y768068D01*
X-365608Y768188D01*
X-365589Y768327D01*
X-365552Y768475D01*
X-365497Y768623D01*
X-365432Y768770D01*
X-365423Y768789D01*
X-365395Y768835D01*
X-365349Y768900D01*
X-365284Y768983D01*
X-365201Y769066D01*
X-365109Y769159D01*
X-364998Y769242D01*
X-364868Y769316D01*
X-364850Y769325D01*
X-364804Y769344D01*
X-364720Y769371D01*
X-364600Y769399D01*
X-364452Y769427D01*
X-364277Y769455D01*
X-364064Y769473D01*
X-363824Y769482D01*
X-360893D01*
Y768697D01*
D02*
G37*
G36*
X-362501Y764638D02*
X-362372Y764619D01*
X-362224Y764582D01*
X-362067Y764536D01*
X-361900Y764462D01*
X-361725Y764360D01*
X-361716D01*
X-361706Y764351D01*
X-361651Y764305D01*
X-361568Y764240D01*
X-361475Y764148D01*
X-361364Y764027D01*
X-361244Y763879D01*
X-361133Y763713D01*
X-361031Y763519D01*
Y763510D01*
X-361022Y763491D01*
X-361013Y763464D01*
X-360994Y763427D01*
X-360976Y763371D01*
X-360948Y763306D01*
X-360911Y763158D01*
X-360865Y762983D01*
X-360819Y762770D01*
X-360791Y762539D01*
X-360782Y762289D01*
Y762141D01*
X-360791Y762067D01*
Y761984D01*
X-360800Y761892D01*
X-360810Y761781D01*
X-360846Y761550D01*
X-360883Y761309D01*
X-360948Y761069D01*
X-361031Y760838D01*
Y760828D01*
X-361041Y760810D01*
X-361059Y760782D01*
X-361078Y760745D01*
X-361133Y760634D01*
X-361216Y760505D01*
X-361327Y760357D01*
X-361457Y760200D01*
X-361614Y760052D01*
X-361790Y759913D01*
X-361799D01*
X-361817Y759895D01*
X-361845Y759885D01*
X-361882Y759858D01*
X-361928Y759839D01*
X-361984Y759811D01*
X-362122Y759747D01*
X-362298Y759682D01*
X-362492Y759626D01*
X-362714Y759590D01*
X-362945Y759571D01*
X-363019Y760366D01*
X-363010D01*
X-363001D01*
X-362973Y760375D01*
X-362936D01*
X-362853Y760394D01*
X-362733Y760422D01*
X-362612Y760459D01*
X-362474Y760496D01*
X-362344Y760560D01*
X-362224Y760625D01*
X-362215Y760634D01*
X-362178Y760662D01*
X-362113Y760708D01*
X-362048Y760782D01*
X-361965Y760875D01*
X-361882Y760976D01*
X-361799Y761115D01*
X-361725Y761263D01*
Y761272D01*
X-361716Y761282D01*
X-361706Y761309D01*
X-361697Y761337D01*
X-361669Y761429D01*
X-361632Y761550D01*
X-361595Y761698D01*
X-361568Y761864D01*
X-361549Y762049D01*
X-361540Y762252D01*
Y762336D01*
X-361549Y762428D01*
X-361558Y762539D01*
X-361577Y762668D01*
X-361595Y762816D01*
X-361632Y762964D01*
X-361679Y763103D01*
X-361688Y763121D01*
X-361706Y763168D01*
X-361743Y763232D01*
X-361780Y763316D01*
X-361845Y763399D01*
X-361910Y763491D01*
X-361984Y763584D01*
X-362076Y763658D01*
X-362085Y763667D01*
X-362122Y763685D01*
X-362169Y763713D01*
X-362243Y763750D01*
X-362317Y763787D01*
X-362409Y763815D01*
X-362511Y763833D01*
X-362622Y763842D01*
X-362631D01*
X-362677D01*
X-362733Y763833D01*
X-362807Y763824D01*
X-362881Y763796D01*
X-362973Y763769D01*
X-363065Y763722D01*
X-363149Y763658D01*
X-363158Y763648D01*
X-363186Y763621D01*
X-363223Y763584D01*
X-363278Y763519D01*
X-363334Y763445D01*
X-363398Y763343D01*
X-363463Y763223D01*
X-363518Y763084D01*
X-363528Y763075D01*
X-363537Y763029D01*
X-363565Y762955D01*
X-363574Y762909D01*
X-363592Y762844D01*
X-363620Y762779D01*
X-363639Y762696D01*
X-363666Y762604D01*
X-363694Y762493D01*
X-363722Y762382D01*
X-363759Y762252D01*
X-363796Y762104D01*
X-363833Y761947D01*
Y761938D01*
X-363842Y761910D01*
X-363851Y761864D01*
X-363870Y761808D01*
X-363888Y761734D01*
X-363907Y761651D01*
X-363962Y761466D01*
X-364027Y761263D01*
X-364092Y761050D01*
X-364156Y760865D01*
X-364193Y760782D01*
X-364230Y760708D01*
Y760699D01*
X-364240Y760690D01*
X-364277Y760634D01*
X-364323Y760551D01*
X-364397Y760459D01*
X-364480Y760348D01*
X-364582Y760237D01*
X-364702Y760126D01*
X-364831Y760033D01*
X-364850Y760024D01*
X-364896Y759996D01*
X-364970Y759959D01*
X-365062Y759922D01*
X-365183Y759885D01*
X-365321Y759848D01*
X-365469Y759821D01*
X-365626Y759811D01*
X-365636D01*
X-365645D01*
X-365673D01*
X-365710D01*
X-365802Y759830D01*
X-365922Y759848D01*
X-366061Y759876D01*
X-366218Y759922D01*
X-366375Y759987D01*
X-366533Y760080D01*
X-366542D01*
X-366551Y760089D01*
X-366606Y760135D01*
X-366680Y760200D01*
X-366773Y760283D01*
X-366875Y760394D01*
X-366986Y760533D01*
X-367087Y760699D01*
X-367180Y760884D01*
Y760893D01*
X-367189Y760912D01*
X-367198Y760939D01*
X-367217Y760976D01*
X-367235Y761023D01*
X-367254Y761087D01*
X-367291Y761226D01*
X-367328Y761402D01*
X-367365Y761605D01*
X-367392Y761818D01*
X-367402Y762058D01*
Y762178D01*
X-367392Y762243D01*
Y762308D01*
X-367374Y762483D01*
X-367346Y762678D01*
X-367300Y762881D01*
X-367244Y763103D01*
X-367170Y763306D01*
Y763316D01*
X-367161Y763334D01*
X-367143Y763362D01*
X-367124Y763399D01*
X-367078Y763491D01*
X-366995Y763611D01*
X-366902Y763750D01*
X-366782Y763889D01*
X-366643Y764018D01*
X-366486Y764138D01*
X-366477D01*
X-366468Y764148D01*
X-366440Y764166D01*
X-366412Y764185D01*
X-366320Y764231D01*
X-366200Y764286D01*
X-366052Y764351D01*
X-365876Y764397D01*
X-365691Y764444D01*
X-365488Y764462D01*
X-365423Y763648D01*
X-365432D01*
X-365451D01*
X-365479Y763639D01*
X-365525Y763630D01*
X-365626Y763602D01*
X-365765Y763565D01*
X-365913Y763510D01*
X-366061Y763427D01*
X-366200Y763325D01*
X-366329Y763195D01*
X-366338Y763177D01*
X-366375Y763131D01*
X-366431Y763038D01*
X-366486Y762918D01*
X-366542Y762761D01*
X-366597Y762576D01*
X-366634Y762345D01*
X-366643Y762086D01*
Y761956D01*
X-366634Y761901D01*
X-366625Y761827D01*
X-366606Y761661D01*
X-366570Y761476D01*
X-366523Y761291D01*
X-366449Y761115D01*
X-366403Y761041D01*
X-366357Y760967D01*
X-366348Y760949D01*
X-366311Y760912D01*
X-366246Y760856D01*
X-366172Y760801D01*
X-366070Y760736D01*
X-365959Y760680D01*
X-365830Y760644D01*
X-365682Y760625D01*
X-365663D01*
X-365626D01*
X-365562Y760634D01*
X-365488Y760653D01*
X-365395Y760680D01*
X-365303Y760727D01*
X-365210Y760782D01*
X-365118Y760865D01*
X-365109Y760875D01*
X-365081Y760921D01*
X-365053Y760958D01*
X-365035Y760995D01*
X-365007Y761050D01*
X-364970Y761115D01*
X-364942Y761198D01*
X-364905Y761291D01*
X-364868Y761393D01*
X-364822Y761513D01*
X-364785Y761642D01*
X-364739Y761790D01*
X-364702Y761956D01*
X-364656Y762141D01*
Y762151D01*
X-364646Y762188D01*
X-364637Y762243D01*
X-364619Y762308D01*
X-364600Y762391D01*
X-364572Y762493D01*
X-364545Y762594D01*
X-364517Y762705D01*
X-364452Y762946D01*
X-364388Y763177D01*
X-364351Y763288D01*
X-364314Y763390D01*
X-364286Y763482D01*
X-364249Y763556D01*
Y763565D01*
X-364240Y763584D01*
X-364221Y763611D01*
X-364203Y763648D01*
X-364147Y763750D01*
X-364073Y763870D01*
X-363971Y764009D01*
X-363861Y764148D01*
X-363731Y764277D01*
X-363592Y764388D01*
X-363574Y764397D01*
X-363528Y764434D01*
X-363445Y764471D01*
X-363334Y764527D01*
X-363204Y764573D01*
X-363047Y764619D01*
X-362871Y764647D01*
X-362686Y764656D01*
X-362677D01*
X-362668D01*
X-362640D01*
X-362603D01*
X-362501Y764638D01*
D02*
G37*
G36*
X-359118Y754052D02*
X-359682D01*
Y759257D01*
X-359118D01*
Y754052D01*
D02*
G37*
G36*
X-362640Y753774D02*
X-362566Y753765D01*
X-362483Y753746D01*
X-362391Y753728D01*
X-362289Y753709D01*
X-362067Y753635D01*
X-361947Y753580D01*
X-361836Y753524D01*
X-361716Y753450D01*
X-361595Y753367D01*
X-361475Y753275D01*
X-361364Y753164D01*
X-361355Y753155D01*
X-361337Y753136D01*
X-361309Y753099D01*
X-361272Y753053D01*
X-361226Y752998D01*
X-361179Y752924D01*
X-361124Y752840D01*
X-361078Y752739D01*
X-361022Y752637D01*
X-360967Y752517D01*
X-360920Y752396D01*
X-360874Y752258D01*
X-360837Y752110D01*
X-360810Y751953D01*
X-360791Y751796D01*
X-360782Y751620D01*
Y751537D01*
X-360791Y751481D01*
X-360800Y751407D01*
X-360810Y751324D01*
X-360828Y751232D01*
X-360846Y751130D01*
X-360902Y750908D01*
X-360994Y750677D01*
X-361050Y750557D01*
X-361115Y750446D01*
X-361198Y750335D01*
X-361281Y750224D01*
X-361290Y750214D01*
X-361309Y750196D01*
X-361337Y750168D01*
X-361373Y750141D01*
X-361420Y750094D01*
X-361484Y750048D01*
X-361549Y749993D01*
X-361632Y749937D01*
X-361725Y749882D01*
X-361817Y749826D01*
X-362039Y749725D01*
X-362298Y749641D01*
X-362437Y749614D01*
X-362585Y749595D01*
X-362686Y750381D01*
X-362677D01*
X-362659Y750390D01*
X-362622Y750399D01*
X-362575Y750409D01*
X-362520Y750418D01*
X-362455Y750436D01*
X-362317Y750483D01*
X-362150Y750547D01*
X-361993Y750631D01*
X-361845Y750723D01*
X-361716Y750834D01*
X-361706Y750853D01*
X-361669Y750890D01*
X-361623Y750963D01*
X-361577Y751056D01*
X-361521Y751167D01*
X-361475Y751305D01*
X-361438Y751463D01*
X-361429Y751629D01*
Y751685D01*
X-361438Y751722D01*
X-361447Y751823D01*
X-361475Y751953D01*
X-361521Y752101D01*
X-361586Y752258D01*
X-361679Y752415D01*
X-361808Y752563D01*
X-361827Y752581D01*
X-361882Y752628D01*
X-361965Y752683D01*
X-362076Y752757D01*
X-362215Y752831D01*
X-362372Y752887D01*
X-362557Y752933D01*
X-362760Y752951D01*
X-362770D01*
X-362788D01*
X-362816D01*
X-362853Y752942D01*
X-362954Y752933D01*
X-363075Y752905D01*
X-363223Y752868D01*
X-363371Y752803D01*
X-363518Y752711D01*
X-363657Y752591D01*
X-363676Y752572D01*
X-363713Y752526D01*
X-363768Y752452D01*
X-363833Y752350D01*
X-363898Y752221D01*
X-363953Y752064D01*
X-363990Y751888D01*
X-364008Y751694D01*
Y751611D01*
X-363999Y751546D01*
X-363990Y751463D01*
X-363971Y751370D01*
X-363953Y751259D01*
X-363925Y751139D01*
X-364619Y751232D01*
Y751278D01*
X-364609Y751315D01*
Y751435D01*
X-364628Y751537D01*
X-364646Y751657D01*
X-364674Y751796D01*
X-364720Y751953D01*
X-364785Y752101D01*
X-364868Y752258D01*
Y752267D01*
X-364878Y752276D01*
X-364915Y752322D01*
X-364979Y752387D01*
X-365062Y752461D01*
X-365183Y752535D01*
X-365321Y752600D01*
X-365479Y752646D01*
X-365571Y752665D01*
X-365673D01*
X-365682D01*
X-365691D01*
X-365747D01*
X-365821Y752646D01*
X-365922Y752628D01*
X-366033Y752591D01*
X-366153Y752544D01*
X-366274Y752470D01*
X-366385Y752369D01*
X-366394Y752359D01*
X-366431Y752313D01*
X-366477Y752249D01*
X-366533Y752165D01*
X-366579Y752054D01*
X-366625Y751925D01*
X-366662Y751777D01*
X-366671Y751611D01*
Y751537D01*
X-366653Y751453D01*
X-366634Y751342D01*
X-366597Y751222D01*
X-366551Y751102D01*
X-366477Y750973D01*
X-366385Y750853D01*
X-366375Y750843D01*
X-366329Y750806D01*
X-366264Y750751D01*
X-366172Y750686D01*
X-366052Y750621D01*
X-365904Y750557D01*
X-365728Y750501D01*
X-365525Y750464D01*
X-365663Y749678D01*
X-365673D01*
X-365700Y749688D01*
X-365737Y749697D01*
X-365793Y749706D01*
X-365858Y749725D01*
X-365932Y749752D01*
X-366107Y749808D01*
X-366311Y749900D01*
X-366514Y750011D01*
X-366708Y750150D01*
X-366884Y750325D01*
X-366893Y750335D01*
X-366902Y750353D01*
X-366921Y750381D01*
X-366949Y750418D01*
X-366986Y750464D01*
X-367023Y750529D01*
X-367060Y750594D01*
X-367106Y750677D01*
X-367180Y750862D01*
X-367254Y751074D01*
X-367300Y751324D01*
X-367318Y751453D01*
Y751685D01*
X-367309Y751786D01*
X-367291Y751907D01*
X-367263Y752054D01*
X-367217Y752221D01*
X-367161Y752387D01*
X-367087Y752554D01*
Y752563D01*
X-367078Y752572D01*
X-367050Y752628D01*
X-366995Y752711D01*
X-366930Y752803D01*
X-366838Y752914D01*
X-366736Y753025D01*
X-366616Y753136D01*
X-366477Y753229D01*
X-366459Y753238D01*
X-366412Y753266D01*
X-366329Y753303D01*
X-366227Y753349D01*
X-366107Y753395D01*
X-365969Y753432D01*
X-365811Y753460D01*
X-365654Y753469D01*
X-365636D01*
X-365580D01*
X-365506Y753460D01*
X-365405Y753441D01*
X-365284Y753413D01*
X-365155Y753367D01*
X-365025Y753312D01*
X-364896Y753238D01*
X-364878Y753229D01*
X-364841Y753201D01*
X-364776Y753145D01*
X-364702Y753071D01*
X-364619Y752979D01*
X-364526Y752868D01*
X-364443Y752739D01*
X-364360Y752581D01*
Y752591D01*
X-364351Y752609D01*
X-364341Y752637D01*
X-364332Y752674D01*
X-364295Y752776D01*
X-364240Y752905D01*
X-364166Y753053D01*
X-364073Y753201D01*
X-363953Y753339D01*
X-363814Y753469D01*
X-363796Y753478D01*
X-363740Y753515D01*
X-363648Y753571D01*
X-363528Y753626D01*
X-363380Y753682D01*
X-363204Y753737D01*
X-363001Y753774D01*
X-362779Y753783D01*
X-362770D01*
X-362742D01*
X-362696D01*
X-362640Y753774D01*
D02*
G37*
G36*
X-362723Y748513D02*
X-362649D01*
X-362474Y748495D01*
X-362270Y748476D01*
X-362058Y748439D01*
X-361864Y748384D01*
X-361679Y748319D01*
X-361669D01*
X-361660Y748310D01*
X-361605Y748282D01*
X-361531Y748236D01*
X-361429Y748171D01*
X-361327Y748079D01*
X-361216Y747977D01*
X-361105Y747848D01*
X-361013Y747700D01*
X-361004Y747681D01*
X-360976Y747626D01*
X-360939Y747542D01*
X-360902Y747422D01*
X-360856Y747274D01*
X-360819Y747108D01*
X-360791Y746923D01*
X-360782Y746720D01*
Y746637D01*
X-360791Y746581D01*
X-360800Y746507D01*
X-360810Y746433D01*
X-360846Y746239D01*
X-360902Y746036D01*
X-360985Y745823D01*
X-361041Y745712D01*
X-361105Y745610D01*
X-361179Y745518D01*
X-361263Y745425D01*
X-361272Y745416D01*
X-361281Y745407D01*
X-361318Y745388D01*
X-361355Y745361D01*
X-361401Y745324D01*
X-361466Y745287D01*
X-361540Y745250D01*
X-361623Y745203D01*
X-361716Y745166D01*
X-361827Y745129D01*
X-361937Y745092D01*
X-362067Y745055D01*
X-362206Y745037D01*
X-362363Y745009D01*
X-362520Y745000D01*
X-362696D01*
X-362807Y745767D01*
X-362797D01*
X-362779D01*
X-362742D01*
X-362686Y745777D01*
X-362631Y745786D01*
X-362566D01*
X-362409Y745814D01*
X-362243Y745841D01*
X-362076Y745897D01*
X-361928Y745952D01*
X-361864Y745989D01*
X-361808Y746036D01*
X-361799Y746045D01*
X-361771Y746082D01*
X-361725Y746137D01*
X-361679Y746211D01*
X-361623Y746313D01*
X-361586Y746424D01*
X-361549Y746562D01*
X-361540Y746710D01*
Y746766D01*
X-361549Y746821D01*
X-361558Y746905D01*
X-361577Y746988D01*
X-361595Y747080D01*
X-361632Y747173D01*
X-361679Y747265D01*
X-361688Y747274D01*
X-361706Y747302D01*
X-361743Y747339D01*
X-361780Y747395D01*
X-361845Y747441D01*
X-361910Y747496D01*
X-361984Y747542D01*
X-362076Y747579D01*
X-362085D01*
X-362122Y747598D01*
X-362187Y747607D01*
X-362270Y747626D01*
X-362381Y747644D01*
X-362520Y747654D01*
X-362686Y747672D01*
X-362881D01*
X-367291D01*
Y748523D01*
X-362927D01*
X-362918D01*
X-362890D01*
X-362853D01*
X-362797D01*
X-362723Y748513D01*
D02*
G37*
G36*
X-333099Y423386D02*
X-333034D01*
X-332859Y423367D01*
X-332664Y423340D01*
X-332461Y423293D01*
X-332239Y423238D01*
X-332036Y423164D01*
X-332026D01*
X-332008Y423155D01*
X-331980Y423136D01*
X-331943Y423118D01*
X-331851Y423071D01*
X-331731Y422988D01*
X-331592Y422896D01*
X-331453Y422776D01*
X-331324Y422637D01*
X-331204Y422480D01*
Y422471D01*
X-331194Y422461D01*
X-331176Y422434D01*
X-331157Y422406D01*
X-331111Y422313D01*
X-331056Y422193D01*
X-330991Y422045D01*
X-330945Y421870D01*
X-330899Y421685D01*
X-330880Y421481D01*
X-331694Y421417D01*
Y421426D01*
Y421444D01*
X-331703Y421472D01*
X-331712Y421518D01*
X-331740Y421620D01*
X-331777Y421758D01*
X-331832Y421907D01*
X-331916Y422054D01*
X-332017Y422193D01*
X-332147Y422323D01*
X-332165Y422332D01*
X-332211Y422369D01*
X-332304Y422424D01*
X-332424Y422480D01*
X-332581Y422535D01*
X-332766Y422591D01*
X-332997Y422628D01*
X-333256Y422637D01*
X-333386D01*
X-333441Y422628D01*
X-333515Y422618D01*
X-333681Y422600D01*
X-333866Y422563D01*
X-334051Y422517D01*
X-334227Y422443D01*
X-334301Y422397D01*
X-334375Y422350D01*
X-334393Y422341D01*
X-334430Y422304D01*
X-334486Y422239D01*
X-334541Y422165D01*
X-334606Y422064D01*
X-334661Y421953D01*
X-334698Y421823D01*
X-334717Y421675D01*
Y421657D01*
Y421620D01*
X-334708Y421555D01*
X-334689Y421481D01*
X-334661Y421389D01*
X-334615Y421296D01*
X-334560Y421204D01*
X-334477Y421111D01*
X-334467Y421102D01*
X-334421Y421074D01*
X-334384Y421047D01*
X-334347Y421028D01*
X-334292Y421000D01*
X-334227Y420963D01*
X-334144Y420936D01*
X-334051Y420899D01*
X-333950Y420862D01*
X-333829Y420816D01*
X-333700Y420779D01*
X-333552Y420732D01*
X-333386Y420695D01*
X-333201Y420649D01*
X-333191D01*
X-333154Y420640D01*
X-333099Y420631D01*
X-333034Y420612D01*
X-332951Y420594D01*
X-332849Y420566D01*
X-332748Y420538D01*
X-332637Y420510D01*
X-332396Y420446D01*
X-332165Y420381D01*
X-332054Y420344D01*
X-331953Y420307D01*
X-331860Y420279D01*
X-331786Y420242D01*
X-331777D01*
X-331758Y420233D01*
X-331731Y420215D01*
X-331694Y420196D01*
X-331592Y420141D01*
X-331472Y420067D01*
X-331333Y419965D01*
X-331194Y419854D01*
X-331065Y419725D01*
X-330954Y419586D01*
X-330945Y419567D01*
X-330908Y419521D01*
X-330871Y419438D01*
X-330815Y419327D01*
X-330769Y419198D01*
X-330723Y419040D01*
X-330695Y418865D01*
X-330686Y418680D01*
Y418671D01*
Y418661D01*
Y418633D01*
Y418596D01*
X-330704Y418495D01*
X-330723Y418365D01*
X-330760Y418218D01*
X-330806Y418060D01*
X-330880Y417894D01*
X-330982Y417718D01*
Y417709D01*
X-330991Y417700D01*
X-331037Y417644D01*
X-331102Y417561D01*
X-331194Y417469D01*
X-331315Y417358D01*
X-331463Y417237D01*
X-331629Y417127D01*
X-331823Y417025D01*
X-331832D01*
X-331851Y417015D01*
X-331879Y417006D01*
X-331916Y416988D01*
X-331971Y416969D01*
X-332036Y416942D01*
X-332184Y416905D01*
X-332359Y416858D01*
X-332572Y416812D01*
X-332803Y416784D01*
X-333053Y416775D01*
X-333201D01*
X-333275Y416784D01*
X-333358D01*
X-333450Y416794D01*
X-333561Y416803D01*
X-333792Y416840D01*
X-334033Y416877D01*
X-334273Y416942D01*
X-334504Y417025D01*
X-334514D01*
X-334532Y417034D01*
X-334560Y417052D01*
X-334597Y417071D01*
X-334708Y417127D01*
X-334837Y417210D01*
X-334985Y417321D01*
X-335142Y417450D01*
X-335290Y417607D01*
X-335429Y417783D01*
Y417792D01*
X-335447Y417811D01*
X-335457Y417838D01*
X-335484Y417875D01*
X-335503Y417922D01*
X-335531Y417977D01*
X-335595Y418116D01*
X-335660Y418291D01*
X-335715Y418486D01*
X-335752Y418708D01*
X-335771Y418939D01*
X-334976Y419013D01*
Y419003D01*
Y418994D01*
X-334967Y418966D01*
Y418929D01*
X-334948Y418846D01*
X-334920Y418726D01*
X-334883Y418606D01*
X-334846Y418467D01*
X-334782Y418338D01*
X-334717Y418218D01*
X-334708Y418208D01*
X-334680Y418171D01*
X-334634Y418106D01*
X-334560Y418042D01*
X-334467Y417959D01*
X-334366Y417875D01*
X-334227Y417792D01*
X-334079Y417718D01*
X-334070D01*
X-334061Y417709D01*
X-334033Y417700D01*
X-334005Y417691D01*
X-333913Y417663D01*
X-333792Y417626D01*
X-333644Y417589D01*
X-333478Y417561D01*
X-333293Y417542D01*
X-333090Y417533D01*
X-333007D01*
X-332914Y417542D01*
X-332803Y417552D01*
X-332674Y417570D01*
X-332526Y417589D01*
X-332378Y417626D01*
X-332239Y417672D01*
X-332221Y417681D01*
X-332174Y417700D01*
X-332110Y417737D01*
X-332026Y417774D01*
X-331943Y417838D01*
X-331851Y417903D01*
X-331758Y417977D01*
X-331684Y418069D01*
X-331675Y418079D01*
X-331657Y418116D01*
X-331629Y418162D01*
X-331592Y418236D01*
X-331555Y418310D01*
X-331527Y418402D01*
X-331509Y418504D01*
X-331499Y418615D01*
Y418624D01*
Y418671D01*
X-331509Y418726D01*
X-331518Y418800D01*
X-331546Y418874D01*
X-331573Y418966D01*
X-331620Y419059D01*
X-331684Y419142D01*
X-331694Y419151D01*
X-331721Y419179D01*
X-331758Y419216D01*
X-331823Y419272D01*
X-331897Y419327D01*
X-331999Y419392D01*
X-332119Y419456D01*
X-332258Y419512D01*
X-332267Y419521D01*
X-332313Y419530D01*
X-332387Y419558D01*
X-332433Y419567D01*
X-332498Y419586D01*
X-332563Y419614D01*
X-332646Y419632D01*
X-332738Y419660D01*
X-332849Y419688D01*
X-332960Y419715D01*
X-333090Y419752D01*
X-333238Y419789D01*
X-333395Y419826D01*
X-333404D01*
X-333432Y419836D01*
X-333478Y419845D01*
X-333534Y419863D01*
X-333607Y419882D01*
X-333691Y419900D01*
X-333876Y419956D01*
X-334079Y420020D01*
X-334292Y420085D01*
X-334477Y420150D01*
X-334560Y420187D01*
X-334634Y420224D01*
X-334643D01*
X-334652Y420233D01*
X-334708Y420270D01*
X-334791Y420316D01*
X-334883Y420390D01*
X-334994Y420473D01*
X-335105Y420575D01*
X-335216Y420695D01*
X-335309Y420825D01*
X-335318Y420843D01*
X-335346Y420890D01*
X-335383Y420963D01*
X-335420Y421056D01*
X-335457Y421176D01*
X-335494Y421315D01*
X-335521Y421463D01*
X-335531Y421620D01*
Y421629D01*
Y421638D01*
Y421666D01*
Y421703D01*
X-335512Y421796D01*
X-335494Y421916D01*
X-335466Y422054D01*
X-335420Y422212D01*
X-335355Y422369D01*
X-335262Y422526D01*
Y422535D01*
X-335253Y422544D01*
X-335207Y422600D01*
X-335142Y422674D01*
X-335059Y422766D01*
X-334948Y422868D01*
X-334809Y422979D01*
X-334643Y423081D01*
X-334458Y423173D01*
X-334449D01*
X-334430Y423182D01*
X-334403Y423192D01*
X-334366Y423210D01*
X-334319Y423229D01*
X-334255Y423247D01*
X-334116Y423284D01*
X-333940Y423321D01*
X-333737Y423358D01*
X-333524Y423386D01*
X-333284Y423395D01*
X-333164D01*
X-333099Y423386D01*
D02*
G37*
G36*
X-371829D02*
X-371745Y423377D01*
X-371644Y423367D01*
X-371542Y423358D01*
X-371422Y423330D01*
X-371172Y423275D01*
X-370895Y423192D01*
X-370756Y423136D01*
X-370627Y423071D01*
X-370497Y422988D01*
X-370368Y422905D01*
X-370359Y422896D01*
X-370340Y422887D01*
X-370303Y422859D01*
X-370257Y422812D01*
X-370211Y422766D01*
X-370146Y422702D01*
X-370081Y422628D01*
X-370007Y422554D01*
X-369933Y422461D01*
X-369859Y422350D01*
X-369776Y422239D01*
X-369702Y422119D01*
X-369637Y421980D01*
X-369564Y421842D01*
X-369508Y421694D01*
X-369453Y421527D01*
X-370285Y421333D01*
Y421343D01*
X-370294Y421361D01*
X-370312Y421398D01*
X-370331Y421444D01*
X-370349Y421500D01*
X-370377Y421574D01*
X-370451Y421722D01*
X-370544Y421888D01*
X-370655Y422054D01*
X-370793Y422212D01*
X-370941Y422350D01*
X-370960Y422369D01*
X-371015Y422406D01*
X-371108Y422452D01*
X-371228Y422517D01*
X-371385Y422572D01*
X-371561Y422628D01*
X-371773Y422665D01*
X-372004Y422674D01*
X-372078D01*
X-372125Y422665D01*
X-372189D01*
X-372263Y422655D01*
X-372439Y422628D01*
X-372633Y422591D01*
X-372836Y422526D01*
X-373049Y422434D01*
X-373243Y422313D01*
X-373253D01*
X-373262Y422295D01*
X-373326Y422249D01*
X-373410Y422175D01*
X-373511Y422064D01*
X-373632Y421925D01*
X-373743Y421768D01*
X-373844Y421574D01*
X-373937Y421361D01*
Y421352D01*
X-373946Y421333D01*
X-373955Y421306D01*
X-373965Y421259D01*
X-373983Y421204D01*
X-374002Y421139D01*
X-374029Y420982D01*
X-374066Y420797D01*
X-374103Y420594D01*
X-374122Y420372D01*
X-374131Y420131D01*
Y420122D01*
Y420094D01*
Y420048D01*
Y419993D01*
X-374122Y419928D01*
Y419845D01*
X-374112Y419752D01*
X-374103Y419650D01*
X-374075Y419429D01*
X-374029Y419188D01*
X-373974Y418948D01*
X-373900Y418708D01*
Y418698D01*
X-373890Y418680D01*
X-373872Y418652D01*
X-373853Y418606D01*
X-373798Y418495D01*
X-373715Y418365D01*
X-373613Y418218D01*
X-373484Y418060D01*
X-373336Y417922D01*
X-373160Y417792D01*
X-373151D01*
X-373132Y417783D01*
X-373105Y417764D01*
X-373068Y417746D01*
X-373021Y417728D01*
X-372966Y417700D01*
X-372836Y417644D01*
X-372670Y417589D01*
X-372485Y417542D01*
X-372282Y417506D01*
X-372069Y417496D01*
X-372004D01*
X-371949Y417506D01*
X-371884D01*
X-371819Y417515D01*
X-371653Y417552D01*
X-371459Y417598D01*
X-371265Y417672D01*
X-371061Y417774D01*
X-370960Y417829D01*
X-370867Y417903D01*
X-370858Y417912D01*
X-370849Y417922D01*
X-370821Y417949D01*
X-370784Y417977D01*
X-370747Y418023D01*
X-370701Y418079D01*
X-370645Y418134D01*
X-370599Y418208D01*
X-370544Y418291D01*
X-370479Y418384D01*
X-370423Y418476D01*
X-370368Y418587D01*
X-370322Y418708D01*
X-370275Y418837D01*
X-370229Y418976D01*
X-370192Y419123D01*
X-369342Y418911D01*
Y418902D01*
X-369351Y418865D01*
X-369369Y418809D01*
X-369397Y418735D01*
X-369425Y418652D01*
X-369462Y418550D01*
X-369508Y418439D01*
X-369564Y418319D01*
X-369693Y418060D01*
X-369859Y417801D01*
X-369961Y417672D01*
X-370063Y417542D01*
X-370174Y417432D01*
X-370303Y417321D01*
X-370312Y417311D01*
X-370331Y417293D01*
X-370377Y417274D01*
X-370423Y417237D01*
X-370497Y417191D01*
X-370571Y417145D01*
X-370673Y417099D01*
X-370775Y417052D01*
X-370895Y416997D01*
X-371024Y416951D01*
X-371163Y416905D01*
X-371311Y416858D01*
X-371468Y416821D01*
X-371635Y416803D01*
X-371810Y416784D01*
X-371995Y416775D01*
X-372097D01*
X-372171Y416784D01*
X-372254D01*
X-372356Y416794D01*
X-372467Y416812D01*
X-372596Y416831D01*
X-372864Y416877D01*
X-373142Y416951D01*
X-373419Y417052D01*
X-373548Y417117D01*
X-373678Y417191D01*
X-373687Y417201D01*
X-373706Y417210D01*
X-373743Y417237D01*
X-373780Y417274D01*
X-373835Y417311D01*
X-373900Y417367D01*
X-373974Y417432D01*
X-374048Y417506D01*
X-374122Y417589D01*
X-374205Y417672D01*
X-374371Y417885D01*
X-374529Y418134D01*
X-374667Y418412D01*
Y418421D01*
X-374686Y418449D01*
X-374695Y418495D01*
X-374723Y418550D01*
X-374741Y418624D01*
X-374769Y418717D01*
X-374806Y418818D01*
X-374834Y418929D01*
X-374861Y419050D01*
X-374898Y419188D01*
X-374944Y419475D01*
X-374981Y419799D01*
X-375000Y420131D01*
Y420141D01*
Y420177D01*
Y420233D01*
X-374991Y420298D01*
Y420390D01*
X-374981Y420483D01*
X-374972Y420603D01*
X-374954Y420723D01*
X-374907Y420991D01*
X-374843Y421287D01*
X-374750Y421583D01*
X-374621Y421870D01*
X-374612Y421879D01*
X-374602Y421907D01*
X-374584Y421944D01*
X-374547Y421990D01*
X-374510Y422054D01*
X-374464Y422128D01*
X-374343Y422295D01*
X-374186Y422480D01*
X-374002Y422665D01*
X-373789Y422850D01*
X-373539Y423007D01*
X-373530Y423016D01*
X-373502Y423025D01*
X-373465Y423044D01*
X-373419Y423071D01*
X-373345Y423099D01*
X-373271Y423127D01*
X-373179Y423164D01*
X-373077Y423201D01*
X-372966Y423238D01*
X-372846Y423275D01*
X-372587Y423330D01*
X-372291Y423377D01*
X-371986Y423395D01*
X-371894D01*
X-371829Y423386D01*
D02*
G37*
G36*
X-317474Y421620D02*
X-317409Y421611D01*
X-317271Y421592D01*
X-317104Y421555D01*
X-316928Y421500D01*
X-316753Y421417D01*
X-316577Y421315D01*
X-316568D01*
X-316558Y421296D01*
X-316503Y421259D01*
X-316420Y421185D01*
X-316318Y421093D01*
X-316207Y420973D01*
X-316096Y420825D01*
X-315985Y420649D01*
X-315893Y420455D01*
Y420446D01*
X-315884Y420427D01*
X-315874Y420399D01*
X-315856Y420363D01*
X-315837Y420307D01*
X-315819Y420242D01*
X-315773Y420094D01*
X-315726Y419909D01*
X-315690Y419706D01*
X-315662Y419475D01*
X-315653Y419235D01*
Y419225D01*
Y419207D01*
Y419170D01*
Y419114D01*
X-315662Y419050D01*
Y418976D01*
X-315680Y418809D01*
X-315717Y418606D01*
X-315763Y418393D01*
X-315828Y418171D01*
X-315911Y417949D01*
Y417940D01*
X-315921Y417922D01*
X-315939Y417894D01*
X-315958Y417857D01*
X-316022Y417755D01*
X-316105Y417626D01*
X-316207Y417487D01*
X-316337Y417348D01*
X-316485Y417210D01*
X-316660Y417080D01*
X-316670D01*
X-316679Y417071D01*
X-316707Y417052D01*
X-316744Y417034D01*
X-316836Y416988D01*
X-316965Y416932D01*
X-317122Y416877D01*
X-317289Y416831D01*
X-317483Y416794D01*
X-317677Y416784D01*
X-317742D01*
X-317816Y416794D01*
X-317908Y416803D01*
X-318019Y416821D01*
X-318139Y416849D01*
X-318260Y416886D01*
X-318380Y416942D01*
X-318389Y416951D01*
X-318435Y416969D01*
X-318491Y417006D01*
X-318565Y417062D01*
X-318639Y417117D01*
X-318731Y417191D01*
X-318815Y417274D01*
X-318888Y417367D01*
Y415111D01*
X-319674D01*
Y421527D01*
X-318962D01*
Y420917D01*
X-318953Y420936D01*
X-318916Y420973D01*
X-318870Y421037D01*
X-318796Y421111D01*
X-318713Y421204D01*
X-318620Y421287D01*
X-318509Y421370D01*
X-318398Y421444D01*
X-318380Y421453D01*
X-318343Y421472D01*
X-318269Y421500D01*
X-318176Y421537D01*
X-318066Y421574D01*
X-317936Y421601D01*
X-317788Y421620D01*
X-317622Y421629D01*
X-317520D01*
X-317474Y421620D01*
D02*
G37*
G36*
X-322448D02*
X-322383Y421611D01*
X-322245Y421592D01*
X-322078Y421555D01*
X-321903Y421500D01*
X-321727Y421417D01*
X-321551Y421315D01*
X-321542D01*
X-321533Y421296D01*
X-321477Y421259D01*
X-321394Y421185D01*
X-321292Y421093D01*
X-321181Y420973D01*
X-321070Y420825D01*
X-320960Y420649D01*
X-320867Y420455D01*
Y420446D01*
X-320858Y420427D01*
X-320849Y420399D01*
X-320830Y420363D01*
X-320812Y420307D01*
X-320793Y420242D01*
X-320747Y420094D01*
X-320701Y419909D01*
X-320664Y419706D01*
X-320636Y419475D01*
X-320627Y419235D01*
Y419225D01*
Y419207D01*
Y419170D01*
Y419114D01*
X-320636Y419050D01*
Y418976D01*
X-320654Y418809D01*
X-320691Y418606D01*
X-320738Y418393D01*
X-320802Y418171D01*
X-320886Y417949D01*
Y417940D01*
X-320895Y417922D01*
X-320913Y417894D01*
X-320932Y417857D01*
X-320996Y417755D01*
X-321080Y417626D01*
X-321181Y417487D01*
X-321311Y417348D01*
X-321459Y417210D01*
X-321634Y417080D01*
X-321644D01*
X-321653Y417071D01*
X-321681Y417052D01*
X-321718Y417034D01*
X-321810Y416988D01*
X-321940Y416932D01*
X-322097Y416877D01*
X-322263Y416831D01*
X-322457Y416794D01*
X-322651Y416784D01*
X-322716D01*
X-322790Y416794D01*
X-322882Y416803D01*
X-322994Y416821D01*
X-323114Y416849D01*
X-323234Y416886D01*
X-323354Y416942D01*
X-323363Y416951D01*
X-323410Y416969D01*
X-323465Y417006D01*
X-323539Y417062D01*
X-323613Y417117D01*
X-323705Y417191D01*
X-323789Y417274D01*
X-323863Y417367D01*
Y415111D01*
X-324648D01*
Y421527D01*
X-323937D01*
Y420917D01*
X-323927Y420936D01*
X-323890Y420973D01*
X-323844Y421037D01*
X-323770Y421111D01*
X-323687Y421204D01*
X-323595Y421287D01*
X-323484Y421370D01*
X-323373Y421444D01*
X-323354Y421453D01*
X-323317Y421472D01*
X-323243Y421500D01*
X-323151Y421537D01*
X-323040Y421574D01*
X-322910Y421601D01*
X-322762Y421620D01*
X-322596Y421629D01*
X-322494D01*
X-322448Y421620D01*
D02*
G37*
G36*
X-341688D02*
X-341586Y421601D01*
X-341466Y421564D01*
X-341337Y421518D01*
X-341189Y421453D01*
X-341032Y421370D01*
X-341318Y420649D01*
X-341328Y420658D01*
X-341365Y420677D01*
X-341420Y420704D01*
X-341494Y420732D01*
X-341577Y420760D01*
X-341679Y420788D01*
X-341781Y420806D01*
X-341882Y420816D01*
X-341928D01*
X-341975Y420806D01*
X-342039Y420797D01*
X-342104Y420779D01*
X-342187Y420751D01*
X-342271Y420714D01*
X-342345Y420658D01*
X-342354Y420649D01*
X-342382Y420631D01*
X-342409Y420594D01*
X-342455Y420547D01*
X-342502Y420483D01*
X-342548Y420409D01*
X-342594Y420326D01*
X-342631Y420224D01*
X-342640Y420205D01*
X-342650Y420150D01*
X-342668Y420067D01*
X-342696Y419956D01*
X-342724Y419817D01*
X-342742Y419660D01*
X-342751Y419493D01*
X-342761Y419309D01*
Y416886D01*
X-343546D01*
Y421527D01*
X-342835D01*
Y420825D01*
X-342825Y420834D01*
X-342788Y420899D01*
X-342742Y420982D01*
X-342668Y421084D01*
X-342594Y421185D01*
X-342511Y421296D01*
X-342428Y421389D01*
X-342345Y421463D01*
X-342335Y421472D01*
X-342308Y421490D01*
X-342252Y421518D01*
X-342197Y421546D01*
X-342123Y421574D01*
X-342030Y421601D01*
X-341938Y421620D01*
X-341836Y421629D01*
X-341771D01*
X-341688Y421620D01*
D02*
G37*
G36*
X-357248Y416886D02*
X-358062D01*
Y422239D01*
X-359930Y416886D01*
X-360688D01*
X-362537Y422332D01*
Y416886D01*
X-363350D01*
Y423284D01*
X-362084D01*
X-360568Y418745D01*
Y418735D01*
X-360558Y418717D01*
X-360549Y418689D01*
X-360531Y418643D01*
X-360494Y418532D01*
X-360447Y418393D01*
X-360401Y418236D01*
X-360346Y418079D01*
X-360299Y417931D01*
X-360262Y417801D01*
X-360253Y417820D01*
X-360244Y417866D01*
X-360216Y417949D01*
X-360179Y418060D01*
X-360133Y418208D01*
X-360068Y418384D01*
X-360004Y418587D01*
X-359920Y418828D01*
X-358386Y423284D01*
X-357248D01*
Y416886D01*
D02*
G37*
G36*
X-310678Y416812D02*
Y416803D01*
X-310688Y416775D01*
X-310706Y416738D01*
X-310725Y416692D01*
X-310752Y416627D01*
X-310780Y416553D01*
X-310845Y416396D01*
X-310910Y416220D01*
X-310984Y416045D01*
X-311057Y415888D01*
X-311094Y415823D01*
X-311122Y415758D01*
X-311131Y415740D01*
X-311159Y415693D01*
X-311205Y415629D01*
X-311261Y415546D01*
X-311335Y415453D01*
X-311418Y415361D01*
X-311501Y415268D01*
X-311603Y415194D01*
X-311612Y415185D01*
X-311649Y415166D01*
X-311705Y415139D01*
X-311788Y415102D01*
X-311880Y415065D01*
X-311991Y415037D01*
X-312111Y415019D01*
X-312250Y415009D01*
X-312287D01*
X-312333Y415019D01*
X-312398D01*
X-312472Y415037D01*
X-312555Y415056D01*
X-312648Y415074D01*
X-312749Y415111D01*
X-312833Y415841D01*
X-312823D01*
X-312786Y415832D01*
X-312740Y415823D01*
X-312685Y415804D01*
X-312537Y415777D01*
X-312389Y415767D01*
X-312343D01*
X-312296Y415777D01*
X-312241D01*
X-312102Y415804D01*
X-312038Y415832D01*
X-311973Y415860D01*
X-311964D01*
X-311945Y415878D01*
X-311917Y415897D01*
X-311880Y415925D01*
X-311797Y415998D01*
X-311723Y416100D01*
Y416110D01*
X-311705Y416128D01*
X-311686Y416165D01*
X-311668Y416220D01*
X-311631Y416294D01*
X-311594Y416405D01*
X-311538Y416535D01*
X-311483Y416692D01*
Y416701D01*
X-311464Y416738D01*
X-311446Y416803D01*
X-311409Y416886D01*
X-313165Y421527D01*
X-312333D01*
X-311362Y418837D01*
Y418828D01*
X-311353Y418818D01*
X-311344Y418791D01*
X-311335Y418745D01*
X-311316Y418698D01*
X-311298Y418643D01*
X-311252Y418513D01*
X-311196Y418356D01*
X-311141Y418171D01*
X-311085Y417977D01*
X-311030Y417764D01*
Y417774D01*
X-311020Y417792D01*
X-311011Y417820D01*
X-311002Y417857D01*
X-310993Y417903D01*
X-310974Y417959D01*
X-310937Y418097D01*
X-310891Y418255D01*
X-310826Y418439D01*
X-310771Y418624D01*
X-310697Y418818D01*
X-309698Y421527D01*
X-308912D01*
X-310678Y416812D01*
D02*
G37*
G36*
X-281619Y416886D02*
X-282322D01*
Y417561D01*
X-282331Y417552D01*
X-282350Y417524D01*
X-282378Y417487D01*
X-282424Y417441D01*
X-282479Y417385D01*
X-282544Y417311D01*
X-282618Y417247D01*
X-282710Y417173D01*
X-282812Y417099D01*
X-282923Y417034D01*
X-283043Y416969D01*
X-283173Y416905D01*
X-283321Y416858D01*
X-283468Y416821D01*
X-283635Y416794D01*
X-283801Y416784D01*
X-283866D01*
X-283949Y416794D01*
X-284051Y416803D01*
X-284171Y416821D01*
X-284301Y416849D01*
X-284430Y416886D01*
X-284569Y416942D01*
X-284587Y416951D01*
X-284624Y416969D01*
X-284689Y417006D01*
X-284763Y417053D01*
X-284855Y417108D01*
X-284939Y417173D01*
X-285022Y417247D01*
X-285096Y417330D01*
X-285105Y417339D01*
X-285124Y417376D01*
X-285151Y417422D01*
X-285188Y417496D01*
X-285235Y417580D01*
X-285271Y417681D01*
X-285308Y417792D01*
X-285336Y417912D01*
Y417922D01*
X-285345Y417959D01*
X-285355Y418014D01*
Y418088D01*
X-285364Y418199D01*
X-285373Y418319D01*
X-285382Y418476D01*
Y418652D01*
Y421527D01*
X-284597D01*
Y418948D01*
Y418939D01*
Y418920D01*
Y418892D01*
Y418846D01*
Y418745D01*
X-284587Y418615D01*
Y418476D01*
X-284578Y418338D01*
X-284569Y418218D01*
X-284550Y418116D01*
Y418107D01*
X-284532Y418070D01*
X-284513Y418014D01*
X-284486Y417940D01*
X-284439Y417866D01*
X-284384Y417783D01*
X-284319Y417709D01*
X-284236Y417635D01*
X-284227Y417626D01*
X-284190Y417607D01*
X-284144Y417580D01*
X-284069Y417552D01*
X-283986Y417515D01*
X-283885Y417487D01*
X-283774Y417469D01*
X-283644Y417459D01*
X-283580D01*
X-283515Y417469D01*
X-283432Y417478D01*
X-283330Y417506D01*
X-283219Y417533D01*
X-283099Y417580D01*
X-282978Y417635D01*
X-282960Y417644D01*
X-282923Y417672D01*
X-282868Y417709D01*
X-282803Y417765D01*
X-282729Y417838D01*
X-282655Y417922D01*
X-282590Y418014D01*
X-282535Y418125D01*
X-282526Y418144D01*
X-282516Y418181D01*
X-282498Y418255D01*
X-282470Y418356D01*
X-282442Y418486D01*
X-282424Y418643D01*
X-282414Y418828D01*
X-282405Y419040D01*
Y421527D01*
X-281619D01*
Y416886D01*
D02*
G37*
G36*
X-325878Y416886D02*
X-326581D01*
Y417561D01*
X-326590Y417552D01*
X-326609Y417524D01*
X-326636Y417487D01*
X-326683Y417441D01*
X-326738Y417385D01*
X-326803Y417311D01*
X-326877Y417247D01*
X-326969Y417173D01*
X-327071Y417099D01*
X-327182Y417034D01*
X-327302Y416969D01*
X-327431Y416905D01*
X-327579Y416858D01*
X-327727Y416821D01*
X-327894Y416794D01*
X-328060Y416784D01*
X-328125D01*
X-328208Y416794D01*
X-328310Y416803D01*
X-328430Y416821D01*
X-328559Y416849D01*
X-328689Y416886D01*
X-328828Y416942D01*
X-328846Y416951D01*
X-328883Y416969D01*
X-328948Y417006D01*
X-329022Y417052D01*
X-329114Y417108D01*
X-329197Y417173D01*
X-329281Y417247D01*
X-329355Y417330D01*
X-329364Y417339D01*
X-329382Y417376D01*
X-329410Y417422D01*
X-329447Y417496D01*
X-329493Y417579D01*
X-329530Y417681D01*
X-329567Y417792D01*
X-329595Y417912D01*
Y417922D01*
X-329604Y417959D01*
X-329613Y418014D01*
Y418088D01*
X-329623Y418199D01*
X-329632Y418319D01*
X-329641Y418476D01*
Y418652D01*
Y421527D01*
X-328855D01*
Y418948D01*
Y418939D01*
Y418920D01*
Y418892D01*
Y418846D01*
Y418745D01*
X-328846Y418615D01*
Y418476D01*
X-328837Y418338D01*
X-328828Y418218D01*
X-328809Y418116D01*
Y418106D01*
X-328791Y418069D01*
X-328772Y418014D01*
X-328744Y417940D01*
X-328698Y417866D01*
X-328643Y417783D01*
X-328578Y417709D01*
X-328495Y417635D01*
X-328485Y417626D01*
X-328448Y417607D01*
X-328402Y417579D01*
X-328328Y417552D01*
X-328245Y417515D01*
X-328143Y417487D01*
X-328032Y417469D01*
X-327903Y417459D01*
X-327838D01*
X-327774Y417469D01*
X-327690Y417478D01*
X-327589Y417506D01*
X-327478Y417533D01*
X-327357Y417579D01*
X-327237Y417635D01*
X-327219Y417644D01*
X-327182Y417672D01*
X-327126Y417709D01*
X-327062Y417764D01*
X-326988Y417838D01*
X-326914Y417922D01*
X-326849Y418014D01*
X-326793Y418125D01*
X-326784Y418144D01*
X-326775Y418181D01*
X-326756Y418255D01*
X-326729Y418356D01*
X-326701Y418486D01*
X-326683Y418643D01*
X-326673Y418828D01*
X-326664Y419040D01*
Y421527D01*
X-325878D01*
Y416886D01*
D02*
G37*
G36*
X-275924Y422526D02*
X-279401D01*
Y420547D01*
X-276396D01*
Y419789D01*
X-279401D01*
Y416886D01*
X-280251D01*
Y423284D01*
X-275924D01*
Y422526D01*
D02*
G37*
G36*
X-297550Y416886D02*
X-298335D01*
Y421888D01*
X-298345Y421879D01*
X-298391Y421842D01*
X-298446Y421786D01*
X-298539Y421722D01*
X-298641Y421638D01*
X-298770Y421546D01*
X-298918Y421444D01*
X-299084Y421343D01*
X-299094D01*
X-299103Y421333D01*
X-299158Y421296D01*
X-299251Y421250D01*
X-299362Y421195D01*
X-299491Y421130D01*
X-299630Y421065D01*
X-299769Y421000D01*
X-299907Y420945D01*
Y421703D01*
X-299898D01*
X-299879Y421722D01*
X-299842Y421731D01*
X-299796Y421759D01*
X-299741Y421786D01*
X-299676Y421823D01*
X-299519Y421916D01*
X-299334Y422017D01*
X-299149Y422147D01*
X-298955Y422295D01*
X-298761Y422452D01*
X-298752Y422461D01*
X-298742Y422471D01*
X-298715Y422498D01*
X-298678Y422526D01*
X-298594Y422618D01*
X-298483Y422729D01*
X-298372Y422859D01*
X-298252Y423007D01*
X-298151Y423155D01*
X-298058Y423312D01*
X-297550D01*
Y416886D01*
D02*
G37*
G36*
X-306185Y423303D02*
X-306111Y423293D01*
X-306019Y423284D01*
X-305917Y423266D01*
X-305815Y423247D01*
X-305575Y423182D01*
X-305334Y423090D01*
X-305214Y423034D01*
X-305094Y422970D01*
X-304983Y422887D01*
X-304881Y422794D01*
X-304872Y422785D01*
X-304854Y422776D01*
X-304835Y422739D01*
X-304798Y422702D01*
X-304752Y422655D01*
X-304706Y422591D01*
X-304660Y422526D01*
X-304604Y422443D01*
X-304512Y422267D01*
X-304419Y422045D01*
X-304382Y421934D01*
X-304364Y421805D01*
X-304345Y421675D01*
X-304336Y421537D01*
Y421518D01*
Y421472D01*
X-304345Y421398D01*
X-304354Y421296D01*
X-304373Y421185D01*
X-304410Y421056D01*
X-304447Y420917D01*
X-304502Y420779D01*
X-304512Y420760D01*
X-304530Y420714D01*
X-304567Y420640D01*
X-304622Y420538D01*
X-304696Y420427D01*
X-304789Y420289D01*
X-304900Y420150D01*
X-305029Y419993D01*
X-305048Y419974D01*
X-305094Y419919D01*
X-305140Y419872D01*
X-305187Y419826D01*
X-305242Y419771D01*
X-305316Y419697D01*
X-305390Y419623D01*
X-305482Y419540D01*
X-305575Y419447D01*
X-305686Y419345D01*
X-305806Y419244D01*
X-305935Y419123D01*
X-306083Y419003D01*
X-306231Y418874D01*
X-306241Y418865D01*
X-306259Y418846D01*
X-306296Y418818D01*
X-306342Y418782D01*
X-306398Y418726D01*
X-306462Y418671D01*
X-306610Y418550D01*
X-306768Y418412D01*
X-306915Y418273D01*
X-307045Y418153D01*
X-307100Y418106D01*
X-307146Y418060D01*
X-307156Y418051D01*
X-307183Y418023D01*
X-307220Y417986D01*
X-307267Y417931D01*
X-307313Y417866D01*
X-307368Y417801D01*
X-307479Y417644D01*
X-304327D01*
Y416886D01*
X-308570D01*
Y416895D01*
Y416932D01*
Y416988D01*
X-308561Y417062D01*
X-308552Y417145D01*
X-308533Y417237D01*
X-308515Y417330D01*
X-308478Y417432D01*
Y417441D01*
X-308469Y417450D01*
X-308450Y417506D01*
X-308413Y417589D01*
X-308358Y417700D01*
X-308284Y417829D01*
X-308191Y417977D01*
X-308090Y418125D01*
X-307960Y418282D01*
Y418291D01*
X-307942Y418301D01*
X-307895Y418356D01*
X-307812Y418439D01*
X-307692Y418560D01*
X-307553Y418698D01*
X-307378Y418865D01*
X-307165Y419050D01*
X-306934Y419244D01*
X-306925Y419253D01*
X-306888Y419281D01*
X-306832Y419327D01*
X-306768Y419382D01*
X-306684Y419456D01*
X-306583Y419540D01*
X-306481Y419632D01*
X-306361Y419734D01*
X-306129Y419956D01*
X-305898Y420177D01*
X-305787Y420289D01*
X-305686Y420399D01*
X-305593Y420501D01*
X-305519Y420603D01*
Y420612D01*
X-305501Y420621D01*
X-305482Y420649D01*
X-305464Y420686D01*
X-305399Y420788D01*
X-305325Y420908D01*
X-305260Y421056D01*
X-305196Y421213D01*
X-305159Y421389D01*
X-305140Y421555D01*
Y421564D01*
Y421574D01*
X-305149Y421629D01*
X-305159Y421722D01*
X-305187Y421823D01*
X-305223Y421953D01*
X-305288Y422082D01*
X-305371Y422212D01*
X-305482Y422341D01*
X-305501Y422360D01*
X-305547Y422397D01*
X-305612Y422443D01*
X-305714Y422507D01*
X-305843Y422563D01*
X-305991Y422618D01*
X-306166Y422655D01*
X-306361Y422665D01*
X-306416D01*
X-306453Y422655D01*
X-306564Y422646D01*
X-306693Y422618D01*
X-306832Y422581D01*
X-306989Y422517D01*
X-307137Y422434D01*
X-307276Y422323D01*
X-307295Y422304D01*
X-307331Y422258D01*
X-307387Y422184D01*
X-307442Y422073D01*
X-307507Y421944D01*
X-307563Y421777D01*
X-307600Y421592D01*
X-307618Y421380D01*
X-308422Y421463D01*
Y421472D01*
X-308413Y421500D01*
Y421546D01*
X-308404Y421611D01*
X-308385Y421685D01*
X-308367Y421768D01*
X-308339Y421870D01*
X-308312Y421971D01*
X-308237Y422193D01*
X-308127Y422415D01*
X-308062Y422526D01*
X-307979Y422637D01*
X-307895Y422739D01*
X-307803Y422831D01*
X-307794Y422840D01*
X-307775Y422850D01*
X-307747Y422877D01*
X-307701Y422905D01*
X-307646Y422942D01*
X-307581Y422979D01*
X-307507Y423025D01*
X-307415Y423071D01*
X-307313Y423118D01*
X-307202Y423164D01*
X-307082Y423201D01*
X-306952Y423238D01*
X-306814Y423266D01*
X-306666Y423293D01*
X-306509Y423303D01*
X-306342Y423312D01*
X-306250D01*
X-306185Y423303D01*
D02*
G37*
G36*
X-313933Y416886D02*
X-314719D01*
Y423284D01*
X-313933D01*
Y416886D01*
D02*
G37*
G36*
X-350083Y421527D02*
X-349288D01*
Y420917D01*
X-350083D01*
Y418190D01*
Y418171D01*
Y418134D01*
Y418079D01*
X-350074Y418014D01*
X-350065Y417866D01*
X-350055Y417801D01*
X-350046Y417755D01*
X-350037Y417737D01*
X-350009Y417700D01*
X-349972Y417654D01*
X-349907Y417607D01*
X-349889Y417598D01*
X-349843Y417579D01*
X-349759Y417561D01*
X-349639Y417552D01*
X-349547D01*
X-349501Y417561D01*
X-349436D01*
X-349362Y417570D01*
X-349288Y417579D01*
X-349186Y416886D01*
X-349205D01*
X-349242Y416877D01*
X-349306Y416868D01*
X-349390Y416858D01*
X-349482Y416840D01*
X-349584Y416831D01*
X-349787Y416821D01*
X-349861D01*
X-349935Y416831D01*
X-350028Y416840D01*
X-350139Y416849D01*
X-350249Y416877D01*
X-350351Y416905D01*
X-350453Y416951D01*
X-350462Y416960D01*
X-350490Y416979D01*
X-350527Y417006D01*
X-350582Y417052D01*
X-350629Y417099D01*
X-350684Y417164D01*
X-350740Y417228D01*
X-350776Y417311D01*
Y417321D01*
X-350795Y417358D01*
X-350804Y417422D01*
X-350823Y417515D01*
X-350841Y417635D01*
X-350850Y417709D01*
Y417792D01*
X-350860Y417894D01*
X-350869Y417996D01*
Y418106D01*
Y418236D01*
Y420917D01*
X-351451D01*
Y421527D01*
X-350869D01*
Y422674D01*
X-350083Y423145D01*
Y421527D01*
D02*
G37*
G36*
X-346477Y421620D02*
X-346394Y421611D01*
X-346302Y421592D01*
X-346200Y421574D01*
X-346080Y421555D01*
X-345830Y421472D01*
X-345701Y421426D01*
X-345571Y421361D01*
X-345442Y421296D01*
X-345312Y421204D01*
X-345192Y421111D01*
X-345072Y421000D01*
X-345063Y420991D01*
X-345044Y420973D01*
X-345017Y420936D01*
X-344980Y420890D01*
X-344933Y420825D01*
X-344878Y420742D01*
X-344822Y420649D01*
X-344767Y420547D01*
X-344711Y420436D01*
X-344656Y420298D01*
X-344600Y420159D01*
X-344554Y420002D01*
X-344517Y419836D01*
X-344490Y419660D01*
X-344471Y419475D01*
X-344462Y419272D01*
Y419262D01*
Y419235D01*
Y419188D01*
Y419123D01*
X-344471Y419050D01*
X-344480Y418957D01*
Y418865D01*
X-344499Y418763D01*
X-344526Y418532D01*
X-344582Y418301D01*
X-344647Y418069D01*
X-344739Y417857D01*
Y417848D01*
X-344748Y417838D01*
X-344767Y417811D01*
X-344785Y417774D01*
X-344850Y417681D01*
X-344933Y417570D01*
X-345044Y417441D01*
X-345183Y417311D01*
X-345340Y417182D01*
X-345525Y417062D01*
X-345534D01*
X-345544Y417052D01*
X-345571Y417034D01*
X-345617Y417015D01*
X-345664Y416997D01*
X-345719Y416979D01*
X-345858Y416923D01*
X-346015Y416877D01*
X-346209Y416831D01*
X-346413Y416794D01*
X-346634Y416784D01*
X-346727D01*
X-346801Y416794D01*
X-346884Y416803D01*
X-346977Y416821D01*
X-347088Y416840D01*
X-347198Y416858D01*
X-347448Y416932D01*
X-347587Y416988D01*
X-347716Y417043D01*
X-347846Y417117D01*
X-347975Y417201D01*
X-348095Y417293D01*
X-348215Y417404D01*
X-348225Y417413D01*
X-348243Y417432D01*
X-348271Y417469D01*
X-348308Y417524D01*
X-348354Y417589D01*
X-348400Y417663D01*
X-348456Y417755D01*
X-348511Y417866D01*
X-348567Y417986D01*
X-348622Y418125D01*
X-348669Y418273D01*
X-348715Y418430D01*
X-348752Y418606D01*
X-348779Y418791D01*
X-348798Y418994D01*
X-348807Y419207D01*
Y419225D01*
Y419262D01*
X-348798Y419327D01*
Y419419D01*
X-348789Y419521D01*
X-348770Y419650D01*
X-348752Y419780D01*
X-348715Y419928D01*
X-348678Y420076D01*
X-348632Y420233D01*
X-348576Y420399D01*
X-348502Y420557D01*
X-348428Y420704D01*
X-348326Y420853D01*
X-348225Y420991D01*
X-348095Y421111D01*
X-348086Y421121D01*
X-348068Y421130D01*
X-348031Y421158D01*
X-347984Y421195D01*
X-347929Y421231D01*
X-347855Y421278D01*
X-347781Y421324D01*
X-347688Y421370D01*
X-347587Y421417D01*
X-347476Y421463D01*
X-347226Y421546D01*
X-346940Y421611D01*
X-346792Y421620D01*
X-346634Y421629D01*
X-346542D01*
X-346477Y421620D01*
D02*
G37*
G36*
X-353938D02*
X-353855Y421611D01*
X-353763Y421592D01*
X-353661Y421574D01*
X-353541Y421555D01*
X-353291Y421472D01*
X-353162Y421426D01*
X-353032Y421361D01*
X-352903Y421296D01*
X-352774Y421204D01*
X-352653Y421111D01*
X-352533Y421000D01*
X-352524Y420991D01*
X-352505Y420973D01*
X-352478Y420936D01*
X-352441Y420890D01*
X-352394Y420825D01*
X-352339Y420742D01*
X-352284Y420649D01*
X-352228Y420547D01*
X-352173Y420436D01*
X-352117Y420298D01*
X-352062Y420159D01*
X-352015Y420002D01*
X-351978Y419836D01*
X-351951Y419660D01*
X-351932Y419475D01*
X-351923Y419272D01*
Y419262D01*
Y419235D01*
Y419188D01*
Y419123D01*
X-351932Y419050D01*
X-351941Y418957D01*
Y418865D01*
X-351960Y418763D01*
X-351988Y418532D01*
X-352043Y418301D01*
X-352108Y418069D01*
X-352200Y417857D01*
Y417848D01*
X-352210Y417838D01*
X-352228Y417811D01*
X-352247Y417774D01*
X-352311Y417681D01*
X-352394Y417570D01*
X-352505Y417441D01*
X-352644Y417311D01*
X-352801Y417182D01*
X-352986Y417062D01*
X-352995D01*
X-353005Y417052D01*
X-353032Y417034D01*
X-353079Y417015D01*
X-353125Y416997D01*
X-353180Y416979D01*
X-353319Y416923D01*
X-353476Y416877D01*
X-353670Y416831D01*
X-353874Y416794D01*
X-354096Y416784D01*
X-354188D01*
X-354262Y416794D01*
X-354345Y416803D01*
X-354438Y416821D01*
X-354549Y416840D01*
X-354660Y416858D01*
X-354909Y416932D01*
X-355048Y416988D01*
X-355177Y417043D01*
X-355307Y417117D01*
X-355436Y417201D01*
X-355556Y417293D01*
X-355677Y417404D01*
X-355686Y417413D01*
X-355704Y417432D01*
X-355732Y417469D01*
X-355769Y417524D01*
X-355815Y417589D01*
X-355862Y417663D01*
X-355917Y417755D01*
X-355973Y417866D01*
X-356028Y417986D01*
X-356083Y418125D01*
X-356130Y418273D01*
X-356176Y418430D01*
X-356213Y418606D01*
X-356241Y418791D01*
X-356259Y418994D01*
X-356268Y419207D01*
Y419225D01*
Y419262D01*
X-356259Y419327D01*
Y419419D01*
X-356250Y419521D01*
X-356231Y419650D01*
X-356213Y419780D01*
X-356176Y419928D01*
X-356139Y420076D01*
X-356093Y420233D01*
X-356037Y420399D01*
X-355963Y420557D01*
X-355889Y420704D01*
X-355788Y420853D01*
X-355686Y420991D01*
X-355556Y421111D01*
X-355547Y421121D01*
X-355529Y421130D01*
X-355492Y421158D01*
X-355446Y421195D01*
X-355390Y421231D01*
X-355316Y421278D01*
X-355242Y421324D01*
X-355150Y421370D01*
X-355048Y421417D01*
X-354937Y421463D01*
X-354687Y421546D01*
X-354401Y421611D01*
X-354253Y421620D01*
X-354096Y421629D01*
X-354003D01*
X-353938Y421620D01*
D02*
G37*
G36*
X-288286Y423303D02*
X-288165Y423284D01*
X-288027Y423256D01*
X-287879Y423219D01*
X-287722Y423173D01*
X-287574Y423099D01*
X-287564D01*
X-287555Y423090D01*
X-287509Y423062D01*
X-287435Y423016D01*
X-287342Y422951D01*
X-287241Y422859D01*
X-287130Y422757D01*
X-287028Y422637D01*
X-286926Y422498D01*
X-286917Y422480D01*
X-286880Y422434D01*
X-286843Y422350D01*
X-286779Y422230D01*
X-286723Y422091D01*
X-286649Y421934D01*
X-286584Y421749D01*
X-286529Y421546D01*
Y421537D01*
X-286520Y421518D01*
X-286510Y421490D01*
X-286501Y421444D01*
X-286492Y421389D01*
X-286483Y421324D01*
X-286464Y421241D01*
X-286455Y421148D01*
X-286436Y421047D01*
X-286427Y420936D01*
X-286418Y420806D01*
X-286399Y420677D01*
X-286390Y420529D01*
Y420381D01*
X-286381Y420215D01*
Y420039D01*
Y420030D01*
Y419993D01*
Y419928D01*
Y419854D01*
X-286390Y419752D01*
Y419641D01*
X-286399Y419521D01*
X-286409Y419392D01*
X-286436Y419096D01*
X-286483Y418791D01*
X-286538Y418495D01*
X-286575Y418356D01*
X-286621Y418218D01*
Y418208D01*
X-286630Y418190D01*
X-286649Y418153D01*
X-286667Y418107D01*
X-286686Y418042D01*
X-286723Y417977D01*
X-286797Y417820D01*
X-286889Y417654D01*
X-287010Y417469D01*
X-287148Y417302D01*
X-287315Y417145D01*
X-287324D01*
X-287333Y417127D01*
X-287361Y417108D01*
X-287398Y417090D01*
X-287444Y417062D01*
X-287490Y417025D01*
X-287629Y416960D01*
X-287796Y416895D01*
X-287990Y416831D01*
X-288221Y416794D01*
X-288470Y416775D01*
X-288563D01*
X-288628Y416784D01*
X-288702Y416794D01*
X-288794Y416812D01*
X-288896Y416831D01*
X-289007Y416858D01*
X-289118Y416895D01*
X-289238Y416932D01*
X-289358Y416988D01*
X-289478Y417053D01*
X-289598Y417127D01*
X-289719Y417219D01*
X-289830Y417321D01*
X-289931Y417432D01*
X-289940Y417441D01*
X-289959Y417469D01*
X-289987Y417515D01*
X-290033Y417589D01*
X-290079Y417672D01*
X-290125Y417783D01*
X-290190Y417912D01*
X-290246Y418060D01*
X-290301Y418227D01*
X-290357Y418421D01*
X-290412Y418634D01*
X-290458Y418874D01*
X-290504Y419133D01*
X-290532Y419410D01*
X-290551Y419715D01*
X-290560Y420039D01*
Y420048D01*
Y420085D01*
Y420150D01*
Y420224D01*
X-290551Y420326D01*
Y420436D01*
X-290541Y420557D01*
X-290532Y420695D01*
X-290504Y420982D01*
X-290458Y421287D01*
X-290403Y421592D01*
X-290366Y421731D01*
X-290329Y421870D01*
Y421879D01*
X-290319Y421897D01*
X-290301Y421934D01*
X-290283Y421981D01*
X-290264Y422045D01*
X-290227Y422110D01*
X-290153Y422267D01*
X-290061Y422434D01*
X-289940Y422609D01*
X-289802Y422785D01*
X-289635Y422933D01*
X-289626D01*
X-289617Y422951D01*
X-289589Y422970D01*
X-289552Y422988D01*
X-289506Y423025D01*
X-289450Y423053D01*
X-289312Y423127D01*
X-289145Y423192D01*
X-288951Y423256D01*
X-288720Y423293D01*
X-288470Y423312D01*
X-288387D01*
X-288286Y423303D01*
D02*
G37*
G36*
X-293260D02*
X-293139Y423284D01*
X-293001Y423256D01*
X-292853Y423219D01*
X-292696Y423173D01*
X-292548Y423099D01*
X-292539D01*
X-292529Y423090D01*
X-292483Y423062D01*
X-292409Y423016D01*
X-292317Y422951D01*
X-292215Y422859D01*
X-292104Y422757D01*
X-292002Y422637D01*
X-291901Y422498D01*
X-291891Y422480D01*
X-291854Y422434D01*
X-291817Y422350D01*
X-291753Y422230D01*
X-291697Y422091D01*
X-291623Y421934D01*
X-291558Y421749D01*
X-291503Y421546D01*
Y421537D01*
X-291494Y421518D01*
X-291485Y421490D01*
X-291475Y421444D01*
X-291466Y421389D01*
X-291457Y421324D01*
X-291438Y421241D01*
X-291429Y421148D01*
X-291411Y421047D01*
X-291401Y420936D01*
X-291392Y420806D01*
X-291374Y420677D01*
X-291364Y420529D01*
Y420381D01*
X-291355Y420215D01*
Y420039D01*
Y420030D01*
Y419993D01*
Y419928D01*
Y419854D01*
X-291364Y419752D01*
Y419641D01*
X-291374Y419521D01*
X-291383Y419392D01*
X-291411Y419096D01*
X-291457Y418791D01*
X-291512Y418495D01*
X-291549Y418356D01*
X-291595Y418218D01*
Y418208D01*
X-291605Y418190D01*
X-291623Y418153D01*
X-291642Y418107D01*
X-291660Y418042D01*
X-291697Y417977D01*
X-291771Y417820D01*
X-291864Y417654D01*
X-291984Y417469D01*
X-292122Y417302D01*
X-292289Y417145D01*
X-292298D01*
X-292307Y417127D01*
X-292335Y417108D01*
X-292372Y417090D01*
X-292418Y417062D01*
X-292465Y417025D01*
X-292603Y416960D01*
X-292770Y416895D01*
X-292964Y416831D01*
X-293195Y416794D01*
X-293444Y416775D01*
X-293537D01*
X-293602Y416784D01*
X-293676Y416794D01*
X-293768Y416812D01*
X-293870Y416831D01*
X-293981Y416858D01*
X-294092Y416895D01*
X-294212Y416932D01*
X-294332Y416988D01*
X-294452Y417053D01*
X-294573Y417127D01*
X-294693Y417219D01*
X-294804Y417321D01*
X-294905Y417432D01*
X-294915Y417441D01*
X-294933Y417469D01*
X-294961Y417515D01*
X-295007Y417589D01*
X-295053Y417672D01*
X-295100Y417783D01*
X-295164Y417912D01*
X-295220Y418060D01*
X-295275Y418227D01*
X-295331Y418421D01*
X-295386Y418634D01*
X-295432Y418874D01*
X-295479Y419133D01*
X-295506Y419410D01*
X-295525Y419715D01*
X-295534Y420039D01*
Y420048D01*
Y420085D01*
Y420150D01*
Y420224D01*
X-295525Y420326D01*
Y420436D01*
X-295516Y420557D01*
X-295506Y420695D01*
X-295479Y420982D01*
X-295432Y421287D01*
X-295377Y421592D01*
X-295340Y421731D01*
X-295303Y421870D01*
Y421879D01*
X-295294Y421897D01*
X-295275Y421934D01*
X-295257Y421981D01*
X-295238Y422045D01*
X-295201Y422110D01*
X-295127Y422267D01*
X-295035Y422434D01*
X-294915Y422609D01*
X-294776Y422785D01*
X-294610Y422933D01*
X-294600D01*
X-294591Y422951D01*
X-294563Y422970D01*
X-294526Y422988D01*
X-294480Y423025D01*
X-294425Y423053D01*
X-294286Y423127D01*
X-294119Y423192D01*
X-293925Y423256D01*
X-293694Y423293D01*
X-293444Y423312D01*
X-293361D01*
X-293260Y423303D01*
D02*
G37*
G36*
X-336085Y415111D02*
X-341291D01*
Y415675D01*
X-336085D01*
Y415111D01*
D02*
G37*
G36*
X-363924D02*
X-369129D01*
Y415675D01*
X-363924D01*
Y415111D01*
D02*
G37*
G36*
X-274399Y423386D02*
X-274371Y423349D01*
X-274334Y423284D01*
X-274278Y423210D01*
X-274205Y423108D01*
X-274130Y422988D01*
X-274047Y422859D01*
X-273955Y422711D01*
X-273853Y422544D01*
X-273761Y422369D01*
X-273659Y422193D01*
X-273557Y421999D01*
X-273372Y421601D01*
X-273280Y421389D01*
X-273206Y421185D01*
Y421176D01*
X-273187Y421139D01*
X-273178Y421093D01*
X-273151Y421019D01*
X-273123Y420936D01*
X-273095Y420834D01*
X-273067Y420714D01*
X-273030Y420584D01*
X-273002Y420436D01*
X-272975Y420279D01*
X-272947Y420122D01*
X-272919Y419946D01*
X-272882Y419577D01*
X-272864Y419198D01*
Y419188D01*
Y419142D01*
Y419077D01*
X-272873Y418994D01*
Y418892D01*
X-272892Y418763D01*
X-272901Y418624D01*
X-272919Y418467D01*
X-272947Y418301D01*
X-272975Y418116D01*
X-273058Y417737D01*
X-273104Y417533D01*
X-273169Y417330D01*
X-273234Y417117D01*
X-273317Y416914D01*
X-273326Y416905D01*
X-273335Y416868D01*
X-273363Y416812D01*
X-273400Y416729D01*
X-273437Y416637D01*
X-273493Y416526D01*
X-273557Y416405D01*
X-273622Y416267D01*
X-273696Y416119D01*
X-273779Y415971D01*
X-273964Y415647D01*
X-274177Y415314D01*
X-274408Y415000D01*
X-274972D01*
Y415009D01*
X-274953Y415028D01*
X-274935Y415056D01*
X-274916Y415093D01*
X-274889Y415148D01*
X-274852Y415203D01*
X-274815Y415277D01*
X-274768Y415361D01*
X-274667Y415546D01*
X-274556Y415777D01*
X-274445Y416026D01*
X-274315Y416313D01*
X-274195Y416618D01*
X-274084Y416942D01*
X-273973Y417293D01*
X-273872Y417654D01*
X-273788Y418023D01*
X-273724Y418412D01*
X-273687Y418800D01*
X-273668Y419198D01*
Y419207D01*
Y419235D01*
Y419281D01*
Y419336D01*
X-273678Y419410D01*
Y419503D01*
X-273687Y419595D01*
X-273696Y419706D01*
X-273705Y419826D01*
X-273714Y419956D01*
X-273751Y420224D01*
X-273798Y420520D01*
X-273862Y420825D01*
Y420834D01*
X-273872Y420853D01*
X-273881Y420890D01*
X-273890Y420936D01*
X-273909Y420991D01*
X-273927Y421065D01*
X-273973Y421232D01*
X-274029Y421417D01*
X-274103Y421629D01*
X-274186Y421860D01*
X-274278Y422082D01*
Y422091D01*
X-274288Y422101D01*
X-274297Y422128D01*
X-274315Y422156D01*
X-274334Y422202D01*
X-274362Y422258D01*
X-274389Y422313D01*
X-274426Y422397D01*
X-274473Y422480D01*
X-274519Y422572D01*
X-274574Y422683D01*
X-274639Y422803D01*
X-274713Y422933D01*
X-274787Y423071D01*
X-274879Y423229D01*
X-274972Y423395D01*
X-274408D01*
X-274399Y423386D01*
D02*
G37*
G36*
X-301211D02*
X-301220Y423358D01*
X-301248Y423312D01*
X-301285Y423247D01*
X-301331Y423173D01*
X-301377Y423081D01*
X-301488Y422887D01*
X-301608Y422674D01*
X-301719Y422461D01*
X-301830Y422258D01*
X-301867Y422175D01*
X-301904Y422091D01*
Y422082D01*
X-301914Y422064D01*
X-301932Y422036D01*
X-301950Y421990D01*
X-301969Y421934D01*
X-301997Y421870D01*
X-302024Y421796D01*
X-302052Y421712D01*
X-302126Y421518D01*
X-302191Y421306D01*
X-302256Y421074D01*
X-302320Y420834D01*
Y420825D01*
X-302330Y420797D01*
X-302339Y420751D01*
X-302348Y420695D01*
X-302367Y420621D01*
X-302376Y420529D01*
X-302394Y420436D01*
X-302413Y420326D01*
X-302431Y420205D01*
X-302450Y420076D01*
X-302477Y419799D01*
X-302496Y419503D01*
X-302505Y419198D01*
Y419188D01*
Y419170D01*
Y419142D01*
Y419105D01*
X-302496Y419050D01*
Y418994D01*
X-302487Y418920D01*
Y418837D01*
X-302468Y418643D01*
X-302440Y418421D01*
X-302394Y418162D01*
X-302339Y417885D01*
X-302274Y417580D01*
X-302191Y417247D01*
X-302080Y416895D01*
X-301950Y416535D01*
X-301803Y416165D01*
X-301636Y415777D01*
X-301433Y415388D01*
X-301202Y415000D01*
X-301766D01*
X-301775Y415009D01*
X-301793Y415037D01*
X-301830Y415083D01*
X-301877Y415148D01*
X-301932Y415222D01*
X-301997Y415314D01*
X-302071Y415425D01*
X-302145Y415546D01*
X-302237Y415684D01*
X-302320Y415832D01*
X-302413Y415989D01*
X-302505Y416156D01*
X-302598Y416331D01*
X-302690Y416516D01*
X-302866Y416914D01*
X-302875Y416923D01*
X-302884Y416960D01*
X-302903Y417025D01*
X-302931Y417108D01*
X-302967Y417210D01*
X-303004Y417321D01*
X-303041Y417459D01*
X-303088Y417617D01*
X-303125Y417774D01*
X-303171Y417959D01*
X-303208Y418144D01*
X-303236Y418338D01*
X-303291Y418763D01*
X-303300Y418976D01*
X-303310Y419198D01*
Y419207D01*
Y419244D01*
Y419299D01*
X-303300Y419373D01*
Y419466D01*
X-303291Y419577D01*
X-303282Y419697D01*
X-303263Y419836D01*
X-303254Y419983D01*
X-303226Y420141D01*
X-303171Y420473D01*
X-303088Y420825D01*
X-302977Y421185D01*
X-302967Y421195D01*
X-302958Y421231D01*
X-302940Y421296D01*
X-302903Y421380D01*
X-302866Y421472D01*
X-302810Y421592D01*
X-302746Y421731D01*
X-302681Y421879D01*
X-302598Y422036D01*
X-302514Y422212D01*
X-302413Y422397D01*
X-302302Y422581D01*
X-302182Y422785D01*
X-302052Y422988D01*
X-301914Y423192D01*
X-301766Y423395D01*
X-301202D01*
X-301211Y423386D01*
D02*
G37*
G36*
X-369893Y1038271D02*
X-371224Y1037430D01*
X-371233D01*
X-371252Y1037411D01*
X-371280Y1037393D01*
X-371317Y1037365D01*
X-371418Y1037300D01*
X-371548Y1037217D01*
X-371686Y1037116D01*
X-371834Y1037014D01*
X-371973Y1036912D01*
X-372103Y1036820D01*
X-372112Y1036811D01*
X-372149Y1036783D01*
X-372204Y1036737D01*
X-372269Y1036672D01*
X-372408Y1036533D01*
X-372472Y1036459D01*
X-372528Y1036385D01*
X-372537Y1036376D01*
X-372546Y1036357D01*
X-372565Y1036320D01*
X-372593Y1036265D01*
X-372620Y1036209D01*
X-372648Y1036145D01*
X-372694Y1035997D01*
Y1035988D01*
X-372703Y1035969D01*
Y1035932D01*
X-372713Y1035886D01*
X-372722Y1035821D01*
Y1035747D01*
X-372731Y1035646D01*
Y1034555D01*
X-369893D01*
Y1033704D01*
X-376291D01*
Y1036672D01*
X-376282Y1036746D01*
Y1036829D01*
X-376272Y1037023D01*
X-376245Y1037226D01*
X-376217Y1037448D01*
X-376171Y1037652D01*
X-376143Y1037754D01*
X-376115Y1037837D01*
Y1037846D01*
X-376106Y1037855D01*
X-376078Y1037911D01*
X-376041Y1037994D01*
X-375976Y1038096D01*
X-375893Y1038207D01*
X-375782Y1038327D01*
X-375653Y1038438D01*
X-375505Y1038549D01*
X-375496D01*
X-375486Y1038558D01*
X-375431Y1038595D01*
X-375338Y1038632D01*
X-375218Y1038687D01*
X-375079Y1038734D01*
X-374913Y1038780D01*
X-374738Y1038808D01*
X-374543Y1038817D01*
X-374534D01*
X-374516D01*
X-374479D01*
X-374432Y1038808D01*
X-374368D01*
X-374303Y1038798D01*
X-374146Y1038761D01*
X-373961Y1038706D01*
X-373767Y1038632D01*
X-373573Y1038521D01*
X-373480Y1038447D01*
X-373388Y1038373D01*
X-373378Y1038364D01*
X-373369Y1038354D01*
X-373341Y1038327D01*
X-373314Y1038290D01*
X-373277Y1038243D01*
X-373240Y1038188D01*
X-373193Y1038114D01*
X-373138Y1038040D01*
X-373092Y1037948D01*
X-373046Y1037846D01*
X-372990Y1037735D01*
X-372944Y1037615D01*
X-372907Y1037476D01*
X-372861Y1037337D01*
X-372833Y1037180D01*
X-372805Y1037014D01*
X-372796Y1037032D01*
X-372777Y1037069D01*
X-372740Y1037125D01*
X-372703Y1037199D01*
X-372602Y1037365D01*
X-372537Y1037448D01*
X-372481Y1037522D01*
X-372463Y1037541D01*
X-372417Y1037587D01*
X-372343Y1037661D01*
X-372250Y1037754D01*
X-372121Y1037855D01*
X-371982Y1037975D01*
X-371816Y1038096D01*
X-371631Y1038225D01*
X-369893Y1039325D01*
Y1038271D01*
D02*
G37*
G36*
X-368118Y1027888D02*
X-368682D01*
Y1033094D01*
X-368118D01*
Y1027888D01*
D02*
G37*
G36*
X-372056Y1027657D02*
X-371982D01*
X-371816Y1027639D01*
X-371612Y1027602D01*
X-371400Y1027556D01*
X-371178Y1027491D01*
X-370956Y1027408D01*
X-370947D01*
X-370928Y1027399D01*
X-370900Y1027380D01*
X-370863Y1027362D01*
X-370762Y1027297D01*
X-370632Y1027214D01*
X-370494Y1027112D01*
X-370355Y1026982D01*
X-370216Y1026834D01*
X-370087Y1026659D01*
Y1026650D01*
X-370078Y1026640D01*
X-370059Y1026613D01*
X-370041Y1026576D01*
X-369995Y1026483D01*
X-369939Y1026354D01*
X-369883Y1026197D01*
X-369837Y1026030D01*
X-369800Y1025836D01*
X-369791Y1025642D01*
Y1025577D01*
X-369800Y1025503D01*
X-369809Y1025411D01*
X-369828Y1025300D01*
X-369856Y1025180D01*
X-369893Y1025059D01*
X-369948Y1024939D01*
X-369958Y1024930D01*
X-369976Y1024884D01*
X-370013Y1024828D01*
X-370068Y1024754D01*
X-370124Y1024680D01*
X-370198Y1024588D01*
X-370281Y1024505D01*
X-370373Y1024431D01*
X-368118D01*
Y1023645D01*
X-374534D01*
Y1024357D01*
X-373924D01*
X-373942Y1024366D01*
X-373979Y1024403D01*
X-374044Y1024449D01*
X-374118Y1024523D01*
X-374211Y1024606D01*
X-374294Y1024699D01*
X-374377Y1024810D01*
X-374451Y1024921D01*
X-374460Y1024939D01*
X-374479Y1024976D01*
X-374506Y1025050D01*
X-374543Y1025143D01*
X-374580Y1025254D01*
X-374608Y1025383D01*
X-374627Y1025531D01*
X-374636Y1025697D01*
Y1025799D01*
X-374627Y1025845D01*
X-374617Y1025910D01*
X-374599Y1026049D01*
X-374562Y1026215D01*
X-374506Y1026391D01*
X-374423Y1026566D01*
X-374321Y1026742D01*
Y1026751D01*
X-374303Y1026760D01*
X-374266Y1026816D01*
X-374192Y1026899D01*
X-374100Y1027001D01*
X-373979Y1027112D01*
X-373831Y1027223D01*
X-373656Y1027334D01*
X-373462Y1027426D01*
X-373452D01*
X-373434Y1027435D01*
X-373406Y1027445D01*
X-373369Y1027463D01*
X-373314Y1027482D01*
X-373249Y1027500D01*
X-373101Y1027546D01*
X-372916Y1027593D01*
X-372713Y1027630D01*
X-372481Y1027657D01*
X-372241Y1027667D01*
X-372232D01*
X-372213D01*
X-372176D01*
X-372121D01*
X-372056Y1027657D01*
D02*
G37*
G36*
X-373656Y1022887D02*
X-373665Y1022877D01*
X-373684Y1022840D01*
X-373711Y1022785D01*
X-373739Y1022711D01*
X-373767Y1022628D01*
X-373794Y1022526D01*
X-373813Y1022424D01*
X-373822Y1022323D01*
Y1022276D01*
X-373813Y1022230D01*
X-373804Y1022165D01*
X-373785Y1022101D01*
X-373757Y1022018D01*
X-373720Y1021934D01*
X-373665Y1021860D01*
X-373656Y1021851D01*
X-373637Y1021823D01*
X-373600Y1021796D01*
X-373554Y1021749D01*
X-373489Y1021703D01*
X-373415Y1021657D01*
X-373332Y1021611D01*
X-373230Y1021574D01*
X-373212Y1021564D01*
X-373157Y1021555D01*
X-373073Y1021537D01*
X-372962Y1021509D01*
X-372824Y1021481D01*
X-372666Y1021463D01*
X-372500Y1021453D01*
X-372315Y1021444D01*
X-369893D01*
Y1020658D01*
X-374534D01*
Y1021370D01*
X-373831D01*
X-373841Y1021380D01*
X-373905Y1021417D01*
X-373989Y1021463D01*
X-374090Y1021537D01*
X-374192Y1021611D01*
X-374303Y1021694D01*
X-374395Y1021777D01*
X-374469Y1021860D01*
X-374479Y1021870D01*
X-374497Y1021897D01*
X-374525Y1021953D01*
X-374552Y1022008D01*
X-374580Y1022082D01*
X-374608Y1022175D01*
X-374627Y1022267D01*
X-374636Y1022369D01*
Y1022434D01*
X-374627Y1022517D01*
X-374608Y1022618D01*
X-374571Y1022739D01*
X-374525Y1022868D01*
X-374460Y1023016D01*
X-374377Y1023173D01*
X-373656Y1022887D01*
D02*
G37*
G36*
X-369893Y1018874D02*
X-369902Y1018865D01*
X-369939Y1018856D01*
X-369985Y1018837D01*
X-370059Y1018809D01*
X-370142Y1018782D01*
X-370244Y1018763D01*
X-370355Y1018745D01*
X-370475Y1018726D01*
Y1018717D01*
X-370457Y1018708D01*
X-370410Y1018652D01*
X-370346Y1018569D01*
X-370263Y1018458D01*
X-370179Y1018319D01*
X-370087Y1018181D01*
X-370004Y1018033D01*
X-369939Y1017876D01*
X-369930Y1017857D01*
X-369921Y1017802D01*
X-369893Y1017718D01*
X-369865Y1017617D01*
X-369837Y1017487D01*
X-369819Y1017339D01*
X-369800Y1017173D01*
X-369791Y1017006D01*
Y1016932D01*
X-369800Y1016877D01*
Y1016812D01*
X-369809Y1016738D01*
X-369837Y1016572D01*
X-369883Y1016387D01*
X-369948Y1016183D01*
X-370041Y1015999D01*
X-370161Y1015832D01*
X-370179Y1015814D01*
X-370226Y1015768D01*
X-370309Y1015703D01*
X-370420Y1015629D01*
X-370558Y1015555D01*
X-370716Y1015490D01*
X-370910Y1015444D01*
X-371002Y1015435D01*
X-371113Y1015425D01*
X-371132D01*
X-371169D01*
X-371233Y1015435D01*
X-371317Y1015444D01*
X-371418Y1015462D01*
X-371520Y1015490D01*
X-371631Y1015527D01*
X-371733Y1015573D01*
X-371742Y1015583D01*
X-371779Y1015601D01*
X-371834Y1015638D01*
X-371899Y1015684D01*
X-371973Y1015740D01*
X-372047Y1015814D01*
X-372121Y1015888D01*
X-372186Y1015980D01*
X-372195Y1015989D01*
X-372213Y1016026D01*
X-372250Y1016073D01*
X-372287Y1016147D01*
X-372324Y1016230D01*
X-372371Y1016331D01*
X-372408Y1016433D01*
X-372444Y1016553D01*
Y1016563D01*
X-372454Y1016600D01*
X-372472Y1016655D01*
X-372481Y1016729D01*
X-372500Y1016822D01*
X-372519Y1016942D01*
X-372546Y1017080D01*
X-372565Y1017247D01*
Y1017256D01*
X-372574Y1017293D01*
Y1017339D01*
X-372583Y1017404D01*
X-372593Y1017478D01*
X-372611Y1017570D01*
X-372620Y1017672D01*
X-372639Y1017783D01*
X-372685Y1018005D01*
X-372731Y1018245D01*
X-372787Y1018458D01*
X-372814Y1018560D01*
X-372842Y1018652D01*
X-372851D01*
X-372870D01*
X-372925Y1018661D01*
X-372990D01*
X-373027D01*
X-373046D01*
X-373055D01*
X-373064D01*
X-373120D01*
X-373212Y1018652D01*
X-373314Y1018634D01*
X-373425Y1018606D01*
X-373535Y1018560D01*
X-373637Y1018504D01*
X-373720Y1018430D01*
X-373730Y1018421D01*
X-373767Y1018375D01*
X-373804Y1018301D01*
X-373859Y1018208D01*
X-373905Y1018079D01*
X-373952Y1017931D01*
X-373979Y1017746D01*
X-373989Y1017533D01*
Y1017441D01*
X-373979Y1017348D01*
X-373961Y1017219D01*
X-373942Y1017090D01*
X-373905Y1016951D01*
X-373859Y1016822D01*
X-373794Y1016711D01*
X-373785Y1016701D01*
X-373757Y1016664D01*
X-373711Y1016618D01*
X-373637Y1016563D01*
X-373545Y1016507D01*
X-373425Y1016442D01*
X-373277Y1016387D01*
X-373110Y1016331D01*
X-373212Y1015564D01*
X-373221D01*
X-373230Y1015573D01*
X-373258D01*
X-373295Y1015583D01*
X-373378Y1015610D01*
X-373498Y1015647D01*
X-373619Y1015694D01*
X-373748Y1015749D01*
X-373878Y1015823D01*
X-373998Y1015906D01*
X-374007Y1015915D01*
X-374044Y1015952D01*
X-374100Y1016008D01*
X-374174Y1016082D01*
X-374247Y1016183D01*
X-374321Y1016304D01*
X-374405Y1016442D01*
X-374469Y1016600D01*
Y1016609D01*
X-374479Y1016618D01*
X-374488Y1016646D01*
X-374497Y1016683D01*
X-374525Y1016775D01*
X-374552Y1016905D01*
X-374580Y1017053D01*
X-374608Y1017237D01*
X-374627Y1017432D01*
X-374636Y1017654D01*
Y1017755D01*
X-374627Y1017857D01*
X-374617Y1017996D01*
X-374599Y1018153D01*
X-374571Y1018310D01*
X-374534Y1018467D01*
X-374488Y1018615D01*
X-374479Y1018634D01*
X-374460Y1018680D01*
X-374432Y1018745D01*
X-374395Y1018828D01*
X-374340Y1018920D01*
X-374284Y1019013D01*
X-374211Y1019096D01*
X-374137Y1019170D01*
X-374127Y1019179D01*
X-374100Y1019198D01*
X-374053Y1019225D01*
X-373998Y1019262D01*
X-373915Y1019309D01*
X-373831Y1019345D01*
X-373730Y1019382D01*
X-373610Y1019410D01*
X-373600D01*
X-373573Y1019419D01*
X-373517Y1019429D01*
X-373443Y1019438D01*
X-373341D01*
X-373221Y1019447D01*
X-373064Y1019456D01*
X-372888D01*
X-371834D01*
X-371825D01*
X-371788D01*
X-371733D01*
X-371659D01*
X-371576D01*
X-371474D01*
X-371252Y1019466D01*
X-371021D01*
X-370790Y1019475D01*
X-370688Y1019484D01*
X-370595D01*
X-370512Y1019493D01*
X-370448Y1019503D01*
X-370438D01*
X-370401Y1019512D01*
X-370346Y1019521D01*
X-370272Y1019549D01*
X-370189Y1019567D01*
X-370096Y1019604D01*
X-369995Y1019651D01*
X-369893Y1019697D01*
Y1018874D01*
D02*
G37*
G36*
Y1013697D02*
X-372833D01*
X-372842D01*
X-372861D01*
X-372888D01*
X-372925D01*
X-373027Y1013687D01*
X-373157Y1013669D01*
X-373295Y1013632D01*
X-373434Y1013586D01*
X-373573Y1013521D01*
X-373684Y1013438D01*
X-373693Y1013428D01*
X-373730Y1013391D01*
X-373776Y1013336D01*
X-373822Y1013253D01*
X-373878Y1013151D01*
X-373915Y1013031D01*
X-373952Y1012883D01*
X-373961Y1012716D01*
Y1012661D01*
X-373952Y1012596D01*
X-373942Y1012504D01*
X-373915Y1012411D01*
X-373887Y1012300D01*
X-373841Y1012189D01*
X-373776Y1012069D01*
X-373767Y1012060D01*
X-373739Y1012023D01*
X-373702Y1011967D01*
X-373647Y1011903D01*
X-373573Y1011829D01*
X-373489Y1011755D01*
X-373388Y1011690D01*
X-373277Y1011635D01*
X-373258Y1011626D01*
X-373221Y1011616D01*
X-373147Y1011598D01*
X-373055Y1011570D01*
X-372935Y1011542D01*
X-372787Y1011524D01*
X-372620Y1011515D01*
X-372426Y1011505D01*
X-369893D01*
Y1010719D01*
X-376291D01*
Y1011505D01*
X-373998D01*
X-374007Y1011515D01*
X-374025Y1011533D01*
X-374053Y1011561D01*
X-374100Y1011607D01*
X-374146Y1011653D01*
X-374201Y1011718D01*
X-374257Y1011801D01*
X-374321Y1011884D01*
X-374377Y1011977D01*
X-374432Y1012078D01*
X-374534Y1012319D01*
X-374580Y1012448D01*
X-374608Y1012587D01*
X-374627Y1012735D01*
X-374636Y1012883D01*
Y1012966D01*
X-374627Y1013068D01*
X-374608Y1013188D01*
X-374590Y1013327D01*
X-374552Y1013475D01*
X-374497Y1013623D01*
X-374432Y1013770D01*
X-374423Y1013789D01*
X-374395Y1013835D01*
X-374349Y1013900D01*
X-374284Y1013983D01*
X-374201Y1014066D01*
X-374109Y1014159D01*
X-373998Y1014242D01*
X-373868Y1014316D01*
X-373850Y1014325D01*
X-373804Y1014344D01*
X-373720Y1014371D01*
X-373600Y1014399D01*
X-373452Y1014427D01*
X-373277Y1014455D01*
X-373064Y1014473D01*
X-372824Y1014482D01*
X-369893D01*
Y1013697D01*
D02*
G37*
G36*
X-371502Y1009638D02*
X-371372Y1009619D01*
X-371224Y1009582D01*
X-371067Y1009536D01*
X-370900Y1009462D01*
X-370725Y1009360D01*
X-370716D01*
X-370706Y1009351D01*
X-370651Y1009305D01*
X-370568Y1009240D01*
X-370475Y1009148D01*
X-370364Y1009027D01*
X-370244Y1008879D01*
X-370133Y1008713D01*
X-370031Y1008519D01*
Y1008510D01*
X-370022Y1008491D01*
X-370013Y1008464D01*
X-369995Y1008427D01*
X-369976Y1008371D01*
X-369948Y1008306D01*
X-369911Y1008158D01*
X-369865Y1007983D01*
X-369819Y1007770D01*
X-369791Y1007539D01*
X-369782Y1007289D01*
Y1007141D01*
X-369791Y1007067D01*
Y1006984D01*
X-369800Y1006892D01*
X-369809Y1006781D01*
X-369846Y1006550D01*
X-369883Y1006309D01*
X-369948Y1006069D01*
X-370031Y1005838D01*
Y1005828D01*
X-370041Y1005810D01*
X-370059Y1005782D01*
X-370078Y1005745D01*
X-370133Y1005634D01*
X-370216Y1005505D01*
X-370327Y1005357D01*
X-370457Y1005200D01*
X-370614Y1005052D01*
X-370790Y1004913D01*
X-370799D01*
X-370817Y1004895D01*
X-370845Y1004885D01*
X-370882Y1004858D01*
X-370928Y1004839D01*
X-370984Y1004811D01*
X-371122Y1004747D01*
X-371298Y1004682D01*
X-371492Y1004626D01*
X-371714Y1004590D01*
X-371945Y1004571D01*
X-372019Y1005366D01*
X-372010D01*
X-372001D01*
X-371973Y1005375D01*
X-371936D01*
X-371853Y1005394D01*
X-371733Y1005422D01*
X-371612Y1005459D01*
X-371474Y1005496D01*
X-371344Y1005560D01*
X-371224Y1005625D01*
X-371215Y1005634D01*
X-371178Y1005662D01*
X-371113Y1005708D01*
X-371049Y1005782D01*
X-370965Y1005875D01*
X-370882Y1005976D01*
X-370799Y1006115D01*
X-370725Y1006263D01*
Y1006272D01*
X-370716Y1006282D01*
X-370706Y1006309D01*
X-370697Y1006337D01*
X-370669Y1006429D01*
X-370632Y1006550D01*
X-370595Y1006698D01*
X-370568Y1006864D01*
X-370549Y1007049D01*
X-370540Y1007252D01*
Y1007336D01*
X-370549Y1007428D01*
X-370558Y1007539D01*
X-370577Y1007668D01*
X-370595Y1007816D01*
X-370632Y1007964D01*
X-370679Y1008103D01*
X-370688Y1008121D01*
X-370706Y1008168D01*
X-370743Y1008232D01*
X-370780Y1008316D01*
X-370845Y1008399D01*
X-370910Y1008491D01*
X-370984Y1008584D01*
X-371076Y1008658D01*
X-371085Y1008667D01*
X-371122Y1008685D01*
X-371169Y1008713D01*
X-371243Y1008750D01*
X-371317Y1008787D01*
X-371409Y1008815D01*
X-371511Y1008833D01*
X-371622Y1008842D01*
X-371631D01*
X-371677D01*
X-371733Y1008833D01*
X-371807Y1008824D01*
X-371881Y1008796D01*
X-371973Y1008769D01*
X-372066Y1008722D01*
X-372149Y1008658D01*
X-372158Y1008648D01*
X-372186Y1008621D01*
X-372223Y1008584D01*
X-372278Y1008519D01*
X-372334Y1008445D01*
X-372398Y1008343D01*
X-372463Y1008223D01*
X-372519Y1008084D01*
X-372528Y1008075D01*
X-372537Y1008029D01*
X-372565Y1007955D01*
X-372574Y1007909D01*
X-372593Y1007844D01*
X-372620Y1007779D01*
X-372639Y1007696D01*
X-372666Y1007604D01*
X-372694Y1007493D01*
X-372722Y1007382D01*
X-372759Y1007252D01*
X-372796Y1007104D01*
X-372833Y1006947D01*
Y1006938D01*
X-372842Y1006910D01*
X-372851Y1006864D01*
X-372870Y1006808D01*
X-372888Y1006734D01*
X-372907Y1006651D01*
X-372962Y1006466D01*
X-373027Y1006263D01*
X-373092Y1006050D01*
X-373157Y1005865D01*
X-373193Y1005782D01*
X-373230Y1005708D01*
Y1005699D01*
X-373240Y1005690D01*
X-373277Y1005634D01*
X-373323Y1005551D01*
X-373397Y1005459D01*
X-373480Y1005348D01*
X-373582Y1005237D01*
X-373702Y1005126D01*
X-373831Y1005033D01*
X-373850Y1005024D01*
X-373896Y1004996D01*
X-373970Y1004959D01*
X-374062Y1004922D01*
X-374183Y1004885D01*
X-374321Y1004848D01*
X-374469Y1004821D01*
X-374627Y1004811D01*
X-374636D01*
X-374645D01*
X-374673D01*
X-374710D01*
X-374802Y1004830D01*
X-374922Y1004848D01*
X-375061Y1004876D01*
X-375218Y1004922D01*
X-375375Y1004987D01*
X-375533Y1005080D01*
X-375542D01*
X-375551Y1005089D01*
X-375606Y1005135D01*
X-375681Y1005200D01*
X-375773Y1005283D01*
X-375875Y1005394D01*
X-375986Y1005533D01*
X-376087Y1005699D01*
X-376180Y1005884D01*
Y1005893D01*
X-376189Y1005912D01*
X-376198Y1005939D01*
X-376217Y1005976D01*
X-376235Y1006023D01*
X-376254Y1006087D01*
X-376291Y1006226D01*
X-376328Y1006402D01*
X-376365Y1006605D01*
X-376392Y1006818D01*
X-376402Y1007058D01*
Y1007178D01*
X-376392Y1007243D01*
Y1007308D01*
X-376374Y1007483D01*
X-376346Y1007678D01*
X-376300Y1007881D01*
X-376245Y1008103D01*
X-376171Y1008306D01*
Y1008316D01*
X-376161Y1008334D01*
X-376143Y1008362D01*
X-376124Y1008399D01*
X-376078Y1008491D01*
X-375995Y1008611D01*
X-375902Y1008750D01*
X-375782Y1008889D01*
X-375644Y1009018D01*
X-375486Y1009138D01*
X-375477D01*
X-375468Y1009148D01*
X-375440Y1009166D01*
X-375412Y1009185D01*
X-375320Y1009231D01*
X-375200Y1009286D01*
X-375052Y1009351D01*
X-374876Y1009397D01*
X-374691Y1009444D01*
X-374488Y1009462D01*
X-374423Y1008648D01*
X-374432D01*
X-374451D01*
X-374479Y1008639D01*
X-374525Y1008630D01*
X-374627Y1008602D01*
X-374765Y1008565D01*
X-374913Y1008510D01*
X-375061Y1008427D01*
X-375200Y1008325D01*
X-375329Y1008195D01*
X-375338Y1008177D01*
X-375375Y1008131D01*
X-375431Y1008038D01*
X-375486Y1007918D01*
X-375542Y1007761D01*
X-375597Y1007576D01*
X-375634Y1007345D01*
X-375644Y1007086D01*
Y1006956D01*
X-375634Y1006901D01*
X-375625Y1006827D01*
X-375606Y1006661D01*
X-375570Y1006476D01*
X-375523Y1006291D01*
X-375449Y1006115D01*
X-375403Y1006041D01*
X-375357Y1005967D01*
X-375348Y1005949D01*
X-375311Y1005912D01*
X-375246Y1005856D01*
X-375172Y1005801D01*
X-375070Y1005736D01*
X-374959Y1005680D01*
X-374830Y1005644D01*
X-374682Y1005625D01*
X-374664D01*
X-374627D01*
X-374562Y1005634D01*
X-374488Y1005653D01*
X-374395Y1005680D01*
X-374303Y1005727D01*
X-374211Y1005782D01*
X-374118Y1005865D01*
X-374109Y1005875D01*
X-374081Y1005921D01*
X-374053Y1005958D01*
X-374035Y1005995D01*
X-374007Y1006050D01*
X-373970Y1006115D01*
X-373942Y1006198D01*
X-373905Y1006291D01*
X-373868Y1006392D01*
X-373822Y1006513D01*
X-373785Y1006642D01*
X-373739Y1006790D01*
X-373702Y1006956D01*
X-373656Y1007141D01*
Y1007151D01*
X-373647Y1007188D01*
X-373637Y1007243D01*
X-373619Y1007308D01*
X-373600Y1007391D01*
X-373573Y1007493D01*
X-373545Y1007594D01*
X-373517Y1007705D01*
X-373452Y1007946D01*
X-373388Y1008177D01*
X-373351Y1008288D01*
X-373314Y1008390D01*
X-373286Y1008482D01*
X-373249Y1008556D01*
Y1008565D01*
X-373240Y1008584D01*
X-373221Y1008611D01*
X-373203Y1008648D01*
X-373147Y1008750D01*
X-373073Y1008870D01*
X-372971Y1009009D01*
X-372861Y1009148D01*
X-372731Y1009277D01*
X-372593Y1009388D01*
X-372574Y1009397D01*
X-372528Y1009434D01*
X-372444Y1009471D01*
X-372334Y1009527D01*
X-372204Y1009573D01*
X-372047Y1009619D01*
X-371871Y1009647D01*
X-371686Y1009656D01*
X-371677D01*
X-371668D01*
X-371640D01*
X-371603D01*
X-371502Y1009638D01*
D02*
G37*
G36*
X-368118Y999051D02*
X-368682D01*
Y1004257D01*
X-368118D01*
Y999051D01*
D02*
G37*
G36*
X-369893Y994475D02*
X-369902D01*
X-369939D01*
X-369995D01*
X-370068Y994484D01*
X-370152Y994493D01*
X-370244Y994512D01*
X-370336Y994530D01*
X-370438Y994567D01*
X-370448D01*
X-370457Y994577D01*
X-370512Y994595D01*
X-370595Y994632D01*
X-370706Y994688D01*
X-370836Y994762D01*
X-370984Y994854D01*
X-371132Y994956D01*
X-371289Y995085D01*
X-371298D01*
X-371307Y995104D01*
X-371363Y995150D01*
X-371446Y995233D01*
X-371566Y995353D01*
X-371705Y995492D01*
X-371871Y995668D01*
X-372056Y995880D01*
X-372250Y996111D01*
X-372260Y996121D01*
X-372287Y996158D01*
X-372334Y996213D01*
X-372389Y996278D01*
X-372463Y996361D01*
X-372546Y996463D01*
X-372639Y996564D01*
X-372740Y996685D01*
X-372962Y996916D01*
X-373184Y997147D01*
X-373295Y997258D01*
X-373406Y997359D01*
X-373508Y997452D01*
X-373610Y997526D01*
X-373619D01*
X-373628Y997544D01*
X-373656Y997563D01*
X-373693Y997581D01*
X-373794Y997646D01*
X-373915Y997720D01*
X-374062Y997785D01*
X-374220Y997850D01*
X-374395Y997887D01*
X-374562Y997905D01*
X-374571D01*
X-374580D01*
X-374636Y997896D01*
X-374728Y997887D01*
X-374830Y997859D01*
X-374959Y997822D01*
X-375089Y997757D01*
X-375218Y997674D01*
X-375348Y997563D01*
X-375366Y997544D01*
X-375403Y997498D01*
X-375449Y997433D01*
X-375514Y997332D01*
X-375570Y997202D01*
X-375625Y997054D01*
X-375662Y996879D01*
X-375671Y996685D01*
Y996629D01*
X-375662Y996592D01*
X-375653Y996481D01*
X-375625Y996352D01*
X-375588Y996213D01*
X-375523Y996056D01*
X-375440Y995908D01*
X-375329Y995769D01*
X-375311Y995751D01*
X-375265Y995714D01*
X-375191Y995658D01*
X-375079Y995603D01*
X-374950Y995538D01*
X-374784Y995483D01*
X-374599Y995446D01*
X-374386Y995427D01*
X-374469Y994623D01*
X-374479D01*
X-374506Y994632D01*
X-374552D01*
X-374617Y994641D01*
X-374691Y994660D01*
X-374774Y994678D01*
X-374876Y994706D01*
X-374978Y994734D01*
X-375200Y994808D01*
X-375422Y994919D01*
X-375533Y994983D01*
X-375644Y995067D01*
X-375745Y995150D01*
X-375838Y995242D01*
X-375847Y995251D01*
X-375856Y995270D01*
X-375884Y995298D01*
X-375912Y995344D01*
X-375949Y995399D01*
X-375986Y995464D01*
X-376032Y995538D01*
X-376078Y995631D01*
X-376124Y995732D01*
X-376171Y995843D01*
X-376208Y995963D01*
X-376245Y996093D01*
X-376272Y996232D01*
X-376300Y996379D01*
X-376309Y996537D01*
X-376318Y996703D01*
Y996796D01*
X-376309Y996860D01*
X-376300Y996934D01*
X-376291Y997027D01*
X-376272Y997128D01*
X-376254Y997230D01*
X-376189Y997470D01*
X-376097Y997711D01*
X-376041Y997831D01*
X-375976Y997951D01*
X-375893Y998062D01*
X-375801Y998164D01*
X-375792Y998173D01*
X-375782Y998192D01*
X-375745Y998210D01*
X-375708Y998247D01*
X-375662Y998293D01*
X-375597Y998339D01*
X-375533Y998386D01*
X-375449Y998441D01*
X-375274Y998534D01*
X-375052Y998626D01*
X-374941Y998663D01*
X-374811Y998682D01*
X-374682Y998700D01*
X-374543Y998709D01*
X-374525D01*
X-374479D01*
X-374405Y998700D01*
X-374303Y998691D01*
X-374192Y998672D01*
X-374062Y998635D01*
X-373924Y998598D01*
X-373785Y998543D01*
X-373767Y998534D01*
X-373720Y998515D01*
X-373647Y998478D01*
X-373545Y998423D01*
X-373434Y998349D01*
X-373295Y998256D01*
X-373157Y998145D01*
X-372999Y998016D01*
X-372981Y997997D01*
X-372925Y997951D01*
X-372879Y997905D01*
X-372833Y997859D01*
X-372777Y997803D01*
X-372703Y997729D01*
X-372630Y997655D01*
X-372546Y997563D01*
X-372454Y997470D01*
X-372352Y997359D01*
X-372250Y997239D01*
X-372130Y997110D01*
X-372010Y996962D01*
X-371881Y996814D01*
X-371871Y996805D01*
X-371853Y996786D01*
X-371825Y996749D01*
X-371788Y996703D01*
X-371733Y996648D01*
X-371677Y996583D01*
X-371557Y996435D01*
X-371418Y996278D01*
X-371280Y996130D01*
X-371159Y996000D01*
X-371113Y995945D01*
X-371067Y995899D01*
X-371058Y995889D01*
X-371030Y995862D01*
X-370993Y995825D01*
X-370938Y995779D01*
X-370873Y995732D01*
X-370808Y995677D01*
X-370651Y995566D01*
Y998719D01*
X-369893D01*
Y994475D01*
D02*
G37*
G36*
X-371723Y993513D02*
X-371649D01*
X-371474Y993495D01*
X-371270Y993476D01*
X-371058Y993439D01*
X-370863Y993384D01*
X-370679Y993319D01*
X-370669D01*
X-370660Y993310D01*
X-370605Y993282D01*
X-370531Y993236D01*
X-370429Y993171D01*
X-370327Y993079D01*
X-370216Y992977D01*
X-370105Y992848D01*
X-370013Y992700D01*
X-370004Y992681D01*
X-369976Y992626D01*
X-369939Y992542D01*
X-369902Y992422D01*
X-369856Y992274D01*
X-369819Y992108D01*
X-369791Y991923D01*
X-369782Y991720D01*
Y991637D01*
X-369791Y991581D01*
X-369800Y991507D01*
X-369809Y991433D01*
X-369846Y991239D01*
X-369902Y991036D01*
X-369985Y990823D01*
X-370041Y990712D01*
X-370105Y990610D01*
X-370179Y990518D01*
X-370263Y990425D01*
X-370272Y990416D01*
X-370281Y990407D01*
X-370318Y990388D01*
X-370355Y990361D01*
X-370401Y990324D01*
X-370466Y990287D01*
X-370540Y990250D01*
X-370623Y990203D01*
X-370716Y990166D01*
X-370827Y990129D01*
X-370938Y990092D01*
X-371067Y990055D01*
X-371206Y990037D01*
X-371363Y990009D01*
X-371520Y990000D01*
X-371696D01*
X-371807Y990767D01*
X-371797D01*
X-371779D01*
X-371742D01*
X-371686Y990777D01*
X-371631Y990786D01*
X-371566D01*
X-371409Y990814D01*
X-371243Y990841D01*
X-371076Y990897D01*
X-370928Y990952D01*
X-370863Y990989D01*
X-370808Y991036D01*
X-370799Y991045D01*
X-370771Y991082D01*
X-370725Y991137D01*
X-370679Y991211D01*
X-370623Y991313D01*
X-370586Y991424D01*
X-370549Y991562D01*
X-370540Y991710D01*
Y991766D01*
X-370549Y991821D01*
X-370558Y991905D01*
X-370577Y991988D01*
X-370595Y992080D01*
X-370632Y992173D01*
X-370679Y992265D01*
X-370688Y992274D01*
X-370706Y992302D01*
X-370743Y992339D01*
X-370780Y992395D01*
X-370845Y992441D01*
X-370910Y992496D01*
X-370984Y992542D01*
X-371076Y992579D01*
X-371085D01*
X-371122Y992598D01*
X-371187Y992607D01*
X-371270Y992626D01*
X-371381Y992644D01*
X-371520Y992654D01*
X-371686Y992672D01*
X-371881D01*
X-376291D01*
Y993523D01*
X-371927D01*
X-371917D01*
X-371890D01*
X-371853D01*
X-371797D01*
X-371723Y993513D01*
D02*
G37*
%LPC*%
G36*
X-445586Y129562D02*
X-445642D01*
X-445679Y129552D01*
X-445771Y129534D01*
X-445901Y129506D01*
X-446039Y129451D01*
X-446187Y129377D01*
X-446335Y129266D01*
X-446409Y129201D01*
X-446483Y129127D01*
Y129118D01*
X-446502Y129109D01*
X-446520Y129081D01*
X-446539Y129044D01*
X-446576Y128998D01*
X-446603Y128933D01*
X-446640Y128868D01*
X-446677Y128785D01*
X-446705Y128702D01*
X-446742Y128591D01*
X-446779Y128480D01*
X-446807Y128360D01*
X-446825Y128221D01*
X-446844Y128073D01*
X-446862Y127916D01*
Y127750D01*
Y127740D01*
Y127713D01*
Y127666D01*
X-446853Y127602D01*
Y127528D01*
X-446844Y127444D01*
X-446816Y127250D01*
X-446770Y127038D01*
X-446705Y126825D01*
X-446613Y126612D01*
X-446557Y126511D01*
X-446492Y126427D01*
Y126418D01*
X-446474Y126409D01*
X-446428Y126354D01*
X-446354Y126289D01*
X-446252Y126206D01*
X-446123Y126122D01*
X-445975Y126048D01*
X-445808Y126002D01*
X-445716Y125993D01*
X-445623Y125984D01*
X-445577D01*
X-445540Y125993D01*
X-445448Y126011D01*
X-445327Y126039D01*
X-445189Y126095D01*
X-445041Y126178D01*
X-444958Y126233D01*
X-444884Y126298D01*
X-444810Y126372D01*
X-444736Y126455D01*
Y126465D01*
X-444717Y126474D01*
X-444699Y126501D01*
X-444680Y126538D01*
X-444652Y126594D01*
X-444616Y126649D01*
X-444579Y126723D01*
X-444551Y126797D01*
X-444514Y126890D01*
X-444477Y126992D01*
X-444449Y127102D01*
X-444412Y127223D01*
X-444394Y127361D01*
X-444375Y127500D01*
X-444357Y127648D01*
Y127814D01*
Y127824D01*
Y127851D01*
Y127898D01*
X-444366Y127962D01*
Y128036D01*
X-444375Y128119D01*
X-444403Y128314D01*
X-444449Y128535D01*
X-444505Y128748D01*
X-444597Y128961D01*
X-444652Y129053D01*
X-444717Y129136D01*
X-444736Y129155D01*
X-444782Y129201D01*
X-444856Y129275D01*
X-444958Y129349D01*
X-445087Y129423D01*
X-445235Y129497D01*
X-445401Y129543D01*
X-445494Y129552D01*
X-445586Y129562D01*
D02*
G37*
G36*
X-437201Y129590D02*
X-437275D01*
X-437367Y129580D01*
X-437469Y129562D01*
X-437598Y129543D01*
X-437728Y129506D01*
X-437866Y129460D01*
X-438005Y129395D01*
X-438023Y129386D01*
X-438060Y129358D01*
X-438125Y129312D01*
X-438199Y129247D01*
X-438282Y129173D01*
X-438375Y129081D01*
X-438449Y128970D01*
X-438523Y128850D01*
X-438532Y128841D01*
X-438541Y128804D01*
X-438560Y128739D01*
X-438587Y128656D01*
X-438615Y128545D01*
X-438634Y128415D01*
X-438643Y128258D01*
X-438652Y128073D01*
X-438661Y127777D01*
X-438652D01*
X-438643Y127787D01*
X-438615Y127796D01*
X-438578Y127805D01*
X-438532Y127824D01*
X-438476Y127842D01*
X-438412Y127861D01*
X-438338Y127879D01*
X-438255Y127907D01*
X-438153Y127925D01*
X-438051Y127953D01*
X-437931Y127981D01*
X-437802Y128008D01*
X-437672Y128036D01*
X-437524Y128055D01*
X-437367Y128082D01*
X-437349D01*
X-437293Y128092D01*
X-437201Y128110D01*
X-437099Y128129D01*
X-436988Y128147D01*
X-436877Y128175D01*
X-436775Y128203D01*
X-436683Y128240D01*
X-436674D01*
X-436646Y128258D01*
X-436609Y128277D01*
X-436572Y128304D01*
X-436461Y128378D01*
X-436368Y128489D01*
Y128498D01*
X-436350Y128517D01*
X-436341Y128554D01*
X-436322Y128600D01*
X-436304Y128656D01*
X-436285Y128711D01*
X-436276Y128785D01*
X-436267Y128859D01*
Y128868D01*
Y128915D01*
X-436276Y128970D01*
X-436295Y129044D01*
X-436322Y129127D01*
X-436368Y129210D01*
X-436424Y129303D01*
X-436498Y129386D01*
X-436507Y129395D01*
X-436544Y129414D01*
X-436600Y129451D01*
X-436674Y129488D01*
X-436775Y129525D01*
X-436895Y129562D01*
X-437034Y129580D01*
X-437201Y129590D01*
D02*
G37*
G36*
X-363084Y781862D02*
X-363250D01*
X-363260D01*
X-363287D01*
X-363334D01*
X-363398Y781853D01*
X-363472D01*
X-363555Y781844D01*
X-363750Y781816D01*
X-363962Y781770D01*
X-364175Y781705D01*
X-364388Y781613D01*
X-364489Y781557D01*
X-364572Y781492D01*
X-364582D01*
X-364591Y781474D01*
X-364646Y781428D01*
X-364711Y781354D01*
X-364794Y781252D01*
X-364878Y781123D01*
X-364952Y780975D01*
X-364998Y780808D01*
X-365007Y780716D01*
X-365016Y780623D01*
Y780577D01*
X-365007Y780540D01*
X-364989Y780448D01*
X-364961Y780327D01*
X-364905Y780189D01*
X-364822Y780041D01*
X-364767Y779958D01*
X-364702Y779884D01*
X-364628Y779810D01*
X-364545Y779736D01*
X-364535D01*
X-364526Y779717D01*
X-364498Y779699D01*
X-364462Y779680D01*
X-364406Y779652D01*
X-364351Y779615D01*
X-364277Y779579D01*
X-364203Y779551D01*
X-364110Y779514D01*
X-364008Y779477D01*
X-363898Y779449D01*
X-363777Y779412D01*
X-363639Y779394D01*
X-363500Y779375D01*
X-363352Y779357D01*
X-363186D01*
X-363176D01*
X-363149D01*
X-363102D01*
X-363038Y779366D01*
X-362964D01*
X-362881Y779375D01*
X-362686Y779403D01*
X-362464Y779449D01*
X-362252Y779505D01*
X-362039Y779597D01*
X-361947Y779652D01*
X-361864Y779717D01*
X-361845Y779736D01*
X-361799Y779782D01*
X-361725Y779856D01*
X-361651Y779958D01*
X-361577Y780087D01*
X-361503Y780235D01*
X-361457Y780401D01*
X-361447Y780494D01*
X-361438Y780586D01*
Y780642D01*
X-361447Y780679D01*
X-361466Y780771D01*
X-361494Y780901D01*
X-361549Y781039D01*
X-361623Y781187D01*
X-361734Y781335D01*
X-361799Y781409D01*
X-361873Y781483D01*
X-361882D01*
X-361891Y781502D01*
X-361919Y781520D01*
X-361956Y781539D01*
X-362002Y781576D01*
X-362067Y781603D01*
X-362132Y781640D01*
X-362215Y781677D01*
X-362298Y781705D01*
X-362409Y781742D01*
X-362520Y781779D01*
X-362640Y781807D01*
X-362779Y781825D01*
X-362927Y781844D01*
X-363084Y781862D01*
D02*
G37*
G36*
X-363223Y773661D02*
Y773652D01*
X-363213Y773643D01*
X-363204Y773615D01*
X-363195Y773578D01*
X-363176Y773532D01*
X-363158Y773476D01*
X-363139Y773412D01*
X-363121Y773338D01*
X-363093Y773255D01*
X-363075Y773153D01*
X-363047Y773051D01*
X-363019Y772931D01*
X-362991Y772802D01*
X-362964Y772672D01*
X-362945Y772524D01*
X-362918Y772367D01*
Y772348D01*
X-362908Y772293D01*
X-362890Y772201D01*
X-362871Y772099D01*
X-362853Y771988D01*
X-362825Y771877D01*
X-362797Y771775D01*
X-362760Y771683D01*
Y771674D01*
X-362742Y771646D01*
X-362723Y771609D01*
X-362696Y771572D01*
X-362622Y771461D01*
X-362511Y771368D01*
X-362501D01*
X-362483Y771350D01*
X-362446Y771341D01*
X-362400Y771322D01*
X-362344Y771304D01*
X-362289Y771285D01*
X-362215Y771276D01*
X-362141Y771267D01*
X-362132D01*
X-362085D01*
X-362030Y771276D01*
X-361956Y771294D01*
X-361873Y771322D01*
X-361790Y771368D01*
X-361697Y771424D01*
X-361614Y771498D01*
X-361605Y771507D01*
X-361586Y771544D01*
X-361549Y771600D01*
X-361512Y771674D01*
X-361475Y771775D01*
X-361438Y771896D01*
X-361420Y772034D01*
X-361410Y772201D01*
Y772274D01*
X-361420Y772367D01*
X-361438Y772469D01*
X-361457Y772598D01*
X-361494Y772728D01*
X-361540Y772866D01*
X-361605Y773005D01*
X-361614Y773023D01*
X-361642Y773060D01*
X-361688Y773125D01*
X-361753Y773199D01*
X-361827Y773282D01*
X-361919Y773375D01*
X-362030Y773449D01*
X-362150Y773523D01*
X-362159Y773532D01*
X-362196Y773541D01*
X-362261Y773560D01*
X-362344Y773587D01*
X-362455Y773615D01*
X-362585Y773634D01*
X-362742Y773643D01*
X-362927Y773652D01*
X-363223Y773661D01*
D02*
G37*
G36*
X-317696Y421010D02*
X-317742D01*
X-317779Y421000D01*
X-317871Y420982D01*
X-317992Y420954D01*
X-318130Y420899D01*
X-318278Y420816D01*
X-318361Y420760D01*
X-318435Y420695D01*
X-318509Y420621D01*
X-318583Y420538D01*
Y420529D01*
X-318602Y420520D01*
X-318620Y420492D01*
X-318639Y420455D01*
X-318666Y420399D01*
X-318703Y420344D01*
X-318741Y420270D01*
X-318768Y420196D01*
X-318805Y420104D01*
X-318842Y420002D01*
X-318870Y419891D01*
X-318907Y419771D01*
X-318925Y419632D01*
X-318944Y419493D01*
X-318962Y419345D01*
Y419179D01*
Y419170D01*
Y419142D01*
Y419096D01*
X-318953Y419031D01*
Y418957D01*
X-318944Y418874D01*
X-318916Y418680D01*
X-318870Y418458D01*
X-318815Y418245D01*
X-318722Y418033D01*
X-318666Y417940D01*
X-318602Y417857D01*
X-318583Y417838D01*
X-318537Y417792D01*
X-318463Y417718D01*
X-318361Y417644D01*
X-318232Y417570D01*
X-318084Y417496D01*
X-317918Y417450D01*
X-317825Y417441D01*
X-317733Y417432D01*
X-317677D01*
X-317640Y417441D01*
X-317548Y417459D01*
X-317418Y417487D01*
X-317280Y417542D01*
X-317132Y417617D01*
X-316984Y417728D01*
X-316910Y417792D01*
X-316836Y417866D01*
Y417875D01*
X-316817Y417885D01*
X-316799Y417912D01*
X-316780Y417949D01*
X-316744Y417996D01*
X-316716Y418060D01*
X-316679Y418125D01*
X-316642Y418208D01*
X-316614Y418291D01*
X-316577Y418402D01*
X-316540Y418513D01*
X-316512Y418633D01*
X-316494Y418772D01*
X-316475Y418920D01*
X-316457Y419077D01*
Y419244D01*
Y419253D01*
Y419281D01*
Y419327D01*
X-316466Y419392D01*
Y419466D01*
X-316475Y419549D01*
X-316503Y419743D01*
X-316549Y419956D01*
X-316614Y420168D01*
X-316707Y420381D01*
X-316762Y420483D01*
X-316827Y420566D01*
Y420575D01*
X-316845Y420584D01*
X-316891Y420640D01*
X-316965Y420704D01*
X-317067Y420788D01*
X-317197Y420871D01*
X-317344Y420945D01*
X-317511Y420991D01*
X-317603Y421000D01*
X-317696Y421010D01*
D02*
G37*
G36*
X-322670D02*
X-322716D01*
X-322753Y421000D01*
X-322846Y420982D01*
X-322966Y420954D01*
X-323104Y420899D01*
X-323252Y420816D01*
X-323336Y420760D01*
X-323410Y420695D01*
X-323484Y420621D01*
X-323558Y420538D01*
Y420529D01*
X-323576Y420520D01*
X-323595Y420492D01*
X-323613Y420455D01*
X-323641Y420399D01*
X-323678Y420344D01*
X-323715Y420270D01*
X-323742Y420196D01*
X-323779Y420104D01*
X-323816Y420002D01*
X-323844Y419891D01*
X-323881Y419771D01*
X-323900Y419632D01*
X-323918Y419493D01*
X-323937Y419345D01*
Y419179D01*
Y419170D01*
Y419142D01*
Y419096D01*
X-323927Y419031D01*
Y418957D01*
X-323918Y418874D01*
X-323890Y418680D01*
X-323844Y418458D01*
X-323789Y418245D01*
X-323696Y418033D01*
X-323641Y417940D01*
X-323576Y417857D01*
X-323558Y417838D01*
X-323511Y417792D01*
X-323437Y417718D01*
X-323336Y417644D01*
X-323206Y417570D01*
X-323058Y417496D01*
X-322892Y417450D01*
X-322799Y417441D01*
X-322707Y417432D01*
X-322651D01*
X-322614Y417441D01*
X-322522Y417459D01*
X-322393Y417487D01*
X-322254Y417542D01*
X-322106Y417617D01*
X-321958Y417728D01*
X-321884Y417792D01*
X-321810Y417866D01*
Y417875D01*
X-321792Y417885D01*
X-321773Y417912D01*
X-321755Y417949D01*
X-321718Y417996D01*
X-321690Y418060D01*
X-321653Y418125D01*
X-321616Y418208D01*
X-321588Y418291D01*
X-321551Y418402D01*
X-321514Y418513D01*
X-321487Y418633D01*
X-321468Y418772D01*
X-321450Y418920D01*
X-321431Y419077D01*
Y419244D01*
Y419253D01*
Y419281D01*
Y419327D01*
X-321440Y419392D01*
Y419466D01*
X-321450Y419549D01*
X-321477Y419743D01*
X-321523Y419956D01*
X-321588Y420168D01*
X-321681Y420381D01*
X-321736Y420483D01*
X-321801Y420566D01*
Y420575D01*
X-321819Y420584D01*
X-321866Y420640D01*
X-321940Y420704D01*
X-322041Y420788D01*
X-322171Y420871D01*
X-322319Y420945D01*
X-322485Y420991D01*
X-322577Y421000D01*
X-322670Y421010D01*
D02*
G37*
G36*
X-346634Y420982D02*
X-346690D01*
X-346736Y420973D01*
X-346838Y420963D01*
X-346977Y420926D01*
X-347134Y420871D01*
X-347300Y420797D01*
X-347457Y420686D01*
X-347541Y420612D01*
X-347615Y420538D01*
Y420529D01*
X-347633Y420520D01*
X-347651Y420492D01*
X-347679Y420455D01*
X-347707Y420409D01*
X-347735Y420353D01*
X-347772Y420279D01*
X-347809Y420205D01*
X-347846Y420113D01*
X-347883Y420020D01*
X-347910Y419909D01*
X-347938Y419789D01*
X-347966Y419660D01*
X-347984Y419521D01*
X-347994Y419364D01*
X-348003Y419207D01*
Y419198D01*
Y419170D01*
Y419123D01*
X-347994Y419059D01*
Y418985D01*
X-347984Y418902D01*
X-347957Y418708D01*
X-347910Y418486D01*
X-347836Y418264D01*
X-347744Y418051D01*
X-347679Y417959D01*
X-347615Y417866D01*
X-347605D01*
X-347596Y417848D01*
X-347541Y417801D01*
X-347457Y417728D01*
X-347346Y417654D01*
X-347208Y417570D01*
X-347041Y417496D01*
X-346847Y417450D01*
X-346745Y417441D01*
X-346634Y417432D01*
X-346579D01*
X-346533Y417441D01*
X-346431Y417459D01*
X-346292Y417487D01*
X-346144Y417542D01*
X-345978Y417617D01*
X-345821Y417728D01*
X-345738Y417801D01*
X-345664Y417875D01*
X-345654Y417885D01*
X-345645Y417894D01*
X-345627Y417922D01*
X-345599Y417959D01*
X-345571Y418005D01*
X-345534Y418060D01*
X-345497Y418134D01*
X-345460Y418208D01*
X-345423Y418301D01*
X-345396Y418402D01*
X-345359Y418513D01*
X-345331Y418633D01*
X-345303Y418772D01*
X-345285Y418911D01*
X-345266Y419068D01*
Y419235D01*
Y419244D01*
Y419272D01*
Y419318D01*
X-345275Y419373D01*
Y419447D01*
X-345285Y419530D01*
X-345312Y419725D01*
X-345359Y419928D01*
X-345433Y420150D01*
X-345534Y420353D01*
X-345590Y420455D01*
X-345664Y420538D01*
Y420547D01*
X-345682Y420557D01*
X-345738Y420612D01*
X-345821Y420677D01*
X-345932Y420760D01*
X-346071Y420843D01*
X-346237Y420917D01*
X-346422Y420963D01*
X-346524Y420973D01*
X-346634Y420982D01*
D02*
G37*
G36*
X-354096D02*
X-354151D01*
X-354197Y420973D01*
X-354299Y420963D01*
X-354438Y420926D01*
X-354595Y420871D01*
X-354761Y420797D01*
X-354919Y420686D01*
X-355002Y420612D01*
X-355076Y420538D01*
Y420529D01*
X-355094Y420520D01*
X-355113Y420492D01*
X-355140Y420455D01*
X-355168Y420409D01*
X-355196Y420353D01*
X-355233Y420279D01*
X-355270Y420205D01*
X-355307Y420113D01*
X-355344Y420020D01*
X-355372Y419909D01*
X-355399Y419789D01*
X-355427Y419660D01*
X-355446Y419521D01*
X-355455Y419364D01*
X-355464Y419207D01*
Y419198D01*
Y419170D01*
Y419123D01*
X-355455Y419059D01*
Y418985D01*
X-355446Y418902D01*
X-355418Y418708D01*
X-355372Y418486D01*
X-355298Y418264D01*
X-355205Y418051D01*
X-355140Y417959D01*
X-355076Y417866D01*
X-355066D01*
X-355057Y417848D01*
X-355002Y417801D01*
X-354919Y417728D01*
X-354808Y417654D01*
X-354669Y417570D01*
X-354502Y417496D01*
X-354308Y417450D01*
X-354207Y417441D01*
X-354096Y417432D01*
X-354040D01*
X-353994Y417441D01*
X-353892Y417459D01*
X-353754Y417487D01*
X-353606Y417542D01*
X-353439Y417617D01*
X-353282Y417728D01*
X-353199Y417801D01*
X-353125Y417875D01*
X-353116Y417885D01*
X-353106Y417894D01*
X-353088Y417922D01*
X-353060Y417959D01*
X-353032Y418005D01*
X-352995Y418060D01*
X-352958Y418134D01*
X-352921Y418208D01*
X-352884Y418301D01*
X-352857Y418402D01*
X-352820Y418513D01*
X-352792Y418633D01*
X-352764Y418772D01*
X-352746Y418911D01*
X-352727Y419068D01*
Y419235D01*
Y419244D01*
Y419272D01*
Y419318D01*
X-352737Y419373D01*
Y419447D01*
X-352746Y419530D01*
X-352774Y419725D01*
X-352820Y419928D01*
X-352894Y420150D01*
X-352995Y420353D01*
X-353051Y420455D01*
X-353125Y420538D01*
Y420547D01*
X-353143Y420557D01*
X-353199Y420612D01*
X-353282Y420677D01*
X-353393Y420760D01*
X-353532Y420843D01*
X-353698Y420917D01*
X-353883Y420963D01*
X-353985Y420973D01*
X-354096Y420982D01*
D02*
G37*
G36*
X-288480Y422665D02*
X-288535D01*
X-288572Y422655D01*
X-288674Y422637D01*
X-288794Y422609D01*
X-288933Y422554D01*
X-289081Y422471D01*
X-289155Y422415D01*
X-289229Y422360D01*
X-289293Y422286D01*
X-289358Y422202D01*
Y422193D01*
X-289377Y422175D01*
X-289395Y422138D01*
X-289423Y422091D01*
X-289450Y422017D01*
X-289487Y421934D01*
X-289515Y421833D01*
X-289552Y421712D01*
X-289589Y421574D01*
X-289626Y421417D01*
X-289663Y421241D01*
X-289691Y421047D01*
X-289719Y420825D01*
X-289737Y420584D01*
X-289746Y420326D01*
X-289756Y420039D01*
Y420020D01*
Y419974D01*
Y419891D01*
X-289746Y419780D01*
Y419660D01*
X-289737Y419512D01*
X-289728Y419355D01*
X-289709Y419188D01*
X-289663Y418828D01*
X-289635Y418652D01*
X-289598Y418486D01*
X-289561Y418328D01*
X-289506Y418181D01*
X-289450Y418051D01*
X-289386Y417940D01*
Y417931D01*
X-289367Y417922D01*
X-289321Y417857D01*
X-289238Y417774D01*
X-289136Y417681D01*
X-288997Y417589D01*
X-288840Y417506D01*
X-288665Y417441D01*
X-288572Y417432D01*
X-288470Y417422D01*
X-288415D01*
X-288378Y417432D01*
X-288286Y417450D01*
X-288156Y417487D01*
X-288017Y417552D01*
X-287860Y417644D01*
X-287786Y417700D01*
X-287712Y417774D01*
X-287638Y417848D01*
X-287564Y417940D01*
Y417949D01*
X-287546Y417968D01*
X-287527Y417996D01*
X-287509Y418042D01*
X-287472Y418107D01*
X-287444Y418190D01*
X-287407Y418282D01*
X-287370Y418393D01*
X-287342Y418532D01*
X-287306Y418680D01*
X-287269Y418855D01*
X-287241Y419040D01*
X-287222Y419262D01*
X-287204Y419493D01*
X-287185Y419752D01*
Y420039D01*
Y420048D01*
Y420057D01*
Y420104D01*
Y420187D01*
X-287194Y420298D01*
Y420418D01*
X-287204Y420566D01*
X-287213Y420723D01*
X-287232Y420899D01*
X-287278Y421250D01*
X-287306Y421426D01*
X-287342Y421592D01*
X-287379Y421749D01*
X-287435Y421897D01*
X-287490Y422027D01*
X-287555Y422138D01*
Y422147D01*
X-287574Y422156D01*
X-287592Y422184D01*
X-287620Y422221D01*
X-287703Y422304D01*
X-287805Y422406D01*
X-287943Y422498D01*
X-288101Y422581D01*
X-288184Y422618D01*
X-288276Y422646D01*
X-288378Y422655D01*
X-288480Y422665D01*
D02*
G37*
G36*
X-293454D02*
X-293509D01*
X-293546Y422655D01*
X-293648Y422637D01*
X-293768Y422609D01*
X-293907Y422554D01*
X-294055Y422471D01*
X-294129Y422415D01*
X-294203Y422360D01*
X-294267Y422286D01*
X-294332Y422202D01*
Y422193D01*
X-294351Y422175D01*
X-294369Y422138D01*
X-294397Y422091D01*
X-294425Y422017D01*
X-294462Y421934D01*
X-294489Y421833D01*
X-294526Y421712D01*
X-294563Y421574D01*
X-294600Y421417D01*
X-294637Y421241D01*
X-294665Y421047D01*
X-294693Y420825D01*
X-294711Y420584D01*
X-294720Y420326D01*
X-294730Y420039D01*
Y420020D01*
Y419974D01*
Y419891D01*
X-294720Y419780D01*
Y419660D01*
X-294711Y419512D01*
X-294702Y419355D01*
X-294683Y419188D01*
X-294637Y418828D01*
X-294610Y418652D01*
X-294573Y418486D01*
X-294536Y418328D01*
X-294480Y418181D01*
X-294425Y418051D01*
X-294360Y417940D01*
Y417931D01*
X-294341Y417922D01*
X-294295Y417857D01*
X-294212Y417774D01*
X-294110Y417681D01*
X-293972Y417589D01*
X-293814Y417506D01*
X-293639Y417441D01*
X-293546Y417432D01*
X-293444Y417422D01*
X-293389D01*
X-293352Y417432D01*
X-293260Y417450D01*
X-293130Y417487D01*
X-292992Y417552D01*
X-292834Y417644D01*
X-292760Y417700D01*
X-292686Y417774D01*
X-292612Y417848D01*
X-292539Y417940D01*
Y417949D01*
X-292520Y417968D01*
X-292502Y417996D01*
X-292483Y418042D01*
X-292446Y418107D01*
X-292418Y418190D01*
X-292381Y418282D01*
X-292344Y418393D01*
X-292317Y418532D01*
X-292280Y418680D01*
X-292243Y418855D01*
X-292215Y419040D01*
X-292196Y419262D01*
X-292178Y419493D01*
X-292159Y419752D01*
Y420039D01*
Y420048D01*
Y420057D01*
Y420104D01*
Y420187D01*
X-292169Y420298D01*
Y420418D01*
X-292178Y420566D01*
X-292187Y420723D01*
X-292206Y420899D01*
X-292252Y421250D01*
X-292280Y421426D01*
X-292317Y421592D01*
X-292354Y421749D01*
X-292409Y421897D01*
X-292465Y422027D01*
X-292529Y422138D01*
Y422147D01*
X-292548Y422156D01*
X-292566Y422184D01*
X-292594Y422221D01*
X-292677Y422304D01*
X-292779Y422406D01*
X-292917Y422498D01*
X-293075Y422581D01*
X-293158Y422618D01*
X-293250Y422646D01*
X-293352Y422655D01*
X-293454Y422665D01*
D02*
G37*
G36*
X-374534Y1037948D02*
X-374543D01*
X-374552D01*
X-374608Y1037938D01*
X-374691Y1037929D01*
X-374802Y1037911D01*
X-374913Y1037865D01*
X-375043Y1037809D01*
X-375163Y1037726D01*
X-375283Y1037615D01*
X-375292Y1037596D01*
X-375329Y1037550D01*
X-375375Y1037476D01*
X-375431Y1037356D01*
X-375486Y1037217D01*
X-375533Y1037032D01*
X-375570Y1036820D01*
X-375579Y1036570D01*
Y1034555D01*
X-373462D01*
Y1036459D01*
X-373471Y1036570D01*
X-373480Y1036700D01*
X-373489Y1036848D01*
X-373508Y1036995D01*
X-373535Y1037143D01*
X-373573Y1037273D01*
X-373582Y1037291D01*
X-373600Y1037328D01*
X-373628Y1037384D01*
X-373665Y1037458D01*
X-373720Y1037541D01*
X-373785Y1037624D01*
X-373868Y1037707D01*
X-373961Y1037772D01*
X-373970Y1037781D01*
X-374007Y1037800D01*
X-374062Y1037828D01*
X-374137Y1037865D01*
X-374220Y1037892D01*
X-374312Y1037920D01*
X-374423Y1037938D01*
X-374534Y1037948D01*
D02*
G37*
G36*
X-372084Y1026862D02*
X-372250D01*
X-372260D01*
X-372287D01*
X-372334D01*
X-372398Y1026853D01*
X-372472D01*
X-372556Y1026844D01*
X-372750Y1026816D01*
X-372962Y1026770D01*
X-373175Y1026705D01*
X-373388Y1026613D01*
X-373489Y1026557D01*
X-373573Y1026492D01*
X-373582D01*
X-373591Y1026474D01*
X-373647Y1026428D01*
X-373711Y1026354D01*
X-373794Y1026252D01*
X-373878Y1026123D01*
X-373952Y1025975D01*
X-373998Y1025808D01*
X-374007Y1025716D01*
X-374016Y1025623D01*
Y1025577D01*
X-374007Y1025540D01*
X-373989Y1025448D01*
X-373961Y1025327D01*
X-373905Y1025189D01*
X-373822Y1025041D01*
X-373767Y1024958D01*
X-373702Y1024884D01*
X-373628Y1024810D01*
X-373545Y1024736D01*
X-373535D01*
X-373526Y1024717D01*
X-373498Y1024699D01*
X-373462Y1024680D01*
X-373406Y1024652D01*
X-373351Y1024615D01*
X-373277Y1024578D01*
X-373203Y1024551D01*
X-373110Y1024514D01*
X-373008Y1024477D01*
X-372898Y1024449D01*
X-372777Y1024412D01*
X-372639Y1024394D01*
X-372500Y1024375D01*
X-372352Y1024357D01*
X-372186D01*
X-372176D01*
X-372149D01*
X-372103D01*
X-372038Y1024366D01*
X-371964D01*
X-371881Y1024375D01*
X-371686Y1024403D01*
X-371465Y1024449D01*
X-371252Y1024505D01*
X-371039Y1024597D01*
X-370947Y1024652D01*
X-370863Y1024717D01*
X-370845Y1024736D01*
X-370799Y1024782D01*
X-370725Y1024856D01*
X-370651Y1024958D01*
X-370577Y1025087D01*
X-370503Y1025235D01*
X-370457Y1025401D01*
X-370448Y1025494D01*
X-370438Y1025586D01*
Y1025642D01*
X-370448Y1025679D01*
X-370466Y1025771D01*
X-370494Y1025901D01*
X-370549Y1026039D01*
X-370623Y1026187D01*
X-370734Y1026335D01*
X-370799Y1026409D01*
X-370873Y1026483D01*
X-370882D01*
X-370891Y1026502D01*
X-370919Y1026520D01*
X-370956Y1026539D01*
X-371002Y1026576D01*
X-371067Y1026603D01*
X-371132Y1026640D01*
X-371215Y1026677D01*
X-371298Y1026705D01*
X-371409Y1026742D01*
X-371520Y1026779D01*
X-371640Y1026807D01*
X-371779Y1026825D01*
X-371927Y1026844D01*
X-372084Y1026862D01*
D02*
G37*
G36*
X-372223Y1018661D02*
Y1018652D01*
X-372213Y1018643D01*
X-372204Y1018615D01*
X-372195Y1018578D01*
X-372176Y1018532D01*
X-372158Y1018476D01*
X-372139Y1018412D01*
X-372121Y1018338D01*
X-372093Y1018255D01*
X-372075Y1018153D01*
X-372047Y1018051D01*
X-372019Y1017931D01*
X-371992Y1017802D01*
X-371964Y1017672D01*
X-371945Y1017524D01*
X-371917Y1017367D01*
Y1017348D01*
X-371908Y1017293D01*
X-371890Y1017201D01*
X-371871Y1017099D01*
X-371853Y1016988D01*
X-371825Y1016877D01*
X-371797Y1016775D01*
X-371760Y1016683D01*
Y1016674D01*
X-371742Y1016646D01*
X-371723Y1016609D01*
X-371696Y1016572D01*
X-371622Y1016461D01*
X-371511Y1016368D01*
X-371502D01*
X-371483Y1016350D01*
X-371446Y1016341D01*
X-371400Y1016322D01*
X-371344Y1016304D01*
X-371289Y1016285D01*
X-371215Y1016276D01*
X-371141Y1016267D01*
X-371132D01*
X-371085D01*
X-371030Y1016276D01*
X-370956Y1016294D01*
X-370873Y1016322D01*
X-370790Y1016368D01*
X-370697Y1016424D01*
X-370614Y1016498D01*
X-370605Y1016507D01*
X-370586Y1016544D01*
X-370549Y1016600D01*
X-370512Y1016674D01*
X-370475Y1016775D01*
X-370438Y1016896D01*
X-370420Y1017034D01*
X-370410Y1017201D01*
Y1017274D01*
X-370420Y1017367D01*
X-370438Y1017469D01*
X-370457Y1017598D01*
X-370494Y1017728D01*
X-370540Y1017866D01*
X-370605Y1018005D01*
X-370614Y1018023D01*
X-370642Y1018060D01*
X-370688Y1018125D01*
X-370753Y1018199D01*
X-370827Y1018282D01*
X-370919Y1018375D01*
X-371030Y1018449D01*
X-371150Y1018523D01*
X-371159Y1018532D01*
X-371196Y1018541D01*
X-371261Y1018560D01*
X-371344Y1018587D01*
X-371455Y1018615D01*
X-371585Y1018634D01*
X-371742Y1018643D01*
X-371927Y1018652D01*
X-372223Y1018661D01*
D02*
G37*
%LPD*%
D11*
X-452500Y104000D02*
X-367500D01*
X-452500D02*
Y156000D01*
X-367500D01*
Y104000D02*
Y156000D01*
X-387000Y702500D02*
Y787500D01*
X-335000D01*
Y702500D02*
Y787500D01*
X-387000Y702500D02*
X-335000D01*
X-377500Y325000D02*
Y415000D01*
Y325000D02*
X-272500D01*
Y415000D01*
X-377500D02*
X-272500D01*
X-396000Y947500D02*
X-344000D01*
Y1032500D01*
X-396000D02*
X-344000D01*
X-396000Y947500D02*
Y1032500D01*
M02*
