G04*
G04 #@! TF.GenerationSoftware,Altium Limited,Altium Designer,23.9.2 (47)*
G04*
G04 Layer_Color=255*
%FSLAX44Y44*%
%MOMM*%
G71*
G04*
G04 #@! TF.SameCoordinates,DC7A7723-1311-43B5-9009-1713E082842B*
G04*
G04*
G04 #@! TF.FilePolarity,Positive*
G04*
G01*
G75*
%ADD15R,1.8200X1.0200*%
%ADD16R,1.7500X1.0500*%
%ADD17R,1.1200X1.3700*%
%ADD18R,1.0200X1.8200*%
%ADD19R,1.0500X1.7500*%
%ADD20R,1.1500X1.8000*%
%ADD21R,1.6000X1.4000*%
%ADD22R,1.0500X1.8000*%
%ADD23R,0.6500X1.5250*%
%ADD24R,2.5400X1.2700*%
%ADD25R,1.8250X0.7000*%
%ADD26R,1.4000X1.6000*%
%ADD27R,1.2500X0.6000*%
%ADD28R,1.0400X1.7800*%
%ADD29R,1.0700X1.8200*%
%ADD30R,3.5000X2.5000*%
%ADD31R,1.8000X1.0500*%
%ADD32R,3.2000X2.8500*%
%ADD33R,1.0500X0.5500*%
%ADD34R,0.7000X1.8250*%
%ADD35R,1.1176X1.8034*%
%ADD56R,1.3000X1.3000*%
%ADD57C,1.3000*%
%ADD61R,1.3000X1.3000*%
%ADD66C,1.5000*%
%ADD67C,3.7000*%
%ADD68C,1.2400*%
%ADD69C,1.6950*%
%ADD70R,1.6950X1.6950*%
D15*
X-110000Y614000D02*
D03*
Y586000D02*
D03*
X70000Y611000D02*
D03*
Y639000D02*
D03*
X-430000Y394000D02*
D03*
Y366000D02*
D03*
X10000Y749000D02*
D03*
Y721000D02*
D03*
X980000Y409000D02*
D03*
Y381000D02*
D03*
X710000Y1004000D02*
D03*
Y976000D02*
D03*
X545000Y974000D02*
D03*
Y946000D02*
D03*
X775000Y726000D02*
D03*
Y754000D02*
D03*
X540000Y269000D02*
D03*
Y241000D02*
D03*
X375000Y294000D02*
D03*
Y266000D02*
D03*
X620000Y719000D02*
D03*
Y691000D02*
D03*
X930000Y726000D02*
D03*
Y754000D02*
D03*
X450000Y704000D02*
D03*
Y676000D02*
D03*
X235000Y776000D02*
D03*
Y804000D02*
D03*
X190000Y265247D02*
D03*
Y293247D02*
D03*
X-145000Y721000D02*
D03*
Y749000D02*
D03*
X-565000Y866000D02*
D03*
Y894000D02*
D03*
X-370000Y879000D02*
D03*
Y851000D02*
D03*
X1130000Y551000D02*
D03*
Y579000D02*
D03*
X950000Y516000D02*
D03*
Y544000D02*
D03*
X965000Y911000D02*
D03*
Y939000D02*
D03*
X790000Y926000D02*
D03*
Y954000D02*
D03*
X815000Y396000D02*
D03*
Y424000D02*
D03*
D16*
X1035000Y700500D02*
D03*
Y729500D02*
D03*
X1105000Y669500D02*
D03*
Y640500D02*
D03*
X1030000Y370500D02*
D03*
Y399500D02*
D03*
X715000Y275500D02*
D03*
Y304500D02*
D03*
X305000Y314500D02*
D03*
Y285500D02*
D03*
X1080000Y729500D02*
D03*
Y700500D02*
D03*
X1025000Y799500D02*
D03*
Y770500D02*
D03*
X1070000Y799500D02*
D03*
Y770500D02*
D03*
X980000Y769500D02*
D03*
Y740500D02*
D03*
X735000Y824500D02*
D03*
Y795500D02*
D03*
X690000Y879500D02*
D03*
Y850500D02*
D03*
X770000Y654500D02*
D03*
Y625500D02*
D03*
X735000Y879500D02*
D03*
Y850500D02*
D03*
X745000Y920500D02*
D03*
Y949500D02*
D03*
X865000Y625500D02*
D03*
Y654500D02*
D03*
D17*
X-210000Y250000D02*
D03*
X-180000D02*
D03*
X-115000Y210000D02*
D03*
X-85000D02*
D03*
X-60000D02*
D03*
X-30000D02*
D03*
X55000Y250000D02*
D03*
X25000D02*
D03*
X0Y250000D02*
D03*
X-30000D02*
D03*
X-355000Y210000D02*
D03*
X-325000D02*
D03*
X-270000Y250000D02*
D03*
X-240000D02*
D03*
X-295000Y210000D02*
D03*
X-265000D02*
D03*
D18*
X-409000Y580000D02*
D03*
X-381000D02*
D03*
X586000Y480000D02*
D03*
X614000D02*
D03*
X444000Y785000D02*
D03*
X416000D02*
D03*
X209000Y820000D02*
D03*
X181000D02*
D03*
X249000Y319247D02*
D03*
X221000D02*
D03*
X-149000Y250000D02*
D03*
X-121000D02*
D03*
X699000Y155000D02*
D03*
X671000D02*
D03*
X-304000Y895000D02*
D03*
X-276000D02*
D03*
X376000Y480000D02*
D03*
X404000D02*
D03*
X-89000Y250000D02*
D03*
X-61000D02*
D03*
D19*
X115500Y660000D02*
D03*
X144500D02*
D03*
X994500Y700000D02*
D03*
X965500D02*
D03*
X614500Y600000D02*
D03*
X585500D02*
D03*
X575500Y310000D02*
D03*
X604500D02*
D03*
X1005500Y485000D02*
D03*
X1034500D02*
D03*
X975500Y655000D02*
D03*
X1004500D02*
D03*
X1059500D02*
D03*
X1030500D02*
D03*
X1090500Y490000D02*
D03*
X1119500D02*
D03*
X1044500Y325000D02*
D03*
X1015500D02*
D03*
X974500Y295000D02*
D03*
X945500D02*
D03*
X674500Y265000D02*
D03*
X645500D02*
D03*
X444500Y355000D02*
D03*
X415500D02*
D03*
X374500Y345000D02*
D03*
X345500D02*
D03*
X495500Y355000D02*
D03*
X524500D02*
D03*
X350500Y230000D02*
D03*
X379500D02*
D03*
X575500Y220000D02*
D03*
X604500D02*
D03*
Y265000D02*
D03*
X575500D02*
D03*
X674500Y220000D02*
D03*
X645500D02*
D03*
X604000Y350000D02*
D03*
X575000D02*
D03*
X399500Y740000D02*
D03*
X370500D02*
D03*
X539500Y590000D02*
D03*
X510500D02*
D03*
X689500Y745000D02*
D03*
X660500D02*
D03*
X399500Y575000D02*
D03*
X370500D02*
D03*
Y690000D02*
D03*
X399500D02*
D03*
X469500Y395000D02*
D03*
X440500D02*
D03*
X614500Y435000D02*
D03*
X585500D02*
D03*
Y560000D02*
D03*
X614500D02*
D03*
X585500Y520000D02*
D03*
X614500D02*
D03*
X585500Y395000D02*
D03*
X614500D02*
D03*
X404500Y440000D02*
D03*
X375500D02*
D03*
X404500Y520000D02*
D03*
X375500D02*
D03*
X774500Y390000D02*
D03*
X745500D02*
D03*
X1015500Y260000D02*
D03*
X1044500D02*
D03*
X774500Y345000D02*
D03*
X745500D02*
D03*
X774500Y435000D02*
D03*
X745500D02*
D03*
X915500Y580000D02*
D03*
X944500D02*
D03*
X959500Y805000D02*
D03*
X930500D02*
D03*
X1044500Y840000D02*
D03*
X1015500D02*
D03*
X954500Y855000D02*
D03*
X925500D02*
D03*
X739500Y1050000D02*
D03*
X710500D02*
D03*
X755500Y1010000D02*
D03*
X784500D02*
D03*
X755500Y540000D02*
D03*
X784500D02*
D03*
X774500Y485000D02*
D03*
X745500D02*
D03*
X30500Y530000D02*
D03*
X59500D02*
D03*
X-5500D02*
D03*
X-34500D02*
D03*
X-199500Y635000D02*
D03*
X-170500D02*
D03*
X-119500Y530000D02*
D03*
X-90500D02*
D03*
X-170500Y685000D02*
D03*
X-199500D02*
D03*
X115500Y620000D02*
D03*
X144500D02*
D03*
X115500Y530000D02*
D03*
X144500D02*
D03*
X115500Y580000D02*
D03*
X144500D02*
D03*
X45000Y785000D02*
D03*
X74000D02*
D03*
X74500Y720000D02*
D03*
X45500D02*
D03*
X-219500Y750000D02*
D03*
X-190500D02*
D03*
X-229500Y885000D02*
D03*
X-200500D02*
D03*
X-229500Y845000D02*
D03*
X-200500D02*
D03*
X-534500Y220000D02*
D03*
X-505500D02*
D03*
X-575500Y245000D02*
D03*
X-604500D02*
D03*
X-564500Y290000D02*
D03*
X-535500D02*
D03*
X-480500Y350000D02*
D03*
X-509500D02*
D03*
X-524500Y640000D02*
D03*
X-495500D02*
D03*
X95500Y820000D02*
D03*
X124500D02*
D03*
X645500Y310000D02*
D03*
X674500D02*
D03*
Y350000D02*
D03*
X645500D02*
D03*
D20*
X620000Y95000D02*
D03*
X650000D02*
D03*
D21*
X621000Y860000D02*
D03*
X549000D02*
D03*
X621000Y830000D02*
D03*
X549000D02*
D03*
X-21000Y835000D02*
D03*
X51000D02*
D03*
X-21000Y865000D02*
D03*
X51000D02*
D03*
X-74000D02*
D03*
X-146000D02*
D03*
X-74000Y835000D02*
D03*
X-146000D02*
D03*
D22*
X605000Y895000D02*
D03*
X575000D02*
D03*
X945000Y615000D02*
D03*
X915000D02*
D03*
X440000Y590000D02*
D03*
X470000D02*
D03*
X690000Y670000D02*
D03*
X660000D02*
D03*
X680000Y795000D02*
D03*
X650000D02*
D03*
X400000Y630000D02*
D03*
X370000D02*
D03*
X405000Y395000D02*
D03*
X375000D02*
D03*
X515000D02*
D03*
X545000D02*
D03*
X280000Y239247D02*
D03*
X310000D02*
D03*
X-175000Y210000D02*
D03*
X-145000D02*
D03*
X-235000D02*
D03*
X-205000D02*
D03*
X810000Y305000D02*
D03*
X780000D02*
D03*
X915000Y655000D02*
D03*
X945000D02*
D03*
X560000Y1045000D02*
D03*
X530000D02*
D03*
X560000Y1005000D02*
D03*
X530000D02*
D03*
X-200000Y580000D02*
D03*
X-170000D02*
D03*
X115000Y770000D02*
D03*
X145000D02*
D03*
X115000Y715000D02*
D03*
X145000D02*
D03*
X45000Y750000D02*
D03*
X75000D02*
D03*
X-230000Y805000D02*
D03*
X-200000D02*
D03*
X-640000Y290000D02*
D03*
X-610000D02*
D03*
X-530000Y165000D02*
D03*
X-500000D02*
D03*
X-580000Y350000D02*
D03*
X-550000D02*
D03*
X-620000D02*
D03*
X-650000D02*
D03*
X-510000Y405000D02*
D03*
X-480000D02*
D03*
X-525000Y550000D02*
D03*
X-495000D02*
D03*
X-525000Y595000D02*
D03*
X-495000D02*
D03*
X-600000Y825000D02*
D03*
X-630000D02*
D03*
X-665000Y725000D02*
D03*
X-635000D02*
D03*
X-590000Y775000D02*
D03*
X-560000D02*
D03*
X-665000D02*
D03*
X-635000D02*
D03*
X-590000Y725000D02*
D03*
X-560000D02*
D03*
X-525000Y680000D02*
D03*
X-495000D02*
D03*
X-170000Y530000D02*
D03*
X-200000D02*
D03*
D23*
X1109050Y372880D02*
D03*
X1096350D02*
D03*
X1083650D02*
D03*
X1070950D02*
D03*
Y427120D02*
D03*
X1083650D02*
D03*
X1096350D02*
D03*
X1109050D02*
D03*
D24*
X897300Y124600D02*
D03*
X842700D02*
D03*
X897300Y150000D02*
D03*
X842700D02*
D03*
X897300Y175400D02*
D03*
X842700D02*
D03*
D25*
X424380Y231900D02*
D03*
Y244600D02*
D03*
Y257300D02*
D03*
Y270000D02*
D03*
Y282700D02*
D03*
Y295400D02*
D03*
Y308100D02*
D03*
X495620D02*
D03*
Y295400D02*
D03*
Y282700D02*
D03*
Y270000D02*
D03*
Y257300D02*
D03*
Y244600D02*
D03*
Y231900D02*
D03*
X570620Y733100D02*
D03*
Y720400D02*
D03*
Y707700D02*
D03*
Y695000D02*
D03*
Y682300D02*
D03*
Y669600D02*
D03*
Y656900D02*
D03*
X499380D02*
D03*
Y669600D02*
D03*
Y682300D02*
D03*
Y695000D02*
D03*
Y707700D02*
D03*
Y720400D02*
D03*
Y733100D02*
D03*
X525620Y518100D02*
D03*
Y505400D02*
D03*
Y492700D02*
D03*
Y480000D02*
D03*
Y467300D02*
D03*
Y454600D02*
D03*
Y441900D02*
D03*
X454380D02*
D03*
Y454600D02*
D03*
Y467300D02*
D03*
Y480000D02*
D03*
Y492700D02*
D03*
Y505400D02*
D03*
Y518100D02*
D03*
X814380Y783100D02*
D03*
Y770400D02*
D03*
Y757700D02*
D03*
Y745000D02*
D03*
Y732300D02*
D03*
Y719600D02*
D03*
Y706900D02*
D03*
X885620D02*
D03*
Y719600D02*
D03*
Y732300D02*
D03*
Y745000D02*
D03*
Y757700D02*
D03*
Y770400D02*
D03*
Y783100D02*
D03*
X1015000Y606200D02*
D03*
Y593500D02*
D03*
Y580800D02*
D03*
Y568100D02*
D03*
Y555400D02*
D03*
Y542700D02*
D03*
Y530000D02*
D03*
X1086240D02*
D03*
Y542700D02*
D03*
Y555400D02*
D03*
Y568100D02*
D03*
Y580800D02*
D03*
Y593500D02*
D03*
Y606200D02*
D03*
X839380Y993100D02*
D03*
Y980400D02*
D03*
Y967700D02*
D03*
Y955000D02*
D03*
Y942300D02*
D03*
Y929600D02*
D03*
Y916900D02*
D03*
X910620D02*
D03*
Y929600D02*
D03*
Y942300D02*
D03*
Y955000D02*
D03*
Y967700D02*
D03*
Y980400D02*
D03*
Y993100D02*
D03*
X599380Y1023100D02*
D03*
Y1010400D02*
D03*
Y997700D02*
D03*
Y985000D02*
D03*
Y972300D02*
D03*
Y959600D02*
D03*
Y946900D02*
D03*
X670620D02*
D03*
Y959600D02*
D03*
Y972300D02*
D03*
Y985000D02*
D03*
Y997700D02*
D03*
Y1010400D02*
D03*
Y1023100D02*
D03*
X-100620Y785807D02*
D03*
Y773107D02*
D03*
Y760407D02*
D03*
Y747707D02*
D03*
Y735007D02*
D03*
Y722307D02*
D03*
Y709607D02*
D03*
X-29380D02*
D03*
Y722307D02*
D03*
Y735007D02*
D03*
Y747707D02*
D03*
Y760407D02*
D03*
Y773107D02*
D03*
Y785807D02*
D03*
X-55620Y653100D02*
D03*
Y640400D02*
D03*
Y627700D02*
D03*
Y615000D02*
D03*
Y602300D02*
D03*
Y589600D02*
D03*
Y576900D02*
D03*
X15620D02*
D03*
Y589600D02*
D03*
Y602300D02*
D03*
Y615000D02*
D03*
Y627700D02*
D03*
Y640400D02*
D03*
Y653100D02*
D03*
X-434380Y801900D02*
D03*
Y814600D02*
D03*
Y827300D02*
D03*
Y840000D02*
D03*
Y852700D02*
D03*
Y865400D02*
D03*
Y878100D02*
D03*
X-505620D02*
D03*
Y865400D02*
D03*
Y852700D02*
D03*
Y840000D02*
D03*
Y827300D02*
D03*
Y814600D02*
D03*
Y801900D02*
D03*
X860000Y443100D02*
D03*
Y430400D02*
D03*
Y417700D02*
D03*
Y405000D02*
D03*
Y392300D02*
D03*
Y379600D02*
D03*
Y366900D02*
D03*
X931240D02*
D03*
Y379600D02*
D03*
Y392300D02*
D03*
Y405000D02*
D03*
Y417700D02*
D03*
Y430400D02*
D03*
Y443100D02*
D03*
D26*
X339608Y861000D02*
D03*
Y789000D02*
D03*
X369608Y861000D02*
D03*
Y789000D02*
D03*
D27*
X182500Y775500D02*
D03*
Y794500D02*
D03*
X207500D02*
D03*
Y785000D02*
D03*
Y775500D02*
D03*
X247500Y288747D02*
D03*
Y269747D02*
D03*
X222500D02*
D03*
Y279247D02*
D03*
Y288747D02*
D03*
D28*
X518700Y785000D02*
D03*
X491300D02*
D03*
X-303700Y840000D02*
D03*
X-276300D02*
D03*
D29*
X598800Y785000D02*
D03*
X571200D02*
D03*
X671200Y95000D02*
D03*
X698800D02*
D03*
X671200Y65000D02*
D03*
X698800D02*
D03*
X-298800Y785000D02*
D03*
X-271200D02*
D03*
D30*
X-292500Y370000D02*
D03*
X-357500D02*
D03*
D31*
X960000Y230000D02*
D03*
Y200000D02*
D03*
X815000Y625000D02*
D03*
Y655000D02*
D03*
X535000Y890000D02*
D03*
Y920000D02*
D03*
D32*
X750000Y96500D02*
D03*
Y153500D02*
D03*
D33*
X642000Y134500D02*
D03*
Y125000D02*
D03*
Y115500D02*
D03*
X668000D02*
D03*
Y125000D02*
D03*
Y134500D02*
D03*
D34*
X-448100Y454380D02*
D03*
X-435400D02*
D03*
X-422700D02*
D03*
X-410000D02*
D03*
X-397300D02*
D03*
X-384600D02*
D03*
X-371900D02*
D03*
Y525620D02*
D03*
X-384600D02*
D03*
X-397300D02*
D03*
X-410000D02*
D03*
X-422700D02*
D03*
X-435400D02*
D03*
X-448100D02*
D03*
D35*
X644986Y1065000D02*
D03*
X615014D02*
D03*
D56*
X-430000Y136000D02*
D03*
X200000Y715000D02*
D03*
X210000Y465000D02*
D03*
X120000Y475000D02*
D03*
X580000Y96000D02*
D03*
D57*
X-410000Y136000D02*
D03*
X-390000D02*
D03*
X-355000Y745000D02*
D03*
Y725000D02*
D03*
X141000Y290000D02*
D03*
X220000Y715000D02*
D03*
X230000Y465000D02*
D03*
X100000Y475000D02*
D03*
X560000Y96000D02*
D03*
X-364000Y970000D02*
D03*
Y990000D02*
D03*
D61*
X-355000Y765000D02*
D03*
X141000Y270000D02*
D03*
X-364000Y1010000D02*
D03*
D66*
X-190000Y410000D02*
D03*
X0D02*
D03*
D67*
X-650000Y650000D02*
D03*
Y450000D02*
D03*
X-70000Y1025000D02*
D03*
X-270000D02*
D03*
X-70000Y75000D02*
D03*
X-270000D02*
D03*
X830000Y1040000D02*
D03*
X835000Y75000D02*
D03*
X-370000Y70000D02*
D03*
X-440000Y1000000D02*
D03*
D68*
X-414600Y280000D02*
D03*
X-440000D02*
D03*
X-465400D02*
D03*
X860000Y570400D02*
D03*
Y545000D02*
D03*
Y519600D02*
D03*
X700000Y559600D02*
D03*
Y585000D02*
D03*
Y610400D02*
D03*
X429200Y845000D02*
D03*
X454600D02*
D03*
X480000D02*
D03*
X315000Y470000D02*
D03*
Y444600D02*
D03*
Y419200D02*
D03*
X215000Y584200D02*
D03*
Y609600D02*
D03*
Y635000D02*
D03*
X315000Y539600D02*
D03*
Y565000D02*
D03*
Y590400D02*
D03*
X310000Y669600D02*
D03*
Y695000D02*
D03*
Y720400D02*
D03*
X-490400Y940000D02*
D03*
X-465000D02*
D03*
X-439600D02*
D03*
X890000Y244200D02*
D03*
Y269600D02*
D03*
Y295000D02*
D03*
X815400Y240000D02*
D03*
X790000D02*
D03*
X764600D02*
D03*
X680000Y470400D02*
D03*
Y445000D02*
D03*
Y419600D02*
D03*
X855400Y850000D02*
D03*
X830000D02*
D03*
X804600D02*
D03*
X-270000Y600000D02*
D03*
Y574600D02*
D03*
Y549200D02*
D03*
Y659600D02*
D03*
Y685000D02*
D03*
Y710400D02*
D03*
X-440400Y655000D02*
D03*
X-415000D02*
D03*
X-389600D02*
D03*
X-450800Y210000D02*
D03*
X-425400D02*
D03*
X-400000D02*
D03*
X-439200Y745000D02*
D03*
X-464600D02*
D03*
X-490000D02*
D03*
D69*
X-18800Y345000D02*
D03*
X-44200D02*
D03*
X-69600D02*
D03*
X-95000D02*
D03*
X-120400D02*
D03*
X-145800D02*
D03*
X-171200D02*
D03*
X-6100Y289700D02*
D03*
X-31500D02*
D03*
X-56900D02*
D03*
X-82300D02*
D03*
X-107700D02*
D03*
X-133100D02*
D03*
X-158500D02*
D03*
D70*
X-183900D02*
D03*
M02*
