G04*
G04 #@! TF.GenerationSoftware,Altium Limited,Altium Designer,23.9.2 (47)*
G04*
G04 Layer_Color=2752767*
%FSLAX44Y44*%
%MOMM*%
G71*
G04*
G04 #@! TF.SameCoordinates,DC7A7723-1311-43B5-9009-1713E082842B*
G04*
G04*
G04 #@! TF.FilePolarity,Positive*
G04*
G01*
G75*
%ADD74C,0.1693*%
%ADD75C,0.1270*%
D74*
X-424920Y136000D02*
G03*
X-424920Y136000I-5080J0D01*
G01*
X-404920D02*
G03*
X-404920Y136000I-5080J0D01*
G01*
X-384920D02*
G03*
X-384920Y136000I-5080J0D01*
G01*
X-349920Y765000D02*
G03*
X-349920Y765000I-5080J0D01*
G01*
Y745000D02*
G03*
X-349920Y745000I-5080J0D01*
G01*
Y725000D02*
G03*
X-349920Y725000I-5080J0D01*
G01*
X146080Y270000D02*
G03*
X146080Y270000I-5080J0D01*
G01*
Y290000D02*
G03*
X146080Y290000I-5080J0D01*
G01*
X205080Y715000D02*
G03*
X205080Y715000I-5080J0D01*
G01*
X225080D02*
G03*
X225080Y715000I-5080J0D01*
G01*
X215080Y465000D02*
G03*
X215080Y465000I-5080J0D01*
G01*
X235080D02*
G03*
X235080Y465000I-5080J0D01*
G01*
X125080Y475000D02*
G03*
X125080Y475000I-5080J0D01*
G01*
X105080D02*
G03*
X105080Y475000I-5080J0D01*
G01*
X565080Y96000D02*
G03*
X565080Y96000I-5080J0D01*
G01*
X585080D02*
G03*
X585080Y96000I-5080J0D01*
G01*
X-358920Y970000D02*
G03*
X-358920Y970000I-5080J0D01*
G01*
Y990000D02*
G03*
X-358920Y990000I-5080J0D01*
G01*
Y1010000D02*
G03*
X-358920Y1010000I-5080J0D01*
G01*
D75*
X-195080Y404920D02*
X-192540D01*
X-190000Y407460D01*
X-187460Y404920D01*
X-184920D01*
Y407460D01*
X-187460Y410000D01*
X-184920Y412540D01*
Y415080D01*
X-187460D01*
X-190000Y412540D01*
X-192540Y415080D01*
X-195080D01*
Y412540D01*
X-192540Y410000D01*
X-195080Y407460D01*
Y404920D01*
X-5080D02*
X-2540D01*
X0Y407460D01*
X2540Y404920D01*
X5080D01*
Y407460D01*
X2540Y410000D01*
X5080Y412540D01*
Y415080D01*
X2540D01*
X0Y412540D01*
X-2540Y415080D01*
X-5080D01*
Y412540D01*
X-2540Y410000D01*
X-5080Y407460D01*
Y404920D01*
X-652540Y647460D02*
Y644920D01*
X-647460D01*
Y647460D01*
X-644920D01*
Y652540D01*
X-647460D01*
Y655080D01*
X-652540D01*
Y652540D01*
X-655080D01*
Y647460D01*
X-652540D01*
Y447460D02*
Y444920D01*
X-647460D01*
Y447460D01*
X-644920D01*
Y452540D01*
X-647460D01*
Y455080D01*
X-652540D01*
Y452540D01*
X-655080D01*
Y447460D01*
X-652540D01*
X-72540Y1022460D02*
Y1019920D01*
X-67460D01*
Y1022460D01*
X-64920D01*
Y1027540D01*
X-67460D01*
Y1030080D01*
X-72540D01*
Y1027540D01*
X-75080D01*
Y1022460D01*
X-72540D01*
X-272540D02*
Y1019920D01*
X-267460D01*
Y1022460D01*
X-264920D01*
Y1027540D01*
X-267460D01*
Y1030080D01*
X-272540D01*
Y1027540D01*
X-275080D01*
Y1022460D01*
X-272540D01*
X-72540Y72460D02*
Y69920D01*
X-67460D01*
Y72460D01*
X-64920D01*
Y77540D01*
X-67460D01*
Y80080D01*
X-72540D01*
Y77540D01*
X-75080D01*
Y72460D01*
X-72540D01*
X-272540D02*
Y69920D01*
X-267460D01*
Y72460D01*
X-264920D01*
Y77540D01*
X-267460D01*
Y80080D01*
X-272540D01*
Y77540D01*
X-275080D01*
Y72460D01*
X-272540D01*
X827460Y1037460D02*
Y1034920D01*
X832540D01*
Y1037460D01*
X835080D01*
Y1042540D01*
X832540D01*
Y1045080D01*
X827460D01*
Y1042540D01*
X824920D01*
Y1037460D01*
X827460D01*
X832460Y72460D02*
Y69920D01*
X837540D01*
Y72460D01*
X840080D01*
Y77540D01*
X837540D01*
Y80080D01*
X832460D01*
Y77540D01*
X829920D01*
Y72460D01*
X832460D01*
X-372540Y67460D02*
Y64920D01*
X-367460D01*
Y67460D01*
X-364920D01*
Y72540D01*
X-367460D01*
Y75080D01*
X-372540D01*
Y72540D01*
X-375080D01*
Y67460D01*
X-372540D01*
X-442540Y997460D02*
Y994920D01*
X-437460D01*
Y997460D01*
X-434920D01*
Y1002540D01*
X-437460D01*
Y1005080D01*
X-442540D01*
Y1002540D01*
X-445080D01*
Y997460D01*
X-442540D01*
X-419680Y274920D02*
Y285080D01*
X-409520D01*
Y274920D01*
X-419680D01*
X-445080D02*
Y285080D01*
X-434920D01*
Y274920D01*
X-445080D01*
X-470480D02*
Y285080D01*
X-460320D01*
Y274920D01*
X-470480D01*
X854920Y565320D02*
Y575480D01*
X865080D01*
Y565320D01*
X854920D01*
Y539920D02*
Y550080D01*
X865080D01*
Y539920D01*
X854920D01*
Y514520D02*
Y524680D01*
X865080D01*
Y514520D01*
X854920D01*
X694920Y554520D02*
Y564680D01*
X705080D01*
Y554520D01*
X694920D01*
Y579920D02*
Y590080D01*
X705080D01*
Y579920D01*
X694920D01*
Y605320D02*
Y615480D01*
X705080D01*
Y605320D01*
X694920D01*
X424120Y839920D02*
Y850080D01*
X434280D01*
Y839920D01*
X424120D01*
X449520D02*
Y850080D01*
X459680D01*
Y839920D01*
X449520D01*
X474920D02*
Y850080D01*
X485080D01*
Y839920D01*
X474920D01*
X309920Y464920D02*
Y475080D01*
X320080D01*
Y464920D01*
X309920D01*
Y439520D02*
Y449680D01*
X320080D01*
Y439520D01*
X309920D01*
Y414120D02*
Y424280D01*
X320080D01*
Y414120D01*
X309920D01*
X209920Y579120D02*
Y589280D01*
X220080D01*
Y579120D01*
X209920D01*
Y604520D02*
Y614680D01*
X220080D01*
Y604520D01*
X209920D01*
Y629920D02*
Y640080D01*
X220080D01*
Y629920D01*
X209920D01*
X309920Y534520D02*
Y544680D01*
X320080D01*
Y534520D01*
X309920D01*
Y559920D02*
Y570080D01*
X320080D01*
Y559920D01*
X309920D01*
Y585320D02*
Y595480D01*
X320080D01*
Y585320D01*
X309920D01*
X304920Y664520D02*
Y674680D01*
X315080D01*
Y664520D01*
X304920D01*
Y689920D02*
Y700080D01*
X315080D01*
Y689920D01*
X304920D01*
Y715320D02*
Y725480D01*
X315080D01*
Y715320D01*
X304920D01*
X-495480Y934920D02*
Y945080D01*
X-485320D01*
Y934920D01*
X-495480D01*
X-470080D02*
Y945080D01*
X-459920D01*
Y934920D01*
X-470080D01*
X-444680D02*
Y945080D01*
X-434520D01*
Y934920D01*
X-444680D01*
X-18800Y339920D02*
X-23880Y350080D01*
X-13720D01*
X-18800Y339920D01*
X-44200D02*
X-49280Y350080D01*
X-39120D01*
X-44200Y339920D01*
X-69600D02*
X-74680Y350080D01*
X-64520D01*
X-69600Y339920D01*
X-95000D02*
X-100080Y350080D01*
X-89920D01*
X-95000Y339920D01*
X-120400D02*
X-125480Y350080D01*
X-115320D01*
X-120400Y339920D01*
X-145800D02*
X-150880Y350080D01*
X-140720D01*
X-145800Y339920D01*
X-171200D02*
X-176280Y350080D01*
X-166120D01*
X-171200Y339920D01*
X-6100Y284620D02*
X-11180Y294780D01*
X-1020D01*
X-6100Y284620D01*
X-31500D02*
X-36580Y294780D01*
X-26420D01*
X-31500Y284620D01*
X-56900D02*
X-61980Y294780D01*
X-51820D01*
X-56900Y284620D01*
X-82300D02*
X-87380Y294780D01*
X-77220D01*
X-82300Y284620D01*
X-107700D02*
X-112780Y294780D01*
X-102620D01*
X-107700Y284620D01*
X-133100D02*
X-138180Y294780D01*
X-128020D01*
X-133100Y284620D01*
X-158500D02*
X-163580Y294780D01*
X-153420D01*
X-158500Y284620D01*
X-183900D02*
X-188980Y294780D01*
X-178820D01*
X-183900Y284620D01*
X884920Y239120D02*
Y249280D01*
X895080D01*
Y239120D01*
X884920D01*
Y264520D02*
Y274680D01*
X895080D01*
Y264520D01*
X884920D01*
Y289920D02*
Y300080D01*
X895080D01*
Y289920D01*
X884920D01*
X810320Y234920D02*
Y245080D01*
X820480D01*
Y234920D01*
X810320D01*
X784920D02*
Y245080D01*
X795080D01*
Y234920D01*
X784920D01*
X759520D02*
Y245080D01*
X769680D01*
Y234920D01*
X759520D01*
X674920Y465320D02*
Y475480D01*
X685080D01*
Y465320D01*
X674920D01*
Y439920D02*
Y450080D01*
X685080D01*
Y439920D01*
X674920D01*
Y414520D02*
Y424680D01*
X685080D01*
Y414520D01*
X674920D01*
X850320Y844920D02*
Y855080D01*
X860480D01*
Y844920D01*
X850320D01*
X824920D02*
Y855080D01*
X835080D01*
Y844920D01*
X824920D01*
X799520D02*
Y855080D01*
X809680D01*
Y844920D01*
X799520D01*
X-275080Y594920D02*
Y605080D01*
X-264920D01*
Y594920D01*
X-275080D01*
Y569520D02*
Y579680D01*
X-264920D01*
Y569520D01*
X-275080D01*
Y544120D02*
Y554280D01*
X-264920D01*
Y544120D01*
X-275080D01*
Y654520D02*
Y664680D01*
X-264920D01*
Y654520D01*
X-275080D01*
Y679920D02*
Y690080D01*
X-264920D01*
Y679920D01*
X-275080D01*
Y705320D02*
Y715480D01*
X-264920D01*
Y705320D01*
X-275080D01*
X-445480Y649920D02*
Y660080D01*
X-435320D01*
Y649920D01*
X-445480D01*
X-420080D02*
Y660080D01*
X-409920D01*
Y649920D01*
X-420080D01*
X-394680D02*
Y660080D01*
X-384520D01*
Y649920D01*
X-394680D01*
X-455880Y204920D02*
Y215080D01*
X-445720D01*
Y204920D01*
X-455880D01*
X-430480D02*
Y215080D01*
X-420320D01*
Y204920D01*
X-430480D01*
X-405080D02*
Y215080D01*
X-394920D01*
Y204920D01*
X-405080D01*
X-444280Y739920D02*
Y750080D01*
X-434120D01*
Y739920D01*
X-444280D01*
X-469680D02*
Y750080D01*
X-459520D01*
Y739920D01*
X-469680D01*
X-495080D02*
Y750080D01*
X-484920D01*
Y739920D01*
X-495080D01*
X878698Y946222D02*
X881238Y948762D01*
X883778D01*
X881238Y951302D01*
X883778Y953842D01*
X881238D01*
X878698Y956382D01*
X876158Y953842D01*
X873618D01*
X876158Y951302D01*
X873618Y948762D01*
X876158D01*
X878698Y946222D01*
X895000Y939920D02*
X897540Y942460D01*
X900080D01*
X897540Y945000D01*
X900080Y947540D01*
X897540D01*
X895000Y950080D01*
X892460Y947540D01*
X889920D01*
X892460Y945000D01*
X889920Y942460D01*
X892460D01*
X895000Y939920D01*
X855000D02*
X857540Y942460D01*
X860080D01*
X857540Y945000D01*
X860080Y947540D01*
X857540D01*
X855000Y950080D01*
X852460Y947540D01*
X849920D01*
X852460Y945000D01*
X849920Y942460D01*
X852460D01*
X855000Y939920D01*
X55000Y664920D02*
X57540Y667460D01*
X60080D01*
X57540Y670000D01*
X60080Y672540D01*
X57540D01*
X55000Y675080D01*
X52460Y672540D01*
X49920D01*
X52460Y670000D01*
X49920Y667460D01*
X52460D01*
X55000Y664920D01*
X81041Y693879D02*
X83581Y696419D01*
X86121D01*
X83581Y698959D01*
X86121Y701499D01*
X83581D01*
X81041Y704039D01*
X78501Y701499D01*
X75961D01*
X78501Y698959D01*
X75961Y696419D01*
X78501D01*
X81041Y693879D01*
X965000Y414920D02*
X967540Y417460D01*
X970080D01*
X967540Y420000D01*
X970080Y422540D01*
X967540D01*
X965000Y425080D01*
X962460Y422540D01*
X959920D01*
X962460Y420000D01*
X959920Y417460D01*
X962460D01*
X965000Y414920D01*
X955000Y379920D02*
X957540Y382460D01*
X960080D01*
X957540Y385000D01*
X960080Y387540D01*
X957540D01*
X955000Y390080D01*
X952460Y387540D01*
X949920D01*
X952460Y385000D01*
X949920Y382460D01*
X952460D01*
X955000Y379920D01*
X910000Y753618D02*
X912540Y756158D01*
X915080D01*
X912540Y758698D01*
X915080Y761238D01*
X912540D01*
X910000Y763778D01*
X907460Y761238D01*
X904920D01*
X907460Y758698D01*
X904920Y756158D01*
X907460D01*
X910000Y753618D01*
Y739920D02*
X912540Y742460D01*
X915080D01*
X912540Y745000D01*
X915080Y747540D01*
X912540D01*
X910000Y750080D01*
X907460Y747540D01*
X904920D01*
X907460Y745000D01*
X904920Y742460D01*
X907460D01*
X910000Y739920D01*
X900661Y724379D02*
X903201Y726919D01*
X905741D01*
X903201Y729459D01*
X905741Y731999D01*
X903201D01*
X900661Y734539D01*
X898121Y731999D01*
X895581D01*
X898121Y729459D01*
X895581Y726919D01*
X898121D01*
X900661Y724379D01*
X790000Y764920D02*
X792540Y767460D01*
X795080D01*
X792540Y770000D01*
X795080Y772540D01*
X792540D01*
X790000Y775080D01*
X787460Y772540D01*
X784920D01*
X787460Y770000D01*
X784920Y767460D01*
X787460D01*
X790000Y764920D01*
X795176Y724744D02*
X797716Y727284D01*
X800256D01*
X797716Y729824D01*
X800256Y732364D01*
X797716D01*
X795176Y734904D01*
X792636Y732364D01*
X790096D01*
X792636Y729824D01*
X790096Y727284D01*
X792636D01*
X795176Y724744D01*
X779277Y740643D02*
X781817Y743183D01*
X784357D01*
X781817Y745723D01*
X784357Y748263D01*
X781817D01*
X779277Y750803D01*
X776737Y748263D01*
X774197D01*
X776737Y745723D01*
X774197Y743183D01*
X776737D01*
X779277Y740643D01*
X725000Y769920D02*
X727540Y772460D01*
X730080D01*
X727540Y775000D01*
X730080Y777540D01*
X727540D01*
X725000Y780080D01*
X722460Y777540D01*
X719920D01*
X722460Y775000D01*
X719920Y772460D01*
X722460D01*
X725000Y769920D01*
X689661Y765694D02*
X692202Y768234D01*
X694742D01*
X692202Y770774D01*
X694742Y773314D01*
X692202D01*
X689661Y775854D01*
X687122Y773314D01*
X684582D01*
X687122Y770774D01*
X684582Y768234D01*
X687122D01*
X689661Y765694D01*
X445136Y256178D02*
X447676Y258718D01*
X450216D01*
X447676Y261258D01*
X450216Y263798D01*
X447676D01*
X445136Y266338D01*
X442596Y263798D01*
X440056D01*
X442596Y261258D01*
X440056Y258718D01*
X442596D01*
X445136Y256178D01*
X470000Y254920D02*
X472540Y257460D01*
X475080D01*
X472540Y260000D01*
X475080Y262540D01*
X472540D01*
X470000Y265080D01*
X467460Y262540D01*
X464920D01*
X467460Y260000D01*
X464920Y257460D01*
X467460D01*
X470000Y254920D01*
X1110543Y559377D02*
X1113083Y561917D01*
X1115623D01*
X1113083Y564457D01*
X1115623Y566997D01*
X1113083D01*
X1110543Y569537D01*
X1108003Y566997D01*
X1105463D01*
X1108003Y564457D01*
X1105463Y561917D01*
X1108003D01*
X1110543Y559377D01*
X1070000Y679920D02*
X1072540Y682460D01*
X1075080D01*
X1072540Y685000D01*
X1075080Y687540D01*
X1072540D01*
X1070000Y690080D01*
X1067460Y687540D01*
X1064920D01*
X1067460Y685000D01*
X1064920Y682460D01*
X1067460D01*
X1070000Y679920D01*
X145000Y734920D02*
X147540Y737460D01*
X150080D01*
X147540Y740000D01*
X150080Y742540D01*
X147540D01*
X145000Y745080D01*
X142460Y742540D01*
X139920D01*
X142460Y740000D01*
X139920Y737460D01*
X142460D01*
X145000Y734920D01*
X90000Y744920D02*
X92540Y747460D01*
X95080D01*
X92540Y750000D01*
X95080Y752540D01*
X92540D01*
X90000Y755080D01*
X87460Y752540D01*
X84920D01*
X87460Y750000D01*
X84920Y747460D01*
X87460D01*
X90000Y744920D01*
X115000Y729920D02*
X117540Y732460D01*
X120080D01*
X117540Y735000D01*
X120080Y737540D01*
X117540D01*
X115000Y740080D01*
X112460Y737540D01*
X109920D01*
X112460Y735000D01*
X109920Y732460D01*
X112460D01*
X115000Y729920D01*
X70324Y595004D02*
X72864Y597544D01*
X75404D01*
X72864Y600084D01*
X75404Y602624D01*
X72864D01*
X70324Y605164D01*
X67784Y602624D01*
X65244D01*
X67784Y600084D01*
X65244Y597544D01*
X67784D01*
X70324Y595004D01*
X804301Y924491D02*
X806841Y927031D01*
X809381D01*
X806841Y929571D01*
X809381Y932111D01*
X806841D01*
X804301Y934651D01*
X801761Y932111D01*
X799221D01*
X801761Y929571D01*
X799221Y927031D01*
X801761D01*
X804301Y924491D01*
X769357Y968127D02*
X771897Y970667D01*
X774437D01*
X771897Y973207D01*
X774437Y975747D01*
X771897D01*
X769357Y978287D01*
X766817Y975747D01*
X764277D01*
X766817Y973207D01*
X764277Y970667D01*
X766817D01*
X769357Y968127D01*
X725000Y974920D02*
X727540Y977460D01*
X730080D01*
X727540Y980000D01*
X730080Y982540D01*
X727540D01*
X725000Y985080D01*
X722460Y982540D01*
X719920D01*
X722460Y980000D01*
X719920Y977460D01*
X722460D01*
X725000Y974920D01*
X698829Y963749D02*
X701369Y966289D01*
X703909D01*
X701369Y968829D01*
X703909Y971369D01*
X701369D01*
X698829Y973909D01*
X696289Y971369D01*
X693749D01*
X696289Y968829D01*
X693749Y966289D01*
X696289D01*
X698829Y963749D01*
X681793Y962617D02*
X684333Y965156D01*
X686873D01*
X684333Y967697D01*
X686873Y970237D01*
X684333D01*
X681793Y972776D01*
X679253Y970237D01*
X676713D01*
X679253Y967697D01*
X676713Y965156D01*
X679253D01*
X681793Y962617D01*
X630000Y419920D02*
X632540Y422460D01*
X635080D01*
X632540Y425000D01*
X635080Y427540D01*
X632540D01*
X630000Y430080D01*
X627460Y427540D01*
X624920D01*
X627460Y425000D01*
X624920Y422460D01*
X627460D01*
X630000Y419920D01*
X615000Y349920D02*
X617540Y352460D01*
X620080D01*
X617540Y355000D01*
X620080Y357540D01*
X617540D01*
X615000Y360080D01*
X612460Y357540D01*
X609920D01*
X612460Y355000D01*
X609920Y352460D01*
X612460D01*
X615000Y349920D01*
X521764Y374920D02*
X524304Y377460D01*
X526844D01*
X524304Y380000D01*
X526844Y382540D01*
X524304D01*
X521764Y385080D01*
X519224Y382540D01*
X516684D01*
X519224Y380000D01*
X516684Y377460D01*
X519224D01*
X521764Y374920D01*
X595606Y364058D02*
X598146Y366598D01*
X600686D01*
X598146Y369138D01*
X600686Y371678D01*
X598146D01*
X595606Y374218D01*
X593066Y371678D01*
X590526D01*
X593066Y369138D01*
X590526Y366598D01*
X593066D01*
X595606Y364058D01*
X360000Y389920D02*
X362540Y392460D01*
X365080D01*
X362540Y395000D01*
X365080Y397540D01*
X362540D01*
X360000Y400080D01*
X357460Y397540D01*
X354920D01*
X357460Y395000D01*
X354920Y392460D01*
X357460D01*
X360000Y389920D01*
X370000Y454920D02*
X372540Y457460D01*
X375080D01*
X372540Y460000D01*
X375080Y462540D01*
X372540D01*
X370000Y465080D01*
X367460Y462540D01*
X364920D01*
X367460Y460000D01*
X364920Y457460D01*
X367460D01*
X370000Y454920D01*
X-155000Y549920D02*
X-152460Y552460D01*
X-149920D01*
X-152460Y555000D01*
X-149920Y557540D01*
X-152460D01*
X-155000Y560080D01*
X-157540Y557540D01*
X-160080D01*
X-157540Y555000D01*
X-160080Y552460D01*
X-157540D01*
X-155000Y549920D01*
X-137793Y558127D02*
X-135253Y560667D01*
X-132713D01*
X-135253Y563207D01*
X-132713Y565747D01*
X-135253D01*
X-137793Y568287D01*
X-140333Y565747D01*
X-142873D01*
X-140333Y563207D01*
X-142873Y560667D01*
X-140333D01*
X-137793Y558127D01*
X-200000Y549920D02*
X-197460Y552460D01*
X-194920D01*
X-197460Y555000D01*
X-194920Y557540D01*
X-197460D01*
X-200000Y560080D01*
X-202540Y557540D01*
X-205080D01*
X-202540Y555000D01*
X-205080Y552460D01*
X-202540D01*
X-200000Y549920D01*
X380000Y369920D02*
X382540Y372460D01*
X385080D01*
X382540Y375000D01*
X385080Y377540D01*
X382540D01*
X380000Y380080D01*
X377460Y377540D01*
X374920D01*
X377460Y375000D01*
X374920Y372460D01*
X377460D01*
X380000Y369920D01*
X390000Y274920D02*
X392540Y277460D01*
X395080D01*
X392540Y280000D01*
X395080Y282540D01*
X392540D01*
X390000Y285080D01*
X387460Y282540D01*
X384920D01*
X387460Y280000D01*
X384920Y277460D01*
X387460D01*
X390000Y274920D01*
X815000Y169920D02*
X817540Y172460D01*
X820080D01*
X817540Y175000D01*
X820080Y177540D01*
X817540D01*
X815000Y180080D01*
X812460Y177540D01*
X809920D01*
X812460Y175000D01*
X809920Y172460D01*
X812460D01*
X815000Y169920D01*
X805000Y124920D02*
X807540Y127460D01*
X810080D01*
X807540Y130000D01*
X810080Y132540D01*
X807540D01*
X805000Y135080D01*
X802460Y132540D01*
X799920D01*
X802460Y130000D01*
X799920Y127460D01*
X802460D01*
X805000Y124920D01*
X1055000Y409920D02*
X1057540Y412460D01*
X1060080D01*
X1057540Y415000D01*
X1060080Y417540D01*
X1057540D01*
X1055000Y420080D01*
X1052460Y417540D01*
X1049920D01*
X1052460Y415000D01*
X1049920Y412460D01*
X1052460D01*
X1055000Y409920D01*
X1005000Y379920D02*
X1007540Y382460D01*
X1010080D01*
X1007540Y385000D01*
X1010080Y387540D01*
X1007540D01*
X1005000Y390080D01*
X1002460Y387540D01*
X999920D01*
X1002460Y385000D01*
X999920Y382460D01*
X1002460D01*
X1005000Y379920D01*
X-405000Y684920D02*
X-402460Y687460D01*
X-399920D01*
X-402460Y690000D01*
X-399920Y692540D01*
X-402460D01*
X-405000Y695080D01*
X-407540Y692540D01*
X-410080D01*
X-407540Y690000D01*
X-410080Y687460D01*
X-407540D01*
X-405000Y684920D01*
X-368741Y688637D02*
X-366201Y691177D01*
X-363661D01*
X-366201Y693717D01*
X-363661Y696257D01*
X-366201D01*
X-368741Y698797D01*
X-371281Y696257D01*
X-373821D01*
X-371281Y693717D01*
X-373821Y691177D01*
X-371281D01*
X-368741Y688637D01*
X-220000Y779920D02*
X-217460Y782460D01*
X-214920D01*
X-217460Y785000D01*
X-214920Y787540D01*
X-217460D01*
X-220000Y790080D01*
X-222540Y787540D01*
X-225080D01*
X-222540Y785000D01*
X-225080Y782460D01*
X-222540D01*
X-220000Y779920D01*
X-170000Y749920D02*
X-167460Y752460D01*
X-164920D01*
X-167460Y755000D01*
X-164920Y757540D01*
X-167460D01*
X-170000Y760080D01*
X-172540Y757540D01*
X-175080D01*
X-172540Y755000D01*
X-175080Y752460D01*
X-172540D01*
X-170000Y749920D01*
X558433Y924920D02*
X560973Y927460D01*
X563513D01*
X560973Y930000D01*
X563513Y932540D01*
X560973D01*
X558433Y935080D01*
X555893Y932540D01*
X553353D01*
X555893Y930000D01*
X553353Y927460D01*
X555893D01*
X558433Y924920D01*
X580000Y1004920D02*
X582540Y1007460D01*
X585080D01*
X582540Y1010000D01*
X585080Y1012540D01*
X582540D01*
X580000Y1015080D01*
X577460Y1012540D01*
X574920D01*
X577460Y1010000D01*
X574920Y1007460D01*
X577460D01*
X580000Y1004920D01*
X576304Y966977D02*
X578844Y969517D01*
X581384D01*
X578844Y972057D01*
X581384Y974597D01*
X578844D01*
X576304Y977137D01*
X573764Y974597D01*
X571224D01*
X573764Y972057D01*
X571224Y969517D01*
X573764D01*
X576304Y966977D01*
X650000Y974920D02*
X652540Y977460D01*
X655080D01*
X652540Y980000D01*
X655080Y982540D01*
X652540D01*
X650000Y985080D01*
X647460Y982540D01*
X644920D01*
X647460Y980000D01*
X644920Y977460D01*
X647460D01*
X650000Y974920D01*
X820000Y934920D02*
X822540Y937460D01*
X825080D01*
X822540Y940000D01*
X825080Y942540D01*
X822540D01*
X820000Y945080D01*
X817460Y942540D01*
X814920D01*
X817460Y940000D01*
X814920Y937460D01*
X817460D01*
X820000Y934920D01*
X-16544Y708796D02*
X-14004Y711336D01*
X-11464D01*
X-14004Y713876D01*
X-11464Y716416D01*
X-14004D01*
X-16544Y718956D01*
X-19084Y716416D01*
X-21624D01*
X-19084Y713876D01*
X-21624Y711336D01*
X-19084D01*
X-16544Y708796D01*
X30000Y729920D02*
X32540Y732460D01*
X35080D01*
X32540Y735000D01*
X35080Y737540D01*
X32540D01*
X30000Y740080D01*
X27460Y737540D01*
X24920D01*
X27460Y735000D01*
X24920Y732460D01*
X27460D01*
X30000Y729920D01*
X120000Y684920D02*
X122540Y687460D01*
X125080D01*
X122540Y690000D01*
X125080Y692540D01*
X122540D01*
X120000Y695080D01*
X117460Y692540D01*
X114920D01*
X117460Y690000D01*
X114920Y687460D01*
X117460D01*
X120000Y684920D01*
X170000Y789920D02*
X172540Y792460D01*
X175080D01*
X172540Y795000D01*
X175080Y797540D01*
X172540D01*
X170000Y800080D01*
X167460Y797540D01*
X164920D01*
X167460Y795000D01*
X164920Y792460D01*
X167460D01*
X170000Y789920D01*
X137649Y793419D02*
X140189Y795959D01*
X142729D01*
X140189Y798499D01*
X142729Y801039D01*
X140189D01*
X137649Y803579D01*
X135109Y801039D01*
X132569D01*
X135109Y798499D01*
X132569Y795959D01*
X135109D01*
X137649Y793419D01*
X675000Y714920D02*
X677540Y717460D01*
X680080D01*
X677540Y720000D01*
X680080Y722540D01*
X677540D01*
X675000Y725080D01*
X672460Y722540D01*
X669920D01*
X672460Y720000D01*
X669920Y717460D01*
X672460D01*
X675000Y714920D01*
X640000Y699920D02*
X642540Y702460D01*
X645080D01*
X642540Y705000D01*
X645080Y707540D01*
X642540D01*
X640000Y710080D01*
X637460Y707540D01*
X634920D01*
X637460Y705000D01*
X634920Y702460D01*
X637460D01*
X640000Y699920D01*
X635000Y674920D02*
X637540Y677460D01*
X640080D01*
X637540Y680000D01*
X640080Y682540D01*
X637540D01*
X635000Y685080D01*
X632460Y682540D01*
X629920D01*
X632460Y680000D01*
X629920Y677460D01*
X632460D01*
X635000Y674920D01*
X695000Y789920D02*
X697540Y792460D01*
X700080D01*
X697540Y795000D01*
X700080Y797540D01*
X697540D01*
X695000Y800080D01*
X692460Y797540D01*
X689920D01*
X692460Y795000D01*
X689920Y792460D01*
X692460D01*
X695000Y789920D01*
X605000Y664920D02*
X607540Y667460D01*
X610080D01*
X607540Y670000D01*
X610080Y672540D01*
X607540D01*
X605000Y675080D01*
X602460Y672540D01*
X599920D01*
X602460Y670000D01*
X599920Y667460D01*
X602460D01*
X605000Y664920D01*
X662696Y683904D02*
X665236Y686444D01*
X667776D01*
X665236Y688984D01*
X667776Y691524D01*
X665236D01*
X662696Y694064D01*
X660156Y691524D01*
X657616D01*
X660156Y688984D01*
X657616Y686444D01*
X660156D01*
X662696Y683904D01*
X570000Y614920D02*
X572540Y617460D01*
X575080D01*
X572540Y620000D01*
X575080Y622540D01*
X572540D01*
X570000Y625080D01*
X567460Y622540D01*
X564920D01*
X567460Y620000D01*
X564920Y617460D01*
X567460D01*
X570000Y614920D01*
X420000Y589920D02*
X422540Y592460D01*
X425080D01*
X422540Y595000D01*
X425080Y597540D01*
X422540D01*
X420000Y600080D01*
X417460Y597540D01*
X414920D01*
X417460Y595000D01*
X414920Y592460D01*
X417460D01*
X420000Y589920D01*
X370000Y604920D02*
X372540Y607460D01*
X375080D01*
X372540Y610000D01*
X375080Y612540D01*
X372540D01*
X370000Y615080D01*
X367460Y612540D01*
X364920D01*
X367460Y610000D01*
X364920Y607460D01*
X367460D01*
X370000Y604920D01*
X395000Y609920D02*
X397540Y612460D01*
X400080D01*
X397540Y615000D01*
X400080Y617540D01*
X397540D01*
X395000Y620080D01*
X392460Y617540D01*
X389920D01*
X392460Y615000D01*
X389920Y612460D01*
X392460D01*
X395000Y609920D01*
X-385000Y339920D02*
X-382460Y342460D01*
X-379920D01*
X-382460Y345000D01*
X-379920Y347540D01*
X-382460D01*
X-385000Y350080D01*
X-387540Y347540D01*
X-390080D01*
X-387540Y345000D01*
X-390080Y342460D01*
X-387540D01*
X-385000Y339920D01*
X-430000D02*
X-427460Y342460D01*
X-424920D01*
X-427460Y345000D01*
X-424920Y347540D01*
X-427460D01*
X-430000Y350080D01*
X-432540Y347540D01*
X-435080D01*
X-432540Y345000D01*
X-435080Y342460D01*
X-432540D01*
X-430000Y339920D01*
X-370620Y480704D02*
X-368080Y483244D01*
X-365540D01*
X-368080Y485784D01*
X-365540Y488324D01*
X-368080D01*
X-370620Y490864D01*
X-373160Y488324D01*
X-375700D01*
X-373160Y485784D01*
X-375700Y483244D01*
X-373160D01*
X-370620Y480704D01*
X-375700Y434222D02*
X-373160Y436762D01*
X-370620D01*
X-373160Y439302D01*
X-370620Y441842D01*
X-373160D01*
X-375700Y444382D01*
X-378240Y441842D01*
X-380780D01*
X-378240Y439302D01*
X-380780Y436762D01*
X-378240D01*
X-375700Y434222D01*
X1065000Y499920D02*
X1067540Y502460D01*
X1070080D01*
X1067540Y505000D01*
X1070080Y507540D01*
X1067540D01*
X1065000Y510080D01*
X1062460Y507540D01*
X1059920D01*
X1062460Y505000D01*
X1059920Y502460D01*
X1062460D01*
X1065000Y499920D01*
X1037556Y513618D02*
X1040096Y516158D01*
X1042636D01*
X1040096Y518698D01*
X1042636Y521238D01*
X1040096D01*
X1037556Y523778D01*
X1035016Y521238D01*
X1032476D01*
X1035016Y518698D01*
X1032476Y516158D01*
X1035016D01*
X1037556Y513618D01*
X630000Y764920D02*
X632540Y767460D01*
X635080D01*
X632540Y770000D01*
X635080Y772540D01*
X632540D01*
X630000Y775080D01*
X627460Y772540D01*
X624920D01*
X627460Y770000D01*
X624920Y767460D01*
X627460D01*
X630000Y764920D01*
X557750Y709481D02*
X560290Y712021D01*
X562830D01*
X560290Y714561D01*
X562830Y717101D01*
X560290D01*
X557750Y719641D01*
X555210Y717101D01*
X552670D01*
X555210Y714561D01*
X552670Y712021D01*
X555210D01*
X557750Y709481D01*
X912334Y708618D02*
X914874Y711158D01*
X917414D01*
X914874Y713698D01*
X917414Y716238D01*
X914874D01*
X912334Y718778D01*
X909794Y716238D01*
X907254D01*
X909794Y713698D01*
X907254Y711158D01*
X909794D01*
X912334Y708618D01*
X-325000Y764920D02*
X-322460Y767460D01*
X-319920D01*
X-322460Y770000D01*
X-319920Y772540D01*
X-322460D01*
X-325000Y775080D01*
X-327540Y772540D01*
X-330080D01*
X-327540Y770000D01*
X-330080Y767460D01*
X-327540D01*
X-325000Y764920D01*
Y724920D02*
X-322460Y727460D01*
X-319920D01*
X-322460Y730000D01*
X-319920Y732540D01*
X-322460D01*
X-325000Y735080D01*
X-327540Y732540D01*
X-330080D01*
X-327540Y730000D01*
X-330080Y727460D01*
X-327540D01*
X-325000Y724920D01*
X-446058Y707272D02*
X-443518Y709812D01*
X-440978D01*
X-443518Y712352D01*
X-440978Y714892D01*
X-443518D01*
X-446058Y717432D01*
X-448598Y714892D01*
X-451138D01*
X-448598Y712352D01*
X-451138Y709812D01*
X-448598D01*
X-446058Y707272D01*
X-621302Y493452D02*
X-618762Y495992D01*
X-616222D01*
X-618762Y498532D01*
X-616222Y501072D01*
X-618762D01*
X-621302Y503612D01*
X-623842Y501072D01*
X-626382D01*
X-623842Y498532D01*
X-626382Y495992D01*
X-623842D01*
X-621302Y493452D01*
Y434222D02*
X-618762Y436762D01*
X-616222D01*
X-618762Y439302D01*
X-616222Y441842D01*
X-618762D01*
X-621302Y444382D01*
X-623842Y441842D01*
X-626382D01*
X-623842Y439302D01*
X-626382Y436762D01*
X-623842D01*
X-621302Y434222D01*
X-636302Y404920D02*
X-633762Y407460D01*
X-631222D01*
X-633762Y410000D01*
X-631222Y412540D01*
X-633762D01*
X-636302Y415080D01*
X-638842Y412540D01*
X-641382D01*
X-638842Y410000D01*
X-641382Y407460D01*
X-638842D01*
X-636302Y404920D01*
X-652560Y805062D02*
X-650020Y807602D01*
X-647480D01*
X-650020Y810142D01*
X-647480Y812682D01*
X-650020D01*
X-652560Y815222D01*
X-655100Y812682D01*
X-657640D01*
X-655100Y810142D01*
X-657640Y807602D01*
X-655100D01*
X-652560Y805062D01*
X1035000Y184920D02*
X1037540Y187460D01*
X1040080D01*
X1037540Y190000D01*
X1040080Y192540D01*
X1037540D01*
X1035000Y195080D01*
X1032460Y192540D01*
X1029920D01*
X1032460Y190000D01*
X1029920Y187460D01*
X1032460D01*
X1035000Y184920D01*
X880330Y193127D02*
X882870Y195667D01*
X885410D01*
X882870Y198207D01*
X885410Y200747D01*
X882870D01*
X880330Y203287D01*
X877790Y200747D01*
X875250D01*
X877790Y198207D01*
X875250Y195667D01*
X877790D01*
X880330Y193127D01*
X-250000Y214920D02*
X-247460Y217460D01*
X-244920D01*
X-247460Y220000D01*
X-244920Y222540D01*
X-247460D01*
X-250000Y225080D01*
X-252540Y222540D01*
X-255080D01*
X-252540Y220000D01*
X-255080Y217460D01*
X-252540D01*
X-250000Y214920D01*
X-265803Y224117D02*
X-263263Y226657D01*
X-260723D01*
X-263263Y229197D01*
X-260723Y231737D01*
X-263263D01*
X-265803Y234277D01*
X-268343Y231737D01*
X-270883D01*
X-268343Y229197D01*
X-270883Y226657D01*
X-268343D01*
X-265803Y224117D01*
X-140793Y225756D02*
X-138253Y228296D01*
X-135713D01*
X-138253Y230836D01*
X-135713Y233376D01*
X-138253D01*
X-140793Y235916D01*
X-143333Y233376D01*
X-145873D01*
X-143333Y230836D01*
X-145873Y228296D01*
X-143333D01*
X-140793Y225756D01*
X1015000Y679920D02*
X1017540Y682460D01*
X1020080D01*
X1017540Y685000D01*
X1020080Y687540D01*
X1017540D01*
X1015000Y690080D01*
X1012460Y687540D01*
X1009920D01*
X1012460Y685000D01*
X1009920Y682460D01*
X1012460D01*
X1015000Y679920D01*
X938736Y616848D02*
X941276Y619388D01*
X943816D01*
X941276Y621928D01*
X943816Y624468D01*
X941276D01*
X938736Y627008D01*
X936196Y624468D01*
X933656D01*
X936196Y621928D01*
X933656Y619388D01*
X936196D01*
X938736Y616848D01*
X1034254Y741713D02*
X1036794Y744253D01*
X1039334D01*
X1036794Y746793D01*
X1039334Y749333D01*
X1036794D01*
X1034254Y751873D01*
X1031714Y749333D01*
X1029174D01*
X1031714Y746793D01*
X1029174Y744253D01*
X1031714D01*
X1034254Y741713D01*
X960300Y916227D02*
X962840Y918767D01*
X965380D01*
X962840Y921307D01*
X965380Y923847D01*
X962840D01*
X960300Y926387D01*
X957760Y923847D01*
X955220D01*
X957760Y921307D01*
X955220Y918767D01*
X957760D01*
X960300Y916227D01*
X-1812Y622690D02*
X728Y625230D01*
X3268D01*
X728Y627770D01*
X3268Y630310D01*
X728D01*
X-1812Y632850D01*
X-4352Y630310D01*
X-6892D01*
X-4352Y627770D01*
X-6892Y625230D01*
X-4352D01*
X-1812Y622690D01*
X30500Y572144D02*
X33040Y574684D01*
X35580D01*
X33040Y577224D01*
X35580Y579764D01*
X33040D01*
X30500Y582304D01*
X27960Y579764D01*
X25420D01*
X27960Y577224D01*
X25420Y574684D01*
X27960D01*
X30500Y572144D01*
X-15000Y654107D02*
X-12460Y656647D01*
X-9920D01*
X-12460Y659187D01*
X-9920Y661727D01*
X-12460D01*
X-15000Y664267D01*
X-17540Y661727D01*
X-20080D01*
X-17540Y659187D01*
X-20080Y656647D01*
X-17540D01*
X-15000Y654107D01*
X-408974Y589670D02*
X-406434Y592210D01*
X-403894D01*
X-406434Y594750D01*
X-403894Y597290D01*
X-406434D01*
X-408974Y599830D01*
X-411514Y597290D01*
X-414054D01*
X-411514Y594750D01*
X-414054Y592210D01*
X-411514D01*
X-408974Y589670D01*
X-408523Y553856D02*
X-405983Y556396D01*
X-403443D01*
X-405983Y558936D01*
X-403443Y561476D01*
X-405983D01*
X-408523Y564016D01*
X-411063Y561476D01*
X-413603D01*
X-411063Y558936D01*
X-413603Y556396D01*
X-411063D01*
X-408523Y553856D01*
X-410178Y536714D02*
X-407638Y539254D01*
X-405098D01*
X-407638Y541794D01*
X-405098Y544334D01*
X-407638D01*
X-410178Y546874D01*
X-412718Y544334D01*
X-415258D01*
X-412718Y541794D01*
X-415258Y539254D01*
X-412718D01*
X-410178Y536714D01*
X9364Y536713D02*
X11904Y539253D01*
X14444D01*
X11904Y541793D01*
X14444Y544333D01*
X11904D01*
X9364Y546873D01*
X6824Y544333D01*
X4284D01*
X6824Y541793D01*
X4284Y539253D01*
X6824D01*
X9364Y536713D01*
X-585000Y849920D02*
X-582460Y852460D01*
X-579920D01*
X-582460Y855000D01*
X-579920Y857540D01*
X-582460D01*
X-585000Y860080D01*
X-587540Y857540D01*
X-590080D01*
X-587540Y855000D01*
X-590080Y852460D01*
X-587540D01*
X-585000Y849920D01*
X-590653Y884633D02*
X-588113Y887173D01*
X-585573D01*
X-588113Y889713D01*
X-585573Y892253D01*
X-588113D01*
X-590653Y894793D01*
X-593193Y892253D01*
X-595733D01*
X-593193Y889713D01*
X-595733Y887173D01*
X-593193D01*
X-590653Y884633D01*
X538207Y756788D02*
X540747Y759328D01*
X543287D01*
X540747Y761868D01*
X543287Y764408D01*
X540747D01*
X538207Y766948D01*
X535667Y764408D01*
X533127D01*
X535667Y761868D01*
X533127Y759328D01*
X535667D01*
X538207Y756788D01*
X566259Y241563D02*
X568799Y244103D01*
X571339D01*
X568799Y246643D01*
X571339Y249183D01*
X568799D01*
X566259Y251723D01*
X563719Y249183D01*
X561179D01*
X563719Y246643D01*
X561179Y244103D01*
X563719D01*
X566259Y241563D01*
X613833Y267598D02*
X616373Y270138D01*
X618913D01*
X616373Y272678D01*
X618913Y275218D01*
X616373D01*
X613833Y277758D01*
X611293Y275218D01*
X608753D01*
X611293Y272678D01*
X608753Y270138D01*
X611293D01*
X613833Y267598D01*
X516293Y290320D02*
X518833Y292860D01*
X521373D01*
X518833Y295400D01*
X521373Y297940D01*
X518833D01*
X516293Y300480D01*
X513753Y297940D01*
X511213D01*
X513753Y295400D01*
X511213Y292860D01*
X513753D01*
X516293Y290320D01*
X-170000Y595236D02*
X-167460Y597776D01*
X-164920D01*
X-167460Y600316D01*
X-164920Y602856D01*
X-167460D01*
X-170000Y605396D01*
X-172540Y602856D01*
X-175080D01*
X-172540Y600316D01*
X-175080Y597776D01*
X-172540D01*
X-170000Y595236D01*
X-184946Y623452D02*
X-182406Y625992D01*
X-179866D01*
X-182406Y628532D01*
X-179866Y631072D01*
X-182406D01*
X-184946Y633612D01*
X-187486Y631072D01*
X-190026D01*
X-187486Y628532D01*
X-190026Y625992D01*
X-187486D01*
X-184946Y623452D01*
X-85000Y617127D02*
X-82460Y619667D01*
X-79920D01*
X-82460Y622207D01*
X-79920Y624747D01*
X-82460D01*
X-85000Y627287D01*
X-87540Y624747D01*
X-90080D01*
X-87540Y622207D01*
X-90080Y619667D01*
X-87540D01*
X-85000Y617127D01*
X-2221Y561984D02*
X319Y564524D01*
X2859D01*
X319Y567064D01*
X2859Y569604D01*
X319D01*
X-2221Y572144D01*
X-4761Y569604D01*
X-7301D01*
X-4761Y567064D01*
X-7301Y564524D01*
X-4761D01*
X-2221Y561984D01*
X-479197Y309117D02*
X-476657Y311657D01*
X-474117D01*
X-476657Y314197D01*
X-474117Y316737D01*
X-476657D01*
X-479197Y319277D01*
X-481737Y316737D01*
X-484277D01*
X-481737Y314197D01*
X-484277Y311657D01*
X-481737D01*
X-479197Y309117D01*
X-465000Y334920D02*
X-462460Y337460D01*
X-459920D01*
X-462460Y340000D01*
X-459920Y342540D01*
X-462460D01*
X-465000Y345080D01*
X-467540Y342540D01*
X-470080D01*
X-467540Y340000D01*
X-470080Y337460D01*
X-467540D01*
X-465000Y334920D01*
X-495184Y254920D02*
X-492644Y257460D01*
X-490104D01*
X-492644Y260000D01*
X-490104Y262540D01*
X-492644D01*
X-495184Y265080D01*
X-497724Y262540D01*
X-500264D01*
X-497724Y260000D01*
X-500264Y257460D01*
X-497724D01*
X-495184Y254920D01*
X-460000Y309920D02*
X-457460Y312460D01*
X-454920D01*
X-457460Y315000D01*
X-454920Y317540D01*
X-457460D01*
X-460000Y320080D01*
X-462540Y317540D01*
X-465080D01*
X-462540Y315000D01*
X-465080Y312460D01*
X-462540D01*
X-460000Y309920D01*
X-455000Y384920D02*
X-452460Y387460D01*
X-449920D01*
X-452460Y390000D01*
X-449920Y392540D01*
X-452460D01*
X-455000Y395080D01*
X-457540Y392540D01*
X-460080D01*
X-457540Y390000D01*
X-460080Y387460D01*
X-457540D01*
X-455000Y384920D01*
X-535500Y258454D02*
X-532960Y260994D01*
X-530420D01*
X-532960Y263534D01*
X-530420Y266074D01*
X-532960D01*
X-535500Y268614D01*
X-538040Y266074D01*
X-540580D01*
X-538040Y263534D01*
X-540580Y260994D01*
X-538040D01*
X-535500Y258454D01*
X-546302Y473338D02*
X-543762Y475878D01*
X-541222D01*
X-543762Y478418D01*
X-541222Y480958D01*
X-543762D01*
X-546302Y483498D01*
X-548842Y480958D01*
X-551382D01*
X-548842Y478418D01*
X-551382Y475878D01*
X-548842D01*
X-546302Y473338D01*
X-630000Y874920D02*
X-627460Y877460D01*
X-624920D01*
X-627460Y880000D01*
X-624920Y882540D01*
X-627460D01*
X-630000Y885080D01*
X-632540Y882540D01*
X-635080D01*
X-632540Y880000D01*
X-635080Y877460D01*
X-632540D01*
X-630000Y874920D01*
X-483650Y819032D02*
X-481110Y821572D01*
X-478570D01*
X-481110Y824112D01*
X-478570Y826652D01*
X-481110D01*
X-483650Y829192D01*
X-486190Y826652D01*
X-488730D01*
X-486190Y824112D01*
X-488730Y821572D01*
X-486190D01*
X-483650Y819032D01*
X48226Y524900D02*
X50766Y527440D01*
X53306D01*
X50766Y529980D01*
X53306Y532520D01*
X50766D01*
X48226Y535060D01*
X45686Y532520D01*
X43146D01*
X45686Y529980D01*
X43146Y527440D01*
X45686D01*
X48226Y524900D01*
X220184Y480704D02*
X222724Y483244D01*
X225264D01*
X222724Y485784D01*
X225264Y488324D01*
X222724D01*
X220184Y490864D01*
X217644Y488324D01*
X215104D01*
X217644Y485784D01*
X215104Y483244D01*
X217644D01*
X220184Y480704D01*
X923510Y952890D02*
X926050Y955430D01*
X928590D01*
X926050Y957970D01*
X928590Y960510D01*
X926050D01*
X923510Y963050D01*
X920970Y960510D01*
X918430D01*
X920970Y957970D01*
X918430Y955430D01*
X920970D01*
X923510Y952890D01*
X480026Y524900D02*
X482566Y527440D01*
X485106D01*
X482566Y529980D01*
X485106Y532520D01*
X482566D01*
X480026Y535060D01*
X477486Y532520D01*
X474946D01*
X477486Y529980D01*
X474946Y527440D01*
X477486D01*
X480026Y524900D01*
X642078Y151266D02*
X644618Y153806D01*
X647158D01*
X644618Y156346D01*
X647158Y158886D01*
X644618D01*
X642078Y161426D01*
X639538Y158886D01*
X636998D01*
X639538Y156346D01*
X636998Y153806D01*
X639538D01*
X642078Y151266D01*
X674844Y730132D02*
X677384Y732672D01*
X679924D01*
X677384Y735212D01*
X679924Y737752D01*
X677384D01*
X674844Y740292D01*
X672304Y737752D01*
X669764D01*
X672304Y735212D01*
X669764Y732672D01*
X672304D01*
X674844Y730132D01*
X1005500Y499194D02*
X1008040Y501734D01*
X1010580D01*
X1008040Y504274D01*
X1010580Y506814D01*
X1008040D01*
X1005500Y509354D01*
X1002960Y506814D01*
X1000420D01*
X1002960Y504274D01*
X1000420Y501734D01*
X1002960D01*
X1005500Y499194D01*
X892014Y850782D02*
X894554Y853322D01*
X897094D01*
X894554Y855862D01*
X897094Y858402D01*
X894554D01*
X892014Y860942D01*
X889474Y858402D01*
X886934D01*
X889474Y855862D01*
X886934Y853322D01*
X889474D01*
X892014Y850782D01*
X1046700Y655710D02*
X1049240Y658250D01*
X1051780D01*
X1049240Y660790D01*
X1051780Y663330D01*
X1049240D01*
X1046700Y665870D01*
X1044160Y663330D01*
X1041620D01*
X1044160Y660790D01*
X1041620Y658250D01*
X1044160D01*
X1046700Y655710D01*
X1102199Y408695D02*
X1104739Y411235D01*
X1107279D01*
X1104739Y413775D01*
X1107279Y416315D01*
X1104739D01*
X1102199Y418855D01*
X1099659Y416315D01*
X1097119D01*
X1099659Y413775D01*
X1097119Y411235D01*
X1099659D01*
X1102199Y408695D01*
X510500Y600846D02*
X513040Y603386D01*
X515580D01*
X513040Y605926D01*
X515580Y608466D01*
X513040D01*
X510500Y611006D01*
X507960Y608466D01*
X505420D01*
X507960Y605926D01*
X505420Y603386D01*
X507960D01*
X510500Y600846D01*
X370500Y747912D02*
X373040Y750452D01*
X375580D01*
X373040Y752992D01*
X375580Y755532D01*
X373040D01*
X370500Y758072D01*
X367960Y755532D01*
X365420D01*
X367960Y752992D01*
X365420Y750452D01*
X367960D01*
X370500Y747912D01*
X1058892Y805062D02*
X1061432Y807602D01*
X1063972D01*
X1061432Y810142D01*
X1063972Y812682D01*
X1061432D01*
X1058892Y815222D01*
X1056352Y812682D01*
X1053812D01*
X1056352Y810142D01*
X1053812Y807602D01*
X1056352D01*
X1058892Y805062D01*
X825720Y877348D02*
X828260Y879888D01*
X830800D01*
X828260Y882428D01*
X830800Y884968D01*
X828260D01*
X825720Y887508D01*
X823180Y884968D01*
X820640D01*
X823180Y882428D01*
X820640Y879888D01*
X823180D01*
X825720Y877348D01*
X814798Y634120D02*
X817338Y636660D01*
X819878D01*
X817338Y639200D01*
X819878Y641740D01*
X817338D01*
X814798Y644280D01*
X812258Y641740D01*
X809718D01*
X812258Y639200D01*
X809718Y636660D01*
X812258D01*
X814798Y634120D01*
X-42960Y713876D02*
X-40420Y716416D01*
X-37880D01*
X-40420Y718956D01*
X-37880Y721496D01*
X-40420D01*
X-42960Y724036D01*
X-45500Y721496D01*
X-48040D01*
X-45500Y718956D01*
X-48040Y716416D01*
X-45500D01*
X-42960Y713876D01*
X-190500Y718956D02*
X-187960Y721496D01*
X-185420D01*
X-187960Y724036D01*
X-185420Y726576D01*
X-187960D01*
X-190500Y729116D01*
X-193040Y726576D01*
X-195580D01*
X-193040Y724036D01*
X-195580Y721496D01*
X-193040D01*
X-190500Y718956D01*
X-258606Y768740D02*
X-256066Y771280D01*
X-253526D01*
X-256066Y773820D01*
X-253526Y776360D01*
X-256066D01*
X-258606Y778900D01*
X-261146Y776360D01*
X-263686D01*
X-261146Y773820D01*
X-263686Y771280D01*
X-261146D01*
X-258606Y768740D01*
X-243874Y776106D02*
X-241334Y778646D01*
X-238794D01*
X-241334Y781186D01*
X-238794Y783726D01*
X-241334D01*
X-243874Y786266D01*
X-246414Y783726D01*
X-248954D01*
X-246414Y781186D01*
X-248954Y778646D01*
X-246414D01*
X-243874Y776106D01*
X-111032Y859926D02*
X-108492Y862466D01*
X-105952D01*
X-108492Y865006D01*
X-105952Y867546D01*
X-108492D01*
X-111032Y870086D01*
X-113572Y867546D01*
X-116112D01*
X-113572Y865006D01*
X-116112Y862466D01*
X-113572D01*
X-111032Y859926D01*
X562830Y582812D02*
X565370Y585352D01*
X567910D01*
X565370Y587892D01*
X567910Y590432D01*
X565370D01*
X562830Y592972D01*
X560290Y590432D01*
X557750D01*
X560290Y587892D01*
X557750Y585352D01*
X560290D01*
X562830Y582812D01*
X556480Y682888D02*
X559020Y685428D01*
X561560D01*
X559020Y687968D01*
X561560Y690508D01*
X559020D01*
X556480Y693048D01*
X553940Y690508D01*
X551400D01*
X553940Y687968D01*
X551400Y685428D01*
X553940D01*
X556480Y682888D01*
X-416340Y779662D02*
X-413800Y782202D01*
X-411260D01*
X-413800Y784742D01*
X-411260Y787282D01*
X-413800D01*
X-416340Y789822D01*
X-418880Y787282D01*
X-421420D01*
X-418880Y784742D01*
X-421420Y782202D01*
X-418880D01*
X-416340Y779662D01*
X-578138Y754262D02*
X-575598Y756802D01*
X-573058D01*
X-575598Y759342D01*
X-573058Y761882D01*
X-575598D01*
X-578138Y764422D01*
X-580678Y761882D01*
X-583218D01*
X-580678Y759342D01*
X-583218Y756802D01*
X-580678D01*
X-578138Y754262D01*
X-448598Y818270D02*
X-446058Y820810D01*
X-443518D01*
X-446058Y823350D01*
X-443518Y825890D01*
X-446058D01*
X-448598Y828430D01*
X-451138Y825890D01*
X-453678D01*
X-451138Y823350D01*
X-453678Y820810D01*
X-451138D01*
X-448598Y818270D01*
X-669451Y786901D02*
X-666911Y789441D01*
X-664371D01*
X-666911Y791981D01*
X-664371Y794521D01*
X-666911D01*
X-669451Y797061D01*
X-671991Y794521D01*
X-674531D01*
X-671991Y791981D01*
X-674531Y789441D01*
X-671991D01*
X-669451Y786901D01*
X-575090Y723782D02*
X-572550Y726322D01*
X-570010D01*
X-572550Y728862D01*
X-570010Y731402D01*
X-572550D01*
X-575090Y733942D01*
X-577630Y731402D01*
X-580170D01*
X-577630Y728862D01*
X-580170Y726322D01*
X-577630D01*
X-575090Y723782D01*
X-378494Y162426D02*
X-375954Y164966D01*
X-373414D01*
X-375954Y167506D01*
X-373414Y170046D01*
X-375954D01*
X-378494Y172586D01*
X-381034Y170046D01*
X-383574D01*
X-381034Y167506D01*
X-383574Y164966D01*
X-381034D01*
X-378494Y162426D01*
X-453538Y882278D02*
X-450998Y884818D01*
X-448458D01*
X-450998Y887358D01*
X-448458Y889898D01*
X-450998D01*
X-453538Y892438D01*
X-456078Y889898D01*
X-458618D01*
X-456078Y887358D01*
X-458618Y884818D01*
X-456078D01*
X-453538Y882278D01*
X-485555Y842781D02*
X-483015Y845321D01*
X-480475D01*
X-483015Y847861D01*
X-480475Y850401D01*
X-483015D01*
X-485555Y852941D01*
X-488095Y850401D01*
X-490635D01*
X-488095Y847861D01*
X-490635Y845321D01*
X-488095D01*
X-485555Y842781D01*
X-511082Y602370D02*
X-508542Y604910D01*
X-506002D01*
X-508542Y607450D01*
X-506002Y609990D01*
X-508542D01*
X-511082Y612530D01*
X-513622Y609990D01*
X-516162D01*
X-513622Y607450D01*
X-516162Y604910D01*
X-513622D01*
X-511082Y602370D01*
X-371900Y501278D02*
X-369360Y503818D01*
X-366820D01*
X-369360Y506358D01*
X-366820Y508898D01*
X-369360D01*
X-371900Y511438D01*
X-374440Y508898D01*
X-376980D01*
X-374440Y506358D01*
X-376980Y503818D01*
X-374440D01*
X-371900Y501278D01*
X694910Y920886D02*
X697450Y923426D01*
X699990D01*
X697450Y925966D01*
X699990Y928506D01*
X697450D01*
X694910Y931046D01*
X692370Y928506D01*
X689830D01*
X692370Y925966D01*
X689830Y923426D01*
X692370D01*
X694910Y920886D01*
X605000Y913266D02*
X607540Y915806D01*
X610080D01*
X607540Y918346D01*
X610080Y920886D01*
X607540D01*
X605000Y923426D01*
X602460Y920886D01*
X599920D01*
X602460Y918346D01*
X599920Y915806D01*
X602460D01*
X605000Y913266D01*
X981464Y884818D02*
X984004Y887358D01*
X986544D01*
X984004Y889898D01*
X986544Y892438D01*
X984004D01*
X981464Y894978D01*
X978924Y892438D01*
X976384D01*
X978924Y889898D01*
X976384Y887358D01*
X978924D01*
X981464Y884818D01*
X891506D02*
X894046Y887358D01*
X896586D01*
X894046Y889898D01*
X896586Y892438D01*
X894046D01*
X891506Y894978D01*
X888966Y892438D01*
X886426D01*
X888966Y889898D01*
X886426Y887358D01*
X888966D01*
X891506Y884818D01*
X1009362Y513724D02*
X1011902Y516264D01*
X1014442D01*
X1011902Y518804D01*
X1014442Y521344D01*
X1011902D01*
X1009362Y523884D01*
X1006822Y521344D01*
X1004282D01*
X1006822Y518804D01*
X1004282Y516264D01*
X1006822D01*
X1009362Y513724D01*
X730724Y460130D02*
X733264Y462670D01*
X735804D01*
X733264Y465210D01*
X735804Y467750D01*
X733264D01*
X730724Y470290D01*
X728184Y467750D01*
X725644D01*
X728184Y465210D01*
X725644Y462670D01*
X728184D01*
X730724Y460130D01*
X981930Y488324D02*
X984470Y490864D01*
X987010D01*
X984470Y493404D01*
X987010Y495944D01*
X984470D01*
X981930Y498484D01*
X979390Y495944D01*
X976850D01*
X979390Y493404D01*
X976850Y490864D01*
X979390D01*
X981930Y488324D01*
X575000Y408292D02*
X577540Y410832D01*
X580080D01*
X577540Y413372D01*
X580080Y415912D01*
X577540D01*
X575000Y418452D01*
X572460Y415912D01*
X569920D01*
X572460Y413372D01*
X569920Y410832D01*
X572460D01*
X575000Y408292D01*
X825974Y301380D02*
X828514Y303920D01*
X831054D01*
X828514Y306460D01*
X831054Y309000D01*
X828514D01*
X825974Y311540D01*
X823434Y309000D01*
X820894D01*
X823434Y306460D01*
X820894Y303920D01*
X823434D01*
X825974Y301380D01*
X-635000Y740800D02*
X-632460Y743340D01*
X-629920D01*
X-632460Y745880D01*
X-629920Y748420D01*
X-632460D01*
X-635000Y750960D01*
X-637540Y748420D01*
X-640080D01*
X-637540Y745880D01*
X-640080Y743340D01*
X-637540D01*
X-635000Y740800D01*
X-525000Y710014D02*
X-522460Y712554D01*
X-519920D01*
X-522460Y715094D01*
X-519920Y717634D01*
X-522460D01*
X-525000Y720174D01*
X-527540Y717634D01*
X-530080D01*
X-527540Y715094D01*
X-530080Y712554D01*
X-527540D01*
X-525000Y710014D01*
X1112994Y397900D02*
X1115534Y400440D01*
X1118074D01*
X1115534Y402980D01*
X1118074Y405520D01*
X1115534D01*
X1112994Y408060D01*
X1110454Y405520D01*
X1107914D01*
X1110454Y402980D01*
X1107914Y400440D01*
X1110454D01*
X1112994Y397900D01*
X877790Y677046D02*
X880330Y679586D01*
X882870D01*
X880330Y682126D01*
X882870Y684666D01*
X880330D01*
X877790Y687206D01*
X875250Y684666D01*
X872710D01*
X875250Y682126D01*
X872710Y679586D01*
X875250D01*
X877790Y677046D01*
X840706Y509914D02*
X843246Y512454D01*
X845786D01*
X843246Y514994D01*
X845786Y517534D01*
X843246D01*
X840706Y520074D01*
X838166Y517534D01*
X835626D01*
X838166Y514994D01*
X835626Y512454D01*
X838166D01*
X840706Y509914D01*
X38320Y763660D02*
X40860Y766200D01*
X43400D01*
X40860Y768740D01*
X43400Y771280D01*
X40860D01*
X38320Y773820D01*
X35780Y771280D01*
X33240D01*
X35780Y768740D01*
X33240Y766200D01*
X35780D01*
X38320Y763660D01*
X-146000Y817254D02*
X-143460Y819794D01*
X-140920D01*
X-143460Y822334D01*
X-140920Y824874D01*
X-143460D01*
X-146000Y827414D01*
X-148540Y824874D01*
X-151080D01*
X-148540Y822334D01*
X-151080Y819794D01*
X-148540D01*
X-146000Y817254D01*
X-156244Y789822D02*
X-153704Y792362D01*
X-151164D01*
X-153704Y794902D01*
X-151164Y797442D01*
X-153704D01*
X-156244Y799982D01*
X-158784Y797442D01*
X-161324D01*
X-158784Y794902D01*
X-161324Y792362D01*
X-158784D01*
X-156244Y789822D01*
X486884Y315604D02*
X489424Y318144D01*
X491964D01*
X489424Y320684D01*
X491964Y323224D01*
X489424D01*
X486884Y325764D01*
X484344Y323224D01*
X481804D01*
X484344Y320684D01*
X481804Y318144D01*
X484344D01*
X486884Y315604D01*
X1148300Y608212D02*
X1150840Y610752D01*
X1153380D01*
X1150840Y613292D01*
X1153380Y615832D01*
X1150840D01*
X1148300Y618372D01*
X1145760Y615832D01*
X1143220D01*
X1145760Y613292D01*
X1143220Y610752D01*
X1145760D01*
X1148300Y608212D01*
X1106644Y649868D02*
X1109184Y652408D01*
X1111724D01*
X1109184Y654948D01*
X1111724Y657488D01*
X1109184D01*
X1106644Y660028D01*
X1104104Y657488D01*
X1101564D01*
X1104104Y654948D01*
X1101564Y652408D01*
X1104104D01*
X1106644Y649868D01*
X833848Y683904D02*
X836388Y686444D01*
X838928D01*
X836388Y688984D01*
X838928Y691524D01*
X836388D01*
X833848Y694064D01*
X831308Y691524D01*
X828768D01*
X831308Y688984D01*
X828768Y686444D01*
X831308D01*
X833848Y683904D01*
X557242Y1061602D02*
X559782Y1064142D01*
X562322D01*
X559782Y1066682D01*
X562322Y1069222D01*
X559782D01*
X557242Y1071762D01*
X554702Y1069222D01*
X552162D01*
X554702Y1066682D01*
X552162Y1064142D01*
X554702D01*
X557242Y1061602D01*
X630140D02*
X632680Y1064142D01*
X635220D01*
X632680Y1066682D01*
X635220Y1069222D01*
X632680D01*
X630140Y1071762D01*
X627600Y1069222D01*
X625060D01*
X627600Y1066682D01*
X625060Y1064142D01*
X627600D01*
X630140Y1061602D01*
X705324Y952890D02*
X707864Y955430D01*
X710404D01*
X707864Y957970D01*
X710404Y960510D01*
X707864D01*
X705324Y963050D01*
X702784Y960510D01*
X700244D01*
X702784Y957970D01*
X700244Y955430D01*
X702784D01*
X705324Y952890D01*
X645500Y394852D02*
X648040Y397392D01*
X650580D01*
X648040Y399932D01*
X650580Y402472D01*
X648040D01*
X645500Y405012D01*
X642960Y402472D01*
X640420D01*
X642960Y399932D01*
X640420Y397392D01*
X642960D01*
X645500Y394852D01*
X752822Y401964D02*
X755362Y404504D01*
X757902D01*
X755362Y407044D01*
X757902Y409584D01*
X755362D01*
X752822Y412124D01*
X750282Y409584D01*
X747742D01*
X750282Y407044D01*
X747742Y404504D01*
X750282D01*
X752822Y401964D01*
X916906D02*
X919446Y404504D01*
X921986D01*
X919446Y407044D01*
X921986Y409584D01*
X919446D01*
X916906Y412124D01*
X914366Y409584D01*
X911826D01*
X914366Y407044D01*
X911826Y404504D01*
X914366D01*
X916906Y401964D01*
X913350Y368182D02*
X915890Y370722D01*
X918430D01*
X915890Y373262D01*
X918430Y375802D01*
X915890D01*
X913350Y378342D01*
X910810Y375802D01*
X908270D01*
X910810Y373262D01*
X908270Y370722D01*
X910810D01*
X913350Y368182D01*
X745500D02*
X748040Y370722D01*
X750580D01*
X748040Y373262D01*
X750580Y375802D01*
X748040D01*
X745500Y378342D01*
X742960Y375802D01*
X740420D01*
X742960Y373262D01*
X740420Y370722D01*
X742960D01*
X745500Y368182D01*
X508474Y439920D02*
X511014Y442460D01*
X513554D01*
X511014Y445000D01*
X513554Y447540D01*
X511014D01*
X508474Y450080D01*
X505934Y447540D01*
X503394D01*
X505934Y445000D01*
X503394Y442460D01*
X505934D01*
X508474Y439920D01*
X467580Y450986D02*
X470120Y453526D01*
X472660D01*
X470120Y456066D01*
X472660Y458606D01*
X470120D01*
X467580Y461146D01*
X465040Y458606D01*
X462500D01*
X465040Y456066D01*
X462500Y453526D01*
X465040D01*
X467580Y450986D01*
X657064Y503056D02*
X659604Y505596D01*
X662144D01*
X659604Y508136D01*
X662144Y510676D01*
X659604D01*
X657064Y513216D01*
X654524Y510676D01*
X651984D01*
X654524Y508136D01*
X651984Y505596D01*
X654524D01*
X657064Y503056D01*
X545304Y798204D02*
X547844Y800744D01*
X550384D01*
X547844Y803284D01*
X550384Y805824D01*
X547844D01*
X545304Y808364D01*
X542764Y805824D01*
X540224D01*
X542764Y803284D01*
X540224Y800744D01*
X542764D01*
X545304Y798204D01*
X120108Y590940D02*
X122648Y593480D01*
X125188D01*
X122648Y596020D01*
X125188Y598560D01*
X122648D01*
X120108Y601100D01*
X117568Y598560D01*
X115028D01*
X117568Y596020D01*
X115028Y593480D01*
X117568D01*
X120108Y590940D01*
X-494826Y519312D02*
X-492286Y521852D01*
X-489746D01*
X-492286Y524392D01*
X-489746Y526932D01*
X-492286D01*
X-494826Y529472D01*
X-497366Y526932D01*
X-499906D01*
X-497366Y524392D01*
X-499906Y521852D01*
X-497366D01*
X-494826Y519312D01*
X511268Y195970D02*
X513808Y198510D01*
X516348D01*
X513808Y201050D01*
X516348Y203590D01*
X513808D01*
X511268Y206130D01*
X508728Y203590D01*
X506188D01*
X508728Y201050D01*
X506188Y198510D01*
X508728D01*
X511268Y195970D01*
X744660Y529980D02*
X747200Y532520D01*
X749740D01*
X747200Y535060D01*
X749740Y537600D01*
X747200D01*
X744660Y540140D01*
X742120Y537600D01*
X739580D01*
X742120Y535060D01*
X739580Y532520D01*
X742120D01*
X744660Y529980D01*
X-500922Y761374D02*
X-498382Y763914D01*
X-495842D01*
X-498382Y766454D01*
X-495842Y768994D01*
X-498382D01*
X-500922Y771534D01*
X-503462Y768994D01*
X-506002D01*
X-503462Y766454D01*
X-506002Y763914D01*
X-503462D01*
X-500922Y761374D01*
X-456218Y852306D02*
X-453678Y854846D01*
X-451138D01*
X-453678Y857386D01*
X-451138Y859926D01*
X-453678D01*
X-456218Y862466D01*
X-458758Y859926D01*
X-461298D01*
X-458758Y857386D01*
X-461298Y854846D01*
X-458758D01*
X-456218Y852306D01*
X-590000Y755456D02*
X-587460Y757996D01*
X-584920D01*
X-587460Y760536D01*
X-584920Y763076D01*
X-587460D01*
X-590000Y765616D01*
X-592540Y763076D01*
X-595080D01*
X-592540Y760536D01*
X-595080Y757996D01*
X-592540D01*
X-590000Y755456D01*
X-527338Y766454D02*
X-524798Y768994D01*
X-522258D01*
X-524798Y771534D01*
X-522258Y774074D01*
X-524798D01*
X-527338Y776614D01*
X-529878Y774074D01*
X-532418D01*
X-529878Y771534D01*
X-532418Y768994D01*
X-529878D01*
X-527338Y766454D01*
M02*
