G04*
G04 #@! TF.GenerationSoftware,Altium Limited,Altium Designer,23.9.2 (47)*
G04*
G04 Layer_Color=128*
%FSLAX44Y44*%
%MOMM*%
G71*
G04*
G04 #@! TF.SameCoordinates,DC7A7723-1311-43B5-9009-1713E082842B*
G04*
G04*
G04 #@! TF.FilePolarity,Positive*
G04*
G01*
G75*
%ADD75C,0.1270*%
D75*
X-434000Y136000D02*
X-426000D01*
X-430000Y132000D02*
Y140000D01*
X-414000Y136000D02*
X-406000D01*
X-410000Y132000D02*
Y140000D01*
X-394000Y136000D02*
X-386000D01*
X-390000Y132000D02*
Y140000D01*
X-193750Y410000D02*
X-186250D01*
X-190000Y406250D02*
Y413750D01*
X-3750Y410000D02*
X3750D01*
X0Y406250D02*
Y413750D01*
X-666000Y650000D02*
X-634000D01*
X-650000Y634000D02*
Y666000D01*
X-666000Y450000D02*
X-634000D01*
X-650000Y434000D02*
Y466000D01*
X-86000Y1025000D02*
X-54000D01*
X-70000Y1009000D02*
Y1041000D01*
X-286000Y1025000D02*
X-254000D01*
X-270000Y1009000D02*
Y1041000D01*
X-86000Y75000D02*
X-54000D01*
X-70000Y59000D02*
Y91000D01*
X-286000Y75000D02*
X-254000D01*
X-270000Y59000D02*
Y91000D01*
X814000Y1040000D02*
X846000D01*
X830000Y1024000D02*
Y1056000D01*
X819000Y75000D02*
X851000D01*
X835000Y59000D02*
Y91000D01*
X-386000Y70000D02*
X-354000D01*
X-370000Y54000D02*
Y86000D01*
X-456000Y1000000D02*
X-424000D01*
X-440000Y984000D02*
Y1016000D01*
X-418300Y280000D02*
X-410900D01*
X-414600Y276300D02*
Y283700D01*
X-443700Y280000D02*
X-436300D01*
X-440000Y276300D02*
Y283700D01*
X-469100Y280000D02*
X-461700D01*
X-465400Y276300D02*
Y283700D01*
X-359000Y765000D02*
X-351000D01*
X-355000Y761000D02*
Y769000D01*
X-359000Y745000D02*
X-351000D01*
X-355000Y741000D02*
Y749000D01*
X-359000Y725000D02*
X-351000D01*
X-355000Y721000D02*
Y729000D01*
X856300Y570400D02*
X863700D01*
X860000Y566700D02*
Y574100D01*
X856300Y545000D02*
X863700D01*
X860000Y541300D02*
Y548700D01*
X856300Y519600D02*
X863700D01*
X860000Y515900D02*
Y523300D01*
X696300Y559600D02*
X703700D01*
X700000Y555900D02*
Y563300D01*
X696300Y585000D02*
X703700D01*
X700000Y581300D02*
Y588700D01*
X696300Y610400D02*
X703700D01*
X700000Y606700D02*
Y614100D01*
X425500Y845000D02*
X432900D01*
X429200Y841300D02*
Y848700D01*
X450900Y845000D02*
X458300D01*
X454600Y841300D02*
Y848700D01*
X476300Y845000D02*
X483700D01*
X480000Y841300D02*
Y848700D01*
X311300Y470000D02*
X318700D01*
X315000Y466300D02*
Y473700D01*
X311300Y444600D02*
X318700D01*
X315000Y440900D02*
Y448300D01*
X311300Y419200D02*
X318700D01*
X315000Y415500D02*
Y422900D01*
X137000Y270000D02*
X145000D01*
X141000Y266000D02*
Y274000D01*
X137000Y290000D02*
X145000D01*
X141000Y286000D02*
Y294000D01*
X211300Y584200D02*
X218700D01*
X215000Y580500D02*
Y587900D01*
X211300Y609600D02*
X218700D01*
X215000Y605900D02*
Y613300D01*
X211300Y635000D02*
X218700D01*
X215000Y631300D02*
Y638700D01*
X311300Y539600D02*
X318700D01*
X315000Y535900D02*
Y543300D01*
X311300Y565000D02*
X318700D01*
X315000Y561300D02*
Y568700D01*
X311300Y590400D02*
X318700D01*
X315000Y586700D02*
Y594100D01*
X196000Y715000D02*
X204000D01*
X200000Y711000D02*
Y719000D01*
X216000Y715000D02*
X224000D01*
X220000Y711000D02*
Y719000D01*
X306300Y669600D02*
X313700D01*
X310000Y665900D02*
Y673300D01*
X306300Y695000D02*
X313700D01*
X310000Y691300D02*
Y698700D01*
X306300Y720400D02*
X313700D01*
X310000Y716700D02*
Y724100D01*
X-494100Y940000D02*
X-486700D01*
X-490400Y936300D02*
Y943700D01*
X-468700Y940000D02*
X-461300D01*
X-465000Y936300D02*
Y943700D01*
X-443300Y940000D02*
X-435900D01*
X-439600Y936300D02*
Y943700D01*
X206000Y465000D02*
X214000D01*
X210000Y461000D02*
Y469000D01*
X226000Y465000D02*
X234000D01*
X230000Y461000D02*
Y469000D01*
X116000Y475000D02*
X124000D01*
X120000Y471000D02*
Y479000D01*
X96000Y475000D02*
X104000D01*
X100000Y471000D02*
Y479000D01*
X-24450Y345000D02*
X-13150D01*
X-18800Y339350D02*
Y350650D01*
X-49850Y345000D02*
X-38550D01*
X-44200Y339350D02*
Y350650D01*
X-75250Y345000D02*
X-63950D01*
X-69600Y339350D02*
Y350650D01*
X-100650Y345000D02*
X-89350D01*
X-95000Y339350D02*
Y350650D01*
X-126050Y345000D02*
X-114750D01*
X-120400Y339350D02*
Y350650D01*
X-151450Y345000D02*
X-140150D01*
X-145800Y339350D02*
Y350650D01*
X-176850Y345000D02*
X-165550D01*
X-171200Y339350D02*
Y350650D01*
X-11750Y289700D02*
X-450D01*
X-6100Y284050D02*
Y295350D01*
X-37150Y289700D02*
X-25850D01*
X-31500Y284050D02*
Y295350D01*
X-62550Y289700D02*
X-51250D01*
X-56900Y284050D02*
Y295350D01*
X-87950Y289700D02*
X-76650D01*
X-82300Y284050D02*
Y295350D01*
X-113350Y289700D02*
X-102050D01*
X-107700Y284050D02*
Y295350D01*
X-138750Y289700D02*
X-127450D01*
X-133100Y284050D02*
Y295350D01*
X-164150Y289700D02*
X-152850D01*
X-158500Y284050D02*
Y295350D01*
X-189550Y289700D02*
X-178250D01*
X-183900Y284050D02*
Y295350D01*
X886300Y244200D02*
X893700D01*
X890000Y240500D02*
Y247900D01*
X886300Y269600D02*
X893700D01*
X890000Y265900D02*
Y273300D01*
X886300Y295000D02*
X893700D01*
X890000Y291300D02*
Y298700D01*
X811700Y240000D02*
X819100D01*
X815400Y236300D02*
Y243700D01*
X786300Y240000D02*
X793700D01*
X790000Y236300D02*
Y243700D01*
X760900Y240000D02*
X768300D01*
X764600Y236300D02*
Y243700D01*
X556000Y96000D02*
X564000D01*
X560000Y92000D02*
Y100000D01*
X576000Y96000D02*
X584000D01*
X580000Y92000D02*
Y100000D01*
X676300Y470400D02*
X683700D01*
X680000Y466700D02*
Y474100D01*
X676300Y445000D02*
X683700D01*
X680000Y441300D02*
Y448700D01*
X676300Y419600D02*
X683700D01*
X680000Y415900D02*
Y423300D01*
X851700Y850000D02*
X859100D01*
X855400Y846300D02*
Y853700D01*
X826300Y850000D02*
X833700D01*
X830000Y846300D02*
Y853700D01*
X800900Y850000D02*
X808300D01*
X804600Y846300D02*
Y853700D01*
X-273700Y600000D02*
X-266300D01*
X-270000Y596300D02*
Y603700D01*
X-273700Y574600D02*
X-266300D01*
X-270000Y570900D02*
Y578300D01*
X-273700Y549200D02*
X-266300D01*
X-270000Y545500D02*
Y552900D01*
X-273700Y659600D02*
X-266300D01*
X-270000Y655900D02*
Y663300D01*
X-273700Y685000D02*
X-266300D01*
X-270000Y681300D02*
Y688700D01*
X-273700Y710400D02*
X-266300D01*
X-270000Y706700D02*
Y714100D01*
X-444100Y655000D02*
X-436700D01*
X-440400Y651300D02*
Y658700D01*
X-418700Y655000D02*
X-411300D01*
X-415000Y651300D02*
Y658700D01*
X-393300Y655000D02*
X-385900D01*
X-389600Y651300D02*
Y658700D01*
X-454500Y210000D02*
X-447100D01*
X-450800Y206300D02*
Y213700D01*
X-429100Y210000D02*
X-421700D01*
X-425400Y206300D02*
Y213700D01*
X-403700Y210000D02*
X-396300D01*
X-400000Y206300D02*
Y213700D01*
X-442900Y745000D02*
X-435500D01*
X-439200Y741300D02*
Y748700D01*
X-468300Y745000D02*
X-460900D01*
X-464600Y741300D02*
Y748700D01*
X-493700Y745000D02*
X-486300D01*
X-490000Y741300D02*
Y748700D01*
X-368000Y970000D02*
X-360000D01*
X-364000Y966000D02*
Y974000D01*
X-368000Y990000D02*
X-360000D01*
X-364000Y986000D02*
Y994000D01*
X-368000Y1010000D02*
X-360000D01*
X-364000Y1006000D02*
Y1014000D01*
X877198Y951302D02*
X880198D01*
X878698Y949802D02*
Y952802D01*
X893500Y945000D02*
X896500D01*
X895000Y943500D02*
Y946500D01*
X853500Y945000D02*
X856500D01*
X855000Y943500D02*
Y946500D01*
X53500Y670000D02*
X56500D01*
X55000Y668500D02*
Y671500D01*
X79541Y698959D02*
X82541D01*
X81041Y697459D02*
Y700459D01*
X963500Y420000D02*
X966500D01*
X965000Y418500D02*
Y421500D01*
X953500Y385000D02*
X956500D01*
X955000Y383500D02*
Y386500D01*
X908500Y758698D02*
X911500D01*
X910000Y757198D02*
Y760198D01*
X908500Y745000D02*
X911500D01*
X910000Y743500D02*
Y746500D01*
X899161Y729459D02*
X902161D01*
X900661Y727959D02*
Y730959D01*
X788500Y770000D02*
X791500D01*
X790000Y768500D02*
Y771500D01*
X793676Y729824D02*
X796676D01*
X795176Y728324D02*
Y731324D01*
X777777Y745723D02*
X780777D01*
X779277Y744223D02*
Y747223D01*
X723500Y775000D02*
X726500D01*
X725000Y773500D02*
Y776500D01*
X688161Y770774D02*
X691161D01*
X689661Y769274D02*
Y772274D01*
X443636Y261258D02*
X446636D01*
X445136Y259758D02*
Y262758D01*
X468500Y260000D02*
X471500D01*
X470000Y258500D02*
Y261500D01*
X1109043Y564457D02*
X1112043D01*
X1110543Y562957D02*
Y565957D01*
X1068500Y685000D02*
X1071500D01*
X1070000Y683500D02*
Y686500D01*
X143500Y740000D02*
X146500D01*
X145000Y738500D02*
Y741500D01*
X88500Y750000D02*
X91500D01*
X90000Y748500D02*
Y751500D01*
X113500Y735000D02*
X116500D01*
X115000Y733500D02*
Y736500D01*
X68824Y600084D02*
X71824D01*
X70324Y598584D02*
Y601584D01*
X802801Y929571D02*
X805801D01*
X804301Y928071D02*
Y931071D01*
X767857Y973207D02*
X770857D01*
X769357Y971707D02*
Y974707D01*
X723500Y980000D02*
X726500D01*
X725000Y978500D02*
Y981500D01*
X697329Y968829D02*
X700329D01*
X698829Y967329D02*
Y970329D01*
X680293Y967697D02*
X683293D01*
X681793Y966197D02*
Y969196D01*
X628500Y425000D02*
X631500D01*
X630000Y423500D02*
Y426500D01*
X613500Y355000D02*
X616500D01*
X615000Y353500D02*
Y356500D01*
X520264Y380000D02*
X523264D01*
X521764Y378500D02*
Y381500D01*
X594106Y369138D02*
X597106D01*
X595606Y367638D02*
Y370638D01*
X358500Y395000D02*
X361500D01*
X360000Y393500D02*
Y396500D01*
X368500Y460000D02*
X371500D01*
X370000Y458500D02*
Y461500D01*
X-156500Y555000D02*
X-153500D01*
X-155000Y553500D02*
Y556500D01*
X-139293Y563207D02*
X-136293D01*
X-137793Y561707D02*
Y564707D01*
X-201500Y555000D02*
X-198500D01*
X-200000Y553500D02*
Y556500D01*
X378500Y375000D02*
X381500D01*
X380000Y373500D02*
Y376500D01*
X388500Y280000D02*
X391500D01*
X390000Y278500D02*
Y281500D01*
X813500Y175000D02*
X816500D01*
X815000Y173500D02*
Y176500D01*
X803500Y130000D02*
X806500D01*
X805000Y128500D02*
Y131500D01*
X1053500Y415000D02*
X1056500D01*
X1055000Y413500D02*
Y416500D01*
X1003500Y385000D02*
X1006500D01*
X1005000Y383500D02*
Y386500D01*
X-406500Y690000D02*
X-403500D01*
X-405000Y688500D02*
Y691500D01*
X-370241Y693717D02*
X-367241D01*
X-368741Y692217D02*
Y695217D01*
X-221500Y785000D02*
X-218500D01*
X-220000Y783500D02*
Y786500D01*
X-171500Y755000D02*
X-168500D01*
X-170000Y753500D02*
Y756500D01*
X556933Y930000D02*
X559933D01*
X558433Y928500D02*
Y931500D01*
X578500Y1010000D02*
X581500D01*
X580000Y1008500D02*
Y1011500D01*
X574804Y972057D02*
X577804D01*
X576304Y970557D02*
Y973557D01*
X648500Y980000D02*
X651500D01*
X650000Y978500D02*
Y981500D01*
X818500Y940000D02*
X821500D01*
X820000Y938500D02*
Y941500D01*
X-18044Y713876D02*
X-15044D01*
X-16544Y712376D02*
Y715376D01*
X28500Y735000D02*
X31500D01*
X30000Y733500D02*
Y736500D01*
X118500Y690000D02*
X121500D01*
X120000Y688500D02*
Y691500D01*
X168500Y795000D02*
X171500D01*
X170000Y793500D02*
Y796500D01*
X136149Y798499D02*
X139149D01*
X137649Y796999D02*
Y799999D01*
X673500Y720000D02*
X676500D01*
X675000Y718500D02*
Y721500D01*
X638500Y705000D02*
X641500D01*
X640000Y703500D02*
Y706500D01*
X633500Y680000D02*
X636500D01*
X635000Y678500D02*
Y681500D01*
X693500Y795000D02*
X696500D01*
X695000Y793500D02*
Y796500D01*
X603500Y670000D02*
X606500D01*
X605000Y668500D02*
Y671500D01*
X661196Y688984D02*
X664196D01*
X662696Y687484D02*
Y690484D01*
X568500Y620000D02*
X571500D01*
X570000Y618500D02*
Y621500D01*
X418500Y595000D02*
X421500D01*
X420000Y593500D02*
Y596500D01*
X368500Y610000D02*
X371500D01*
X370000Y608500D02*
Y611500D01*
X393500Y615000D02*
X396500D01*
X395000Y613500D02*
Y616500D01*
X-386500Y345000D02*
X-383500D01*
X-385000Y343500D02*
Y346500D01*
X-431500Y345000D02*
X-428500D01*
X-430000Y343500D02*
Y346500D01*
X-372120Y485784D02*
X-369120D01*
X-370620Y484284D02*
Y487284D01*
X-377200Y439302D02*
X-374200D01*
X-375700Y437802D02*
Y440802D01*
X1063500Y505000D02*
X1066500D01*
X1065000Y503500D02*
Y506500D01*
X1036056Y518698D02*
X1039056D01*
X1037556Y517198D02*
Y520198D01*
X628500Y770000D02*
X631500D01*
X630000Y768500D02*
Y771500D01*
X556250Y714561D02*
X559250D01*
X557750Y713061D02*
Y716061D01*
X910834Y713698D02*
X913834D01*
X912334Y712198D02*
Y715198D01*
X-326500Y770000D02*
X-323500D01*
X-325000Y768500D02*
Y771500D01*
X-326500Y730000D02*
X-323500D01*
X-325000Y728500D02*
Y731500D01*
X-447558Y712352D02*
X-444558D01*
X-446058Y710852D02*
Y713852D01*
X-622802Y498532D02*
X-619802D01*
X-621302Y497032D02*
Y500032D01*
X-622802Y439302D02*
X-619802D01*
X-621302Y437802D02*
Y440802D01*
X-637802Y410000D02*
X-634802D01*
X-636302Y408500D02*
Y411500D01*
X-654060Y810142D02*
X-651060D01*
X-652560Y808642D02*
Y811642D01*
X1033500Y190000D02*
X1036500D01*
X1035000Y188500D02*
Y191500D01*
X878830Y198207D02*
X881830D01*
X880330Y196707D02*
Y199707D01*
X-251500Y220000D02*
X-248500D01*
X-250000Y218500D02*
Y221500D01*
X-267303Y229197D02*
X-264303D01*
X-265803Y227697D02*
Y230697D01*
X-142293Y230836D02*
X-139293D01*
X-140793Y229336D02*
Y232336D01*
X1013500Y685000D02*
X1016500D01*
X1015000Y683500D02*
Y686500D01*
X937236Y621928D02*
X940236D01*
X938736Y620428D02*
Y623428D01*
X1032754Y746793D02*
X1035754D01*
X1034254Y745293D02*
Y748293D01*
X958800Y921307D02*
X961800D01*
X960300Y919807D02*
Y922807D01*
X-3312Y627770D02*
X-312D01*
X-1812Y626270D02*
Y629270D01*
X29000Y577224D02*
X32000D01*
X30500Y575724D02*
Y578724D01*
X-16500Y659187D02*
X-13500D01*
X-15000Y657687D02*
Y660687D01*
X-410474Y594750D02*
X-407474D01*
X-408974Y593250D02*
Y596250D01*
X-410023Y558936D02*
X-407023D01*
X-408523Y557436D02*
Y560436D01*
X-411678Y541794D02*
X-408678D01*
X-410178Y540294D02*
Y543294D01*
X7864Y541793D02*
X10864D01*
X9364Y540293D02*
Y543293D01*
X-586500Y855000D02*
X-583500D01*
X-585000Y853500D02*
Y856500D01*
X-592153Y889713D02*
X-589153D01*
X-590653Y888213D02*
Y891213D01*
X536707Y761868D02*
X539707D01*
X538207Y760368D02*
Y763368D01*
X564759Y246643D02*
X567759D01*
X566259Y245143D02*
Y248143D01*
X612333Y272678D02*
X615333D01*
X613833Y271178D02*
Y274178D01*
X514793Y295400D02*
X517793D01*
X516293Y293900D02*
Y296900D01*
X-171500Y600316D02*
X-168500D01*
X-170000Y598816D02*
Y601816D01*
X-186446Y628532D02*
X-183446D01*
X-184946Y627032D02*
Y630032D01*
X-86500Y622207D02*
X-83500D01*
X-85000Y620707D02*
Y623707D01*
X-3721Y567064D02*
X-721D01*
X-2221Y565564D02*
Y568564D01*
X-480697Y314197D02*
X-477697D01*
X-479197Y312697D02*
Y315697D01*
X-466500Y340000D02*
X-463500D01*
X-465000Y338500D02*
Y341500D01*
X-496684Y260000D02*
X-493684D01*
X-495184Y258500D02*
Y261500D01*
X-461500Y315000D02*
X-458500D01*
X-460000Y313500D02*
Y316500D01*
X-456500Y390000D02*
X-453500D01*
X-455000Y388500D02*
Y391500D01*
X-537000Y263534D02*
X-534000D01*
X-535500Y262034D02*
Y265034D01*
X-547802Y478418D02*
X-544802D01*
X-546302Y476918D02*
Y479918D01*
X-631500Y880000D02*
X-628500D01*
X-630000Y878500D02*
Y881500D01*
X-485150Y824112D02*
X-482150D01*
X-483650Y822612D02*
Y825612D01*
X46726Y529980D02*
X49726D01*
X48226Y528480D02*
Y531480D01*
X218684Y485784D02*
X221684D01*
X220184Y484284D02*
Y487284D01*
X922010Y957970D02*
X925010D01*
X923510Y956470D02*
Y959470D01*
X478526Y529980D02*
X481526D01*
X480026Y528480D02*
Y531480D01*
X640578Y156346D02*
X643578D01*
X642078Y154846D02*
Y157846D01*
X673344Y735212D02*
X676344D01*
X674844Y733712D02*
Y736712D01*
X1004000Y504274D02*
X1007000D01*
X1005500Y502774D02*
Y505774D01*
X890514Y855862D02*
X893514D01*
X892014Y854362D02*
Y857362D01*
X1045200Y660790D02*
X1048200D01*
X1046700Y659290D02*
Y662290D01*
X1100699Y413775D02*
X1103699D01*
X1102199Y412275D02*
Y415275D01*
X509000Y605926D02*
X512000D01*
X510500Y604426D02*
Y607426D01*
X369000Y752992D02*
X372000D01*
X370500Y751492D02*
Y754492D01*
X1057392Y810142D02*
X1060392D01*
X1058892Y808642D02*
Y811642D01*
X824220Y882428D02*
X827220D01*
X825720Y880928D02*
Y883928D01*
X813298Y639200D02*
X816298D01*
X814798Y637700D02*
Y640700D01*
X-44460Y718956D02*
X-41460D01*
X-42960Y717456D02*
Y720456D01*
X-192000Y724036D02*
X-189000D01*
X-190500Y722536D02*
Y725536D01*
X-260106Y773820D02*
X-257106D01*
X-258606Y772320D02*
Y775320D01*
X-245374Y781186D02*
X-242374D01*
X-243874Y779686D02*
Y782686D01*
X-112532Y865006D02*
X-109532D01*
X-111032Y863506D02*
Y866506D01*
X561330Y587892D02*
X564330D01*
X562830Y586392D02*
Y589392D01*
X554980Y687968D02*
X557980D01*
X556480Y686468D02*
Y689468D01*
X-417840Y784742D02*
X-414840D01*
X-416340Y783242D02*
Y786242D01*
X-579638Y759342D02*
X-576638D01*
X-578138Y757842D02*
Y760842D01*
X-450098Y823350D02*
X-447098D01*
X-448598Y821850D02*
Y824850D01*
X-670951Y791981D02*
X-667951D01*
X-669451Y790481D02*
Y793481D01*
X-576590Y728862D02*
X-573590D01*
X-575090Y727362D02*
Y730362D01*
X-379994Y167506D02*
X-376994D01*
X-378494Y166006D02*
Y169006D01*
X-455038Y887358D02*
X-452038D01*
X-453538Y885858D02*
Y888858D01*
X-487055Y847861D02*
X-484055D01*
X-485555Y846361D02*
Y849361D01*
X-512582Y607450D02*
X-509582D01*
X-511082Y605950D02*
Y608950D01*
X-373400Y506358D02*
X-370400D01*
X-371900Y504858D02*
Y507858D01*
X693410Y925966D02*
X696410D01*
X694910Y924466D02*
Y927466D01*
X603500Y918346D02*
X606500D01*
X605000Y916846D02*
Y919846D01*
X979964Y889898D02*
X982964D01*
X981464Y888398D02*
Y891398D01*
X890006Y889898D02*
X893006D01*
X891506Y888398D02*
Y891398D01*
X1007862Y518804D02*
X1010862D01*
X1009362Y517304D02*
Y520304D01*
X729224Y465210D02*
X732224D01*
X730724Y463710D02*
Y466710D01*
X980430Y493404D02*
X983430D01*
X981930Y491904D02*
Y494904D01*
X573500Y413372D02*
X576500D01*
X575000Y411872D02*
Y414872D01*
X824474Y306460D02*
X827474D01*
X825974Y304960D02*
Y307960D01*
X-636500Y745880D02*
X-633500D01*
X-635000Y744380D02*
Y747380D01*
X-526500Y715094D02*
X-523500D01*
X-525000Y713594D02*
Y716594D01*
X1111494Y402980D02*
X1114494D01*
X1112994Y401480D02*
Y404480D01*
X876290Y682126D02*
X879290D01*
X877790Y680626D02*
Y683626D01*
X839206Y514994D02*
X842206D01*
X840706Y513494D02*
Y516494D01*
X36820Y768740D02*
X39820D01*
X38320Y767240D02*
Y770240D01*
X-147500Y822334D02*
X-144500D01*
X-146000Y820834D02*
Y823834D01*
X-157744Y794902D02*
X-154744D01*
X-156244Y793402D02*
Y796402D01*
X485384Y320684D02*
X488384D01*
X486884Y319184D02*
Y322184D01*
X1146800Y613292D02*
X1149800D01*
X1148300Y611792D02*
Y614792D01*
X1105144Y654948D02*
X1108144D01*
X1106644Y653448D02*
Y656448D01*
X832348Y688984D02*
X835348D01*
X833848Y687484D02*
Y690484D01*
X555742Y1066682D02*
X558742D01*
X557242Y1065182D02*
Y1068182D01*
X628640Y1066682D02*
X631640D01*
X630140Y1065182D02*
Y1068182D01*
X703824Y957970D02*
X706824D01*
X705324Y956470D02*
Y959470D01*
X644000Y399932D02*
X647000D01*
X645500Y398432D02*
Y401432D01*
X751322Y407044D02*
X754322D01*
X752822Y405544D02*
Y408544D01*
X915406Y407044D02*
X918406D01*
X916906Y405544D02*
Y408544D01*
X911850Y373262D02*
X914850D01*
X913350Y371762D02*
Y374762D01*
X744000Y373262D02*
X747000D01*
X745500Y371762D02*
Y374762D01*
X506974Y445000D02*
X509974D01*
X508474Y443500D02*
Y446500D01*
X466080Y456066D02*
X469080D01*
X467580Y454566D02*
Y457566D01*
X655564Y508136D02*
X658564D01*
X657064Y506636D02*
Y509636D01*
X543804Y803284D02*
X546804D01*
X545304Y801784D02*
Y804784D01*
X118608Y596020D02*
X121608D01*
X120108Y594520D02*
Y597520D01*
X-496326Y524392D02*
X-493326D01*
X-494826Y522892D02*
Y525892D01*
X509768Y201050D02*
X512768D01*
X511268Y199550D02*
Y202550D01*
X743160Y535060D02*
X746160D01*
X744660Y533560D02*
Y536560D01*
X-502422Y766454D02*
X-499422D01*
X-500922Y764954D02*
Y767954D01*
X-457718Y857386D02*
X-454718D01*
X-456218Y855886D02*
Y858886D01*
X-591500Y760536D02*
X-588500D01*
X-590000Y759036D02*
Y762036D01*
X-528838Y771534D02*
X-525838D01*
X-527338Y770034D02*
Y773034D01*
M02*
