G04*
G04 #@! TF.GenerationSoftware,Altium Limited,Altium Designer,23.9.2 (47)*
G04*
G04 Layer_Color=16711935*
%FSLAX44Y44*%
%MOMM*%
G71*
G04*
G04 #@! TF.SameCoordinates,DC7A7723-1311-43B5-9009-1713E082842B*
G04*
G04*
G04 #@! TF.FilePolarity,Positive*
G04*
G01*
G75*
%ADD11C,0.2000*%
%ADD13C,0.1000*%
%ADD14C,0.1524*%
%ADD72C,0.3810*%
D11*
X651000Y87000D02*
Y103000D01*
X619000D02*
X651000D01*
X619000Y87000D02*
Y103000D01*
Y87000D02*
X651000D01*
X562500Y822500D02*
Y867500D01*
Y822500D02*
X607500D01*
Y867500D01*
X562500D02*
X607500D01*
X-487650Y255900D02*
X-392350D01*
X-487650D02*
Y304100D01*
X-392350D01*
Y255900D02*
Y304100D01*
X884100Y497350D02*
Y592650D01*
X835900Y497350D02*
X884100D01*
X835900D02*
Y592650D01*
X884100D01*
X675900Y537350D02*
Y632650D01*
X724100D01*
Y537350D02*
Y632650D01*
X675900Y537350D02*
X724100D01*
X406950Y869100D02*
X502250D01*
Y820900D02*
Y869100D01*
X406950Y820900D02*
X502250D01*
X406950D02*
Y869100D01*
X339100Y396950D02*
Y492250D01*
X290900Y396950D02*
X339100D01*
X290900D02*
Y492250D01*
X339100D01*
X190900Y561950D02*
Y657250D01*
X239100D01*
Y561950D02*
Y657250D01*
X190900Y561950D02*
X239100D01*
X290900Y517350D02*
Y612650D01*
X339100D01*
Y517350D02*
Y612650D01*
X290900Y517350D02*
X339100D01*
X285900Y647350D02*
Y742650D01*
X334100D01*
Y647350D02*
Y742650D01*
X285900Y647350D02*
X334100D01*
X332108Y802500D02*
X377107D01*
Y847500D01*
X332108D02*
X377107D01*
X332108Y802500D02*
Y847500D01*
X37500Y827500D02*
Y872500D01*
X-7500D02*
X37500D01*
X-7500Y827500D02*
Y872500D01*
Y827500D02*
X37500D01*
X-132500D02*
Y872500D01*
Y827500D02*
X-87500D01*
Y872500D01*
X-132500D02*
X-87500D01*
X-512650Y964100D02*
X-417350D01*
Y915900D02*
Y964100D01*
X-512650Y915900D02*
X-417350D01*
X-512650D02*
Y964100D01*
X865900Y317250D02*
X914100D01*
X865900Y221950D02*
Y317250D01*
Y221950D02*
X914100D01*
Y317250D01*
X742350Y215900D02*
Y264100D01*
Y215900D02*
X837650D01*
Y264100D01*
X742350D02*
X837650D01*
X655900Y397350D02*
X704100D01*
Y492650D01*
X655900D02*
X704100D01*
X655900Y397350D02*
Y492650D01*
X782350Y825900D02*
Y874100D01*
Y825900D02*
X877650D01*
Y874100D01*
X782350D02*
X877650D01*
X-294100Y526950D02*
X-245900D01*
Y622250D01*
X-294100D02*
X-245900D01*
X-294100Y526950D02*
Y622250D01*
Y732650D02*
X-245900D01*
X-294100Y637350D02*
Y732650D01*
Y637350D02*
X-245900D01*
Y732650D01*
X-367350Y630900D02*
Y679100D01*
X-462650D02*
X-367350D01*
X-462650Y630900D02*
Y679100D01*
Y630900D02*
X-367350D01*
X-377750Y185900D02*
Y234100D01*
X-473050D02*
X-377750D01*
X-473050Y185900D02*
Y234100D01*
Y185900D02*
X-377750D01*
X-512250Y720900D02*
Y769100D01*
Y720900D02*
X-416950D01*
Y769100D01*
X-512250D02*
X-416950D01*
D13*
X-118000Y584000D02*
X-102000D01*
Y616000D01*
X-118000D02*
X-102000D01*
X-118000Y584000D02*
Y616000D01*
X1027250Y730500D02*
X1042750D01*
X1027250Y699500D02*
Y730500D01*
Y699500D02*
X1042750D01*
Y730500D01*
X62000Y641000D02*
X78000D01*
X62000Y609000D02*
Y641000D01*
Y609000D02*
X78000D01*
Y641000D01*
X-187100Y241000D02*
X-181500Y246600D01*
Y241000D02*
Y259000D01*
X-208500D02*
X-181500D01*
X-208500Y241000D02*
Y259000D01*
Y241000D02*
X-181500D01*
X-438000Y364000D02*
X-422000D01*
Y396000D01*
X-438000D02*
X-422000D01*
X-438000Y364000D02*
Y396000D01*
X-379000Y572000D02*
Y588000D01*
X-411000D02*
X-379000D01*
X-411000Y572000D02*
Y588000D01*
Y572000D02*
X-379000D01*
X2000Y719000D02*
X18000D01*
Y751000D01*
X2000D02*
X18000D01*
X2000Y719000D02*
Y751000D01*
X145500Y652250D02*
Y667750D01*
X114500D02*
X145500D01*
X114500Y652250D02*
Y667750D01*
Y652250D02*
X145500D01*
X972000Y379000D02*
X988000D01*
Y411000D01*
X972000D02*
X988000D01*
X972000Y379000D02*
Y411000D01*
X574250Y887000D02*
Y903000D01*
Y887000D02*
X605750D01*
Y903000D01*
X574250D02*
X605750D01*
X702000Y974000D02*
X718000D01*
Y1006000D01*
X702000D02*
X718000D01*
X702000Y974000D02*
Y1006000D01*
X537000Y944000D02*
X553000D01*
Y976000D01*
X537000D02*
X553000D01*
X537000Y944000D02*
Y976000D01*
X1101800Y419500D02*
X1114500Y406800D01*
X1065500Y419500D02*
X1114500D01*
X1065500Y380500D02*
Y419500D01*
Y380500D02*
X1114500D01*
Y419500D01*
X767000Y756000D02*
X783000D01*
X767000Y724000D02*
Y756000D01*
Y724000D02*
X783000D01*
Y756000D01*
X532000Y239000D02*
X548000D01*
Y271000D01*
X532000D02*
X548000D01*
X532000Y239000D02*
Y271000D01*
X367000Y264000D02*
X383000D01*
Y296000D01*
X367000D02*
X383000D01*
X367000Y264000D02*
Y296000D01*
X612000Y689000D02*
X628000D01*
Y721000D01*
X612000D02*
X628000D01*
X612000Y689000D02*
Y721000D01*
X964500Y692250D02*
Y707750D01*
Y692250D02*
X995500D01*
Y707750D01*
X964500D02*
X995500D01*
X922000Y756000D02*
X938000D01*
X922000Y724000D02*
Y756000D01*
Y724000D02*
X938000D01*
Y756000D01*
X442000Y674000D02*
X458000D01*
Y706000D01*
X442000D02*
X458000D01*
X442000Y674000D02*
Y706000D01*
X616000Y472000D02*
Y488000D01*
X584000D02*
X616000D01*
X584000Y472000D02*
Y488000D01*
Y472000D02*
X616000D01*
X584500Y592250D02*
Y607750D01*
Y592250D02*
X615500D01*
Y607750D01*
X584500D02*
X615500D01*
X605500Y302250D02*
Y317750D01*
X574500D02*
X605500D01*
X574500Y302250D02*
Y317750D01*
Y302250D02*
X605500D01*
X845850Y186300D02*
X894150D01*
Y113700D02*
Y186300D01*
X845850Y113700D02*
X894150D01*
X845850D02*
Y186300D01*
X1035500Y477250D02*
Y492750D01*
X1004500D02*
X1035500D01*
X1004500Y477250D02*
Y492750D01*
Y477250D02*
X1035500D01*
X914250Y607000D02*
Y623000D01*
Y607000D02*
X945750D01*
Y623000D01*
X914250D02*
X945750D01*
X1005500Y647250D02*
Y662750D01*
X974500D02*
X1005500D01*
X974500Y647250D02*
Y662750D01*
Y647250D02*
X1005500D01*
X1029500D02*
Y662750D01*
Y647250D02*
X1060500D01*
Y662750D01*
X1029500D02*
X1060500D01*
X1120500Y482250D02*
Y497750D01*
X1089500D02*
X1120500D01*
X1089500Y482250D02*
Y497750D01*
Y482250D02*
X1120500D01*
X1097250Y639500D02*
X1112750D01*
Y670500D01*
X1097250D02*
X1112750D01*
X1097250Y639500D02*
Y670500D01*
X1014500Y317250D02*
Y332750D01*
Y317250D02*
X1045500D01*
Y332750D01*
X1014500D02*
X1045500D01*
X1022250Y400500D02*
X1037750D01*
X1022250Y369500D02*
Y400500D01*
Y369500D02*
X1037750D01*
Y400500D01*
X944500Y287250D02*
Y302750D01*
Y287250D02*
X975500D01*
Y302750D01*
X944500D02*
X975500D01*
X473800Y219000D02*
X486500Y231700D01*
Y219000D02*
Y321000D01*
X433500D02*
X486500D01*
X433500Y219000D02*
Y321000D01*
Y219000D02*
X486500D01*
X644500Y257250D02*
Y272750D01*
Y257250D02*
X675500D01*
Y272750D01*
X644500D02*
X675500D01*
X414500Y347250D02*
Y362750D01*
Y347250D02*
X445500D01*
Y362750D01*
X414500D02*
X445500D01*
X344500Y337250D02*
Y352750D01*
Y337250D02*
X375500D01*
Y352750D01*
X344500D02*
X375500D01*
X525500Y347250D02*
Y362750D01*
X494500D02*
X525500D01*
X494500Y347250D02*
Y362750D01*
Y347250D02*
X525500D01*
X380500Y222250D02*
Y237750D01*
X349500D02*
X380500D01*
X349500Y222250D02*
Y237750D01*
Y222250D02*
X380500D01*
X605500Y212250D02*
Y227750D01*
X574500D02*
X605500D01*
X574500Y212250D02*
Y227750D01*
Y212250D02*
X605500D01*
X707250Y305500D02*
X722750D01*
X707250Y274500D02*
Y305500D01*
Y274500D02*
X722750D01*
Y305500D01*
X574500Y257250D02*
Y272750D01*
Y257250D02*
X605500D01*
Y272750D01*
X574500D02*
X605500D01*
X644500Y212250D02*
Y227750D01*
Y212250D02*
X675500D01*
Y227750D01*
X644500D02*
X675500D01*
X574000Y342250D02*
Y357750D01*
Y342250D02*
X605000D01*
Y357750D01*
X574000D02*
X605000D01*
X414000Y777000D02*
Y793000D01*
Y777000D02*
X446000D01*
Y793000D01*
X414000D02*
X446000D01*
X227000Y774000D02*
Y806000D01*
X243000D01*
Y774000D02*
Y806000D01*
X227000Y774000D02*
X243000D01*
X193620Y770500D02*
X203120Y780000D01*
Y770500D02*
Y799500D01*
X186880D02*
X203120D01*
X186880Y770500D02*
Y799500D01*
Y770500D02*
X203120D01*
X369500Y732250D02*
Y747750D01*
Y732250D02*
X400500D01*
Y747750D01*
X369500D02*
X400500D01*
X509500Y582250D02*
Y597750D01*
Y582250D02*
X540500D01*
Y597750D01*
X509500D02*
X540500D01*
X470750Y582000D02*
Y598000D01*
X439250D02*
X470750D01*
X439250Y582000D02*
Y598000D01*
Y582000D02*
X470750D01*
X508500Y733300D02*
X521200Y746000D01*
X508500Y644000D02*
Y746000D01*
Y644000D02*
X561500D01*
Y746000D01*
X508500D02*
X561500D01*
X659250Y662000D02*
Y678000D01*
Y662000D02*
X690750D01*
Y678000D01*
X659250D02*
X690750D01*
X649250Y787000D02*
Y803000D01*
Y787000D02*
X680750D01*
Y803000D01*
X649250D02*
X680750D01*
X659500Y737250D02*
Y752750D01*
Y737250D02*
X690500D01*
Y752750D01*
X659500D02*
X690500D01*
X489000Y777000D02*
Y793000D01*
Y777000D02*
X521000D01*
Y793000D01*
X489000D02*
X521000D01*
X569000Y777000D02*
Y793000D01*
Y777000D02*
X601000D01*
Y793000D01*
X569000D02*
X601000D01*
X179000Y812000D02*
Y828000D01*
Y812000D02*
X211000D01*
Y828000D01*
X179000D02*
X211000D01*
X369500Y567250D02*
Y582750D01*
Y567250D02*
X400500D01*
Y582750D01*
X369500D02*
X400500D01*
Y682250D02*
Y697750D01*
X369500D02*
X400500D01*
X369500Y682250D02*
Y697750D01*
Y682250D02*
X400500D01*
X369250Y622000D02*
Y638000D01*
Y622000D02*
X400750D01*
Y638000D01*
X369250D02*
X400750D01*
X439500Y387250D02*
Y402750D01*
Y387250D02*
X470500D01*
Y402750D01*
X439500D02*
X470500D01*
X374250Y387000D02*
Y403000D01*
Y387000D02*
X405750D01*
Y403000D01*
X374250D02*
X405750D01*
X463500Y518300D02*
X476200Y531000D01*
X463500Y429000D02*
Y531000D01*
Y429000D02*
X516500D01*
Y531000D01*
X463500D02*
X516500D01*
X584500Y427250D02*
Y442750D01*
Y427250D02*
X615500D01*
Y442750D01*
X584500D02*
X615500D01*
Y552250D02*
Y567750D01*
X584500D02*
X615500D01*
X584500Y552250D02*
Y567750D01*
Y552250D02*
X615500D01*
Y512250D02*
Y527750D01*
X584500D02*
X615500D01*
X584500Y512250D02*
Y527750D01*
Y512250D02*
X615500D01*
Y387250D02*
Y402750D01*
X584500D02*
X615500D01*
X584500Y387250D02*
Y402750D01*
Y387250D02*
X615500D01*
X374500Y432250D02*
Y447750D01*
Y432250D02*
X405500D01*
Y447750D01*
X374500D02*
X405500D01*
X374500Y512250D02*
Y527750D01*
Y512250D02*
X405500D01*
Y527750D01*
X374500D02*
X405500D01*
X545750Y387000D02*
Y403000D01*
X514250D02*
X545750D01*
X514250Y387000D02*
Y403000D01*
Y387000D02*
X545750D01*
X219000Y311247D02*
Y327247D01*
Y311247D02*
X251000D01*
Y327247D01*
X219000D02*
X251000D01*
X182000Y295247D02*
X198000D01*
X182000Y263248D02*
Y295247D01*
Y263248D02*
X198000D01*
Y295247D01*
X226880Y284247D02*
X236380Y293747D01*
X226880Y264747D02*
Y293747D01*
Y264747D02*
X243120D01*
Y293747D01*
X226880D02*
X243120D01*
X297250Y284500D02*
X312750D01*
Y315500D01*
X297250D02*
X312750D01*
X297250Y284500D02*
Y315500D01*
X310750Y231247D02*
Y247247D01*
X279250D02*
X310750D01*
X279250Y231247D02*
Y247247D01*
Y231247D02*
X310750D01*
X1072250Y699500D02*
X1087750D01*
Y730500D01*
X1072250D02*
X1087750D01*
X1072250Y699500D02*
Y730500D01*
X-92100Y201000D02*
X-86500Y206600D01*
Y201000D02*
Y219000D01*
X-113500D02*
X-86500D01*
X-113500Y201000D02*
Y219000D01*
Y201000D02*
X-86500D01*
X-37100D02*
X-31500Y206600D01*
Y201000D02*
Y219000D01*
X-58500D02*
X-31500D01*
X-58500Y201000D02*
Y219000D01*
Y201000D02*
X-31500D01*
X26500Y253400D02*
X32100Y259000D01*
X26500Y241000D02*
Y259000D01*
Y241000D02*
X53500D01*
Y259000D01*
X26500D02*
X53500D01*
X-28500Y253400D02*
X-22900Y259000D01*
X-28500Y241000D02*
Y259000D01*
Y241000D02*
X-1500D01*
Y259000D01*
X-28500D02*
X-1500D01*
X-144250Y202000D02*
Y218000D01*
X-175750D02*
X-144250D01*
X-175750Y202000D02*
Y218000D01*
Y202000D02*
X-144250D01*
X-204250D02*
Y218000D01*
X-235750D02*
X-204250D01*
X-235750Y202000D02*
Y218000D01*
Y202000D02*
X-204250D01*
X-332100Y201000D02*
X-326500Y206600D01*
Y201000D02*
Y219000D01*
X-353500D02*
X-326500D01*
X-353500Y201000D02*
Y219000D01*
Y201000D02*
X-326500D01*
X-119000Y242000D02*
Y258000D01*
X-151000D02*
X-119000D01*
X-151000Y242000D02*
Y258000D01*
Y242000D02*
X-119000D01*
X-196000Y387150D02*
X-189650Y393500D01*
X-196000Y343500D02*
Y393500D01*
Y343500D02*
X6000D01*
Y393500D01*
X-196000D02*
X6000D01*
X-268500Y259000D02*
X-241500D01*
Y241000D02*
Y259000D01*
X-268500Y241000D02*
X-241500D01*
X-268500D02*
Y259000D01*
Y253400D02*
X-262900Y259000D01*
X-293500Y219000D02*
X-266500D01*
Y201000D02*
Y219000D01*
X-293500Y201000D02*
X-266500D01*
X-293500D02*
Y219000D01*
Y213400D02*
X-287900Y219000D01*
X744500Y382250D02*
X775500D01*
X744500D02*
Y397750D01*
X775500D01*
Y382250D02*
Y397750D01*
X1014500Y267750D02*
X1045500D01*
Y252250D02*
Y267750D01*
X1014500Y252250D02*
X1045500D01*
X1014500D02*
Y267750D01*
X968000Y199250D02*
Y230750D01*
X952000Y199250D02*
X968000D01*
X952000D02*
Y230750D01*
X968000D01*
X779250Y297000D02*
X810750D01*
X779250D02*
Y313000D01*
X810750D01*
Y297000D02*
Y313000D01*
X744500Y337250D02*
X775500D01*
X744500D02*
Y352750D01*
X775500D01*
Y337250D02*
Y352750D01*
X744500Y427250D02*
X775500D01*
X744500D02*
Y442750D01*
X775500D01*
Y427250D02*
Y442750D01*
X717000Y88500D02*
Y161500D01*
X783000D01*
Y88500D02*
Y161500D01*
X717000Y88500D02*
X783000D01*
X669000Y147000D02*
X701000D01*
X669000D02*
Y163000D01*
X701000D01*
Y147000D02*
Y163000D01*
X669000Y103000D02*
X701000D01*
Y87000D02*
Y103000D01*
X669000Y87000D02*
X701000D01*
X669000D02*
Y103000D01*
X647000Y139500D02*
X663000D01*
Y110500D02*
Y139500D01*
X647000Y110500D02*
X663000D01*
X647000D02*
Y139500D01*
Y130000D02*
X656500Y139500D01*
X669000Y73000D02*
X701000D01*
Y57000D02*
Y73000D01*
X669000Y57000D02*
X701000D01*
X669000D02*
Y73000D01*
X914500Y587750D02*
X945500D01*
Y572250D02*
Y587750D01*
X914500Y572250D02*
X945500D01*
X914500D02*
Y587750D01*
X914250Y663000D02*
X945750D01*
Y647000D02*
Y663000D01*
X914250Y647000D02*
X945750D01*
X914250D02*
Y663000D01*
X1032750Y769500D02*
Y800500D01*
X1017250Y769500D02*
X1032750D01*
X1017250D02*
Y800500D01*
X1032750D01*
X1077750Y769500D02*
Y800500D01*
X1062250Y769500D02*
X1077750D01*
X1062250D02*
Y800500D01*
X1077750D01*
X987750Y739500D02*
Y770500D01*
X972250Y739500D02*
X987750D01*
X972250D02*
Y770500D01*
X987750D01*
X823500Y796000D02*
X876500D01*
Y694000D02*
Y796000D01*
X823500Y694000D02*
X876500D01*
X823500D02*
Y796000D01*
Y783300D02*
X836200Y796000D01*
X742750Y794500D02*
Y825500D01*
X727250Y794500D02*
X742750D01*
X727250D02*
Y825500D01*
X742750D01*
X697750Y849500D02*
Y880500D01*
X682250Y849500D02*
X697750D01*
X682250D02*
Y880500D01*
X697750D01*
X777750Y624500D02*
Y655500D01*
X762250Y624500D02*
X777750D01*
X762250D02*
Y655500D01*
X777750D01*
X807000Y624250D02*
Y655750D01*
X823000D01*
Y624250D02*
Y655750D01*
X807000Y624250D02*
X823000D01*
X742750Y849500D02*
Y880500D01*
X727250Y849500D02*
X742750D01*
X727250D02*
Y880500D01*
X742750D01*
X1024120Y619100D02*
X1077120D01*
Y517100D02*
Y619100D01*
X1024120Y517100D02*
X1077120D01*
X1024120D02*
Y619100D01*
Y606400D02*
X1036820Y619100D01*
X929500Y797250D02*
X960500D01*
X929500D02*
Y812750D01*
X960500D01*
Y797250D02*
Y812750D01*
X1014500Y832250D02*
X1045500D01*
X1014500D02*
Y847750D01*
X1045500D01*
Y832250D02*
Y847750D01*
X924500Y847250D02*
X955500D01*
X924500D02*
Y862750D01*
X955500D01*
Y847250D02*
Y862750D01*
X848500Y1006000D02*
X901500D01*
Y904000D02*
Y1006000D01*
X848500Y904000D02*
X901500D01*
X848500D02*
Y1006000D01*
Y993300D02*
X861200Y1006000D01*
X709500Y1042250D02*
X740500D01*
X709500D02*
Y1057750D01*
X740500D01*
Y1042250D02*
Y1057750D01*
X737250Y919500D02*
Y950500D01*
X752750D01*
Y919500D02*
Y950500D01*
X737250Y919500D02*
X752750D01*
X529250Y1037000D02*
X560750D01*
X529250D02*
Y1053000D01*
X560750D01*
Y1037000D02*
Y1053000D01*
X754500Y1017750D02*
X785500D01*
Y1002250D02*
Y1017750D01*
X754500Y1002250D02*
X785500D01*
X754500D02*
Y1017750D01*
X527000Y889250D02*
Y920750D01*
X543000D01*
Y889250D02*
Y920750D01*
X527000Y889250D02*
X543000D01*
X529250Y997000D02*
X560750D01*
X529250D02*
Y1013000D01*
X560750D01*
Y997000D02*
Y1013000D01*
X608500Y1036000D02*
X661500D01*
Y934000D02*
Y1036000D01*
X608500Y934000D02*
X661500D01*
X608500D02*
Y1036000D01*
Y1023300D02*
X621200Y1036000D01*
X754500Y547750D02*
X785500D01*
Y532250D02*
Y547750D01*
X754500Y532250D02*
X785500D01*
X754500D02*
Y547750D01*
X744500Y477250D02*
X775500D01*
X744500D02*
Y492750D01*
X775500D01*
Y477250D02*
Y492750D01*
X29500Y537750D02*
X60500D01*
Y522250D02*
Y537750D01*
X29500Y522250D02*
X60500D01*
X29500D02*
Y537750D01*
X-35500Y522250D02*
X-4500D01*
X-35500D02*
Y537750D01*
X-4500D01*
Y522250D02*
Y537750D01*
X-200500Y642750D02*
X-169500D01*
Y627250D02*
Y642750D01*
X-200500Y627250D02*
X-169500D01*
X-200500D02*
Y642750D01*
X-120500Y537750D02*
X-89500D01*
Y522250D02*
Y537750D01*
X-120500Y522250D02*
X-89500D01*
X-120500D02*
Y537750D01*
X-200750Y588000D02*
X-169250D01*
Y572000D02*
Y588000D01*
X-200750Y572000D02*
X-169250D01*
X-200750D02*
Y588000D01*
X-200500Y677250D02*
X-169500D01*
X-200500D02*
Y692750D01*
X-169500D01*
Y677250D02*
Y692750D01*
X114500Y627750D02*
X145500D01*
Y612250D02*
Y627750D01*
X114500Y612250D02*
X145500D01*
X114500D02*
Y627750D01*
Y537750D02*
X145500D01*
Y522250D02*
Y537750D01*
X114500Y522250D02*
X145500D01*
X114500D02*
Y537750D01*
Y587750D02*
X145500D01*
Y572250D02*
Y587750D01*
X114500Y572250D02*
X145500D01*
X114500D02*
Y587750D01*
X-91500Y798707D02*
X-38500D01*
Y696708D02*
Y798707D01*
X-91500Y696708D02*
X-38500D01*
X-91500D02*
Y798707D01*
Y786007D02*
X-78800Y798707D01*
X-46500Y666000D02*
X6500D01*
Y564000D02*
Y666000D01*
X-46500Y564000D02*
X6500D01*
X-46500D02*
Y666000D01*
Y653300D02*
X-33800Y666000D01*
X44000Y792750D02*
X75000D01*
Y777250D02*
Y792750D01*
X44000Y777250D02*
X75000D01*
X44000D02*
Y792750D01*
X114250Y778000D02*
X145750D01*
Y762000D02*
Y778000D01*
X114250Y762000D02*
X145750D01*
X114250D02*
Y778000D01*
Y723000D02*
X145750D01*
Y707000D02*
Y723000D01*
X114250Y707000D02*
X145750D01*
X114250D02*
Y723000D01*
X44250Y758000D02*
X75750D01*
Y742000D02*
Y758000D01*
X44250Y742000D02*
X75750D01*
X44250D02*
Y758000D01*
X-301000Y793000D02*
X-269000D01*
Y777000D02*
Y793000D01*
X-301000Y777000D02*
X-269000D01*
X-301000D02*
Y793000D01*
X44500Y712250D02*
X75500D01*
X44500D02*
Y727750D01*
X75500D01*
Y712250D02*
Y727750D01*
X-220500Y757750D02*
X-189500D01*
Y742250D02*
Y757750D01*
X-220500Y742250D02*
X-189500D01*
X-220500D02*
Y757750D01*
X-230500Y892750D02*
X-199500D01*
Y877250D02*
Y892750D01*
X-230500Y877250D02*
X-199500D01*
X-230500D02*
Y892750D01*
X-230750Y813000D02*
X-199250D01*
Y797000D02*
Y813000D01*
X-230750Y797000D02*
X-199250D01*
X-230750D02*
Y813000D01*
X-306000Y848000D02*
X-274000D01*
Y832000D02*
Y848000D01*
X-306000Y832000D02*
X-274000D01*
X-306000D02*
Y848000D01*
Y903000D02*
X-274000D01*
Y887000D02*
Y903000D01*
X-306000Y887000D02*
X-274000D01*
X-306000D02*
Y903000D01*
X-230500Y852750D02*
X-199500D01*
Y837250D02*
Y852750D01*
X-230500Y837250D02*
X-199500D01*
X-230500D02*
Y852750D01*
X-640750Y298000D02*
X-609250D01*
Y282000D02*
Y298000D01*
X-640750Y282000D02*
X-609250D01*
X-640750D02*
Y298000D01*
X-461000Y463500D02*
Y516500D01*
X-359000D01*
Y463500D02*
Y516500D01*
X-461000Y463500D02*
X-359000D01*
X-461000Y476200D02*
X-448300Y463500D01*
X-530750Y173000D02*
X-499250D01*
Y157000D02*
Y173000D01*
X-530750Y157000D02*
X-499250D01*
X-530750D02*
Y173000D01*
X-535500Y227750D02*
X-504500D01*
Y212250D02*
Y227750D01*
X-535500Y212250D02*
X-504500D01*
X-535500D02*
Y227750D01*
X-605500Y237250D02*
X-574500D01*
X-605500D02*
Y252750D01*
X-574500D01*
Y237250D02*
Y252750D01*
X-565500Y297750D02*
X-534500D01*
Y282250D02*
Y297750D01*
X-565500Y282250D02*
X-534500D01*
X-565500D02*
Y297750D01*
X-510500Y342250D02*
X-479500D01*
X-510500D02*
Y357750D01*
X-479500D01*
Y342250D02*
Y357750D01*
X-580750Y358000D02*
X-549250D01*
Y342000D02*
Y358000D01*
X-580750Y342000D02*
X-549250D01*
X-580750D02*
Y358000D01*
X-650750Y342000D02*
X-619250D01*
X-650750D02*
Y358000D01*
X-619250D01*
Y342000D02*
Y358000D01*
X-510750Y413000D02*
X-479250D01*
Y397000D02*
Y413000D01*
X-510750Y397000D02*
X-479250D01*
X-510750D02*
Y413000D01*
X-525750Y558000D02*
X-494250D01*
Y542000D02*
Y558000D01*
X-525750Y542000D02*
X-494250D01*
X-525750D02*
Y558000D01*
Y603000D02*
X-494250D01*
Y587000D02*
Y603000D01*
X-525750Y587000D02*
X-494250D01*
X-525750D02*
Y603000D01*
X-630750Y817000D02*
X-599250D01*
X-630750D02*
Y833000D01*
X-599250D01*
Y817000D02*
Y833000D01*
X-665750Y733000D02*
X-634250D01*
Y717000D02*
Y733000D01*
X-665750Y717000D02*
X-634250D01*
X-665750D02*
Y733000D01*
X-590750Y783000D02*
X-559250D01*
Y767000D02*
Y783000D01*
X-590750Y767000D02*
X-559250D01*
X-590750D02*
Y783000D01*
X-665750D02*
X-634250D01*
Y767000D02*
Y783000D01*
X-665750Y767000D02*
X-634250D01*
X-665750D02*
Y783000D01*
X-590750Y733000D02*
X-559250D01*
Y717000D02*
Y733000D01*
X-590750Y717000D02*
X-559250D01*
X-590750D02*
Y733000D01*
X-496500Y789000D02*
X-443500D01*
X-496500D02*
Y891000D01*
X-443500D01*
Y789000D02*
Y891000D01*
X-456200Y789000D02*
X-443500Y801700D01*
X-525750Y688000D02*
X-494250D01*
Y672000D02*
Y688000D01*
X-525750Y672000D02*
X-494250D01*
X-525750D02*
Y688000D01*
X-525500Y647750D02*
X-494500D01*
Y632250D02*
Y647750D01*
X-525500Y632250D02*
X-494500D01*
X-525500D02*
Y647750D01*
X-153000Y719000D02*
Y751000D01*
X-137000D01*
Y719000D02*
Y751000D01*
X-153000Y719000D02*
X-137000D01*
X94500Y827750D02*
X125500D01*
Y812250D02*
Y827750D01*
X94500Y812250D02*
X125500D01*
X94500D02*
Y827750D01*
X374000Y488000D02*
X406000D01*
Y472000D02*
Y488000D01*
X374000Y472000D02*
X406000D01*
X374000D02*
Y488000D01*
X-91000Y258000D02*
X-59000D01*
Y242000D02*
Y258000D01*
X-91000Y242000D02*
X-59000D01*
X-91000D02*
Y258000D01*
X-200750Y522000D02*
X-169250D01*
X-200750D02*
Y538000D01*
X-169250D01*
Y522000D02*
Y538000D01*
X-573000Y864000D02*
Y896000D01*
X-557000D01*
Y864000D02*
Y896000D01*
X-573000Y864000D02*
X-557000D01*
X-362000Y849000D02*
Y881000D01*
X-378000Y849000D02*
X-362000D01*
X-378000D02*
Y881000D01*
X-362000D01*
X644500Y317750D02*
X675500D01*
Y302250D02*
Y317750D01*
X644500Y302250D02*
X675500D01*
X644500D02*
Y317750D01*
Y342250D02*
X675500D01*
X644500D02*
Y357750D01*
X675500D01*
Y342250D02*
Y357750D01*
X1122000Y549000D02*
Y581000D01*
X1138000D01*
Y549000D02*
Y581000D01*
X1122000Y549000D02*
X1138000D01*
X942000Y514000D02*
Y546000D01*
X958000D01*
Y514000D02*
Y546000D01*
X942000Y514000D02*
X958000D01*
X957000Y909000D02*
Y941000D01*
X973000D01*
Y909000D02*
Y941000D01*
X957000Y909000D02*
X973000D01*
X782000Y924000D02*
Y956000D01*
X798000D01*
Y924000D02*
Y956000D01*
X782000Y924000D02*
X798000D01*
X857250Y624500D02*
Y655500D01*
X872750D01*
Y624500D02*
Y655500D01*
X857250Y624500D02*
X872750D01*
X869120Y456000D02*
X922120D01*
Y354000D02*
Y456000D01*
X869120Y354000D02*
X922120D01*
X869120D02*
Y456000D01*
Y443300D02*
X881820Y456000D01*
X807000Y394000D02*
Y426000D01*
X823000D01*
Y394000D02*
Y426000D01*
X807000Y394000D02*
X823000D01*
D14*
X639398Y1056110D02*
Y1073890D01*
Y1056110D02*
X647018D01*
X639398Y1073890D02*
X647018D01*
X620602Y1056110D02*
Y1073890D01*
X612982D02*
X620602D01*
X612982Y1056110D02*
X620602D01*
Y1073890D02*
X639398D01*
X612982Y1056110D02*
Y1073890D01*
X620602Y1056110D02*
X639398D01*
X647018D02*
Y1073890D01*
D72*
X-0Y1085000D02*
G03*
X-15000Y1100000I-15000J0D01*
G01*
X-220000Y1100000D02*
G03*
X-220000Y-0I3991J-550000D01*
G01*
X-9997Y-0D02*
G03*
X-0Y10000I1J9995D01*
G01*
X15069Y195000D02*
G03*
X0Y180034I2414J-17500D01*
G01*
X500000Y179999D02*
G03*
X485001Y195000I-17500J-2498D01*
G01*
X500000Y10000D02*
G03*
X510000Y-0I9999J-1D01*
G01*
X685000Y-0D02*
G03*
X685000Y1100000I-22245J550000D01*
G01*
X504000Y1100000D02*
G03*
X500000Y1096000I0J-4000D01*
G01*
X485000Y905000D02*
G03*
X500000Y920000I-2500J17500D01*
G01*
X0Y920000D02*
G03*
X15000Y905000I15000J-0D01*
G01*
X-220000Y1100000D02*
X-15000Y1100000D01*
X-220000Y-0D02*
X-9997Y-0D01*
X0Y10000D02*
Y180034D01*
X15069Y195000D02*
X485001Y195000D01*
X500000Y179999D02*
X500000Y10000D01*
X510000Y-0D02*
X685000Y-0D01*
X504000Y1100000D02*
X685000Y1100000D01*
X500000Y920000D02*
Y1096000D01*
X15000Y905000D02*
X485000D01*
X-0Y1085000D02*
X0Y920000D01*
M02*
